%TF.GenerationSoftware,KiCad,Pcbnew,6.0.11+dfsg-1~bpo11+1*%
%TF.CreationDate,2023-04-14T13:04:02+02:00*%
%TF.ProjectId,IR-diode-general,49522d64-696f-4646-952d-67656e657261,rev?*%
%TF.SameCoordinates,Original*%
%TF.FileFunction,Other,User*%
%FSLAX46Y46*%
G04 Gerber Fmt 4.6, Leading zero omitted, Abs format (unit mm)*
G04 Created by KiCad (PCBNEW 6.0.11+dfsg-1~bpo11+1) date 2023-04-14 13:04:02 commit 5e22265*
%MOMM*%
%LPD*%
G01*
G04 APERTURE LIST*
%TA.AperFunction,Profile*%
%ADD10C,0.100000*%
%TD*%
%ADD11C,0.050000*%
G04 APERTURE END LIST*
D10*
X85000000Y-40500000D02*
X165000000Y-40500000D01*
X165000000Y-40500000D02*
X165000000Y-61000000D01*
X165000000Y-61000000D02*
X85000000Y-61000000D01*
X85000000Y-61000000D02*
X85000000Y-40500000D01*
D11*
%TO.C,C13*%
X93920000Y-52110000D02*
X92980000Y-52110000D01*
X92980000Y-52110000D02*
X92980000Y-53990000D01*
X92980000Y-53990000D02*
X93920000Y-53990000D01*
X93920000Y-53990000D02*
X93920000Y-52110000D01*
%TO.C,R12*%
X95620000Y-57065000D02*
X96580000Y-57065000D01*
X96580000Y-57065000D02*
X96580000Y-55165000D01*
X96580000Y-55165000D02*
X95620000Y-55165000D01*
X95620000Y-55165000D02*
X95620000Y-57065000D01*
%TO.C,J1*%
X153300000Y-54100000D02*
X152400000Y-54100000D01*
X153300000Y-51500000D02*
X153300000Y-54100000D01*
X154400000Y-51500000D02*
X153300000Y-51500000D01*
X154400000Y-50500000D02*
X154400000Y-51500000D01*
X158900000Y-51500000D02*
X158900000Y-50500000D01*
X168000000Y-51500000D02*
X158900000Y-51500000D01*
X153300000Y-61700000D02*
X168000000Y-61700000D01*
X152400000Y-54100000D02*
X152400000Y-59100000D01*
X158900000Y-50500000D02*
X154400000Y-50500000D01*
X153300000Y-59100000D02*
X153300000Y-61700000D01*
X152400000Y-59100000D02*
X153300000Y-59100000D01*
X168000000Y-61700000D02*
X168000000Y-51500000D01*
%TO.C,J2*%
X92759645Y-50550000D02*
X83559645Y-50550000D01*
X83559645Y-50550000D02*
X83559645Y-61150000D01*
X83559645Y-61150000D02*
X92759645Y-61150000D01*
X92759645Y-61150000D02*
X92759645Y-50550000D01*
%TO.C,R11*%
X158250000Y-45750000D02*
X153750000Y-45750000D01*
X153750000Y-45750000D02*
X153750000Y-43650000D01*
X153750000Y-43650000D02*
X158250000Y-43650000D01*
X158250000Y-43650000D02*
X158250000Y-45750000D01*
%TO.C,R13*%
X94370000Y-57065000D02*
X95330000Y-57065000D01*
X95330000Y-57065000D02*
X95330000Y-55165000D01*
X95330000Y-55165000D02*
X94370000Y-55165000D01*
X94370000Y-55165000D02*
X94370000Y-57065000D01*
%TO.C,C12*%
X92780000Y-59640000D02*
X93720000Y-59640000D01*
X93720000Y-59640000D02*
X93720000Y-57760000D01*
X93720000Y-57760000D02*
X92780000Y-57760000D01*
X92780000Y-57760000D02*
X92780000Y-59640000D01*
%TO.C,R6*%
X96580000Y-57400000D02*
X95620000Y-57400000D01*
X95620000Y-57400000D02*
X95620000Y-59300000D01*
X95620000Y-59300000D02*
X96580000Y-59300000D01*
X96580000Y-59300000D02*
X96580000Y-57400000D01*
%TO.C,R10*%
X158250000Y-43300000D02*
X153750000Y-43300000D01*
X153750000Y-43300000D02*
X153750000Y-41200000D01*
X153750000Y-41200000D02*
X158250000Y-41200000D01*
X158250000Y-41200000D02*
X158250000Y-43300000D01*
%TO.C,R14*%
X94370000Y-59215000D02*
X95330000Y-59215000D01*
X95330000Y-59215000D02*
X95330000Y-57315000D01*
X95330000Y-57315000D02*
X94370000Y-57315000D01*
X94370000Y-57315000D02*
X94370000Y-59215000D01*
%TD*%
M02*
