%TF.GenerationSoftware,KiCad,Pcbnew,6.0.11+dfsg-1~bpo11+1*%
%TF.CreationDate,2023-04-14T13:04:02+02:00*%
%TF.ProjectId,IR-diode-general,49522d64-696f-4646-952d-67656e657261,rev?*%
%TF.SameCoordinates,Original*%
%TF.FileFunction,Other,User*%
%FSLAX46Y46*%
G04 Gerber Fmt 4.6, Leading zero omitted, Abs format (unit mm)*
G04 Created by KiCad (PCBNEW 6.0.11+dfsg-1~bpo11+1) date 2023-04-14 13:04:02 commit 5e22265*
%MOMM*%
%LPD*%
G01*
G04 APERTURE LIST*
%TA.AperFunction,Profile*%
%ADD10C,0.100000*%
%TD*%
%ADD11C,0.100000*%
%ADD12C,0.120000*%
G04 APERTURE END LIST*
D10*
X85000000Y-40500000D02*
X165000000Y-40500000D01*
X165000000Y-40500000D02*
X165000000Y-61000000D01*
X165000000Y-61000000D02*
X85000000Y-61000000D01*
X85000000Y-61000000D02*
X85000000Y-40500000D01*
D11*
%TO.C,C13*%
X93699000Y-53542000D02*
X93699000Y-53541000D01*
X93206000Y-53547000D02*
X93206000Y-53547000D01*
X93690000Y-53548000D02*
X93691000Y-53548000D01*
X93695000Y-52552000D02*
X93694000Y-52552000D01*
X93203000Y-52555000D02*
X93203000Y-52555000D01*
X93210000Y-53548000D02*
X93210000Y-53548000D01*
X93203000Y-52555000D02*
X93203000Y-52556000D01*
X93210000Y-52751000D02*
X93210000Y-53348000D01*
X93698000Y-52555000D02*
X93697000Y-52554000D01*
X93693000Y-53548000D02*
X93693000Y-53548000D01*
X93202000Y-52557000D02*
X93202000Y-52558000D01*
X93699000Y-53541000D02*
X93699000Y-53541000D01*
X93689000Y-52551000D02*
X93689000Y-52551000D01*
X93202000Y-52557000D02*
X93202000Y-52557000D01*
X93691000Y-53548000D02*
X93692000Y-53548000D01*
X93204000Y-52554000D02*
X93204000Y-52554000D01*
X93696000Y-52553000D02*
X93696000Y-52553000D01*
X93694000Y-52551000D02*
X93693000Y-52551000D01*
X93208000Y-53548000D02*
X93208000Y-53548000D01*
X93202000Y-53541000D02*
X93202000Y-53541000D01*
X93209000Y-52551000D02*
X93209000Y-52551000D01*
X93699000Y-52557000D02*
X93699000Y-52556000D01*
X93205000Y-53546000D02*
X93205000Y-53546000D01*
X93699000Y-53541000D02*
X93699000Y-53540000D01*
X93204000Y-53545000D02*
X93204000Y-53545000D01*
X93209000Y-53548000D02*
X93209000Y-53548000D01*
X93697000Y-52554000D02*
X93697000Y-52553000D01*
X93210000Y-52551000D02*
X93210000Y-52551000D01*
X93699000Y-52751000D02*
X93689000Y-52751000D01*
X93698000Y-53543000D02*
X93699000Y-53543000D01*
X93695000Y-53547000D02*
X93695000Y-53547000D01*
X93210000Y-52551000D02*
X93210000Y-52551000D01*
X93699000Y-53541000D02*
X93699000Y-53541000D01*
X93697000Y-53545000D02*
X93698000Y-53544000D01*
X93209000Y-53548000D02*
X93209000Y-53548000D01*
X93692000Y-53548000D02*
X93692000Y-53548000D01*
X93693000Y-52551000D02*
X93692000Y-52551000D01*
X93698000Y-52556000D02*
X93698000Y-52555000D01*
X93692000Y-52551000D02*
X93692000Y-52551000D01*
X93693000Y-53548000D02*
X93694000Y-53548000D01*
X93689000Y-52551000D02*
X93689000Y-52551000D01*
X93205000Y-52553000D02*
X93204000Y-52553000D01*
X93691000Y-53548000D02*
X93691000Y-53548000D01*
X93699000Y-53542000D02*
X93699000Y-53542000D01*
X93210000Y-52551000D02*
X93210000Y-52551000D01*
X93699000Y-52558000D02*
X93699000Y-52557000D01*
X93210000Y-52551000D02*
X93209000Y-52551000D01*
X93694000Y-53547000D02*
X93695000Y-53547000D01*
X93202000Y-52558000D02*
X93202000Y-52558000D01*
X93203000Y-53544000D02*
X93203000Y-53544000D01*
X93697000Y-52553000D02*
X93696000Y-52553000D01*
X93207000Y-53547000D02*
X93207000Y-53548000D01*
X93204000Y-53545000D02*
X93204000Y-53546000D01*
X93202000Y-52751000D02*
X93202000Y-52561000D01*
X93697000Y-53545000D02*
X93697000Y-53545000D01*
X93699000Y-52557000D02*
X93699000Y-52557000D01*
X93698000Y-53544000D02*
X93698000Y-53544000D01*
X93697000Y-53546000D02*
X93697000Y-53545000D01*
X93202000Y-52559000D02*
X93202000Y-52560000D01*
X93210000Y-53548000D02*
X93689000Y-53548000D01*
X93692000Y-52551000D02*
X93691000Y-52551000D01*
X93699000Y-53538000D02*
X93699000Y-53348000D01*
X93699000Y-52559000D02*
X93699000Y-52559000D01*
X93210000Y-52551000D02*
X93210000Y-52551000D01*
X93204000Y-52553000D02*
X93204000Y-52554000D01*
X93205000Y-52553000D02*
X93205000Y-52553000D01*
X93697000Y-52554000D02*
X93697000Y-52554000D01*
X93202000Y-53348000D02*
X93202000Y-53538000D01*
X93699000Y-52558000D02*
X93699000Y-52558000D01*
X93210000Y-52751000D02*
X93202000Y-52751000D01*
X93695000Y-52552000D02*
X93695000Y-52552000D01*
X93692000Y-53548000D02*
X93693000Y-53548000D01*
X93207000Y-52551000D02*
X93207000Y-52552000D01*
X93204000Y-52554000D02*
X93203000Y-52555000D01*
X93202000Y-53541000D02*
X93202000Y-53542000D01*
X93699000Y-53348000D02*
X93689000Y-53348000D01*
X93698000Y-52555000D02*
X93698000Y-52555000D01*
X93208000Y-52551000D02*
X93207000Y-52551000D01*
X93210000Y-52551000D02*
X93689000Y-52551000D01*
X93689000Y-52751000D02*
X93210000Y-52751000D01*
X93204000Y-53546000D02*
X93205000Y-53546000D01*
X93206000Y-52552000D02*
X93206000Y-52552000D01*
X93699000Y-52559000D02*
X93699000Y-52558000D01*
X93202000Y-53542000D02*
X93202000Y-53542000D01*
X93203000Y-52556000D02*
X93202000Y-52556000D01*
X93696000Y-53546000D02*
X93697000Y-53546000D01*
X93209000Y-53548000D02*
X93210000Y-53548000D01*
X93203000Y-53544000D02*
X93203000Y-53544000D01*
X93202000Y-53542000D02*
X93202000Y-53543000D01*
X93694000Y-53548000D02*
X93694000Y-53547000D01*
X93210000Y-53348000D02*
X93202000Y-53348000D01*
X93203000Y-52555000D02*
X93203000Y-52555000D01*
X93208000Y-52551000D02*
X93208000Y-52551000D01*
X93203000Y-53544000D02*
X93204000Y-53545000D01*
X93696000Y-52553000D02*
X93695000Y-52552000D01*
X93699000Y-53543000D02*
X93699000Y-53542000D01*
X93207000Y-53548000D02*
X93208000Y-53548000D01*
X93690000Y-52551000D02*
X93689000Y-52551000D01*
X93209000Y-52551000D02*
X93208000Y-52551000D01*
X93695000Y-53547000D02*
X93695000Y-53547000D01*
X93206000Y-53547000D02*
X93206000Y-53547000D01*
X93206000Y-52552000D02*
X93205000Y-52553000D01*
X93698000Y-53544000D02*
X93698000Y-53543000D01*
X93693000Y-52551000D02*
X93693000Y-52551000D01*
X93202000Y-53540000D02*
X93202000Y-53541000D01*
X93698000Y-53544000D02*
X93698000Y-53544000D01*
X93206000Y-53547000D02*
X93207000Y-53547000D01*
X93209000Y-52551000D02*
X93209000Y-52551000D01*
X93699000Y-52558000D02*
X93699000Y-52558000D01*
X93202000Y-52559000D02*
X93202000Y-52559000D01*
X93207000Y-52552000D02*
X93206000Y-52552000D01*
X93695000Y-52552000D02*
X93695000Y-52552000D01*
X93210000Y-52551000D02*
X93210000Y-52551000D01*
X93208000Y-53548000D02*
X93209000Y-53548000D01*
X93692000Y-53548000D02*
X93692000Y-53548000D01*
X93206000Y-52552000D02*
X93206000Y-52552000D01*
X93202000Y-53541000D02*
X93202000Y-53541000D01*
X93202000Y-52558000D02*
X93202000Y-52558000D01*
X93699000Y-52561000D02*
X93699000Y-52751000D01*
X93689000Y-52751000D02*
X93689000Y-53348000D01*
X93698000Y-52555000D02*
X93698000Y-52555000D01*
X93689000Y-53348000D02*
X93210000Y-53348000D01*
X93202000Y-53543000D02*
X93203000Y-53543000D01*
X93694000Y-52552000D02*
X93694000Y-52551000D01*
X93695000Y-53547000D02*
X93696000Y-53546000D01*
X93691000Y-52551000D02*
X93691000Y-52551000D01*
X93699000Y-52556000D02*
X93698000Y-52556000D01*
X93202000Y-52558000D02*
X93202000Y-52559000D01*
X93203000Y-53543000D02*
X93203000Y-53544000D01*
X93202000Y-52556000D02*
X93202000Y-52557000D01*
X93205000Y-53546000D02*
X93206000Y-53547000D01*
X93696000Y-53546000D02*
X93696000Y-53546000D01*
X93691000Y-52551000D02*
X93690000Y-52551000D01*
X93689000Y-52551000D02*
X93689000Y-52551000D01*
X93692000Y-52551000D02*
X93692000Y-52551000D01*
X93699000Y-52551000D02*
X93202000Y-52551000D01*
X93202000Y-52551000D02*
X93202000Y-53548000D01*
X93202000Y-53548000D02*
X93699000Y-53548000D01*
X93699000Y-53548000D02*
X93699000Y-52551000D01*
%TO.C,R12*%
X95850000Y-56615000D02*
X96350000Y-56615000D01*
X96350000Y-56615000D02*
X96350000Y-55615000D01*
X96350000Y-55615000D02*
X95850000Y-55615000D01*
X95850000Y-55615000D02*
X95850000Y-56615000D01*
%TO.C,J1*%
X153300000Y-61088000D02*
X167400000Y-61088000D01*
X167400000Y-61088000D02*
X167400000Y-51489000D01*
X167400000Y-51489000D02*
X153300000Y-51489000D01*
X153300000Y-51489000D02*
X153300000Y-61088000D01*
%TO.C,J2*%
X92015645Y-51060000D02*
X84305645Y-51060000D01*
X84305645Y-51060000D02*
X84305645Y-60638000D01*
X84305645Y-60638000D02*
X92015645Y-60638000D01*
X92015645Y-60638000D02*
X92015645Y-51060000D01*
%TO.C,R11*%
X157601000Y-45502000D02*
X154400000Y-45502000D01*
X154400000Y-45502000D02*
X154400000Y-43900000D01*
X154400000Y-43900000D02*
X157601000Y-43900000D01*
X157601000Y-43900000D02*
X157601000Y-45502000D01*
%TO.C,R13*%
X94600000Y-56615000D02*
X95100000Y-56615000D01*
X95100000Y-56615000D02*
X95100000Y-55615000D01*
X95100000Y-55615000D02*
X94600000Y-55615000D01*
X94600000Y-55615000D02*
X94600000Y-56615000D01*
%TO.C,C12*%
X93497000Y-58206000D02*
X93496000Y-58205000D01*
X93011000Y-58999000D02*
X93490000Y-58999000D01*
X93496000Y-59196000D02*
X93497000Y-59195000D01*
X93002000Y-59195000D02*
X93003000Y-59196000D01*
X93001000Y-58212000D02*
X93001000Y-58402000D01*
X93494000Y-58203000D02*
X93493000Y-58203000D01*
X93492000Y-58202000D02*
X93491000Y-58202000D01*
X93497000Y-59195000D02*
X93497000Y-59195000D01*
X93001000Y-59193000D02*
X93001000Y-59194000D01*
X93002000Y-58206000D02*
X93002000Y-58206000D01*
X93001000Y-58209000D02*
X93001000Y-58210000D01*
X93006000Y-59199000D02*
X93007000Y-59199000D01*
X93009000Y-58202000D02*
X93009000Y-58202000D01*
X93005000Y-59198000D02*
X93006000Y-59198000D01*
X93494000Y-59198000D02*
X93494000Y-59198000D01*
X93498000Y-58209000D02*
X93498000Y-58209000D01*
X93490000Y-59199000D02*
X93490000Y-59199000D01*
X93008000Y-58202000D02*
X93008000Y-58202000D01*
X93001000Y-59189000D02*
X93001000Y-58999000D01*
X93004000Y-58204000D02*
X93003000Y-58204000D01*
X93490000Y-58202000D02*
X93490000Y-58202000D01*
X93498000Y-59193000D02*
X93498000Y-59192000D01*
X93498000Y-59192000D02*
X93498000Y-59192000D01*
X93497000Y-58207000D02*
X93497000Y-58206000D01*
X93001000Y-58207000D02*
X93001000Y-58208000D01*
X93001000Y-58209000D02*
X93001000Y-58209000D01*
X93493000Y-59199000D02*
X93493000Y-59198000D01*
X93492000Y-59199000D02*
X93492000Y-59199000D01*
X93011000Y-59199000D02*
X93011000Y-59199000D01*
X93008000Y-59199000D02*
X93008000Y-59199000D01*
X93002000Y-59195000D02*
X93002000Y-59195000D01*
X93496000Y-59197000D02*
X93496000Y-59196000D01*
X93001000Y-58999000D02*
X93011000Y-58999000D01*
X93011000Y-59199000D02*
X93011000Y-59199000D01*
X93008000Y-58202000D02*
X93008000Y-58202000D01*
X93005000Y-59198000D02*
X93005000Y-59198000D01*
X93497000Y-59195000D02*
X93497000Y-59195000D01*
X93498000Y-58209000D02*
X93498000Y-58208000D01*
X93005000Y-59198000D02*
X93005000Y-59198000D01*
X93491000Y-59199000D02*
X93492000Y-59199000D01*
X93498000Y-58208000D02*
X93498000Y-58208000D01*
X93001000Y-59192000D02*
X93001000Y-59193000D01*
X93491000Y-58202000D02*
X93491000Y-58202000D01*
X93498000Y-59191000D02*
X93498000Y-59190000D01*
X93007000Y-58202000D02*
X93006000Y-58202000D01*
X93497000Y-58206000D02*
X93497000Y-58206000D01*
X93493000Y-58203000D02*
X93493000Y-58202000D01*
X93006000Y-58203000D02*
X93005000Y-58203000D01*
X93001000Y-58208000D02*
X93001000Y-58209000D01*
X93495000Y-59197000D02*
X93496000Y-59197000D01*
X93498000Y-58209000D02*
X93498000Y-58209000D01*
X93497000Y-58206000D02*
X93497000Y-58206000D01*
X93001000Y-59192000D02*
X93001000Y-59192000D01*
X93497000Y-59195000D02*
X93497000Y-59194000D01*
X93004000Y-59197000D02*
X93005000Y-59198000D01*
X93495000Y-58204000D02*
X93495000Y-58204000D01*
X93490000Y-58999000D02*
X93498000Y-58999000D01*
X93490000Y-59199000D02*
X93490000Y-59199000D01*
X93011000Y-59199000D02*
X93011000Y-59199000D01*
X93496000Y-59196000D02*
X93496000Y-59196000D01*
X93001000Y-58402000D02*
X93011000Y-58402000D01*
X93497000Y-59194000D02*
X93498000Y-59194000D01*
X93007000Y-59199000D02*
X93008000Y-59199000D01*
X93002000Y-58206000D02*
X93002000Y-58206000D01*
X93491000Y-59199000D02*
X93491000Y-59199000D01*
X93009000Y-59199000D02*
X93009000Y-59199000D01*
X93492000Y-59199000D02*
X93493000Y-59199000D01*
X93493000Y-59198000D02*
X93494000Y-59198000D01*
X93002000Y-58206000D02*
X93002000Y-58207000D01*
X93011000Y-58402000D02*
X93490000Y-58402000D01*
X93008000Y-58202000D02*
X93007000Y-58202000D01*
X93494000Y-59198000D02*
X93494000Y-59198000D01*
X93491000Y-59199000D02*
X93491000Y-59199000D01*
X93496000Y-58205000D02*
X93496000Y-58204000D01*
X93498000Y-59193000D02*
X93498000Y-59193000D01*
X93001000Y-59192000D02*
X93001000Y-59192000D01*
X93003000Y-58204000D02*
X93003000Y-58205000D01*
X93005000Y-58203000D02*
X93005000Y-58203000D01*
X93008000Y-59199000D02*
X93009000Y-59199000D01*
X93005000Y-58203000D02*
X93005000Y-58203000D01*
X93498000Y-59194000D02*
X93498000Y-59193000D01*
X93498000Y-58210000D02*
X93498000Y-58209000D01*
X93008000Y-59199000D02*
X93008000Y-59199000D01*
X93498000Y-59191000D02*
X93498000Y-59191000D01*
X93003000Y-58205000D02*
X93003000Y-58205000D01*
X93498000Y-58207000D02*
X93497000Y-58207000D01*
X93001000Y-58209000D02*
X93001000Y-58209000D01*
X93496000Y-58204000D02*
X93495000Y-58204000D01*
X93491000Y-58202000D02*
X93491000Y-58202000D01*
X93490000Y-59199000D02*
X93490000Y-59199000D01*
X93490000Y-59199000D02*
X93490000Y-59199000D01*
X93494000Y-58203000D02*
X93494000Y-58203000D01*
X93009000Y-58202000D02*
X93008000Y-58202000D01*
X93498000Y-59192000D02*
X93498000Y-59192000D01*
X93001000Y-59191000D02*
X93001000Y-59191000D01*
X93002000Y-59194000D02*
X93002000Y-59195000D01*
X93001000Y-59191000D02*
X93001000Y-59192000D01*
X93493000Y-58202000D02*
X93492000Y-58202000D01*
X93006000Y-59198000D02*
X93006000Y-59199000D01*
X93001000Y-58208000D02*
X93001000Y-58208000D01*
X93490000Y-58202000D02*
X93011000Y-58202000D01*
X93498000Y-59192000D02*
X93498000Y-59191000D01*
X93011000Y-58999000D02*
X93011000Y-58402000D01*
X93007000Y-58202000D02*
X93007000Y-58202000D01*
X93003000Y-59196000D02*
X93003000Y-59196000D01*
X93001000Y-59193000D02*
X93001000Y-59193000D01*
X93490000Y-59199000D02*
X93490000Y-59199000D01*
X93001000Y-59194000D02*
X93002000Y-59194000D01*
X93498000Y-58208000D02*
X93498000Y-58207000D01*
X93491000Y-58202000D02*
X93490000Y-58202000D01*
X93492000Y-58202000D02*
X93492000Y-58202000D01*
X93009000Y-59199000D02*
X93010000Y-59199000D01*
X93004000Y-58204000D02*
X93004000Y-58204000D01*
X93490000Y-58999000D02*
X93490000Y-58402000D01*
X93010000Y-59199000D02*
X93011000Y-59199000D01*
X93003000Y-59196000D02*
X93003000Y-59197000D01*
X93494000Y-59198000D02*
X93495000Y-59197000D01*
X93498000Y-58402000D02*
X93498000Y-58212000D01*
X93496000Y-58205000D02*
X93496000Y-58205000D01*
X93007000Y-59199000D02*
X93007000Y-59199000D01*
X93498000Y-58999000D02*
X93498000Y-59189000D01*
X93490000Y-59199000D02*
X93011000Y-59199000D01*
X93490000Y-59199000D02*
X93491000Y-59199000D01*
X93003000Y-58205000D02*
X93002000Y-58206000D01*
X93495000Y-58204000D02*
X93494000Y-58203000D01*
X93005000Y-58203000D02*
X93004000Y-58204000D01*
X93490000Y-58402000D02*
X93498000Y-58402000D01*
X93002000Y-59195000D02*
X93002000Y-59195000D01*
X93494000Y-58203000D02*
X93494000Y-58203000D01*
X93004000Y-59197000D02*
X93004000Y-59197000D01*
X93003000Y-59197000D02*
X93004000Y-59197000D01*
X93002000Y-58207000D02*
X93001000Y-58207000D01*
X93495000Y-59197000D02*
X93495000Y-59197000D01*
X93006000Y-58202000D02*
X93006000Y-58203000D01*
X93010000Y-58202000D02*
X93009000Y-58202000D01*
X93001000Y-59199000D02*
X93498000Y-59199000D01*
X93498000Y-59199000D02*
X93498000Y-58202000D01*
X93498000Y-58202000D02*
X93001000Y-58202000D01*
X93001000Y-58202000D02*
X93001000Y-59199000D01*
%TO.C,R6*%
X96350000Y-57850000D02*
X95850000Y-57850000D01*
X95850000Y-57850000D02*
X95850000Y-58850000D01*
X95850000Y-58850000D02*
X96350000Y-58850000D01*
X96350000Y-58850000D02*
X96350000Y-57850000D01*
%TO.C,R10*%
X157601000Y-43052000D02*
X154400000Y-43052000D01*
X154400000Y-43052000D02*
X154400000Y-41450000D01*
X154400000Y-41450000D02*
X157601000Y-41450000D01*
X157601000Y-41450000D02*
X157601000Y-43052000D01*
D12*
%TO.C,POT1*%
X91446600Y-36534600D02*
X107753400Y-36534600D01*
X107753400Y-36534600D02*
X107753400Y-54365400D01*
X107753400Y-54365400D02*
X91446600Y-54365400D01*
X91446600Y-54365400D02*
X91446600Y-36534600D01*
D11*
%TO.C,R14*%
X94600000Y-58765000D02*
X95100000Y-58765000D01*
X95100000Y-58765000D02*
X95100000Y-57765000D01*
X95100000Y-57765000D02*
X94600000Y-57765000D01*
X94600000Y-57765000D02*
X94600000Y-58765000D01*
%TO.C,R8*%
X97250000Y-44850000D02*
X98250000Y-44850000D01*
X98250000Y-44850000D02*
X98250000Y-44350000D01*
X98250000Y-44350000D02*
X97250000Y-44350000D01*
X97250000Y-44350000D02*
X97250000Y-44850000D01*
%TO.C,U2*%
X96600000Y-47049000D02*
X98298000Y-47049000D01*
X98298000Y-47049000D02*
X98298000Y-48749000D01*
X98298000Y-48749000D02*
X96600000Y-48749000D01*
X96600000Y-48749000D02*
X96600000Y-47049000D01*
%TO.C,R3*%
X146600000Y-44449000D02*
X147100000Y-44449000D01*
X147100000Y-44449000D02*
X147100000Y-45449000D01*
X147100000Y-45449000D02*
X146600000Y-45449000D01*
X146600000Y-45449000D02*
X146600000Y-44449000D01*
%TO.C,C4*%
X148603000Y-42906000D02*
X148603000Y-42905000D01*
X148609000Y-43398000D02*
X148608000Y-43398000D01*
X149597000Y-43395000D02*
X149597000Y-43396000D01*
X149598000Y-43394000D02*
X149598000Y-43394000D01*
X149594000Y-42901000D02*
X149594000Y-42902000D01*
X148602000Y-43393000D02*
X148602000Y-43392000D01*
X149599000Y-43390000D02*
X149599000Y-43390000D01*
X149599000Y-43391000D02*
X149599000Y-43391000D01*
X149592000Y-43398000D02*
X149591000Y-43398000D01*
X148602000Y-42907000D02*
X148602000Y-42906000D01*
X148604000Y-42904000D02*
X148604000Y-42904000D01*
X149599000Y-43392000D02*
X149599000Y-43392000D01*
X148602000Y-42907000D02*
X148602000Y-42907000D01*
X149599000Y-43391000D02*
X149599000Y-43392000D01*
X148606000Y-42902000D02*
X148606000Y-42902000D01*
X148603000Y-42905000D02*
X148603000Y-42905000D01*
X149592000Y-43398000D02*
X149592000Y-43398000D01*
X149599000Y-43391000D02*
X149599000Y-43391000D01*
X149399000Y-42901000D02*
X149399000Y-42911000D01*
X148604000Y-43396000D02*
X148604000Y-43395000D01*
X149599000Y-43390000D02*
X149599000Y-43390000D01*
X149599000Y-42911000D02*
X149599000Y-42911000D01*
X149594000Y-43398000D02*
X149593000Y-43398000D01*
X149589000Y-42901000D02*
X149399000Y-42901000D01*
X149592000Y-42901000D02*
X149592000Y-42901000D01*
X149599000Y-42911000D02*
X149599000Y-42911000D01*
X149595000Y-42902000D02*
X149595000Y-42902000D01*
X149591000Y-43398000D02*
X149590000Y-43398000D01*
X148608000Y-42901000D02*
X148609000Y-42901000D01*
X148602000Y-43392000D02*
X148602000Y-43392000D01*
X148607000Y-42902000D02*
X148607000Y-42901000D01*
X149597000Y-43396000D02*
X149596000Y-43396000D01*
X148608000Y-43398000D02*
X148608000Y-43398000D01*
X149593000Y-42901000D02*
X149593000Y-42901000D01*
X148607000Y-43398000D02*
X148607000Y-43397000D01*
X149599000Y-43392000D02*
X149599000Y-43393000D01*
X149598000Y-42906000D02*
X149599000Y-42906000D01*
X148602000Y-42909000D02*
X148602000Y-42908000D01*
X149594000Y-43397000D02*
X149594000Y-43398000D01*
X149599000Y-42909000D02*
X149599000Y-42910000D01*
X149599000Y-42907000D02*
X149599000Y-42907000D01*
X149595000Y-43397000D02*
X149595000Y-43397000D01*
X149593000Y-43398000D02*
X149592000Y-43398000D01*
X148604000Y-42904000D02*
X148604000Y-42903000D01*
X149599000Y-43390000D02*
X149599000Y-43391000D01*
X148802000Y-43398000D02*
X148612000Y-43398000D01*
X148602000Y-42909000D02*
X148602000Y-42909000D01*
X148604000Y-43395000D02*
X148604000Y-43395000D01*
X149592000Y-43398000D02*
X149592000Y-43398000D01*
X149592000Y-42901000D02*
X149592000Y-42901000D01*
X148602000Y-43390000D02*
X148602000Y-43390000D01*
X148603000Y-43394000D02*
X148603000Y-43393000D01*
X148606000Y-43397000D02*
X148606000Y-43397000D01*
X149591000Y-43398000D02*
X149591000Y-43398000D01*
X148608000Y-42901000D02*
X148608000Y-42901000D01*
X149595000Y-42902000D02*
X149596000Y-42903000D01*
X148609000Y-42901000D02*
X148609000Y-42901000D01*
X148602000Y-43392000D02*
X148602000Y-43391000D01*
X149598000Y-43394000D02*
X149597000Y-43395000D01*
X149599000Y-42908000D02*
X149599000Y-42908000D01*
X149591000Y-42901000D02*
X149592000Y-42901000D01*
X149596000Y-43396000D02*
X149595000Y-43397000D01*
X148604000Y-43395000D02*
X148603000Y-43394000D01*
X148607000Y-43397000D02*
X148606000Y-43397000D01*
X149598000Y-42905000D02*
X149598000Y-42906000D01*
X148609000Y-43398000D02*
X148609000Y-43398000D01*
X149591000Y-42901000D02*
X149591000Y-42901000D01*
X148605000Y-42903000D02*
X148606000Y-42902000D01*
X148605000Y-42903000D02*
X148605000Y-42903000D01*
X149594000Y-42902000D02*
X149595000Y-42902000D01*
X149593000Y-43398000D02*
X149593000Y-43398000D01*
X149599000Y-43393000D02*
X149598000Y-43393000D01*
X148603000Y-42905000D02*
X148603000Y-42905000D01*
X149399000Y-43398000D02*
X149589000Y-43398000D01*
X149595000Y-43397000D02*
X149594000Y-43397000D01*
X148607000Y-42901000D02*
X148608000Y-42901000D01*
X149599000Y-42911000D02*
X149599000Y-42911000D01*
X149399000Y-43390000D02*
X148802000Y-43390000D01*
X148606000Y-43397000D02*
X148606000Y-43397000D01*
X148602000Y-42908000D02*
X148602000Y-42907000D01*
X148802000Y-42911000D02*
X148802000Y-43390000D01*
X148612000Y-42901000D02*
X148802000Y-42901000D01*
X148605000Y-43396000D02*
X148604000Y-43396000D01*
X149598000Y-42905000D02*
X149598000Y-42905000D01*
X148610000Y-43398000D02*
X148609000Y-43398000D01*
X149597000Y-42904000D02*
X149597000Y-42904000D01*
X148602000Y-42908000D02*
X148602000Y-42908000D01*
X149599000Y-43390000D02*
X149599000Y-43390000D01*
X149599000Y-42906000D02*
X149599000Y-42907000D01*
X148602000Y-43391000D02*
X148602000Y-43390000D01*
X149597000Y-42904000D02*
X149598000Y-42905000D01*
X148606000Y-43397000D02*
X148605000Y-43396000D01*
X149599000Y-42908000D02*
X149599000Y-42909000D01*
X149399000Y-43390000D02*
X149399000Y-43398000D01*
X149599000Y-43390000D02*
X149599000Y-42911000D01*
X148603000Y-43394000D02*
X148603000Y-43394000D01*
X148608000Y-43398000D02*
X148607000Y-43398000D01*
X148603000Y-43393000D02*
X148602000Y-43393000D01*
X149598000Y-43393000D02*
X149598000Y-43394000D01*
X148602000Y-43390000D02*
X148602000Y-42911000D01*
X148605000Y-43396000D02*
X148605000Y-43396000D01*
X149599000Y-42910000D02*
X149599000Y-42911000D01*
X149595000Y-42902000D02*
X149595000Y-42902000D01*
X149599000Y-43390000D02*
X149599000Y-43390000D01*
X149597000Y-43395000D02*
X149597000Y-43395000D01*
X148609000Y-43398000D02*
X148609000Y-43398000D01*
X149399000Y-42911000D02*
X148802000Y-42911000D01*
X149596000Y-42903000D02*
X149597000Y-42903000D01*
X149599000Y-42909000D02*
X149599000Y-42909000D01*
X148602000Y-42910000D02*
X148602000Y-42909000D01*
X148602000Y-43391000D02*
X148602000Y-43391000D01*
X148603000Y-42905000D02*
X148604000Y-42904000D01*
X149599000Y-42907000D02*
X149599000Y-42908000D01*
X149598000Y-42905000D02*
X149598000Y-42905000D01*
X148603000Y-43394000D02*
X148603000Y-43394000D01*
X148604000Y-42903000D02*
X148605000Y-42903000D01*
X149592000Y-42901000D02*
X149593000Y-42901000D01*
X149597000Y-42903000D02*
X149597000Y-42904000D01*
X149593000Y-42901000D02*
X149594000Y-42901000D01*
X149596000Y-42903000D02*
X149596000Y-42903000D01*
X148609000Y-42901000D02*
X148609000Y-42901000D01*
X148609000Y-42901000D02*
X148610000Y-42901000D01*
X148602000Y-43391000D02*
X148602000Y-43391000D01*
X148606000Y-42902000D02*
X148606000Y-42902000D01*
X149595000Y-43397000D02*
X149595000Y-43397000D01*
X148802000Y-42901000D02*
X148802000Y-42911000D01*
X148606000Y-42902000D02*
X148607000Y-42902000D01*
X148602000Y-42908000D02*
X148602000Y-42908000D01*
X149399000Y-42911000D02*
X149399000Y-43390000D01*
X149596000Y-43396000D02*
X149596000Y-43396000D01*
X148802000Y-43390000D02*
X148802000Y-43398000D01*
X149598000Y-43394000D02*
X149598000Y-43394000D01*
X149599000Y-42908000D02*
X149599000Y-42908000D01*
X149599000Y-43390000D02*
X149599000Y-43390000D01*
X148602000Y-42906000D02*
X148603000Y-42906000D01*
X149599000Y-42901000D02*
X148602000Y-42901000D01*
X148602000Y-42901000D02*
X148602000Y-43398000D01*
X148602000Y-43398000D02*
X149599000Y-43398000D01*
X149599000Y-43398000D02*
X149599000Y-42901000D01*
%TO.C,R5*%
X102950000Y-49200000D02*
X102150000Y-49200000D01*
X102150000Y-49200000D02*
X102150000Y-47600000D01*
X102150000Y-47600000D02*
X102950000Y-47600000D01*
X102950000Y-47600000D02*
X102950000Y-49200000D01*
%TO.C,C5*%
X152606000Y-44047000D02*
X152606000Y-44047000D01*
X153599000Y-44040000D02*
X153599000Y-44040000D01*
X153597000Y-44045000D02*
X153597000Y-44046000D01*
X153599000Y-43561000D02*
X153599000Y-43561000D01*
X153596000Y-43553000D02*
X153597000Y-43553000D01*
X153599000Y-43561000D02*
X153599000Y-43561000D01*
X152802000Y-43561000D02*
X152802000Y-44040000D01*
X152609000Y-44048000D02*
X152608000Y-44048000D01*
X153592000Y-43551000D02*
X153593000Y-43551000D01*
X153594000Y-44048000D02*
X153593000Y-44048000D01*
X153597000Y-44045000D02*
X153597000Y-44045000D01*
X153598000Y-43556000D02*
X153599000Y-43556000D01*
X153599000Y-43557000D02*
X153599000Y-43557000D01*
X153596000Y-44046000D02*
X153596000Y-44046000D01*
X152603000Y-44044000D02*
X152603000Y-44044000D01*
X152609000Y-43551000D02*
X152609000Y-43551000D01*
X153399000Y-43561000D02*
X153399000Y-44040000D01*
X153597000Y-43553000D02*
X153597000Y-43554000D01*
X152602000Y-43558000D02*
X152602000Y-43557000D01*
X152609000Y-44048000D02*
X152609000Y-44048000D01*
X153599000Y-44042000D02*
X153599000Y-44042000D01*
X152605000Y-43553000D02*
X152606000Y-43552000D01*
X152604000Y-44046000D02*
X152604000Y-44045000D01*
X152602000Y-43558000D02*
X152602000Y-43558000D01*
X153599000Y-44040000D02*
X153599000Y-44040000D01*
X152602000Y-43560000D02*
X152602000Y-43559000D01*
X153599000Y-44041000D02*
X153599000Y-44042000D01*
X153592000Y-44048000D02*
X153591000Y-44048000D01*
X152606000Y-44047000D02*
X152605000Y-44046000D01*
X152603000Y-44043000D02*
X152602000Y-44043000D01*
X152802000Y-43551000D02*
X152802000Y-43561000D01*
X152609000Y-43551000D02*
X152610000Y-43551000D01*
X153591000Y-44048000D02*
X153590000Y-44048000D01*
X152604000Y-44045000D02*
X152604000Y-44045000D01*
X153592000Y-43551000D02*
X153592000Y-43551000D01*
X153399000Y-43561000D02*
X152802000Y-43561000D01*
X153593000Y-44048000D02*
X153592000Y-44048000D01*
X153594000Y-43552000D02*
X153595000Y-43552000D01*
X153598000Y-43555000D02*
X153598000Y-43555000D01*
X153595000Y-43552000D02*
X153595000Y-43552000D01*
X152602000Y-44041000D02*
X152602000Y-44041000D01*
X152606000Y-43552000D02*
X152607000Y-43552000D01*
X152602000Y-43558000D02*
X152602000Y-43558000D01*
X152612000Y-43551000D02*
X152802000Y-43551000D01*
X153596000Y-43553000D02*
X153596000Y-43553000D01*
X152603000Y-43555000D02*
X152603000Y-43555000D01*
X152602000Y-43559000D02*
X152602000Y-43558000D01*
X153599000Y-44040000D02*
X153599000Y-44040000D01*
X152802000Y-44048000D02*
X152612000Y-44048000D01*
X152608000Y-43551000D02*
X152609000Y-43551000D01*
X152603000Y-43555000D02*
X152603000Y-43555000D01*
X153599000Y-43559000D02*
X153599000Y-43559000D01*
X152602000Y-44041000D02*
X152602000Y-44041000D01*
X152608000Y-44048000D02*
X152608000Y-44048000D01*
X153595000Y-43552000D02*
X153595000Y-43552000D01*
X153598000Y-43555000D02*
X153598000Y-43556000D01*
X152604000Y-43553000D02*
X152605000Y-43553000D01*
X153593000Y-43551000D02*
X153594000Y-43551000D01*
X153599000Y-43558000D02*
X153599000Y-43558000D01*
X153598000Y-43555000D02*
X153598000Y-43555000D01*
X153399000Y-43551000D02*
X153399000Y-43561000D01*
X153599000Y-44043000D02*
X153598000Y-44043000D01*
X153599000Y-44040000D02*
X153599000Y-44040000D01*
X153599000Y-43558000D02*
X153599000Y-43559000D01*
X152602000Y-43556000D02*
X152603000Y-43556000D01*
X152605000Y-43553000D02*
X152605000Y-43553000D01*
X152606000Y-43552000D02*
X152606000Y-43552000D01*
X152602000Y-44040000D02*
X152602000Y-44040000D01*
X153599000Y-44040000D02*
X153599000Y-43561000D01*
X152602000Y-44042000D02*
X152602000Y-44042000D01*
X153598000Y-44043000D02*
X153598000Y-44044000D01*
X152802000Y-44040000D02*
X152802000Y-44048000D01*
X152603000Y-44044000D02*
X152603000Y-44043000D01*
X152602000Y-44040000D02*
X152602000Y-43561000D01*
X153399000Y-44048000D02*
X153589000Y-44048000D01*
X152605000Y-44046000D02*
X152604000Y-44046000D01*
X152603000Y-43555000D02*
X152604000Y-43554000D01*
X153595000Y-43552000D02*
X153596000Y-43553000D01*
X153597000Y-43554000D02*
X153598000Y-43555000D01*
X153595000Y-44047000D02*
X153594000Y-44047000D01*
X153591000Y-43551000D02*
X153592000Y-43551000D01*
X153599000Y-43561000D02*
X153599000Y-43561000D01*
X152609000Y-43551000D02*
X152609000Y-43551000D01*
X153591000Y-44048000D02*
X153591000Y-44048000D01*
X152607000Y-44048000D02*
X152607000Y-44047000D01*
X152602000Y-43559000D02*
X152602000Y-43559000D01*
X153597000Y-43554000D02*
X153597000Y-43554000D01*
X153598000Y-44044000D02*
X153598000Y-44044000D01*
X153599000Y-44040000D02*
X153599000Y-44040000D01*
X152602000Y-44042000D02*
X152602000Y-44041000D01*
X153599000Y-44041000D02*
X153599000Y-44041000D01*
X152606000Y-44047000D02*
X152606000Y-44047000D01*
X153599000Y-44040000D02*
X153599000Y-44041000D01*
X152602000Y-43557000D02*
X152602000Y-43556000D01*
X153595000Y-44047000D02*
X153595000Y-44047000D01*
X153592000Y-43551000D02*
X153592000Y-43551000D01*
X153599000Y-43556000D02*
X153599000Y-43557000D01*
X153599000Y-44042000D02*
X153599000Y-44043000D01*
X153399000Y-44040000D02*
X152802000Y-44040000D01*
X152603000Y-43556000D02*
X152603000Y-43555000D01*
X153596000Y-44046000D02*
X153595000Y-44047000D01*
X153599000Y-43559000D02*
X153599000Y-43560000D01*
X152604000Y-44045000D02*
X152603000Y-44044000D01*
X152604000Y-43554000D02*
X152604000Y-43553000D01*
X152607000Y-43551000D02*
X152608000Y-43551000D01*
X153598000Y-44044000D02*
X153598000Y-44044000D01*
X152608000Y-43551000D02*
X152608000Y-43551000D01*
X152602000Y-43557000D02*
X152602000Y-43557000D01*
X153595000Y-44047000D02*
X153595000Y-44047000D01*
X152602000Y-44041000D02*
X152602000Y-44040000D01*
X153589000Y-43551000D02*
X153399000Y-43551000D01*
X153592000Y-44048000D02*
X153592000Y-44048000D01*
X153597000Y-44046000D02*
X153596000Y-44046000D01*
X153593000Y-44048000D02*
X153593000Y-44048000D01*
X152608000Y-44048000D02*
X152607000Y-44048000D01*
X153599000Y-43557000D02*
X153599000Y-43558000D01*
X152605000Y-44046000D02*
X152605000Y-44046000D01*
X153599000Y-44041000D02*
X153599000Y-44041000D01*
X153593000Y-43551000D02*
X153593000Y-43551000D01*
X153598000Y-44044000D02*
X153597000Y-44045000D01*
X153599000Y-43558000D02*
X153599000Y-43558000D01*
X152610000Y-44048000D02*
X152609000Y-44048000D01*
X153399000Y-44040000D02*
X153399000Y-44048000D01*
X152603000Y-44044000D02*
X152603000Y-44044000D01*
X152609000Y-44048000D02*
X152609000Y-44048000D01*
X153592000Y-44048000D02*
X153592000Y-44048000D01*
X153591000Y-43551000D02*
X153591000Y-43551000D01*
X152606000Y-43552000D02*
X152606000Y-43552000D01*
X153599000Y-43560000D02*
X153599000Y-43561000D01*
X153594000Y-44047000D02*
X153594000Y-44048000D01*
X152607000Y-44047000D02*
X152606000Y-44047000D01*
X152607000Y-43552000D02*
X152607000Y-43551000D01*
X152602000Y-44043000D02*
X152602000Y-44042000D01*
X153594000Y-43551000D02*
X153594000Y-43552000D01*
X152604000Y-43554000D02*
X152604000Y-43554000D01*
X153599000Y-43551000D02*
X152602000Y-43551000D01*
X152602000Y-43551000D02*
X152602000Y-44048000D01*
X152602000Y-44048000D02*
X153599000Y-44048000D01*
X153599000Y-44048000D02*
X153599000Y-43551000D01*
%TO.C,R9*%
X95150000Y-48400000D02*
X94650000Y-48400000D01*
X94650000Y-48400000D02*
X94650000Y-47400000D01*
X94650000Y-47400000D02*
X95150000Y-47400000D01*
X95150000Y-47400000D02*
X95150000Y-48400000D01*
%TO.C,C1*%
X145576000Y-47150000D02*
X146824000Y-47150000D01*
X146824000Y-47150000D02*
X146824000Y-49150000D01*
X146824000Y-49150000D02*
X145576000Y-49150000D01*
X145576000Y-49150000D02*
X145576000Y-47150000D01*
%TO.C,R2*%
X153600000Y-42350000D02*
X152600000Y-42350000D01*
X152600000Y-42350000D02*
X152600000Y-42850000D01*
X152600000Y-42850000D02*
X153600000Y-42850000D01*
X153600000Y-42850000D02*
X153600000Y-42350000D01*
%TO.C,C2*%
X147700000Y-52100000D02*
X149300000Y-52100000D01*
X149300000Y-52100000D02*
X149300000Y-51200000D01*
X149300000Y-51200000D02*
X147700000Y-51200000D01*
X147700000Y-51200000D02*
X147700000Y-52100000D01*
%TO.C,C8*%
X153699000Y-44710000D02*
X153699000Y-44711000D01*
X153692000Y-45198000D02*
X153692000Y-45198000D01*
X152709000Y-45198000D02*
X152709000Y-45198000D01*
X153696000Y-45196000D02*
X153696000Y-45196000D01*
X152702000Y-44709000D02*
X152702000Y-44708000D01*
X153699000Y-45191000D02*
X153699000Y-45192000D01*
X153695000Y-44702000D02*
X153696000Y-44703000D01*
X153698000Y-45194000D02*
X153698000Y-45194000D01*
X153699000Y-45190000D02*
X153699000Y-45190000D01*
X152703000Y-44706000D02*
X152703000Y-44705000D01*
X152705000Y-45196000D02*
X152704000Y-45196000D01*
X153699000Y-44707000D02*
X153699000Y-44707000D01*
X153693000Y-45198000D02*
X153693000Y-45198000D01*
X152702000Y-44708000D02*
X152702000Y-44708000D01*
X152702000Y-44707000D02*
X152702000Y-44706000D01*
X152702000Y-45191000D02*
X152702000Y-45190000D01*
X152902000Y-45190000D02*
X152902000Y-45198000D01*
X152706000Y-44702000D02*
X152706000Y-44702000D01*
X152702000Y-44708000D02*
X152702000Y-44707000D01*
X153695000Y-44702000D02*
X153695000Y-44702000D01*
X153699000Y-45190000D02*
X153699000Y-44711000D01*
X152704000Y-44704000D02*
X152704000Y-44704000D01*
X152702000Y-45191000D02*
X152702000Y-45191000D01*
X152702000Y-45191000D02*
X152702000Y-45191000D01*
X153692000Y-45198000D02*
X153692000Y-45198000D01*
X153692000Y-44701000D02*
X153693000Y-44701000D01*
X153691000Y-44701000D02*
X153692000Y-44701000D01*
X152703000Y-45194000D02*
X152703000Y-45193000D01*
X153699000Y-45192000D02*
X153699000Y-45192000D01*
X153697000Y-44704000D02*
X153697000Y-44704000D01*
X153699000Y-45190000D02*
X153699000Y-45190000D01*
X153699000Y-45190000D02*
X153699000Y-45191000D01*
X153699000Y-44708000D02*
X153699000Y-44708000D01*
X153693000Y-45198000D02*
X153692000Y-45198000D01*
X153699000Y-44708000D02*
X153699000Y-44708000D01*
X153698000Y-44705000D02*
X153698000Y-44705000D01*
X153696000Y-44703000D02*
X153697000Y-44703000D01*
X153695000Y-45197000D02*
X153695000Y-45197000D01*
X152702000Y-45190000D02*
X152702000Y-44711000D01*
X153698000Y-45194000D02*
X153698000Y-45194000D01*
X152902000Y-44701000D02*
X152902000Y-44711000D01*
X153698000Y-44706000D02*
X153699000Y-44706000D01*
X153699000Y-45190000D02*
X153699000Y-45190000D01*
X152709000Y-44701000D02*
X152709000Y-44701000D01*
X152703000Y-45194000D02*
X152703000Y-45194000D01*
X153499000Y-44711000D02*
X152902000Y-44711000D01*
X152709000Y-45198000D02*
X152709000Y-45198000D01*
X152706000Y-44702000D02*
X152707000Y-44702000D01*
X153695000Y-45197000D02*
X153695000Y-45197000D01*
X152705000Y-44703000D02*
X152705000Y-44703000D01*
X153694000Y-44702000D02*
X153695000Y-44702000D01*
X153695000Y-45197000D02*
X153694000Y-45197000D01*
X152708000Y-45198000D02*
X152708000Y-45198000D01*
X153699000Y-44706000D02*
X153699000Y-44707000D01*
X152708000Y-44701000D02*
X152709000Y-44701000D01*
X153691000Y-44701000D02*
X153691000Y-44701000D01*
X152702000Y-44709000D02*
X152702000Y-44709000D01*
X152702000Y-44707000D02*
X152702000Y-44707000D01*
X153692000Y-44701000D02*
X153692000Y-44701000D01*
X152712000Y-44701000D02*
X152902000Y-44701000D01*
X152703000Y-44705000D02*
X152703000Y-44705000D01*
X153499000Y-45198000D02*
X153689000Y-45198000D01*
X152704000Y-45195000D02*
X152704000Y-45195000D01*
X153699000Y-45192000D02*
X153699000Y-45193000D01*
X152702000Y-44708000D02*
X152702000Y-44708000D01*
X153699000Y-44711000D02*
X153699000Y-44711000D01*
X153699000Y-45191000D02*
X153699000Y-45191000D01*
X153698000Y-44705000D02*
X153698000Y-44706000D01*
X152709000Y-44701000D02*
X152709000Y-44701000D01*
X153699000Y-45193000D02*
X153698000Y-45193000D01*
X152706000Y-45197000D02*
X152706000Y-45197000D01*
X153499000Y-44701000D02*
X153499000Y-44711000D01*
X153699000Y-45190000D02*
X153699000Y-45190000D01*
X153699000Y-45190000D02*
X153699000Y-45190000D01*
X153499000Y-44711000D02*
X153499000Y-45190000D01*
X152703000Y-44705000D02*
X152704000Y-44704000D01*
X153699000Y-44711000D02*
X153699000Y-44711000D01*
X153699000Y-44711000D02*
X153699000Y-44711000D01*
X153691000Y-45198000D02*
X153690000Y-45198000D01*
X152709000Y-45198000D02*
X152708000Y-45198000D01*
X152702000Y-44706000D02*
X152703000Y-44706000D01*
X152710000Y-45198000D02*
X152709000Y-45198000D01*
X153694000Y-45197000D02*
X153694000Y-45198000D01*
X153699000Y-44709000D02*
X153699000Y-44710000D01*
X153499000Y-45190000D02*
X153499000Y-45198000D01*
X153699000Y-45191000D02*
X153699000Y-45191000D01*
X152707000Y-44702000D02*
X152707000Y-44701000D01*
X152706000Y-45197000D02*
X152706000Y-45197000D01*
X153696000Y-44703000D02*
X153696000Y-44703000D01*
X152707000Y-45197000D02*
X152706000Y-45197000D01*
X153698000Y-44705000D02*
X153698000Y-44705000D01*
X153693000Y-44701000D02*
X153694000Y-44701000D01*
X153697000Y-45196000D02*
X153696000Y-45196000D01*
X152707000Y-44701000D02*
X152708000Y-44701000D01*
X153692000Y-44701000D02*
X153692000Y-44701000D01*
X152702000Y-45192000D02*
X152702000Y-45192000D01*
X152702000Y-45190000D02*
X152702000Y-45190000D01*
X153499000Y-45190000D02*
X152902000Y-45190000D01*
X152705000Y-45196000D02*
X152705000Y-45196000D01*
X152702000Y-44710000D02*
X152702000Y-44709000D01*
X153697000Y-45195000D02*
X153697000Y-45195000D01*
X153698000Y-45193000D02*
X153698000Y-45194000D01*
X152704000Y-44703000D02*
X152705000Y-44703000D01*
X152703000Y-45194000D02*
X152703000Y-45194000D01*
X152707000Y-45198000D02*
X152707000Y-45197000D01*
X153699000Y-44709000D02*
X153699000Y-44709000D01*
X152705000Y-44703000D02*
X152706000Y-44702000D01*
X152704000Y-45195000D02*
X152703000Y-45194000D01*
X152702000Y-45192000D02*
X152702000Y-45191000D01*
X153697000Y-44704000D02*
X153698000Y-44705000D01*
X153689000Y-44701000D02*
X153499000Y-44701000D01*
X153694000Y-44701000D02*
X153694000Y-44702000D01*
X153691000Y-45198000D02*
X153691000Y-45198000D01*
X152706000Y-44702000D02*
X152706000Y-44702000D01*
X152703000Y-45193000D02*
X152702000Y-45193000D01*
X152708000Y-45198000D02*
X152707000Y-45198000D01*
X153697000Y-45195000D02*
X153697000Y-45196000D01*
X153699000Y-44707000D02*
X153699000Y-44708000D01*
X152902000Y-44711000D02*
X152902000Y-45190000D01*
X152702000Y-45193000D02*
X152702000Y-45192000D01*
X152704000Y-45196000D02*
X152704000Y-45195000D01*
X153695000Y-44702000D02*
X153695000Y-44702000D01*
X152704000Y-44704000D02*
X152704000Y-44703000D01*
X153699000Y-44708000D02*
X153699000Y-44709000D01*
X152703000Y-44705000D02*
X152703000Y-44705000D01*
X153697000Y-44703000D02*
X153697000Y-44704000D01*
X152902000Y-45198000D02*
X152712000Y-45198000D01*
X152708000Y-44701000D02*
X152708000Y-44701000D01*
X153692000Y-45198000D02*
X153691000Y-45198000D01*
X153693000Y-44701000D02*
X153693000Y-44701000D01*
X152709000Y-44701000D02*
X152710000Y-44701000D01*
X152706000Y-45197000D02*
X152705000Y-45196000D01*
X153694000Y-45198000D02*
X153693000Y-45198000D01*
X153698000Y-45194000D02*
X153697000Y-45195000D01*
X153696000Y-45196000D02*
X153695000Y-45197000D01*
X153699000Y-44701000D02*
X152702000Y-44701000D01*
X152702000Y-44701000D02*
X152702000Y-45198000D01*
X152702000Y-45198000D02*
X153699000Y-45198000D01*
X153699000Y-45198000D02*
X153699000Y-44701000D01*
%TO.C,C11*%
X100900000Y-41900000D02*
X99300000Y-41900000D01*
X99300000Y-41900000D02*
X99300000Y-42800000D01*
X99300000Y-42800000D02*
X100900000Y-42800000D01*
X100900000Y-42800000D02*
X100900000Y-41900000D01*
%TO.C,R7*%
X147698000Y-53349000D02*
X149300000Y-53349000D01*
X149300000Y-53349000D02*
X149300000Y-56550000D01*
X149300000Y-56550000D02*
X147698000Y-56550000D01*
X147698000Y-56550000D02*
X147698000Y-53349000D01*
%TO.C,C9*%
X151001000Y-58959000D02*
X151001000Y-58958000D01*
X151002000Y-58957000D02*
X151002000Y-58956000D01*
X151006000Y-58952000D02*
X151007000Y-58952000D01*
X151993000Y-58952000D02*
X151993000Y-58953000D01*
X151011000Y-59449000D02*
X151201000Y-59449000D01*
X151988000Y-59449000D02*
X151798000Y-59449000D01*
X151996000Y-58955000D02*
X151997000Y-58956000D01*
X151001000Y-59440000D02*
X151001000Y-59439000D01*
X151001000Y-58960000D02*
X151001000Y-58960000D01*
X151995000Y-59447000D02*
X151995000Y-59447000D01*
X151997000Y-58956000D02*
X151997000Y-58957000D01*
X151005000Y-58953000D02*
X151006000Y-58953000D01*
X151001000Y-58957000D02*
X151002000Y-58957000D01*
X151003000Y-58954000D02*
X151004000Y-58954000D01*
X151998000Y-59441000D02*
X151998000Y-59441000D01*
X151991000Y-59449000D02*
X151990000Y-59449000D01*
X151001000Y-58960000D02*
X151001000Y-58960000D01*
X151992000Y-58952000D02*
X151993000Y-58952000D01*
X151002000Y-59444000D02*
X151001000Y-59444000D01*
X151997000Y-59444000D02*
X151997000Y-59445000D01*
X151008000Y-58952000D02*
X151009000Y-58952000D01*
X151201000Y-59439000D02*
X151201000Y-58960000D01*
X151004000Y-58954000D02*
X151004000Y-58954000D01*
X151998000Y-59442000D02*
X151998000Y-59443000D01*
X151998000Y-59441000D02*
X151998000Y-59442000D01*
X151003000Y-59446000D02*
X151003000Y-59446000D01*
X151007000Y-59449000D02*
X151006000Y-59449000D01*
X151001000Y-59439000D02*
X151001000Y-59439000D01*
X151994000Y-59448000D02*
X151994000Y-59448000D01*
X151998000Y-58960000D02*
X151998000Y-59439000D01*
X151002000Y-59445000D02*
X151002000Y-59445000D01*
X151004000Y-58954000D02*
X151005000Y-58953000D01*
X151798000Y-58952000D02*
X151988000Y-58952000D01*
X151995000Y-59447000D02*
X151994000Y-59448000D01*
X151201000Y-58960000D02*
X151798000Y-58960000D01*
X151798000Y-59439000D02*
X151798000Y-58960000D01*
X151001000Y-58960000D02*
X151001000Y-58959000D01*
X151998000Y-58958000D02*
X151998000Y-58959000D01*
X151996000Y-59446000D02*
X151996000Y-59447000D01*
X151994000Y-58953000D02*
X151994000Y-58953000D01*
X151008000Y-59449000D02*
X151008000Y-59449000D01*
X151001000Y-58960000D02*
X151001000Y-58960000D01*
X151001000Y-59442000D02*
X151001000Y-59442000D01*
X151993000Y-58953000D02*
X151994000Y-58953000D01*
X151009000Y-58952000D02*
X151009000Y-58952000D01*
X151008000Y-59449000D02*
X151008000Y-59449000D01*
X151997000Y-58956000D02*
X151997000Y-58956000D01*
X151008000Y-58952000D02*
X151008000Y-58952000D01*
X151991000Y-59449000D02*
X151991000Y-59449000D01*
X151001000Y-59443000D02*
X151001000Y-59443000D01*
X151991000Y-58952000D02*
X151991000Y-58952000D01*
X151997000Y-58956000D02*
X151997000Y-58956000D01*
X151991000Y-58952000D02*
X151991000Y-58952000D01*
X151201000Y-59439000D02*
X151798000Y-59439000D01*
X151998000Y-58960000D02*
X151998000Y-58960000D01*
X151004000Y-59447000D02*
X151003000Y-59447000D01*
X151998000Y-59442000D02*
X151998000Y-59442000D01*
X151006000Y-59448000D02*
X151005000Y-59448000D01*
X151003000Y-59446000D02*
X151002000Y-59445000D01*
X151001000Y-58959000D02*
X151001000Y-58959000D01*
X151005000Y-59448000D02*
X151005000Y-59448000D01*
X151997000Y-59445000D02*
X151997000Y-59445000D01*
X151996000Y-58955000D02*
X151996000Y-58955000D01*
X151993000Y-59449000D02*
X151992000Y-59449000D01*
X151002000Y-58956000D02*
X151003000Y-58955000D01*
X151001000Y-59439000D02*
X151001000Y-59439000D01*
X151005000Y-58953000D02*
X151005000Y-58953000D01*
X151001000Y-59441000D02*
X151001000Y-59441000D01*
X151001000Y-58960000D02*
X151001000Y-59439000D01*
X151008000Y-59449000D02*
X151007000Y-59449000D01*
X151798000Y-58960000D02*
X151798000Y-58952000D01*
X151001000Y-59442000D02*
X151001000Y-59441000D01*
X151001000Y-59444000D02*
X151001000Y-59443000D01*
X151002000Y-58956000D02*
X151002000Y-58956000D01*
X151998000Y-58958000D02*
X151998000Y-58958000D01*
X151998000Y-59442000D02*
X151998000Y-59442000D01*
X151001000Y-58959000D02*
X151001000Y-58959000D01*
X151009000Y-59449000D02*
X151008000Y-59449000D01*
X151002000Y-59445000D02*
X151002000Y-59444000D01*
X151006000Y-58953000D02*
X151006000Y-58952000D01*
X151003000Y-59447000D02*
X151003000Y-59446000D01*
X151992000Y-58952000D02*
X151992000Y-58952000D01*
X151007000Y-58952000D02*
X151008000Y-58952000D01*
X151998000Y-59440000D02*
X151998000Y-59441000D01*
X151994000Y-58953000D02*
X151995000Y-58954000D01*
X151996000Y-59446000D02*
X151996000Y-59446000D01*
X151995000Y-58954000D02*
X151995000Y-58954000D01*
X151993000Y-59448000D02*
X151993000Y-59449000D01*
X151003000Y-58955000D02*
X151003000Y-58954000D01*
X151201000Y-58960000D02*
X151201000Y-58952000D01*
X151002000Y-58956000D02*
X151002000Y-58956000D01*
X151001000Y-59442000D02*
X151001000Y-59442000D01*
X151001000Y-58960000D02*
X151001000Y-58960000D01*
X151004000Y-59447000D02*
X151004000Y-59447000D01*
X151009000Y-58952000D02*
X151010000Y-58952000D01*
X151201000Y-58952000D02*
X151011000Y-58952000D01*
X151007000Y-58952000D02*
X151007000Y-58952000D01*
X151001000Y-58958000D02*
X151001000Y-58957000D01*
X151002000Y-59445000D02*
X151002000Y-59445000D01*
X151994000Y-59448000D02*
X151994000Y-59448000D01*
X151005000Y-58953000D02*
X151005000Y-58953000D01*
X151001000Y-59443000D02*
X151001000Y-59442000D01*
X151005000Y-59448000D02*
X151004000Y-59447000D01*
X151998000Y-58959000D02*
X151998000Y-58959000D01*
X151998000Y-58959000D02*
X151998000Y-58960000D01*
X151997000Y-58957000D02*
X151998000Y-58957000D01*
X151998000Y-59443000D02*
X151998000Y-59443000D01*
X151991000Y-59449000D02*
X151991000Y-59449000D01*
X151001000Y-59439000D02*
X151001000Y-59439000D01*
X151997000Y-59445000D02*
X151997000Y-59445000D01*
X151003000Y-58955000D02*
X151003000Y-58955000D01*
X151996000Y-59447000D02*
X151995000Y-59447000D01*
X151992000Y-59449000D02*
X151992000Y-59449000D01*
X151001000Y-58960000D02*
X151001000Y-58960000D01*
X151998000Y-58957000D02*
X151998000Y-58958000D01*
X151998000Y-59444000D02*
X151997000Y-59444000D01*
X151994000Y-58953000D02*
X151994000Y-58953000D01*
X151798000Y-59449000D02*
X151798000Y-59439000D01*
X151001000Y-58958000D02*
X151001000Y-58958000D01*
X151994000Y-59448000D02*
X151993000Y-59448000D01*
X151008000Y-58952000D02*
X151008000Y-58952000D01*
X151201000Y-59449000D02*
X151201000Y-59439000D01*
X151009000Y-59449000D02*
X151009000Y-59449000D01*
X151997000Y-59445000D02*
X151996000Y-59446000D01*
X151995000Y-58954000D02*
X151996000Y-58954000D01*
X151998000Y-59443000D02*
X151998000Y-59444000D01*
X151007000Y-59449000D02*
X151007000Y-59449000D01*
X151996000Y-58954000D02*
X151996000Y-58955000D01*
X151005000Y-59448000D02*
X151005000Y-59448000D01*
X151001000Y-59441000D02*
X151001000Y-59440000D01*
X151006000Y-59449000D02*
X151006000Y-59448000D01*
X151990000Y-58952000D02*
X151991000Y-58952000D01*
X151991000Y-58952000D02*
X151992000Y-58952000D01*
X151998000Y-58959000D02*
X151998000Y-58959000D01*
X151992000Y-59449000D02*
X151991000Y-59449000D01*
X151001000Y-59449000D02*
X151998000Y-59449000D01*
X151998000Y-59449000D02*
X151998000Y-58952000D01*
X151998000Y-58952000D02*
X151001000Y-58952000D01*
X151001000Y-58952000D02*
X151001000Y-59449000D01*
%TO.C,D1*%
X153251000Y-47799000D02*
X148050000Y-47799000D01*
X148050000Y-47799000D02*
X148050000Y-50400000D01*
X148050000Y-50400000D02*
X153251000Y-50400000D01*
X153251000Y-50400000D02*
X153251000Y-47799000D01*
%TO.C,C7*%
X96906000Y-49303000D02*
X96906000Y-49302000D01*
X96901000Y-49792000D02*
X96901000Y-49791000D01*
X96901000Y-49792000D02*
X96901000Y-49792000D01*
X97894000Y-49303000D02*
X97894000Y-49303000D01*
X97896000Y-49305000D02*
X97897000Y-49306000D01*
X97698000Y-49302000D02*
X97888000Y-49302000D01*
X96901000Y-49309000D02*
X96901000Y-49308000D01*
X97895000Y-49797000D02*
X97895000Y-49797000D01*
X96909000Y-49799000D02*
X96909000Y-49799000D01*
X97891000Y-49302000D02*
X97892000Y-49302000D01*
X96909000Y-49799000D02*
X96908000Y-49799000D01*
X96901000Y-49308000D02*
X96901000Y-49307000D01*
X96901000Y-49310000D02*
X96901000Y-49310000D01*
X97898000Y-49310000D02*
X97898000Y-49310000D01*
X96903000Y-49304000D02*
X96904000Y-49304000D01*
X97892000Y-49302000D02*
X97893000Y-49302000D01*
X97893000Y-49302000D02*
X97893000Y-49303000D01*
X97101000Y-49302000D02*
X96911000Y-49302000D01*
X96904000Y-49797000D02*
X96903000Y-49797000D01*
X97894000Y-49798000D02*
X97894000Y-49798000D01*
X96903000Y-49305000D02*
X96903000Y-49304000D01*
X97896000Y-49796000D02*
X97896000Y-49797000D01*
X96901000Y-49791000D02*
X96901000Y-49791000D01*
X96907000Y-49302000D02*
X96907000Y-49302000D01*
X97898000Y-49308000D02*
X97898000Y-49308000D01*
X96905000Y-49303000D02*
X96906000Y-49303000D01*
X96901000Y-49789000D02*
X96901000Y-49789000D01*
X96901000Y-49307000D02*
X96902000Y-49307000D01*
X96901000Y-49310000D02*
X96901000Y-49310000D01*
X97698000Y-49789000D02*
X97698000Y-49310000D01*
X97898000Y-49791000D02*
X97898000Y-49792000D01*
X96901000Y-49309000D02*
X96901000Y-49309000D01*
X96907000Y-49799000D02*
X96906000Y-49799000D01*
X97891000Y-49302000D02*
X97891000Y-49302000D01*
X97897000Y-49795000D02*
X97896000Y-49796000D01*
X97898000Y-49792000D02*
X97898000Y-49793000D01*
X96901000Y-49791000D02*
X96901000Y-49790000D01*
X97898000Y-49309000D02*
X97898000Y-49309000D01*
X96907000Y-49302000D02*
X96908000Y-49302000D01*
X96905000Y-49798000D02*
X96905000Y-49798000D01*
X96901000Y-49789000D02*
X96901000Y-49789000D01*
X97896000Y-49304000D02*
X97896000Y-49305000D01*
X96904000Y-49304000D02*
X96905000Y-49303000D01*
X97101000Y-49789000D02*
X97698000Y-49789000D01*
X96901000Y-49794000D02*
X96901000Y-49793000D01*
X96903000Y-49305000D02*
X96903000Y-49305000D01*
X97897000Y-49307000D02*
X97898000Y-49307000D01*
X97892000Y-49799000D02*
X97891000Y-49799000D01*
X96909000Y-49302000D02*
X96909000Y-49302000D01*
X97891000Y-49799000D02*
X97891000Y-49799000D01*
X96902000Y-49795000D02*
X96902000Y-49795000D01*
X97101000Y-49310000D02*
X97698000Y-49310000D01*
X96901000Y-49792000D02*
X96901000Y-49792000D01*
X96907000Y-49799000D02*
X96907000Y-49799000D01*
X97894000Y-49303000D02*
X97895000Y-49304000D01*
X96902000Y-49795000D02*
X96902000Y-49794000D01*
X97897000Y-49306000D02*
X97897000Y-49307000D01*
X97897000Y-49795000D02*
X97897000Y-49795000D01*
X96905000Y-49303000D02*
X96905000Y-49303000D01*
X96905000Y-49303000D02*
X96905000Y-49303000D01*
X96902000Y-49306000D02*
X96903000Y-49305000D01*
X97895000Y-49797000D02*
X97894000Y-49798000D01*
X96903000Y-49796000D02*
X96903000Y-49796000D01*
X97898000Y-49309000D02*
X97898000Y-49309000D01*
X97895000Y-49304000D02*
X97896000Y-49304000D01*
X96901000Y-49310000D02*
X96901000Y-49310000D01*
X97898000Y-49792000D02*
X97898000Y-49792000D01*
X97698000Y-49799000D02*
X97698000Y-49789000D01*
X97892000Y-49302000D02*
X97892000Y-49302000D01*
X97893000Y-49798000D02*
X97893000Y-49799000D01*
X96908000Y-49302000D02*
X96909000Y-49302000D01*
X96901000Y-49308000D02*
X96901000Y-49308000D01*
X96908000Y-49799000D02*
X96908000Y-49799000D01*
X97895000Y-49304000D02*
X97895000Y-49304000D01*
X97890000Y-49302000D02*
X97891000Y-49302000D01*
X97898000Y-49307000D02*
X97898000Y-49308000D01*
X97888000Y-49799000D02*
X97698000Y-49799000D01*
X97101000Y-49789000D02*
X97101000Y-49310000D01*
X97896000Y-49796000D02*
X97896000Y-49796000D01*
X97896000Y-49797000D02*
X97895000Y-49797000D01*
X97898000Y-49793000D02*
X97898000Y-49793000D01*
X96902000Y-49794000D02*
X96901000Y-49794000D01*
X97891000Y-49799000D02*
X97891000Y-49799000D01*
X97893000Y-49799000D02*
X97892000Y-49799000D01*
X96901000Y-49310000D02*
X96901000Y-49310000D01*
X97898000Y-49791000D02*
X97898000Y-49791000D01*
X96901000Y-49793000D02*
X96901000Y-49792000D01*
X97896000Y-49305000D02*
X97896000Y-49305000D01*
X96908000Y-49302000D02*
X96908000Y-49302000D01*
X97894000Y-49303000D02*
X97894000Y-49303000D01*
X96902000Y-49306000D02*
X96902000Y-49306000D01*
X96905000Y-49798000D02*
X96904000Y-49797000D01*
X97898000Y-49309000D02*
X97898000Y-49310000D01*
X97894000Y-49798000D02*
X97893000Y-49798000D01*
X97898000Y-49310000D02*
X97898000Y-49789000D01*
X96903000Y-49796000D02*
X96902000Y-49795000D01*
X96909000Y-49302000D02*
X96910000Y-49302000D01*
X96905000Y-49798000D02*
X96905000Y-49798000D01*
X97892000Y-49799000D02*
X97892000Y-49799000D01*
X96908000Y-49799000D02*
X96907000Y-49799000D01*
X97898000Y-49793000D02*
X97898000Y-49794000D01*
X96906000Y-49798000D02*
X96905000Y-49798000D01*
X96901000Y-49309000D02*
X96901000Y-49309000D01*
X96902000Y-49307000D02*
X96902000Y-49306000D01*
X97898000Y-49308000D02*
X97898000Y-49309000D01*
X96901000Y-49793000D02*
X96901000Y-49793000D01*
X97897000Y-49795000D02*
X97897000Y-49795000D01*
X96908000Y-49799000D02*
X96908000Y-49799000D01*
X97897000Y-49306000D02*
X97897000Y-49306000D01*
X97893000Y-49303000D02*
X97894000Y-49303000D01*
X97891000Y-49302000D02*
X97891000Y-49302000D01*
X97101000Y-49799000D02*
X97101000Y-49789000D01*
X96904000Y-49304000D02*
X96904000Y-49304000D01*
X96901000Y-49310000D02*
X96901000Y-49309000D01*
X97891000Y-49799000D02*
X97890000Y-49799000D01*
X96908000Y-49302000D02*
X96908000Y-49302000D01*
X97898000Y-49790000D02*
X97898000Y-49791000D01*
X96903000Y-49797000D02*
X96903000Y-49796000D01*
X96904000Y-49797000D02*
X96904000Y-49797000D01*
X96911000Y-49799000D02*
X97101000Y-49799000D01*
X96902000Y-49306000D02*
X96902000Y-49306000D01*
X96901000Y-49790000D02*
X96901000Y-49789000D01*
X97894000Y-49798000D02*
X97894000Y-49798000D01*
X96901000Y-49310000D02*
X96901000Y-49789000D01*
X96906000Y-49799000D02*
X96906000Y-49798000D01*
X97897000Y-49794000D02*
X97897000Y-49795000D01*
X97698000Y-49310000D02*
X97698000Y-49302000D01*
X97898000Y-49792000D02*
X97898000Y-49792000D01*
X97101000Y-49310000D02*
X97101000Y-49302000D01*
X96906000Y-49302000D02*
X96907000Y-49302000D01*
X96902000Y-49795000D02*
X96902000Y-49795000D01*
X97897000Y-49306000D02*
X97897000Y-49306000D01*
X97898000Y-49794000D02*
X97897000Y-49794000D01*
X96901000Y-49310000D02*
X96901000Y-49310000D01*
X96901000Y-49789000D02*
X96901000Y-49789000D01*
X96901000Y-49799000D02*
X97898000Y-49799000D01*
X97898000Y-49799000D02*
X97898000Y-49302000D01*
X97898000Y-49302000D02*
X96901000Y-49302000D01*
X96901000Y-49302000D02*
X96901000Y-49799000D01*
%TO.C,R1*%
X146151000Y-53098000D02*
X142950000Y-53098000D01*
X142950000Y-53098000D02*
X142950000Y-54700000D01*
X142950000Y-54700000D02*
X146151000Y-54700000D01*
X146151000Y-54700000D02*
X146151000Y-53098000D01*
%TO.C,C3*%
X152893000Y-46002000D02*
X152894000Y-46002000D01*
X152899000Y-46799000D02*
X152889000Y-46799000D01*
X152895000Y-46003000D02*
X152895000Y-46003000D01*
X152890000Y-46999000D02*
X152889000Y-46999000D01*
X152402000Y-46009000D02*
X152402000Y-46008000D01*
X152893000Y-46999000D02*
X152893000Y-46999000D01*
X152899000Y-46989000D02*
X152899000Y-46799000D01*
X152402000Y-46992000D02*
X152402000Y-46992000D01*
X152897000Y-46005000D02*
X152898000Y-46006000D01*
X152410000Y-46202000D02*
X152402000Y-46202000D01*
X152405000Y-46997000D02*
X152405000Y-46997000D01*
X152890000Y-46002000D02*
X152891000Y-46002000D01*
X152899000Y-46008000D02*
X152899000Y-46008000D01*
X152899000Y-46991000D02*
X152899000Y-46992000D01*
X152410000Y-46999000D02*
X152410000Y-46999000D01*
X152409000Y-46999000D02*
X152409000Y-46999000D01*
X152895000Y-46998000D02*
X152894000Y-46998000D01*
X152898000Y-46006000D02*
X152898000Y-46006000D01*
X152891000Y-46002000D02*
X152891000Y-46002000D01*
X152894000Y-46002000D02*
X152894000Y-46003000D01*
X152898000Y-46007000D02*
X152899000Y-46007000D01*
X152407000Y-46002000D02*
X152408000Y-46002000D01*
X152402000Y-46009000D02*
X152402000Y-46009000D01*
X152899000Y-46993000D02*
X152899000Y-46993000D01*
X152892000Y-46999000D02*
X152892000Y-46999000D01*
X152897000Y-46005000D02*
X152897000Y-46005000D01*
X152899000Y-46007000D02*
X152899000Y-46008000D01*
X152406000Y-46998000D02*
X152406000Y-46998000D01*
X152405000Y-46004000D02*
X152405000Y-46004000D01*
X152898000Y-46006000D02*
X152898000Y-46007000D01*
X152402000Y-46991000D02*
X152402000Y-46991000D01*
X152899000Y-46009000D02*
X152899000Y-46009000D01*
X152408000Y-46999000D02*
X152408000Y-46999000D01*
X152899000Y-46012000D02*
X152899000Y-46202000D01*
X152410000Y-46999000D02*
X152409000Y-46999000D01*
X152402000Y-46993000D02*
X152402000Y-46992000D01*
X152898000Y-46006000D02*
X152898000Y-46006000D01*
X152410000Y-46999000D02*
X152410000Y-46999000D01*
X152408000Y-46002000D02*
X152408000Y-46002000D01*
X152895000Y-46998000D02*
X152895000Y-46998000D01*
X152402000Y-46992000D02*
X152402000Y-46991000D01*
X152897000Y-46996000D02*
X152897000Y-46996000D01*
X152406000Y-46998000D02*
X152406000Y-46998000D01*
X152403000Y-46995000D02*
X152403000Y-46995000D01*
X152899000Y-46202000D02*
X152889000Y-46202000D01*
X152402000Y-46010000D02*
X152402000Y-46009000D01*
X152899000Y-46993000D02*
X152899000Y-46994000D01*
X152891000Y-46999000D02*
X152891000Y-46999000D01*
X152403000Y-46995000D02*
X152403000Y-46995000D01*
X152406000Y-46003000D02*
X152407000Y-46003000D01*
X152897000Y-46004000D02*
X152897000Y-46005000D01*
X152898000Y-46995000D02*
X152898000Y-46995000D01*
X152892000Y-46002000D02*
X152892000Y-46002000D01*
X152893000Y-46002000D02*
X152893000Y-46002000D01*
X152896000Y-46004000D02*
X152896000Y-46004000D01*
X152410000Y-46002000D02*
X152410000Y-46002000D01*
X152892000Y-46002000D02*
X152892000Y-46002000D01*
X152410000Y-46002000D02*
X152889000Y-46002000D01*
X152896000Y-46004000D02*
X152897000Y-46004000D01*
X152410000Y-46999000D02*
X152410000Y-46999000D01*
X152404000Y-46004000D02*
X152405000Y-46004000D01*
X152895000Y-46998000D02*
X152895000Y-46998000D01*
X152409000Y-46002000D02*
X152409000Y-46002000D01*
X152404000Y-46996000D02*
X152403000Y-46995000D01*
X152410000Y-46999000D02*
X152410000Y-46999000D01*
X152896000Y-46997000D02*
X152895000Y-46998000D01*
X152402000Y-46991000D02*
X152402000Y-46990000D01*
X152406000Y-46998000D02*
X152405000Y-46997000D01*
X152410000Y-46999000D02*
X152889000Y-46999000D01*
X152894000Y-46999000D02*
X152893000Y-46999000D01*
X152402000Y-46992000D02*
X152402000Y-46992000D01*
X152406000Y-46003000D02*
X152406000Y-46003000D01*
X152891000Y-46002000D02*
X152892000Y-46002000D01*
X152402000Y-46008000D02*
X152402000Y-46008000D01*
X152402000Y-46799000D02*
X152402000Y-46989000D01*
X152408000Y-46999000D02*
X152407000Y-46999000D01*
X152409000Y-46999000D02*
X152408000Y-46999000D01*
X152402000Y-46009000D02*
X152402000Y-46009000D01*
X152407000Y-46998000D02*
X152406000Y-46998000D01*
X152897000Y-46996000D02*
X152897000Y-46997000D01*
X152892000Y-46999000D02*
X152892000Y-46999000D01*
X152889000Y-46999000D02*
X152889000Y-46999000D01*
X152897000Y-46997000D02*
X152896000Y-46997000D01*
X152405000Y-46997000D02*
X152404000Y-46997000D01*
X152892000Y-46002000D02*
X152893000Y-46002000D01*
X152408000Y-46002000D02*
X152409000Y-46002000D01*
X152402000Y-46994000D02*
X152402000Y-46993000D01*
X152403000Y-46007000D02*
X152403000Y-46006000D01*
X152403000Y-46006000D02*
X152404000Y-46005000D01*
X152404000Y-46996000D02*
X152404000Y-46996000D01*
X152889000Y-46999000D02*
X152889000Y-46999000D01*
X152402000Y-46202000D02*
X152402000Y-46012000D01*
X152403000Y-46995000D02*
X152403000Y-46994000D01*
X152889000Y-46799000D02*
X152889000Y-46202000D01*
X152409000Y-46002000D02*
X152410000Y-46002000D01*
X152895000Y-46003000D02*
X152896000Y-46004000D01*
X152889000Y-46999000D02*
X152889000Y-46999000D01*
X152403000Y-46006000D02*
X152403000Y-46006000D01*
X152891000Y-46999000D02*
X152890000Y-46999000D01*
X152899000Y-46992000D02*
X152899000Y-46993000D01*
X152410000Y-46799000D02*
X152410000Y-46202000D01*
X152898000Y-46995000D02*
X152897000Y-46996000D01*
X152898000Y-46994000D02*
X152898000Y-46995000D01*
X152410000Y-46999000D02*
X152410000Y-46999000D01*
X152894000Y-46003000D02*
X152895000Y-46003000D01*
X152403000Y-46994000D02*
X152402000Y-46994000D01*
X152405000Y-46004000D02*
X152406000Y-46003000D01*
X152404000Y-46005000D02*
X152404000Y-46005000D01*
X152892000Y-46999000D02*
X152891000Y-46999000D01*
X152896000Y-46997000D02*
X152896000Y-46997000D01*
X152899000Y-46009000D02*
X152899000Y-46010000D01*
X152409000Y-46002000D02*
X152409000Y-46002000D01*
X152898000Y-46995000D02*
X152898000Y-46995000D01*
X152889000Y-46202000D02*
X152410000Y-46202000D01*
X152410000Y-46799000D02*
X152402000Y-46799000D01*
X152404000Y-46005000D02*
X152404000Y-46004000D01*
X152899000Y-46992000D02*
X152899000Y-46992000D01*
X152899000Y-46008000D02*
X152899000Y-46009000D01*
X152899000Y-46991000D02*
X152899000Y-46991000D01*
X152893000Y-46999000D02*
X152892000Y-46999000D01*
X152402000Y-46993000D02*
X152402000Y-46993000D01*
X152403000Y-46006000D02*
X152403000Y-46006000D01*
X152402000Y-46007000D02*
X152403000Y-46007000D01*
X152889000Y-46799000D02*
X152410000Y-46799000D01*
X152407000Y-46999000D02*
X152407000Y-46998000D01*
X152899000Y-46992000D02*
X152899000Y-46992000D01*
X152404000Y-46997000D02*
X152404000Y-46996000D01*
X152409000Y-46999000D02*
X152409000Y-46999000D01*
X152407000Y-46003000D02*
X152407000Y-46002000D01*
X152402000Y-46008000D02*
X152402000Y-46007000D01*
X152894000Y-46998000D02*
X152894000Y-46999000D01*
X152895000Y-46003000D02*
X152895000Y-46003000D01*
X152406000Y-46003000D02*
X152406000Y-46003000D01*
X152899000Y-46994000D02*
X152898000Y-46994000D01*
X152899000Y-46009000D02*
X152899000Y-46009000D01*
X152899000Y-46999000D02*
X152402000Y-46999000D01*
X152402000Y-46999000D02*
X152402000Y-46002000D01*
X152402000Y-46002000D02*
X152899000Y-46002000D01*
X152899000Y-46002000D02*
X152899000Y-46999000D01*
%TO.C,R4*%
X145850000Y-45449000D02*
X145350000Y-45449000D01*
X145350000Y-45449000D02*
X145350000Y-44449000D01*
X145350000Y-44449000D02*
X145850000Y-44449000D01*
X145850000Y-44449000D02*
X145850000Y-45449000D01*
%TO.C,C6*%
X96600000Y-46400000D02*
X98200000Y-46400000D01*
X98200000Y-46400000D02*
X98200000Y-45500000D01*
X98200000Y-45500000D02*
X96600000Y-45500000D01*
X96600000Y-45500000D02*
X96600000Y-46400000D01*
%TO.C,C10*%
X100900000Y-43400000D02*
X99300000Y-43400000D01*
X99300000Y-43400000D02*
X99300000Y-44300000D01*
X99300000Y-44300000D02*
X100900000Y-44300000D01*
X100900000Y-44300000D02*
X100900000Y-43400000D01*
%TD*%
M02*
