%TF.GenerationSoftware,KiCad,Pcbnew,6.0.11+dfsg-1~bpo11+1*%
%TF.CreationDate,2023-04-14T13:04:02+02:00*%
%TF.ProjectId,IR-diode-general,49522d64-696f-4646-952d-67656e657261,rev?*%
%TF.SameCoordinates,Original*%
%TF.FileFunction,Plated,1,2,PTH,Mixed*%
%TF.FilePolarity,Positive*%
%FSLAX46Y46*%
G04 Gerber Fmt 4.6, Leading zero omitted, Abs format (unit mm)*
G04 Created by KiCad (PCBNEW 6.0.11+dfsg-1~bpo11+1) date 2023-04-14 13:04:02 commit 5e22265*
%MOMM*%
%LPD*%
G01*
G04 APERTURE LIST*
%TA.AperFunction,ViaDrill*%
%ADD10C,0.300000*%
%TD*%
G04 aperture for slot hole*
%TA.AperFunction,ComponentDrill*%
%ADD11O,1.400000X0.600000*%
%TD*%
G04 aperture for slot hole*
%TA.AperFunction,ComponentDrill*%
%ADD12O,1.700000X0.600000*%
%TD*%
%TA.AperFunction,ComponentDrill*%
%ADD13C,1.000000*%
%TD*%
G04 aperture for slot hole*
%TA.AperFunction,ComponentDrill*%
%ADD14O,1.000000X3.500000*%
%TD*%
G04 aperture for slot hole*
%TA.AperFunction,ComponentDrill*%
%ADD15O,3.000000X1.000000*%
%TD*%
G04 aperture for slot hole*
%TA.AperFunction,ComponentDrill*%
%ADD16O,1.000000X3.000000*%
%TD*%
G04 APERTURE END LIST*
D10*
X91750000Y-43750000D03*
X91850000Y-42750000D03*
X93150000Y-54700000D03*
X94250000Y-46350000D03*
X95550000Y-46200000D03*
X105600000Y-47700000D03*
X107100000Y-52900000D03*
X111200000Y-53050000D03*
X111250000Y-43830000D03*
X111250000Y-45370000D03*
X111250000Y-46910000D03*
X111250000Y-48450000D03*
X111720000Y-54540000D03*
X111720000Y-56080000D03*
X111900000Y-50900000D03*
X112550000Y-43830000D03*
X112550000Y-45370000D03*
X112550000Y-46910000D03*
X112550000Y-48450000D03*
X112600000Y-53050000D03*
X113260000Y-54540000D03*
X113260000Y-56080000D03*
X114090000Y-43830000D03*
X114090000Y-45370000D03*
X114090000Y-46910000D03*
X114800000Y-54540000D03*
X114800000Y-56080000D03*
X115630000Y-43830000D03*
X115630000Y-45370000D03*
X115630000Y-46910000D03*
X116340000Y-54540000D03*
X116340000Y-56080000D03*
X117170000Y-43830000D03*
X117170000Y-45370000D03*
X117170000Y-46910000D03*
X117880000Y-54540000D03*
X117880000Y-56080000D03*
X118700000Y-46900000D03*
X118710000Y-43830000D03*
X118710000Y-45370000D03*
X119420000Y-54540000D03*
X119420000Y-56080000D03*
X120960000Y-54540000D03*
X120960000Y-56080000D03*
X122500000Y-54540000D03*
X122500000Y-56080000D03*
X124040000Y-54540000D03*
X124040000Y-56080000D03*
X125580000Y-54540000D03*
X125580000Y-56080000D03*
X127120000Y-54540000D03*
X127120000Y-56080000D03*
X128660000Y-54540000D03*
X128660000Y-56080000D03*
X130200000Y-54540000D03*
X130200000Y-56080000D03*
X131740000Y-54540000D03*
X131740000Y-56080000D03*
X133280000Y-54540000D03*
X133280000Y-56080000D03*
X133430000Y-43880000D03*
X133430000Y-45420000D03*
X133430000Y-46960000D03*
X134250000Y-50850000D03*
X134820000Y-54540000D03*
X134820000Y-56080000D03*
X134970000Y-43880000D03*
X134970000Y-45420000D03*
X134970000Y-46960000D03*
X136360000Y-54540000D03*
X136360000Y-56080000D03*
X136510000Y-43880000D03*
X136510000Y-45420000D03*
X136510000Y-46960000D03*
X137900000Y-53000000D03*
X137900000Y-54540000D03*
X137900000Y-56080000D03*
X138050000Y-43880000D03*
X138050000Y-45420000D03*
X138050000Y-46960000D03*
X138050000Y-48500000D03*
X139350000Y-43880000D03*
X139350000Y-45420000D03*
X139350000Y-46960000D03*
X139350000Y-48500000D03*
X139350000Y-53000000D03*
X139350000Y-54540000D03*
X139350000Y-56080000D03*
X144750000Y-48150000D03*
X146700000Y-52350000D03*
X146948423Y-43349500D03*
X150100000Y-50750000D03*
X150150000Y-42300000D03*
X151350000Y-50800000D03*
X158800000Y-41700000D03*
X159000000Y-45150000D03*
D11*
%TO.C,J2*%
X86904645Y-51529000D03*
X86904645Y-60170000D03*
D12*
X91085645Y-51529000D03*
X91085645Y-60170000D03*
D13*
%TO.C,POT1*%
X95574600Y-52111800D03*
X99574600Y-52111800D03*
X103574600Y-52111800D03*
D14*
%TO.C,J1*%
X153700000Y-56600000D03*
D15*
X156648000Y-51721000D03*
D16*
X159699000Y-56600000D03*
M02*
