%TF.GenerationSoftware,KiCad,Pcbnew,6.0.11+dfsg-1~bpo11+1*%
%TF.CreationDate,2023-04-14T13:04:02+02:00*%
%TF.ProjectId,IR-diode-general,49522d64-696f-4646-952d-67656e657261,rev?*%
%TF.SameCoordinates,Original*%
%TF.FileFunction,AssemblyDrawing,Bot*%
%FSLAX46Y46*%
G04 Gerber Fmt 4.6, Leading zero omitted, Abs format (unit mm)*
G04 Created by KiCad (PCBNEW 6.0.11+dfsg-1~bpo11+1) date 2023-04-14 13:04:02 commit 5e22265*
%MOMM*%
%LPD*%
G01*
G04 APERTURE LIST*
%TA.AperFunction,Profile*%
%ADD10C,0.100000*%
%TD*%
%ADD11C,0.150000*%
%ADD12C,0.090000*%
%ADD13C,0.100000*%
%ADD14C,0.254000*%
G04 APERTURE END LIST*
D10*
X85000000Y-40500000D02*
X165000000Y-40500000D01*
X165000000Y-40500000D02*
X165000000Y-61000000D01*
X165000000Y-61000000D02*
X85000000Y-61000000D01*
X85000000Y-61000000D02*
X85000000Y-40500000D01*
D11*
%TO.C,R8*%
X103614166Y-43166666D02*
X103847500Y-42833333D01*
X104014166Y-43166666D02*
X104014166Y-42466666D01*
X103747500Y-42466666D01*
X103680833Y-42500000D01*
X103647500Y-42533333D01*
X103614166Y-42600000D01*
X103614166Y-42700000D01*
X103647500Y-42766666D01*
X103680833Y-42800000D01*
X103747500Y-42833333D01*
X104014166Y-42833333D01*
X103480833Y-43233333D02*
X102947500Y-43233333D01*
X102480833Y-42466666D02*
X102614166Y-42466666D01*
X102680833Y-42500000D01*
X102714166Y-42533333D01*
X102780833Y-42633333D01*
X102814166Y-42766666D01*
X102814166Y-43033333D01*
X102780833Y-43100000D01*
X102747500Y-43133333D01*
X102680833Y-43166666D01*
X102547500Y-43166666D01*
X102480833Y-43133333D01*
X102447500Y-43100000D01*
X102414166Y-43033333D01*
X102414166Y-42866666D01*
X102447500Y-42800000D01*
X102480833Y-42766666D01*
X102547500Y-42733333D01*
X102680833Y-42733333D01*
X102747500Y-42766666D01*
X102780833Y-42800000D01*
X102814166Y-42866666D01*
X102114166Y-43166666D02*
X102114166Y-42466666D01*
X102047500Y-42900000D02*
X101847500Y-43166666D01*
X101847500Y-42700000D02*
X102114166Y-42966666D01*
X101447500Y-42766666D02*
X101514166Y-42733333D01*
X101547500Y-42700000D01*
X101580833Y-42633333D01*
X101580833Y-42600000D01*
X101547500Y-42533333D01*
X101514166Y-42500000D01*
X101447500Y-42466666D01*
X101314166Y-42466666D01*
X101247500Y-42500000D01*
X101214166Y-42533333D01*
X101180833Y-42600000D01*
X101180833Y-42633333D01*
X101214166Y-42700000D01*
X101247500Y-42733333D01*
X101314166Y-42766666D01*
X101447500Y-42766666D01*
X101514166Y-42800000D01*
X101547500Y-42833333D01*
X101580833Y-42900000D01*
X101580833Y-43033333D01*
X101547500Y-43100000D01*
X101514166Y-43133333D01*
X101447500Y-43166666D01*
X101314166Y-43166666D01*
X101247500Y-43133333D01*
X101214166Y-43100000D01*
X101180833Y-43033333D01*
X101180833Y-42900000D01*
X101214166Y-42833333D01*
X101247500Y-42800000D01*
X101314166Y-42766666D01*
X101047500Y-43233333D02*
X100514166Y-43233333D01*
X100214166Y-42466666D02*
X100147500Y-42466666D01*
X100080833Y-42500000D01*
X100047500Y-42533333D01*
X100014166Y-42600000D01*
X99980833Y-42733333D01*
X99980833Y-42900000D01*
X100014166Y-43033333D01*
X100047500Y-43100000D01*
X100080833Y-43133333D01*
X100147500Y-43166666D01*
X100214166Y-43166666D01*
X100280833Y-43133333D01*
X100314166Y-43100000D01*
X100347500Y-43033333D01*
X100380833Y-42900000D01*
X100380833Y-42733333D01*
X100347500Y-42600000D01*
X100314166Y-42533333D01*
X100280833Y-42500000D01*
X100214166Y-42466666D01*
X99380833Y-42700000D02*
X99380833Y-43166666D01*
X99547500Y-42433333D02*
X99714166Y-42933333D01*
X99280833Y-42933333D01*
X98880833Y-42466666D02*
X98814166Y-42466666D01*
X98747500Y-42500000D01*
X98714166Y-42533333D01*
X98680833Y-42600000D01*
X98647500Y-42733333D01*
X98647500Y-42900000D01*
X98680833Y-43033333D01*
X98714166Y-43100000D01*
X98747500Y-43133333D01*
X98814166Y-43166666D01*
X98880833Y-43166666D01*
X98947500Y-43133333D01*
X98980833Y-43100000D01*
X99014166Y-43033333D01*
X99047500Y-42900000D01*
X99047500Y-42733333D01*
X99014166Y-42600000D01*
X98980833Y-42533333D01*
X98947500Y-42500000D01*
X98880833Y-42466666D01*
X98380833Y-42533333D02*
X98347500Y-42500000D01*
X98280833Y-42466666D01*
X98114166Y-42466666D01*
X98047500Y-42500000D01*
X98014166Y-42533333D01*
X97980833Y-42600000D01*
X97980833Y-42666666D01*
X98014166Y-42766666D01*
X98414166Y-43166666D01*
X97980833Y-43166666D01*
%TO.C,U2*%
X100139666Y-48078833D02*
X100139666Y-48412166D01*
X100339666Y-48012166D02*
X99639666Y-48245500D01*
X100339666Y-48478833D01*
X100339666Y-48712166D02*
X99639666Y-48712166D01*
X99639666Y-48978833D01*
X99673000Y-49045500D01*
X99706333Y-49078833D01*
X99773000Y-49112166D01*
X99873000Y-49112166D01*
X99939666Y-49078833D01*
X99973000Y-49045500D01*
X100006333Y-48978833D01*
X100006333Y-48712166D01*
X99639666Y-49712166D02*
X99639666Y-49578833D01*
X99673000Y-49512166D01*
X99706333Y-49478833D01*
X99806333Y-49412166D01*
X99939666Y-49378833D01*
X100206333Y-49378833D01*
X100273000Y-49412166D01*
X100306333Y-49445500D01*
X100339666Y-49512166D01*
X100339666Y-49645500D01*
X100306333Y-49712166D01*
X100273000Y-49745500D01*
X100206333Y-49778833D01*
X100039666Y-49778833D01*
X99973000Y-49745500D01*
X99939666Y-49712166D01*
X99906333Y-49645500D01*
X99906333Y-49512166D01*
X99939666Y-49445500D01*
X99973000Y-49412166D01*
X100039666Y-49378833D01*
X99706333Y-50045500D02*
X99673000Y-50078833D01*
X99639666Y-50145500D01*
X99639666Y-50312166D01*
X99673000Y-50378833D01*
X99706333Y-50412166D01*
X99773000Y-50445500D01*
X99839666Y-50445500D01*
X99939666Y-50412166D01*
X100339666Y-50012166D01*
X100339666Y-50445500D01*
X99639666Y-50678833D02*
X99639666Y-51112166D01*
X99906333Y-50878833D01*
X99906333Y-50978833D01*
X99939666Y-51045500D01*
X99973000Y-51078833D01*
X100039666Y-51112166D01*
X100206333Y-51112166D01*
X100273000Y-51078833D01*
X100306333Y-51045500D01*
X100339666Y-50978833D01*
X100339666Y-50778833D01*
X100306333Y-50712166D01*
X100273000Y-50678833D01*
X99639666Y-51545500D02*
X99639666Y-51612166D01*
X99673000Y-51678833D01*
X99706333Y-51712166D01*
X99773000Y-51745500D01*
X99906333Y-51778833D01*
X100073000Y-51778833D01*
X100206333Y-51745500D01*
X100273000Y-51712166D01*
X100306333Y-51678833D01*
X100339666Y-51612166D01*
X100339666Y-51545500D01*
X100306333Y-51478833D01*
X100273000Y-51445500D01*
X100206333Y-51412166D01*
X100073000Y-51378833D01*
X99906333Y-51378833D01*
X99773000Y-51412166D01*
X99706333Y-51445500D01*
X99673000Y-51478833D01*
X99639666Y-51545500D01*
X100339666Y-52445500D02*
X100339666Y-52045500D01*
X100339666Y-52245500D02*
X99639666Y-52245500D01*
X99739666Y-52178833D01*
X99806333Y-52112166D01*
X99839666Y-52045500D01*
X99639666Y-52678833D02*
X99639666Y-53145500D01*
X100339666Y-52678833D01*
X100339666Y-53145500D01*
X99639666Y-53712166D02*
X99639666Y-53578833D01*
X99673000Y-53512166D01*
X99706333Y-53478833D01*
X99806333Y-53412166D01*
X99939666Y-53378833D01*
X100206333Y-53378833D01*
X100273000Y-53412166D01*
X100306333Y-53445500D01*
X100339666Y-53512166D01*
X100339666Y-53645500D01*
X100306333Y-53712166D01*
X100273000Y-53745500D01*
X100206333Y-53778833D01*
X100039666Y-53778833D01*
X99973000Y-53745500D01*
X99939666Y-53712166D01*
X99906333Y-53645500D01*
X99906333Y-53512166D01*
X99939666Y-53445500D01*
X99973000Y-53412166D01*
X100039666Y-53378833D01*
X100073000Y-54078833D02*
X100073000Y-54612166D01*
X99639666Y-54878833D02*
X99639666Y-55345500D01*
X100339666Y-55045500D01*
%TO.C,L2*%
X97602380Y-37361904D02*
X97602380Y-37933333D01*
X98602380Y-37647619D02*
X97602380Y-37647619D01*
X98078571Y-38600000D02*
X98078571Y-38266666D01*
X98602380Y-38266666D02*
X97602380Y-38266666D01*
X97602380Y-38742857D01*
X98602380Y-39123809D02*
X97602380Y-39123809D01*
X98316666Y-39457142D01*
X97602380Y-39790476D01*
X98602380Y-39790476D01*
X97697619Y-40219047D02*
X97650000Y-40266666D01*
X97602380Y-40361904D01*
X97602380Y-40600000D01*
X97650000Y-40695238D01*
X97697619Y-40742857D01*
X97792857Y-40790476D01*
X97888095Y-40790476D01*
X98030952Y-40742857D01*
X98602380Y-40171428D01*
X98602380Y-40790476D01*
X97602380Y-41695238D02*
X97602380Y-41219047D01*
X98078571Y-41171428D01*
X98030952Y-41219047D01*
X97983333Y-41314285D01*
X97983333Y-41552380D01*
X98030952Y-41647619D01*
X98078571Y-41695238D01*
X98173809Y-41742857D01*
X98411904Y-41742857D01*
X98507142Y-41695238D01*
X98554761Y-41647619D01*
X98602380Y-41552380D01*
X98602380Y-41314285D01*
X98554761Y-41219047D01*
X98507142Y-41171428D01*
X97697619Y-42123809D02*
X97650000Y-42171428D01*
X97602380Y-42266666D01*
X97602380Y-42504761D01*
X97650000Y-42600000D01*
X97697619Y-42647619D01*
X97792857Y-42695238D01*
X97888095Y-42695238D01*
X98030952Y-42647619D01*
X98602380Y-42076190D01*
X98602380Y-42695238D01*
X97602380Y-43314285D02*
X97602380Y-43409523D01*
X97650000Y-43504761D01*
X97697619Y-43552380D01*
X97792857Y-43600000D01*
X97983333Y-43647619D01*
X98221428Y-43647619D01*
X98411904Y-43600000D01*
X98507142Y-43552380D01*
X98554761Y-43504761D01*
X98602380Y-43409523D01*
X98602380Y-43314285D01*
X98554761Y-43219047D01*
X98507142Y-43171428D01*
X98411904Y-43123809D01*
X98221428Y-43076190D01*
X97983333Y-43076190D01*
X97792857Y-43123809D01*
X97697619Y-43171428D01*
X97650000Y-43219047D01*
X97602380Y-43314285D01*
X98602380Y-44600000D02*
X98602380Y-44028571D01*
X98602380Y-44314285D02*
X97602380Y-44314285D01*
X97745238Y-44219047D01*
X97840476Y-44123809D01*
X97888095Y-44028571D01*
X97697619Y-44980952D02*
X97650000Y-45028571D01*
X97602380Y-45123809D01*
X97602380Y-45361904D01*
X97650000Y-45457142D01*
X97697619Y-45504761D01*
X97792857Y-45552380D01*
X97888095Y-45552380D01*
X98030952Y-45504761D01*
X98602380Y-44933333D01*
X98602380Y-45552380D01*
X98316666Y-45933333D02*
X98316666Y-46409523D01*
X98602380Y-45838095D02*
X97602380Y-46171428D01*
X98602380Y-46504761D01*
X98602380Y-47314285D02*
X98602380Y-46838095D01*
X97602380Y-46838095D01*
X98602380Y-47647619D02*
X97602380Y-47647619D01*
X98316666Y-47980952D01*
X97602380Y-48314285D01*
X98602380Y-48314285D01*
X98316666Y-48742857D02*
X98316666Y-49219047D01*
X98602380Y-48647619D02*
X97602380Y-48980952D01*
X98602380Y-49314285D01*
X97602380Y-49552380D02*
X97602380Y-50171428D01*
X97983333Y-49838095D01*
X97983333Y-49980952D01*
X98030952Y-50076190D01*
X98078571Y-50123809D01*
X98173809Y-50171428D01*
X98411904Y-50171428D01*
X98507142Y-50123809D01*
X98554761Y-50076190D01*
X98602380Y-49980952D01*
X98602380Y-49695238D01*
X98554761Y-49600000D01*
X98507142Y-49552380D01*
X98602380Y-51171428D02*
X98126190Y-50838095D01*
X98602380Y-50600000D02*
X97602380Y-50600000D01*
X97602380Y-50980952D01*
X97650000Y-51076190D01*
X97697619Y-51123809D01*
X97792857Y-51171428D01*
X97935714Y-51171428D01*
X98030952Y-51123809D01*
X98078571Y-51076190D01*
X98126190Y-50980952D01*
X98126190Y-50600000D01*
X97602380Y-51504761D02*
X97602380Y-52123809D01*
X97983333Y-51790476D01*
X97983333Y-51933333D01*
X98030952Y-52028571D01*
X98078571Y-52076190D01*
X98173809Y-52123809D01*
X98411904Y-52123809D01*
X98507142Y-52076190D01*
X98554761Y-52028571D01*
X98602380Y-51933333D01*
X98602380Y-51647619D01*
X98554761Y-51552380D01*
X98507142Y-51504761D01*
X98602380Y-52552380D02*
X97602380Y-52552380D01*
X98316666Y-52885714D01*
X97602380Y-53219047D01*
X98602380Y-53219047D01*
X97602380Y-53552380D02*
X97602380Y-54123809D01*
X98602380Y-53838095D02*
X97602380Y-53838095D01*
X98316666Y-54409523D02*
X98316666Y-54885714D01*
X98602380Y-54314285D02*
X97602380Y-54647619D01*
X98602380Y-54980952D01*
X98316666Y-55266666D02*
X98316666Y-55742857D01*
X98602380Y-55171428D02*
X97602380Y-55504761D01*
X98602380Y-55838095D01*
D12*
X100480476Y-46496666D02*
X100480476Y-46201428D01*
X99860476Y-46201428D01*
X99919523Y-46673809D02*
X99890000Y-46703333D01*
X99860476Y-46762380D01*
X99860476Y-46910000D01*
X99890000Y-46969047D01*
X99919523Y-46998571D01*
X99978571Y-47028095D01*
X100037619Y-47028095D01*
X100126190Y-46998571D01*
X100480476Y-46644285D01*
X100480476Y-47028095D01*
D11*
%TO.C,R3*%
X148216666Y-45613166D02*
X147883333Y-45379833D01*
X148216666Y-45213166D02*
X147516666Y-45213166D01*
X147516666Y-45479833D01*
X147550000Y-45546500D01*
X147583333Y-45579833D01*
X147650000Y-45613166D01*
X147750000Y-45613166D01*
X147816666Y-45579833D01*
X147850000Y-45546500D01*
X147883333Y-45479833D01*
X147883333Y-45213166D01*
X148283333Y-45746500D02*
X148283333Y-46279833D01*
X148216666Y-46813166D02*
X148216666Y-46413166D01*
X148216666Y-46613166D02*
X147516666Y-46613166D01*
X147616666Y-46546500D01*
X147683333Y-46479833D01*
X147716666Y-46413166D01*
X147816666Y-47213166D02*
X147783333Y-47146500D01*
X147750000Y-47113166D01*
X147683333Y-47079833D01*
X147650000Y-47079833D01*
X147583333Y-47113166D01*
X147550000Y-47146500D01*
X147516666Y-47213166D01*
X147516666Y-47346500D01*
X147550000Y-47413166D01*
X147583333Y-47446500D01*
X147650000Y-47479833D01*
X147683333Y-47479833D01*
X147750000Y-47446500D01*
X147783333Y-47413166D01*
X147816666Y-47346500D01*
X147816666Y-47213166D01*
X147850000Y-47146500D01*
X147883333Y-47113166D01*
X147950000Y-47079833D01*
X148083333Y-47079833D01*
X148150000Y-47113166D01*
X148183333Y-47146500D01*
X148216666Y-47213166D01*
X148216666Y-47346500D01*
X148183333Y-47413166D01*
X148150000Y-47446500D01*
X148083333Y-47479833D01*
X147950000Y-47479833D01*
X147883333Y-47446500D01*
X147850000Y-47413166D01*
X147816666Y-47346500D01*
X148216666Y-47779833D02*
X147516666Y-47779833D01*
X147950000Y-47846500D02*
X148216666Y-48046500D01*
X147750000Y-48046500D02*
X148016666Y-47779833D01*
X148283333Y-48179833D02*
X148283333Y-48713166D01*
X147516666Y-49013166D02*
X147516666Y-49079833D01*
X147550000Y-49146500D01*
X147583333Y-49179833D01*
X147650000Y-49213166D01*
X147783333Y-49246500D01*
X147950000Y-49246500D01*
X148083333Y-49213166D01*
X148150000Y-49179833D01*
X148183333Y-49146500D01*
X148216666Y-49079833D01*
X148216666Y-49013166D01*
X148183333Y-48946500D01*
X148150000Y-48913166D01*
X148083333Y-48879833D01*
X147950000Y-48846500D01*
X147783333Y-48846500D01*
X147650000Y-48879833D01*
X147583333Y-48913166D01*
X147550000Y-48946500D01*
X147516666Y-49013166D01*
X147750000Y-49846500D02*
X148216666Y-49846500D01*
X147483333Y-49679833D02*
X147983333Y-49513166D01*
X147983333Y-49946500D01*
X147516666Y-50346500D02*
X147516666Y-50413166D01*
X147550000Y-50479833D01*
X147583333Y-50513166D01*
X147650000Y-50546500D01*
X147783333Y-50579833D01*
X147950000Y-50579833D01*
X148083333Y-50546500D01*
X148150000Y-50513166D01*
X148183333Y-50479833D01*
X148216666Y-50413166D01*
X148216666Y-50346500D01*
X148183333Y-50279833D01*
X148150000Y-50246500D01*
X148083333Y-50213166D01*
X147950000Y-50179833D01*
X147783333Y-50179833D01*
X147650000Y-50213166D01*
X147583333Y-50246500D01*
X147550000Y-50279833D01*
X147516666Y-50346500D01*
X147583333Y-50846500D02*
X147550000Y-50879833D01*
X147516666Y-50946500D01*
X147516666Y-51113166D01*
X147550000Y-51179833D01*
X147583333Y-51213166D01*
X147650000Y-51246500D01*
X147716666Y-51246500D01*
X147816666Y-51213166D01*
X148216666Y-50813166D01*
X148216666Y-51246500D01*
%TO.C,C4*%
X149035833Y-40900000D02*
X149069166Y-40933333D01*
X149169166Y-40966666D01*
X149235833Y-40966666D01*
X149335833Y-40933333D01*
X149402500Y-40866666D01*
X149435833Y-40800000D01*
X149469166Y-40666666D01*
X149469166Y-40566666D01*
X149435833Y-40433333D01*
X149402500Y-40366666D01*
X149335833Y-40300000D01*
X149235833Y-40266666D01*
X149169166Y-40266666D01*
X149069166Y-40300000D01*
X149035833Y-40333333D01*
X148902500Y-41033333D02*
X148369166Y-41033333D01*
X147835833Y-40966666D02*
X148235833Y-40966666D01*
X148035833Y-40966666D02*
X148035833Y-40266666D01*
X148102500Y-40366666D01*
X148169166Y-40433333D01*
X148235833Y-40466666D01*
X147535833Y-40500000D02*
X147535833Y-40966666D01*
X147535833Y-40566666D02*
X147502500Y-40533333D01*
X147435833Y-40500000D01*
X147335833Y-40500000D01*
X147269166Y-40533333D01*
X147235833Y-40600000D01*
X147235833Y-40966666D01*
X146769166Y-40266666D02*
X146702500Y-40266666D01*
X146635833Y-40300000D01*
X146602500Y-40333333D01*
X146569166Y-40400000D01*
X146535833Y-40533333D01*
X146535833Y-40700000D01*
X146569166Y-40833333D01*
X146602500Y-40900000D01*
X146635833Y-40933333D01*
X146702500Y-40966666D01*
X146769166Y-40966666D01*
X146835833Y-40933333D01*
X146869166Y-40900000D01*
X146902500Y-40833333D01*
X146935833Y-40700000D01*
X146935833Y-40533333D01*
X146902500Y-40400000D01*
X146869166Y-40333333D01*
X146835833Y-40300000D01*
X146769166Y-40266666D01*
X146402500Y-41033333D02*
X145869166Y-41033333D01*
X145569166Y-40266666D02*
X145502500Y-40266666D01*
X145435833Y-40300000D01*
X145402500Y-40333333D01*
X145369166Y-40400000D01*
X145335833Y-40533333D01*
X145335833Y-40700000D01*
X145369166Y-40833333D01*
X145402500Y-40900000D01*
X145435833Y-40933333D01*
X145502500Y-40966666D01*
X145569166Y-40966666D01*
X145635833Y-40933333D01*
X145669166Y-40900000D01*
X145702500Y-40833333D01*
X145735833Y-40700000D01*
X145735833Y-40533333D01*
X145702500Y-40400000D01*
X145669166Y-40333333D01*
X145635833Y-40300000D01*
X145569166Y-40266666D01*
X144735833Y-40500000D02*
X144735833Y-40966666D01*
X144902500Y-40233333D02*
X145069166Y-40733333D01*
X144635833Y-40733333D01*
X144235833Y-40266666D02*
X144169166Y-40266666D01*
X144102500Y-40300000D01*
X144069166Y-40333333D01*
X144035833Y-40400000D01*
X144002500Y-40533333D01*
X144002500Y-40700000D01*
X144035833Y-40833333D01*
X144069166Y-40900000D01*
X144102500Y-40933333D01*
X144169166Y-40966666D01*
X144235833Y-40966666D01*
X144302500Y-40933333D01*
X144335833Y-40900000D01*
X144369166Y-40833333D01*
X144402500Y-40700000D01*
X144402500Y-40533333D01*
X144369166Y-40400000D01*
X144335833Y-40333333D01*
X144302500Y-40300000D01*
X144235833Y-40266666D01*
X143735833Y-40333333D02*
X143702500Y-40300000D01*
X143635833Y-40266666D01*
X143469166Y-40266666D01*
X143402500Y-40300000D01*
X143369166Y-40333333D01*
X143335833Y-40400000D01*
X143335833Y-40466666D01*
X143369166Y-40566666D01*
X143769166Y-40966666D01*
X143335833Y-40966666D01*
%TO.C,D2*%
X116560366Y-57923866D02*
X116893700Y-57923866D01*
X116893700Y-57223866D01*
X116393700Y-57223866D02*
X115927033Y-57223866D01*
X116393700Y-57923866D01*
X115927033Y-57923866D01*
X115293700Y-57923866D02*
X115693700Y-57923866D01*
X115493700Y-57923866D02*
X115493700Y-57223866D01*
X115560366Y-57323866D01*
X115627033Y-57390533D01*
X115693700Y-57423866D01*
X114993700Y-57657200D02*
X114460366Y-57657200D01*
X113993700Y-57223866D02*
X113927033Y-57223866D01*
X113860366Y-57257200D01*
X113827033Y-57290533D01*
X113793700Y-57357200D01*
X113760366Y-57490533D01*
X113760366Y-57657200D01*
X113793700Y-57790533D01*
X113827033Y-57857200D01*
X113860366Y-57890533D01*
X113927033Y-57923866D01*
X113993700Y-57923866D01*
X114060366Y-57890533D01*
X114093700Y-57857200D01*
X114127033Y-57790533D01*
X114160366Y-57657200D01*
X114160366Y-57490533D01*
X114127033Y-57357200D01*
X114093700Y-57290533D01*
X114060366Y-57257200D01*
X113993700Y-57223866D01*
X113327033Y-57223866D02*
X113260366Y-57223866D01*
X113193700Y-57257200D01*
X113160366Y-57290533D01*
X113127033Y-57357200D01*
X113093700Y-57490533D01*
X113093700Y-57657200D01*
X113127033Y-57790533D01*
X113160366Y-57857200D01*
X113193700Y-57890533D01*
X113260366Y-57923866D01*
X113327033Y-57923866D01*
X113393700Y-57890533D01*
X113427033Y-57857200D01*
X113460366Y-57790533D01*
X113493700Y-57657200D01*
X113493700Y-57490533D01*
X113460366Y-57357200D01*
X113427033Y-57290533D01*
X113393700Y-57257200D01*
X113327033Y-57223866D01*
X112393700Y-57923866D02*
X112627033Y-57590533D01*
X112793700Y-57923866D02*
X112793700Y-57223866D01*
X112527033Y-57223866D01*
X112460366Y-57257200D01*
X112427033Y-57290533D01*
X112393700Y-57357200D01*
X112393700Y-57457200D01*
X112427033Y-57523866D01*
X112460366Y-57557200D01*
X112527033Y-57590533D01*
X112793700Y-57590533D01*
X111993700Y-57523866D02*
X112060366Y-57490533D01*
X112093700Y-57457200D01*
X112127033Y-57390533D01*
X112127033Y-57357200D01*
X112093700Y-57290533D01*
X112060366Y-57257200D01*
X111993700Y-57223866D01*
X111860366Y-57223866D01*
X111793700Y-57257200D01*
X111760366Y-57290533D01*
X111727033Y-57357200D01*
X111727033Y-57390533D01*
X111760366Y-57457200D01*
X111793700Y-57490533D01*
X111860366Y-57523866D01*
X111993700Y-57523866D01*
X112060366Y-57557200D01*
X112093700Y-57590533D01*
X112127033Y-57657200D01*
X112127033Y-57790533D01*
X112093700Y-57857200D01*
X112060366Y-57890533D01*
X111993700Y-57923866D01*
X111860366Y-57923866D01*
X111793700Y-57890533D01*
X111760366Y-57857200D01*
X111727033Y-57790533D01*
X111727033Y-57657200D01*
X111760366Y-57590533D01*
X111793700Y-57557200D01*
X111860366Y-57523866D01*
X111293700Y-57223866D02*
X111227033Y-57223866D01*
X111160366Y-57257200D01*
X111127033Y-57290533D01*
X111093700Y-57357200D01*
X111060366Y-57490533D01*
X111060366Y-57657200D01*
X111093700Y-57790533D01*
X111127033Y-57857200D01*
X111160366Y-57890533D01*
X111227033Y-57923866D01*
X111293700Y-57923866D01*
X111360366Y-57890533D01*
X111393700Y-57857200D01*
X111427033Y-57790533D01*
X111460366Y-57657200D01*
X111460366Y-57490533D01*
X111427033Y-57357200D01*
X111393700Y-57290533D01*
X111360366Y-57257200D01*
X111293700Y-57223866D01*
X110793700Y-57290533D02*
X110760366Y-57257200D01*
X110693700Y-57223866D01*
X110527033Y-57223866D01*
X110460366Y-57257200D01*
X110427033Y-57290533D01*
X110393700Y-57357200D01*
X110393700Y-57423866D01*
X110427033Y-57523866D01*
X110827033Y-57923866D01*
X110393700Y-57923866D01*
X110093700Y-57657200D02*
X109560366Y-57657200D01*
X109093700Y-57223866D02*
X109027033Y-57223866D01*
X108960366Y-57257200D01*
X108927033Y-57290533D01*
X108893700Y-57357200D01*
X108860366Y-57490533D01*
X108860366Y-57657200D01*
X108893700Y-57790533D01*
X108927033Y-57857200D01*
X108960366Y-57890533D01*
X109027033Y-57923866D01*
X109093700Y-57923866D01*
X109160366Y-57890533D01*
X109193700Y-57857200D01*
X109227033Y-57790533D01*
X109260366Y-57657200D01*
X109260366Y-57490533D01*
X109227033Y-57357200D01*
X109193700Y-57290533D01*
X109160366Y-57257200D01*
X109093700Y-57223866D01*
X108427033Y-57223866D02*
X108360366Y-57223866D01*
X108293700Y-57257200D01*
X108260366Y-57290533D01*
X108227033Y-57357200D01*
X108193700Y-57490533D01*
X108193700Y-57657200D01*
X108227033Y-57790533D01*
X108260366Y-57857200D01*
X108293700Y-57890533D01*
X108360366Y-57923866D01*
X108427033Y-57923866D01*
X108493700Y-57890533D01*
X108527033Y-57857200D01*
X108560366Y-57790533D01*
X108593700Y-57657200D01*
X108593700Y-57490533D01*
X108560366Y-57357200D01*
X108527033Y-57290533D01*
X108493700Y-57257200D01*
X108427033Y-57223866D01*
X107760366Y-57223866D02*
X107693700Y-57223866D01*
X107627033Y-57257200D01*
X107593700Y-57290533D01*
X107560366Y-57357200D01*
X107527033Y-57490533D01*
X107527033Y-57657200D01*
X107560366Y-57790533D01*
X107593700Y-57857200D01*
X107627033Y-57890533D01*
X107693700Y-57923866D01*
X107760366Y-57923866D01*
X107827033Y-57890533D01*
X107860366Y-57857200D01*
X107893700Y-57790533D01*
X107927033Y-57657200D01*
X107927033Y-57490533D01*
X107893700Y-57357200D01*
X107860366Y-57290533D01*
X107827033Y-57257200D01*
X107760366Y-57223866D01*
X107093700Y-57223866D02*
X107027033Y-57223866D01*
X106960366Y-57257200D01*
X106927033Y-57290533D01*
X106893700Y-57357200D01*
X106860366Y-57490533D01*
X106860366Y-57657200D01*
X106893700Y-57790533D01*
X106927033Y-57857200D01*
X106960366Y-57890533D01*
X107027033Y-57923866D01*
X107093700Y-57923866D01*
X107160366Y-57890533D01*
X107193700Y-57857200D01*
X107227033Y-57790533D01*
X107260366Y-57657200D01*
X107260366Y-57490533D01*
X107227033Y-57357200D01*
X107193700Y-57290533D01*
X107160366Y-57257200D01*
X107093700Y-57223866D01*
X112410366Y-59423866D02*
X112410366Y-58723866D01*
X112243700Y-58723866D01*
X112143700Y-58757200D01*
X112077033Y-58823866D01*
X112043700Y-58890533D01*
X112010366Y-59023866D01*
X112010366Y-59123866D01*
X112043700Y-59257200D01*
X112077033Y-59323866D01*
X112143700Y-59390533D01*
X112243700Y-59423866D01*
X112410366Y-59423866D01*
X111743700Y-58790533D02*
X111710366Y-58757200D01*
X111643700Y-58723866D01*
X111477033Y-58723866D01*
X111410366Y-58757200D01*
X111377033Y-58790533D01*
X111343700Y-58857200D01*
X111343700Y-58923866D01*
X111377033Y-59023866D01*
X111777033Y-59423866D01*
X111343700Y-59423866D01*
%TO.C,R5*%
X100916666Y-41869166D02*
X100583333Y-41635833D01*
X100916666Y-41469166D02*
X100216666Y-41469166D01*
X100216666Y-41735833D01*
X100250000Y-41802500D01*
X100283333Y-41835833D01*
X100350000Y-41869166D01*
X100450000Y-41869166D01*
X100516666Y-41835833D01*
X100550000Y-41802500D01*
X100583333Y-41735833D01*
X100583333Y-41469166D01*
X100983333Y-42002500D02*
X100983333Y-42535833D01*
X100216666Y-42635833D02*
X100216666Y-43069166D01*
X100483333Y-42835833D01*
X100483333Y-42935833D01*
X100516666Y-43002500D01*
X100550000Y-43035833D01*
X100616666Y-43069166D01*
X100783333Y-43069166D01*
X100850000Y-43035833D01*
X100883333Y-43002500D01*
X100916666Y-42935833D01*
X100916666Y-42735833D01*
X100883333Y-42669166D01*
X100850000Y-42635833D01*
X100216666Y-43502500D02*
X100216666Y-43569166D01*
X100250000Y-43635833D01*
X100283333Y-43669166D01*
X100350000Y-43702500D01*
X100483333Y-43735833D01*
X100650000Y-43735833D01*
X100783333Y-43702500D01*
X100850000Y-43669166D01*
X100883333Y-43635833D01*
X100916666Y-43569166D01*
X100916666Y-43502500D01*
X100883333Y-43435833D01*
X100850000Y-43402500D01*
X100783333Y-43369166D01*
X100650000Y-43335833D01*
X100483333Y-43335833D01*
X100350000Y-43369166D01*
X100283333Y-43402500D01*
X100250000Y-43435833D01*
X100216666Y-43502500D01*
X100216666Y-44169166D02*
X100216666Y-44235833D01*
X100250000Y-44302500D01*
X100283333Y-44335833D01*
X100350000Y-44369166D01*
X100483333Y-44402500D01*
X100650000Y-44402500D01*
X100783333Y-44369166D01*
X100850000Y-44335833D01*
X100883333Y-44302500D01*
X100916666Y-44235833D01*
X100916666Y-44169166D01*
X100883333Y-44102500D01*
X100850000Y-44069166D01*
X100783333Y-44035833D01*
X100650000Y-44002500D01*
X100483333Y-44002500D01*
X100350000Y-44035833D01*
X100283333Y-44069166D01*
X100250000Y-44102500D01*
X100216666Y-44169166D01*
X100916666Y-44702500D02*
X100216666Y-44702500D01*
X100650000Y-44769166D02*
X100916666Y-44969166D01*
X100450000Y-44969166D02*
X100716666Y-44702500D01*
X100983333Y-45102500D02*
X100983333Y-45635833D01*
X100216666Y-45935833D02*
X100216666Y-46002500D01*
X100250000Y-46069166D01*
X100283333Y-46102500D01*
X100350000Y-46135833D01*
X100483333Y-46169166D01*
X100650000Y-46169166D01*
X100783333Y-46135833D01*
X100850000Y-46102500D01*
X100883333Y-46069166D01*
X100916666Y-46002500D01*
X100916666Y-45935833D01*
X100883333Y-45869166D01*
X100850000Y-45835833D01*
X100783333Y-45802500D01*
X100650000Y-45769166D01*
X100483333Y-45769166D01*
X100350000Y-45802500D01*
X100283333Y-45835833D01*
X100250000Y-45869166D01*
X100216666Y-45935833D01*
X100216666Y-46769166D02*
X100216666Y-46635833D01*
X100250000Y-46569166D01*
X100283333Y-46535833D01*
X100383333Y-46469166D01*
X100516666Y-46435833D01*
X100783333Y-46435833D01*
X100850000Y-46469166D01*
X100883333Y-46502500D01*
X100916666Y-46569166D01*
X100916666Y-46702500D01*
X100883333Y-46769166D01*
X100850000Y-46802500D01*
X100783333Y-46835833D01*
X100616666Y-46835833D01*
X100550000Y-46802500D01*
X100516666Y-46769166D01*
X100483333Y-46702500D01*
X100483333Y-46569166D01*
X100516666Y-46502500D01*
X100550000Y-46469166D01*
X100616666Y-46435833D01*
X100216666Y-47269166D02*
X100216666Y-47335833D01*
X100250000Y-47402500D01*
X100283333Y-47435833D01*
X100350000Y-47469166D01*
X100483333Y-47502500D01*
X100650000Y-47502500D01*
X100783333Y-47469166D01*
X100850000Y-47435833D01*
X100883333Y-47402500D01*
X100916666Y-47335833D01*
X100916666Y-47269166D01*
X100883333Y-47202500D01*
X100850000Y-47169166D01*
X100783333Y-47135833D01*
X100650000Y-47102500D01*
X100483333Y-47102500D01*
X100350000Y-47135833D01*
X100283333Y-47169166D01*
X100250000Y-47202500D01*
X100216666Y-47269166D01*
X100216666Y-47735833D02*
X100216666Y-48169166D01*
X100483333Y-47935833D01*
X100483333Y-48035833D01*
X100516666Y-48102500D01*
X100550000Y-48135833D01*
X100616666Y-48169166D01*
X100783333Y-48169166D01*
X100850000Y-48135833D01*
X100883333Y-48102500D01*
X100916666Y-48035833D01*
X100916666Y-47835833D01*
X100883333Y-47769166D01*
X100850000Y-47735833D01*
%TO.C,C5*%
X152435833Y-45100000D02*
X152469166Y-45133333D01*
X152569166Y-45166666D01*
X152635833Y-45166666D01*
X152735833Y-45133333D01*
X152802500Y-45066666D01*
X152835833Y-45000000D01*
X152869166Y-44866666D01*
X152869166Y-44766666D01*
X152835833Y-44633333D01*
X152802500Y-44566666D01*
X152735833Y-44500000D01*
X152635833Y-44466666D01*
X152569166Y-44466666D01*
X152469166Y-44500000D01*
X152435833Y-44533333D01*
X152302500Y-45233333D02*
X151769166Y-45233333D01*
X151235833Y-45166666D02*
X151635833Y-45166666D01*
X151435833Y-45166666D02*
X151435833Y-44466666D01*
X151502500Y-44566666D01*
X151569166Y-44633333D01*
X151635833Y-44666666D01*
X150935833Y-44700000D02*
X150935833Y-45166666D01*
X150935833Y-44766666D02*
X150902500Y-44733333D01*
X150835833Y-44700000D01*
X150735833Y-44700000D01*
X150669166Y-44733333D01*
X150635833Y-44800000D01*
X150635833Y-45166666D01*
X150169166Y-44466666D02*
X150102500Y-44466666D01*
X150035833Y-44500000D01*
X150002500Y-44533333D01*
X149969166Y-44600000D01*
X149935833Y-44733333D01*
X149935833Y-44900000D01*
X149969166Y-45033333D01*
X150002500Y-45100000D01*
X150035833Y-45133333D01*
X150102500Y-45166666D01*
X150169166Y-45166666D01*
X150235833Y-45133333D01*
X150269166Y-45100000D01*
X150302500Y-45033333D01*
X150335833Y-44900000D01*
X150335833Y-44733333D01*
X150302500Y-44600000D01*
X150269166Y-44533333D01*
X150235833Y-44500000D01*
X150169166Y-44466666D01*
X149802500Y-45233333D02*
X149269166Y-45233333D01*
X148969166Y-44466666D02*
X148902500Y-44466666D01*
X148835833Y-44500000D01*
X148802500Y-44533333D01*
X148769166Y-44600000D01*
X148735833Y-44733333D01*
X148735833Y-44900000D01*
X148769166Y-45033333D01*
X148802500Y-45100000D01*
X148835833Y-45133333D01*
X148902500Y-45166666D01*
X148969166Y-45166666D01*
X149035833Y-45133333D01*
X149069166Y-45100000D01*
X149102500Y-45033333D01*
X149135833Y-44900000D01*
X149135833Y-44733333D01*
X149102500Y-44600000D01*
X149069166Y-44533333D01*
X149035833Y-44500000D01*
X148969166Y-44466666D01*
X148135833Y-44700000D02*
X148135833Y-45166666D01*
X148302500Y-44433333D02*
X148469166Y-44933333D01*
X148035833Y-44933333D01*
X147635833Y-44466666D02*
X147569166Y-44466666D01*
X147502500Y-44500000D01*
X147469166Y-44533333D01*
X147435833Y-44600000D01*
X147402500Y-44733333D01*
X147402500Y-44900000D01*
X147435833Y-45033333D01*
X147469166Y-45100000D01*
X147502500Y-45133333D01*
X147569166Y-45166666D01*
X147635833Y-45166666D01*
X147702500Y-45133333D01*
X147735833Y-45100000D01*
X147769166Y-45033333D01*
X147802500Y-44900000D01*
X147802500Y-44733333D01*
X147769166Y-44600000D01*
X147735833Y-44533333D01*
X147702500Y-44500000D01*
X147635833Y-44466666D01*
X147135833Y-44533333D02*
X147102500Y-44500000D01*
X147035833Y-44466666D01*
X146869166Y-44466666D01*
X146802500Y-44500000D01*
X146769166Y-44533333D01*
X146735833Y-44600000D01*
X146735833Y-44666666D01*
X146769166Y-44766666D01*
X147169166Y-45166666D01*
X146735833Y-45166666D01*
%TO.C,R9*%
X93466666Y-42035833D02*
X93133333Y-41802500D01*
X93466666Y-41635833D02*
X92766666Y-41635833D01*
X92766666Y-41902500D01*
X92800000Y-41969166D01*
X92833333Y-42002500D01*
X92900000Y-42035833D01*
X93000000Y-42035833D01*
X93066666Y-42002500D01*
X93100000Y-41969166D01*
X93133333Y-41902500D01*
X93133333Y-41635833D01*
X93533333Y-42169166D02*
X93533333Y-42702500D01*
X93466666Y-43235833D02*
X93466666Y-42835833D01*
X93466666Y-43035833D02*
X92766666Y-43035833D01*
X92866666Y-42969166D01*
X92933333Y-42902500D01*
X92966666Y-42835833D01*
X93466666Y-43535833D02*
X92766666Y-43535833D01*
X93200000Y-43602500D02*
X93466666Y-43802500D01*
X93000000Y-43802500D02*
X93266666Y-43535833D01*
X92766666Y-44035833D02*
X92766666Y-44469166D01*
X93033333Y-44235833D01*
X93033333Y-44335833D01*
X93066666Y-44402500D01*
X93100000Y-44435833D01*
X93166666Y-44469166D01*
X93333333Y-44469166D01*
X93400000Y-44435833D01*
X93433333Y-44402500D01*
X93466666Y-44335833D01*
X93466666Y-44135833D01*
X93433333Y-44069166D01*
X93400000Y-44035833D01*
X93533333Y-44602500D02*
X93533333Y-45135833D01*
X92766666Y-45435833D02*
X92766666Y-45502500D01*
X92800000Y-45569166D01*
X92833333Y-45602500D01*
X92900000Y-45635833D01*
X93033333Y-45669166D01*
X93200000Y-45669166D01*
X93333333Y-45635833D01*
X93400000Y-45602500D01*
X93433333Y-45569166D01*
X93466666Y-45502500D01*
X93466666Y-45435833D01*
X93433333Y-45369166D01*
X93400000Y-45335833D01*
X93333333Y-45302500D01*
X93200000Y-45269166D01*
X93033333Y-45269166D01*
X92900000Y-45302500D01*
X92833333Y-45335833D01*
X92800000Y-45369166D01*
X92766666Y-45435833D01*
X93000000Y-46269166D02*
X93466666Y-46269166D01*
X92733333Y-46102500D02*
X93233333Y-45935833D01*
X93233333Y-46369166D01*
X92766666Y-46769166D02*
X92766666Y-46835833D01*
X92800000Y-46902500D01*
X92833333Y-46935833D01*
X92900000Y-46969166D01*
X93033333Y-47002500D01*
X93200000Y-47002500D01*
X93333333Y-46969166D01*
X93400000Y-46935833D01*
X93433333Y-46902500D01*
X93466666Y-46835833D01*
X93466666Y-46769166D01*
X93433333Y-46702500D01*
X93400000Y-46669166D01*
X93333333Y-46635833D01*
X93200000Y-46602500D01*
X93033333Y-46602500D01*
X92900000Y-46635833D01*
X92833333Y-46669166D01*
X92800000Y-46702500D01*
X92766666Y-46769166D01*
X92833333Y-47269166D02*
X92800000Y-47302500D01*
X92766666Y-47369166D01*
X92766666Y-47535833D01*
X92800000Y-47602500D01*
X92833333Y-47635833D01*
X92900000Y-47669166D01*
X92966666Y-47669166D01*
X93066666Y-47635833D01*
X93466666Y-47235833D01*
X93466666Y-47669166D01*
%TO.C,C1*%
X148047000Y-48814166D02*
X148080333Y-48780833D01*
X148113666Y-48680833D01*
X148113666Y-48614166D01*
X148080333Y-48514166D01*
X148013666Y-48447500D01*
X147947000Y-48414166D01*
X147813666Y-48380833D01*
X147713666Y-48380833D01*
X147580333Y-48414166D01*
X147513666Y-48447500D01*
X147447000Y-48514166D01*
X147413666Y-48614166D01*
X147413666Y-48680833D01*
X147447000Y-48780833D01*
X147480333Y-48814166D01*
X148180333Y-48947500D02*
X148180333Y-49480833D01*
X148113666Y-50014166D02*
X148113666Y-49614166D01*
X148113666Y-49814166D02*
X147413666Y-49814166D01*
X147513666Y-49747500D01*
X147580333Y-49680833D01*
X147613666Y-49614166D01*
X147413666Y-50447500D02*
X147413666Y-50514166D01*
X147447000Y-50580833D01*
X147480333Y-50614166D01*
X147547000Y-50647500D01*
X147680333Y-50680833D01*
X147847000Y-50680833D01*
X147980333Y-50647500D01*
X148047000Y-50614166D01*
X148080333Y-50580833D01*
X148113666Y-50514166D01*
X148113666Y-50447500D01*
X148080333Y-50380833D01*
X148047000Y-50347500D01*
X147980333Y-50314166D01*
X147847000Y-50280833D01*
X147680333Y-50280833D01*
X147547000Y-50314166D01*
X147480333Y-50347500D01*
X147447000Y-50380833D01*
X147413666Y-50447500D01*
X147647000Y-51280833D02*
X148113666Y-51280833D01*
X147647000Y-50980833D02*
X148013666Y-50980833D01*
X148080333Y-51014166D01*
X148113666Y-51080833D01*
X148113666Y-51180833D01*
X148080333Y-51247500D01*
X148047000Y-51280833D01*
X148180333Y-51447500D02*
X148180333Y-51980833D01*
X147413666Y-52280833D02*
X147413666Y-52347500D01*
X147447000Y-52414166D01*
X147480333Y-52447500D01*
X147547000Y-52480833D01*
X147680333Y-52514166D01*
X147847000Y-52514166D01*
X147980333Y-52480833D01*
X148047000Y-52447500D01*
X148080333Y-52414166D01*
X148113666Y-52347500D01*
X148113666Y-52280833D01*
X148080333Y-52214166D01*
X148047000Y-52180833D01*
X147980333Y-52147500D01*
X147847000Y-52114166D01*
X147680333Y-52114166D01*
X147547000Y-52147500D01*
X147480333Y-52180833D01*
X147447000Y-52214166D01*
X147413666Y-52280833D01*
X147713666Y-52914166D02*
X147680333Y-52847500D01*
X147647000Y-52814166D01*
X147580333Y-52780833D01*
X147547000Y-52780833D01*
X147480333Y-52814166D01*
X147447000Y-52847500D01*
X147413666Y-52914166D01*
X147413666Y-53047500D01*
X147447000Y-53114166D01*
X147480333Y-53147500D01*
X147547000Y-53180833D01*
X147580333Y-53180833D01*
X147647000Y-53147500D01*
X147680333Y-53114166D01*
X147713666Y-53047500D01*
X147713666Y-52914166D01*
X147747000Y-52847500D01*
X147780333Y-52814166D01*
X147847000Y-52780833D01*
X147980333Y-52780833D01*
X148047000Y-52814166D01*
X148080333Y-52847500D01*
X148113666Y-52914166D01*
X148113666Y-53047500D01*
X148080333Y-53114166D01*
X148047000Y-53147500D01*
X147980333Y-53180833D01*
X147847000Y-53180833D01*
X147780333Y-53147500D01*
X147747000Y-53114166D01*
X147713666Y-53047500D01*
X147413666Y-53614166D02*
X147413666Y-53680833D01*
X147447000Y-53747500D01*
X147480333Y-53780833D01*
X147547000Y-53814166D01*
X147680333Y-53847500D01*
X147847000Y-53847500D01*
X147980333Y-53814166D01*
X148047000Y-53780833D01*
X148080333Y-53747500D01*
X148113666Y-53680833D01*
X148113666Y-53614166D01*
X148080333Y-53547500D01*
X148047000Y-53514166D01*
X147980333Y-53480833D01*
X147847000Y-53447500D01*
X147680333Y-53447500D01*
X147547000Y-53480833D01*
X147480333Y-53514166D01*
X147447000Y-53547500D01*
X147413666Y-53614166D01*
X147413666Y-54480833D02*
X147413666Y-54147500D01*
X147747000Y-54114166D01*
X147713666Y-54147500D01*
X147680333Y-54214166D01*
X147680333Y-54380833D01*
X147713666Y-54447500D01*
X147747000Y-54480833D01*
X147813666Y-54514166D01*
X147980333Y-54514166D01*
X148047000Y-54480833D01*
X148080333Y-54447500D01*
X148113666Y-54380833D01*
X148113666Y-54214166D01*
X148080333Y-54147500D01*
X148047000Y-54114166D01*
%TO.C,R2*%
X143765666Y-45165166D02*
X143432333Y-44931833D01*
X143765666Y-44765166D02*
X143065666Y-44765166D01*
X143065666Y-45031833D01*
X143099000Y-45098500D01*
X143132333Y-45131833D01*
X143199000Y-45165166D01*
X143299000Y-45165166D01*
X143365666Y-45131833D01*
X143399000Y-45098500D01*
X143432333Y-45031833D01*
X143432333Y-44765166D01*
X143832333Y-45298500D02*
X143832333Y-45831833D01*
X143065666Y-45931833D02*
X143065666Y-46365166D01*
X143332333Y-46131833D01*
X143332333Y-46231833D01*
X143365666Y-46298500D01*
X143399000Y-46331833D01*
X143465666Y-46365166D01*
X143632333Y-46365166D01*
X143699000Y-46331833D01*
X143732333Y-46298500D01*
X143765666Y-46231833D01*
X143765666Y-46031833D01*
X143732333Y-45965166D01*
X143699000Y-45931833D01*
X143765666Y-46698500D02*
X143765666Y-46831833D01*
X143732333Y-46898500D01*
X143699000Y-46931833D01*
X143599000Y-46998500D01*
X143465666Y-47031833D01*
X143199000Y-47031833D01*
X143132333Y-46998500D01*
X143099000Y-46965166D01*
X143065666Y-46898500D01*
X143065666Y-46765166D01*
X143099000Y-46698500D01*
X143132333Y-46665166D01*
X143199000Y-46631833D01*
X143365666Y-46631833D01*
X143432333Y-46665166D01*
X143465666Y-46698500D01*
X143499000Y-46765166D01*
X143499000Y-46898500D01*
X143465666Y-46965166D01*
X143432333Y-46998500D01*
X143365666Y-47031833D01*
X143765666Y-47331833D02*
X143065666Y-47331833D01*
X143499000Y-47398500D02*
X143765666Y-47598500D01*
X143299000Y-47598500D02*
X143565666Y-47331833D01*
X143832333Y-47731833D02*
X143832333Y-48265166D01*
X143065666Y-48565166D02*
X143065666Y-48631833D01*
X143099000Y-48698500D01*
X143132333Y-48731833D01*
X143199000Y-48765166D01*
X143332333Y-48798500D01*
X143499000Y-48798500D01*
X143632333Y-48765166D01*
X143699000Y-48731833D01*
X143732333Y-48698500D01*
X143765666Y-48631833D01*
X143765666Y-48565166D01*
X143732333Y-48498500D01*
X143699000Y-48465166D01*
X143632333Y-48431833D01*
X143499000Y-48398500D01*
X143332333Y-48398500D01*
X143199000Y-48431833D01*
X143132333Y-48465166D01*
X143099000Y-48498500D01*
X143065666Y-48565166D01*
X143299000Y-49398500D02*
X143765666Y-49398500D01*
X143032333Y-49231833D02*
X143532333Y-49065166D01*
X143532333Y-49498500D01*
X143065666Y-49898500D02*
X143065666Y-49965166D01*
X143099000Y-50031833D01*
X143132333Y-50065166D01*
X143199000Y-50098500D01*
X143332333Y-50131833D01*
X143499000Y-50131833D01*
X143632333Y-50098500D01*
X143699000Y-50065166D01*
X143732333Y-50031833D01*
X143765666Y-49965166D01*
X143765666Y-49898500D01*
X143732333Y-49831833D01*
X143699000Y-49798500D01*
X143632333Y-49765166D01*
X143499000Y-49731833D01*
X143332333Y-49731833D01*
X143199000Y-49765166D01*
X143132333Y-49798500D01*
X143099000Y-49831833D01*
X143065666Y-49898500D01*
X143132333Y-50398500D02*
X143099000Y-50431833D01*
X143065666Y-50498500D01*
X143065666Y-50665166D01*
X143099000Y-50731833D01*
X143132333Y-50765166D01*
X143199000Y-50798500D01*
X143265666Y-50798500D01*
X143365666Y-50765166D01*
X143765666Y-50365166D01*
X143765666Y-50798500D01*
%TO.C,C2*%
X154430833Y-49950000D02*
X154464166Y-49983333D01*
X154564166Y-50016666D01*
X154630833Y-50016666D01*
X154730833Y-49983333D01*
X154797500Y-49916666D01*
X154830833Y-49850000D01*
X154864166Y-49716666D01*
X154864166Y-49616666D01*
X154830833Y-49483333D01*
X154797500Y-49416666D01*
X154730833Y-49350000D01*
X154630833Y-49316666D01*
X154564166Y-49316666D01*
X154464166Y-49350000D01*
X154430833Y-49383333D01*
X154297500Y-50083333D02*
X153764166Y-50083333D01*
X153630833Y-49383333D02*
X153597500Y-49350000D01*
X153530833Y-49316666D01*
X153364166Y-49316666D01*
X153297500Y-49350000D01*
X153264166Y-49383333D01*
X153230833Y-49450000D01*
X153230833Y-49516666D01*
X153264166Y-49616666D01*
X153664166Y-50016666D01*
X153230833Y-50016666D01*
X152630833Y-49550000D02*
X152630833Y-50016666D01*
X152930833Y-49550000D02*
X152930833Y-49916666D01*
X152897500Y-49983333D01*
X152830833Y-50016666D01*
X152730833Y-50016666D01*
X152664166Y-49983333D01*
X152630833Y-49950000D01*
X152330833Y-49383333D02*
X152297500Y-49350000D01*
X152230833Y-49316666D01*
X152064166Y-49316666D01*
X151997500Y-49350000D01*
X151964166Y-49383333D01*
X151930833Y-49450000D01*
X151930833Y-49516666D01*
X151964166Y-49616666D01*
X152364166Y-50016666D01*
X151930833Y-50016666D01*
X151797500Y-50083333D02*
X151264166Y-50083333D01*
X150964166Y-49316666D02*
X150897500Y-49316666D01*
X150830833Y-49350000D01*
X150797500Y-49383333D01*
X150764166Y-49450000D01*
X150730833Y-49583333D01*
X150730833Y-49750000D01*
X150764166Y-49883333D01*
X150797500Y-49950000D01*
X150830833Y-49983333D01*
X150897500Y-50016666D01*
X150964166Y-50016666D01*
X151030833Y-49983333D01*
X151064166Y-49950000D01*
X151097500Y-49883333D01*
X151130833Y-49750000D01*
X151130833Y-49583333D01*
X151097500Y-49450000D01*
X151064166Y-49383333D01*
X151030833Y-49350000D01*
X150964166Y-49316666D01*
X150130833Y-49316666D02*
X150264166Y-49316666D01*
X150330833Y-49350000D01*
X150364166Y-49383333D01*
X150430833Y-49483333D01*
X150464166Y-49616666D01*
X150464166Y-49883333D01*
X150430833Y-49950000D01*
X150397500Y-49983333D01*
X150330833Y-50016666D01*
X150197500Y-50016666D01*
X150130833Y-49983333D01*
X150097500Y-49950000D01*
X150064166Y-49883333D01*
X150064166Y-49716666D01*
X150097500Y-49650000D01*
X150130833Y-49616666D01*
X150197500Y-49583333D01*
X150330833Y-49583333D01*
X150397500Y-49616666D01*
X150430833Y-49650000D01*
X150464166Y-49716666D01*
X149630833Y-49316666D02*
X149564166Y-49316666D01*
X149497500Y-49350000D01*
X149464166Y-49383333D01*
X149430833Y-49450000D01*
X149397500Y-49583333D01*
X149397500Y-49750000D01*
X149430833Y-49883333D01*
X149464166Y-49950000D01*
X149497500Y-49983333D01*
X149564166Y-50016666D01*
X149630833Y-50016666D01*
X149697500Y-49983333D01*
X149730833Y-49950000D01*
X149764166Y-49883333D01*
X149797500Y-49750000D01*
X149797500Y-49583333D01*
X149764166Y-49450000D01*
X149730833Y-49383333D01*
X149697500Y-49350000D01*
X149630833Y-49316666D01*
X149164166Y-49316666D02*
X148730833Y-49316666D01*
X148964166Y-49583333D01*
X148864166Y-49583333D01*
X148797500Y-49616666D01*
X148764166Y-49650000D01*
X148730833Y-49716666D01*
X148730833Y-49883333D01*
X148764166Y-49950000D01*
X148797500Y-49983333D01*
X148864166Y-50016666D01*
X149064166Y-50016666D01*
X149130833Y-49983333D01*
X149164166Y-49950000D01*
%TO.C,D3*%
X143360366Y-57923866D02*
X143693700Y-57923866D01*
X143693700Y-57223866D01*
X143193700Y-57223866D02*
X142727033Y-57223866D01*
X143193700Y-57923866D01*
X142727033Y-57923866D01*
X142093700Y-57923866D02*
X142493700Y-57923866D01*
X142293700Y-57923866D02*
X142293700Y-57223866D01*
X142360366Y-57323866D01*
X142427033Y-57390533D01*
X142493700Y-57423866D01*
X141793700Y-57657200D02*
X141260366Y-57657200D01*
X140793700Y-57223866D02*
X140727033Y-57223866D01*
X140660366Y-57257200D01*
X140627033Y-57290533D01*
X140593700Y-57357200D01*
X140560366Y-57490533D01*
X140560366Y-57657200D01*
X140593700Y-57790533D01*
X140627033Y-57857200D01*
X140660366Y-57890533D01*
X140727033Y-57923866D01*
X140793700Y-57923866D01*
X140860366Y-57890533D01*
X140893700Y-57857200D01*
X140927033Y-57790533D01*
X140960366Y-57657200D01*
X140960366Y-57490533D01*
X140927033Y-57357200D01*
X140893700Y-57290533D01*
X140860366Y-57257200D01*
X140793700Y-57223866D01*
X140127033Y-57223866D02*
X140060366Y-57223866D01*
X139993700Y-57257200D01*
X139960366Y-57290533D01*
X139927033Y-57357200D01*
X139893700Y-57490533D01*
X139893700Y-57657200D01*
X139927033Y-57790533D01*
X139960366Y-57857200D01*
X139993700Y-57890533D01*
X140060366Y-57923866D01*
X140127033Y-57923866D01*
X140193700Y-57890533D01*
X140227033Y-57857200D01*
X140260366Y-57790533D01*
X140293700Y-57657200D01*
X140293700Y-57490533D01*
X140260366Y-57357200D01*
X140227033Y-57290533D01*
X140193700Y-57257200D01*
X140127033Y-57223866D01*
X139193700Y-57923866D02*
X139427033Y-57590533D01*
X139593700Y-57923866D02*
X139593700Y-57223866D01*
X139327033Y-57223866D01*
X139260366Y-57257200D01*
X139227033Y-57290533D01*
X139193700Y-57357200D01*
X139193700Y-57457200D01*
X139227033Y-57523866D01*
X139260366Y-57557200D01*
X139327033Y-57590533D01*
X139593700Y-57590533D01*
X138793700Y-57523866D02*
X138860366Y-57490533D01*
X138893700Y-57457200D01*
X138927033Y-57390533D01*
X138927033Y-57357200D01*
X138893700Y-57290533D01*
X138860366Y-57257200D01*
X138793700Y-57223866D01*
X138660366Y-57223866D01*
X138593700Y-57257200D01*
X138560366Y-57290533D01*
X138527033Y-57357200D01*
X138527033Y-57390533D01*
X138560366Y-57457200D01*
X138593700Y-57490533D01*
X138660366Y-57523866D01*
X138793700Y-57523866D01*
X138860366Y-57557200D01*
X138893700Y-57590533D01*
X138927033Y-57657200D01*
X138927033Y-57790533D01*
X138893700Y-57857200D01*
X138860366Y-57890533D01*
X138793700Y-57923866D01*
X138660366Y-57923866D01*
X138593700Y-57890533D01*
X138560366Y-57857200D01*
X138527033Y-57790533D01*
X138527033Y-57657200D01*
X138560366Y-57590533D01*
X138593700Y-57557200D01*
X138660366Y-57523866D01*
X138093700Y-57223866D02*
X138027033Y-57223866D01*
X137960366Y-57257200D01*
X137927033Y-57290533D01*
X137893700Y-57357200D01*
X137860366Y-57490533D01*
X137860366Y-57657200D01*
X137893700Y-57790533D01*
X137927033Y-57857200D01*
X137960366Y-57890533D01*
X138027033Y-57923866D01*
X138093700Y-57923866D01*
X138160366Y-57890533D01*
X138193700Y-57857200D01*
X138227033Y-57790533D01*
X138260366Y-57657200D01*
X138260366Y-57490533D01*
X138227033Y-57357200D01*
X138193700Y-57290533D01*
X138160366Y-57257200D01*
X138093700Y-57223866D01*
X137593700Y-57290533D02*
X137560366Y-57257200D01*
X137493700Y-57223866D01*
X137327033Y-57223866D01*
X137260366Y-57257200D01*
X137227033Y-57290533D01*
X137193700Y-57357200D01*
X137193700Y-57423866D01*
X137227033Y-57523866D01*
X137627033Y-57923866D01*
X137193700Y-57923866D01*
X136893700Y-57657200D02*
X136360366Y-57657200D01*
X135893700Y-57223866D02*
X135827033Y-57223866D01*
X135760366Y-57257200D01*
X135727033Y-57290533D01*
X135693700Y-57357200D01*
X135660366Y-57490533D01*
X135660366Y-57657200D01*
X135693700Y-57790533D01*
X135727033Y-57857200D01*
X135760366Y-57890533D01*
X135827033Y-57923866D01*
X135893700Y-57923866D01*
X135960366Y-57890533D01*
X135993700Y-57857200D01*
X136027033Y-57790533D01*
X136060366Y-57657200D01*
X136060366Y-57490533D01*
X136027033Y-57357200D01*
X135993700Y-57290533D01*
X135960366Y-57257200D01*
X135893700Y-57223866D01*
X135227033Y-57223866D02*
X135160366Y-57223866D01*
X135093700Y-57257200D01*
X135060366Y-57290533D01*
X135027033Y-57357200D01*
X134993700Y-57490533D01*
X134993700Y-57657200D01*
X135027033Y-57790533D01*
X135060366Y-57857200D01*
X135093700Y-57890533D01*
X135160366Y-57923866D01*
X135227033Y-57923866D01*
X135293700Y-57890533D01*
X135327033Y-57857200D01*
X135360366Y-57790533D01*
X135393700Y-57657200D01*
X135393700Y-57490533D01*
X135360366Y-57357200D01*
X135327033Y-57290533D01*
X135293700Y-57257200D01*
X135227033Y-57223866D01*
X134560366Y-57223866D02*
X134493700Y-57223866D01*
X134427033Y-57257200D01*
X134393700Y-57290533D01*
X134360366Y-57357200D01*
X134327033Y-57490533D01*
X134327033Y-57657200D01*
X134360366Y-57790533D01*
X134393700Y-57857200D01*
X134427033Y-57890533D01*
X134493700Y-57923866D01*
X134560366Y-57923866D01*
X134627033Y-57890533D01*
X134660366Y-57857200D01*
X134693700Y-57790533D01*
X134727033Y-57657200D01*
X134727033Y-57490533D01*
X134693700Y-57357200D01*
X134660366Y-57290533D01*
X134627033Y-57257200D01*
X134560366Y-57223866D01*
X133893700Y-57223866D02*
X133827033Y-57223866D01*
X133760366Y-57257200D01*
X133727033Y-57290533D01*
X133693700Y-57357200D01*
X133660366Y-57490533D01*
X133660366Y-57657200D01*
X133693700Y-57790533D01*
X133727033Y-57857200D01*
X133760366Y-57890533D01*
X133827033Y-57923866D01*
X133893700Y-57923866D01*
X133960366Y-57890533D01*
X133993700Y-57857200D01*
X134027033Y-57790533D01*
X134060366Y-57657200D01*
X134060366Y-57490533D01*
X134027033Y-57357200D01*
X133993700Y-57290533D01*
X133960366Y-57257200D01*
X133893700Y-57223866D01*
X139210366Y-59423866D02*
X139210366Y-58723866D01*
X139043700Y-58723866D01*
X138943700Y-58757200D01*
X138877033Y-58823866D01*
X138843700Y-58890533D01*
X138810366Y-59023866D01*
X138810366Y-59123866D01*
X138843700Y-59257200D01*
X138877033Y-59323866D01*
X138943700Y-59390533D01*
X139043700Y-59423866D01*
X139210366Y-59423866D01*
X138577033Y-58723866D02*
X138143700Y-58723866D01*
X138377033Y-58990533D01*
X138277033Y-58990533D01*
X138210366Y-59023866D01*
X138177033Y-59057200D01*
X138143700Y-59123866D01*
X138143700Y-59290533D01*
X138177033Y-59357200D01*
X138210366Y-59390533D01*
X138277033Y-59423866D01*
X138477033Y-59423866D01*
X138543700Y-59390533D01*
X138577033Y-59357200D01*
%TO.C,C11*%
X99435833Y-43850000D02*
X99469166Y-43883333D01*
X99569166Y-43916666D01*
X99635833Y-43916666D01*
X99735833Y-43883333D01*
X99802500Y-43816666D01*
X99835833Y-43750000D01*
X99869166Y-43616666D01*
X99869166Y-43516666D01*
X99835833Y-43383333D01*
X99802500Y-43316666D01*
X99735833Y-43250000D01*
X99635833Y-43216666D01*
X99569166Y-43216666D01*
X99469166Y-43250000D01*
X99435833Y-43283333D01*
X99302500Y-43983333D02*
X98769166Y-43983333D01*
X98635833Y-43283333D02*
X98602500Y-43250000D01*
X98535833Y-43216666D01*
X98369166Y-43216666D01*
X98302500Y-43250000D01*
X98269166Y-43283333D01*
X98235833Y-43350000D01*
X98235833Y-43416666D01*
X98269166Y-43516666D01*
X98669166Y-43916666D01*
X98235833Y-43916666D01*
X97969166Y-43283333D02*
X97935833Y-43250000D01*
X97869166Y-43216666D01*
X97702500Y-43216666D01*
X97635833Y-43250000D01*
X97602500Y-43283333D01*
X97569166Y-43350000D01*
X97569166Y-43416666D01*
X97602500Y-43516666D01*
X98002500Y-43916666D01*
X97569166Y-43916666D01*
X96969166Y-43450000D02*
X96969166Y-43916666D01*
X97269166Y-43450000D02*
X97269166Y-43816666D01*
X97235833Y-43883333D01*
X97169166Y-43916666D01*
X97069166Y-43916666D01*
X97002500Y-43883333D01*
X96969166Y-43850000D01*
X96802500Y-43983333D02*
X96269166Y-43983333D01*
X95969166Y-43216666D02*
X95902500Y-43216666D01*
X95835833Y-43250000D01*
X95802500Y-43283333D01*
X95769166Y-43350000D01*
X95735833Y-43483333D01*
X95735833Y-43650000D01*
X95769166Y-43783333D01*
X95802500Y-43850000D01*
X95835833Y-43883333D01*
X95902500Y-43916666D01*
X95969166Y-43916666D01*
X96035833Y-43883333D01*
X96069166Y-43850000D01*
X96102500Y-43783333D01*
X96135833Y-43650000D01*
X96135833Y-43483333D01*
X96102500Y-43350000D01*
X96069166Y-43283333D01*
X96035833Y-43250000D01*
X95969166Y-43216666D01*
X95135833Y-43216666D02*
X95269166Y-43216666D01*
X95335833Y-43250000D01*
X95369166Y-43283333D01*
X95435833Y-43383333D01*
X95469166Y-43516666D01*
X95469166Y-43783333D01*
X95435833Y-43850000D01*
X95402500Y-43883333D01*
X95335833Y-43916666D01*
X95202500Y-43916666D01*
X95135833Y-43883333D01*
X95102500Y-43850000D01*
X95069166Y-43783333D01*
X95069166Y-43616666D01*
X95102500Y-43550000D01*
X95135833Y-43516666D01*
X95202500Y-43483333D01*
X95335833Y-43483333D01*
X95402500Y-43516666D01*
X95435833Y-43550000D01*
X95469166Y-43616666D01*
X94635833Y-43216666D02*
X94569166Y-43216666D01*
X94502500Y-43250000D01*
X94469166Y-43283333D01*
X94435833Y-43350000D01*
X94402500Y-43483333D01*
X94402500Y-43650000D01*
X94435833Y-43783333D01*
X94469166Y-43850000D01*
X94502500Y-43883333D01*
X94569166Y-43916666D01*
X94635833Y-43916666D01*
X94702500Y-43883333D01*
X94735833Y-43850000D01*
X94769166Y-43783333D01*
X94802500Y-43650000D01*
X94802500Y-43483333D01*
X94769166Y-43350000D01*
X94735833Y-43283333D01*
X94702500Y-43250000D01*
X94635833Y-43216666D01*
X94169166Y-43216666D02*
X93735833Y-43216666D01*
X93969166Y-43483333D01*
X93869166Y-43483333D01*
X93802500Y-43516666D01*
X93769166Y-43550000D01*
X93735833Y-43616666D01*
X93735833Y-43783333D01*
X93769166Y-43850000D01*
X93802500Y-43883333D01*
X93869166Y-43916666D01*
X94069166Y-43916666D01*
X94135833Y-43883333D01*
X94169166Y-43850000D01*
%TO.C,R7*%
X150466666Y-55614166D02*
X150133333Y-55380833D01*
X150466666Y-55214166D02*
X149766666Y-55214166D01*
X149766666Y-55480833D01*
X149800000Y-55547500D01*
X149833333Y-55580833D01*
X149900000Y-55614166D01*
X150000000Y-55614166D01*
X150066666Y-55580833D01*
X150100000Y-55547500D01*
X150133333Y-55480833D01*
X150133333Y-55214166D01*
X150533333Y-55747500D02*
X150533333Y-56280833D01*
X149766666Y-56580833D02*
X149766666Y-56647500D01*
X149800000Y-56714166D01*
X149833333Y-56747500D01*
X149900000Y-56780833D01*
X150033333Y-56814166D01*
X150200000Y-56814166D01*
X150333333Y-56780833D01*
X150400000Y-56747500D01*
X150433333Y-56714166D01*
X150466666Y-56647500D01*
X150466666Y-56580833D01*
X150433333Y-56514166D01*
X150400000Y-56480833D01*
X150333333Y-56447500D01*
X150200000Y-56414166D01*
X150033333Y-56414166D01*
X149900000Y-56447500D01*
X149833333Y-56480833D01*
X149800000Y-56514166D01*
X149766666Y-56580833D01*
X150466666Y-57514166D02*
X150133333Y-57280833D01*
X150466666Y-57114166D02*
X149766666Y-57114166D01*
X149766666Y-57380833D01*
X149800000Y-57447500D01*
X149833333Y-57480833D01*
X149900000Y-57514166D01*
X150000000Y-57514166D01*
X150066666Y-57480833D01*
X150100000Y-57447500D01*
X150133333Y-57380833D01*
X150133333Y-57114166D01*
X150533333Y-57647500D02*
X150533333Y-58180833D01*
X150466666Y-58714166D02*
X150466666Y-58314166D01*
X150466666Y-58514166D02*
X149766666Y-58514166D01*
X149866666Y-58447500D01*
X149933333Y-58380833D01*
X149966666Y-58314166D01*
X149833333Y-58980833D02*
X149800000Y-59014166D01*
X149766666Y-59080833D01*
X149766666Y-59247500D01*
X149800000Y-59314166D01*
X149833333Y-59347500D01*
X149900000Y-59380833D01*
X149966666Y-59380833D01*
X150066666Y-59347500D01*
X150466666Y-58947500D01*
X150466666Y-59380833D01*
X149766666Y-59814166D02*
X149766666Y-59880833D01*
X149800000Y-59947500D01*
X149833333Y-59980833D01*
X149900000Y-60014166D01*
X150033333Y-60047500D01*
X150200000Y-60047500D01*
X150333333Y-60014166D01*
X150400000Y-59980833D01*
X150433333Y-59947500D01*
X150466666Y-59880833D01*
X150466666Y-59814166D01*
X150433333Y-59747500D01*
X150400000Y-59714166D01*
X150333333Y-59680833D01*
X150200000Y-59647500D01*
X150033333Y-59647500D01*
X149900000Y-59680833D01*
X149833333Y-59714166D01*
X149800000Y-59747500D01*
X149766666Y-59814166D01*
X149766666Y-60647500D02*
X149766666Y-60514166D01*
X149800000Y-60447500D01*
X149833333Y-60414166D01*
X149933333Y-60347500D01*
X150066666Y-60314166D01*
X150333333Y-60314166D01*
X150400000Y-60347500D01*
X150433333Y-60380833D01*
X150466666Y-60447500D01*
X150466666Y-60580833D01*
X150433333Y-60647500D01*
X150400000Y-60680833D01*
X150333333Y-60714166D01*
X150166666Y-60714166D01*
X150100000Y-60680833D01*
X150066666Y-60647500D01*
X150033333Y-60580833D01*
X150033333Y-60447500D01*
X150066666Y-60380833D01*
X150100000Y-60347500D01*
X150166666Y-60314166D01*
%TO.C,U3*%
X168353690Y-33840474D02*
X168401466Y-33983800D01*
X168401466Y-34222677D01*
X168353690Y-34318228D01*
X168305915Y-34366003D01*
X168210364Y-34413779D01*
X168114813Y-34413779D01*
X168019263Y-34366003D01*
X167971487Y-34318228D01*
X167923712Y-34222677D01*
X167875936Y-34031576D01*
X167828161Y-33936025D01*
X167780386Y-33888249D01*
X167684835Y-33840474D01*
X167589284Y-33840474D01*
X167493733Y-33888249D01*
X167445958Y-33936025D01*
X167398183Y-34031576D01*
X167398183Y-34270453D01*
X167445958Y-34413779D01*
X168401466Y-34843757D02*
X167398183Y-34843757D01*
X168114813Y-35178185D01*
X167398183Y-35512612D01*
X168401466Y-35512612D01*
X167398183Y-36181468D02*
X167398183Y-36277019D01*
X167445958Y-36372569D01*
X167493733Y-36420345D01*
X167589284Y-36468120D01*
X167780386Y-36515895D01*
X168019263Y-36515895D01*
X168210364Y-36468120D01*
X168305915Y-36420345D01*
X168353690Y-36372569D01*
X168401466Y-36277019D01*
X168401466Y-36181468D01*
X168353690Y-36085917D01*
X168305915Y-36038142D01*
X168210364Y-35990366D01*
X168019263Y-35942591D01*
X167780386Y-35942591D01*
X167589284Y-35990366D01*
X167493733Y-36038142D01*
X167445958Y-36085917D01*
X167398183Y-36181468D01*
X167493733Y-36898098D02*
X167445958Y-36945874D01*
X167398183Y-37041425D01*
X167398183Y-37280302D01*
X167445958Y-37375852D01*
X167493733Y-37423628D01*
X167589284Y-37471403D01*
X167684835Y-37471403D01*
X167828161Y-37423628D01*
X168401466Y-36850323D01*
X168401466Y-37471403D01*
X167875936Y-38235809D02*
X167923712Y-38379135D01*
X167971487Y-38426911D01*
X168067038Y-38474686D01*
X168210364Y-38474686D01*
X168305915Y-38426911D01*
X168353690Y-38379135D01*
X168401466Y-38283585D01*
X168401466Y-37901381D01*
X167398183Y-37901381D01*
X167398183Y-38235809D01*
X167445958Y-38331360D01*
X167493733Y-38379135D01*
X167589284Y-38426911D01*
X167684835Y-38426911D01*
X167780386Y-38379135D01*
X167828161Y-38331360D01*
X167875936Y-38235809D01*
X167875936Y-37901381D01*
X168019263Y-38904664D02*
X168019263Y-39669071D01*
X168353690Y-40099049D02*
X168401466Y-40242375D01*
X168401466Y-40481252D01*
X168353690Y-40576803D01*
X168305915Y-40624578D01*
X168210364Y-40672354D01*
X168114813Y-40672354D01*
X168019263Y-40624578D01*
X167971487Y-40576803D01*
X167923712Y-40481252D01*
X167875936Y-40290151D01*
X167828161Y-40194600D01*
X167780386Y-40146824D01*
X167684835Y-40099049D01*
X167589284Y-40099049D01*
X167493733Y-40146824D01*
X167445958Y-40194600D01*
X167398183Y-40290151D01*
X167398183Y-40529027D01*
X167445958Y-40672354D01*
X168401466Y-41675637D02*
X167923712Y-41341209D01*
X168401466Y-41102332D02*
X167398183Y-41102332D01*
X167398183Y-41484535D01*
X167445958Y-41580086D01*
X167493733Y-41627861D01*
X167589284Y-41675637D01*
X167732610Y-41675637D01*
X167828161Y-41627861D01*
X167875936Y-41580086D01*
X167923712Y-41484535D01*
X167923712Y-41102332D01*
X168353690Y-42057840D02*
X168401466Y-42201166D01*
X168401466Y-42440043D01*
X168353690Y-42535593D01*
X168305915Y-42583369D01*
X168210364Y-42631144D01*
X168114813Y-42631144D01*
X168019263Y-42583369D01*
X167971487Y-42535593D01*
X167923712Y-42440043D01*
X167875936Y-42248941D01*
X167828161Y-42153390D01*
X167780386Y-42105615D01*
X167684835Y-42057840D01*
X167589284Y-42057840D01*
X167493733Y-42105615D01*
X167445958Y-42153390D01*
X167398183Y-42248941D01*
X167398183Y-42487818D01*
X167445958Y-42631144D01*
X168353690Y-43013347D02*
X168401466Y-43156673D01*
X168401466Y-43395550D01*
X168353690Y-43491101D01*
X168305915Y-43538876D01*
X168210364Y-43586652D01*
X168114813Y-43586652D01*
X168019263Y-43538876D01*
X167971487Y-43491101D01*
X167923712Y-43395550D01*
X167875936Y-43204449D01*
X167828161Y-43108898D01*
X167780386Y-43061123D01*
X167684835Y-43013347D01*
X167589284Y-43013347D01*
X167493733Y-43061123D01*
X167445958Y-43108898D01*
X167398183Y-43204449D01*
X167398183Y-43443326D01*
X167445958Y-43586652D01*
X168019263Y-44016630D02*
X168019263Y-44781036D01*
X167398183Y-45115464D02*
X167398183Y-45688769D01*
X168401466Y-45402116D02*
X167398183Y-45402116D01*
X167875936Y-46357624D02*
X167923712Y-46500950D01*
X167971487Y-46548725D01*
X168067038Y-46596501D01*
X168210364Y-46596501D01*
X168305915Y-46548725D01*
X168353690Y-46500950D01*
X168401466Y-46405399D01*
X168401466Y-46023196D01*
X167398183Y-46023196D01*
X167398183Y-46357624D01*
X167445958Y-46453175D01*
X167493733Y-46500950D01*
X167589284Y-46548725D01*
X167684835Y-46548725D01*
X167780386Y-46500950D01*
X167828161Y-46453175D01*
X167875936Y-46357624D01*
X167875936Y-46023196D01*
X168019263Y-47026479D02*
X168019263Y-47790885D01*
X168401466Y-48746393D02*
X168401466Y-48268639D01*
X167398183Y-48268639D01*
X167875936Y-49415248D02*
X167875936Y-49080821D01*
X168401466Y-49080821D02*
X167398183Y-49080821D01*
X167398183Y-49558574D01*
X168019263Y-49940777D02*
X168019263Y-50705184D01*
X168353690Y-51135162D02*
X168401466Y-51278488D01*
X168401466Y-51517365D01*
X168353690Y-51612916D01*
X168305915Y-51660691D01*
X168210364Y-51708467D01*
X168114813Y-51708467D01*
X168019263Y-51660691D01*
X167971487Y-51612916D01*
X167923712Y-51517365D01*
X167875936Y-51326264D01*
X167828161Y-51230713D01*
X167780386Y-51182937D01*
X167684835Y-51135162D01*
X167589284Y-51135162D01*
X167493733Y-51182937D01*
X167445958Y-51230713D01*
X167398183Y-51326264D01*
X167398183Y-51565140D01*
X167445958Y-51708467D01*
X168401466Y-52138445D02*
X167398183Y-52138445D01*
X168401466Y-52711750D01*
X167398183Y-52711750D01*
%TO.C,C9*%
X158097500Y-57700000D02*
X158130833Y-57733333D01*
X158230833Y-57766666D01*
X158297500Y-57766666D01*
X158397500Y-57733333D01*
X158464166Y-57666666D01*
X158497500Y-57600000D01*
X158530833Y-57466666D01*
X158530833Y-57366666D01*
X158497500Y-57233333D01*
X158464166Y-57166666D01*
X158397500Y-57100000D01*
X158297500Y-57066666D01*
X158230833Y-57066666D01*
X158130833Y-57100000D01*
X158097500Y-57133333D01*
X157964166Y-57833333D02*
X157430833Y-57833333D01*
X156897500Y-57766666D02*
X157297500Y-57766666D01*
X157097500Y-57766666D02*
X157097500Y-57066666D01*
X157164166Y-57166666D01*
X157230833Y-57233333D01*
X157297500Y-57266666D01*
X156464166Y-57066666D02*
X156397500Y-57066666D01*
X156330833Y-57100000D01*
X156297500Y-57133333D01*
X156264166Y-57200000D01*
X156230833Y-57333333D01*
X156230833Y-57500000D01*
X156264166Y-57633333D01*
X156297500Y-57700000D01*
X156330833Y-57733333D01*
X156397500Y-57766666D01*
X156464166Y-57766666D01*
X156530833Y-57733333D01*
X156564166Y-57700000D01*
X156597500Y-57633333D01*
X156630833Y-57500000D01*
X156630833Y-57333333D01*
X156597500Y-57200000D01*
X156564166Y-57133333D01*
X156530833Y-57100000D01*
X156464166Y-57066666D01*
X155797500Y-57066666D02*
X155730833Y-57066666D01*
X155664166Y-57100000D01*
X155630833Y-57133333D01*
X155597500Y-57200000D01*
X155564166Y-57333333D01*
X155564166Y-57500000D01*
X155597500Y-57633333D01*
X155630833Y-57700000D01*
X155664166Y-57733333D01*
X155730833Y-57766666D01*
X155797500Y-57766666D01*
X155864166Y-57733333D01*
X155897500Y-57700000D01*
X155930833Y-57633333D01*
X155964166Y-57500000D01*
X155964166Y-57333333D01*
X155930833Y-57200000D01*
X155897500Y-57133333D01*
X155864166Y-57100000D01*
X155797500Y-57066666D01*
X155264166Y-57300000D02*
X155264166Y-57766666D01*
X155264166Y-57366666D02*
X155230833Y-57333333D01*
X155164166Y-57300000D01*
X155064166Y-57300000D01*
X154997500Y-57333333D01*
X154964166Y-57400000D01*
X154964166Y-57766666D01*
X154797500Y-57833333D02*
X154264166Y-57833333D01*
X153964166Y-57066666D02*
X153897500Y-57066666D01*
X153830833Y-57100000D01*
X153797500Y-57133333D01*
X153764166Y-57200000D01*
X153730833Y-57333333D01*
X153730833Y-57500000D01*
X153764166Y-57633333D01*
X153797500Y-57700000D01*
X153830833Y-57733333D01*
X153897500Y-57766666D01*
X153964166Y-57766666D01*
X154030833Y-57733333D01*
X154064166Y-57700000D01*
X154097500Y-57633333D01*
X154130833Y-57500000D01*
X154130833Y-57333333D01*
X154097500Y-57200000D01*
X154064166Y-57133333D01*
X154030833Y-57100000D01*
X153964166Y-57066666D01*
X153130833Y-57300000D02*
X153130833Y-57766666D01*
X153297500Y-57033333D02*
X153464166Y-57533333D01*
X153030833Y-57533333D01*
X152630833Y-57066666D02*
X152564166Y-57066666D01*
X152497500Y-57100000D01*
X152464166Y-57133333D01*
X152430833Y-57200000D01*
X152397500Y-57333333D01*
X152397500Y-57500000D01*
X152430833Y-57633333D01*
X152464166Y-57700000D01*
X152497500Y-57733333D01*
X152564166Y-57766666D01*
X152630833Y-57766666D01*
X152697500Y-57733333D01*
X152730833Y-57700000D01*
X152764166Y-57633333D01*
X152797500Y-57500000D01*
X152797500Y-57333333D01*
X152764166Y-57200000D01*
X152730833Y-57133333D01*
X152697500Y-57100000D01*
X152630833Y-57066666D01*
X152130833Y-57133333D02*
X152097500Y-57100000D01*
X152030833Y-57066666D01*
X151864166Y-57066666D01*
X151797500Y-57100000D01*
X151764166Y-57133333D01*
X151730833Y-57200000D01*
X151730833Y-57266666D01*
X151764166Y-57366666D01*
X152164166Y-57766666D01*
X151730833Y-57766666D01*
%TO.C,D1*%
X150152500Y-51150000D02*
X150052500Y-51183333D01*
X150019166Y-51216666D01*
X149985833Y-51283333D01*
X149985833Y-51383333D01*
X150019166Y-51450000D01*
X150052500Y-51483333D01*
X150119166Y-51516666D01*
X150385833Y-51516666D01*
X150385833Y-50816666D01*
X150152500Y-50816666D01*
X150085833Y-50850000D01*
X150052500Y-50883333D01*
X150019166Y-50950000D01*
X150019166Y-51016666D01*
X150052500Y-51083333D01*
X150085833Y-51116666D01*
X150152500Y-51150000D01*
X150385833Y-51150000D01*
X149752500Y-50816666D02*
X149319166Y-50816666D01*
X149552500Y-51083333D01*
X149452500Y-51083333D01*
X149385833Y-51116666D01*
X149352500Y-51150000D01*
X149319166Y-51216666D01*
X149319166Y-51383333D01*
X149352500Y-51450000D01*
X149385833Y-51483333D01*
X149452500Y-51516666D01*
X149652500Y-51516666D01*
X149719166Y-51483333D01*
X149752500Y-51450000D01*
X148719166Y-50816666D02*
X148852500Y-50816666D01*
X148919166Y-50850000D01*
X148952500Y-50883333D01*
X149019166Y-50983333D01*
X149052500Y-51116666D01*
X149052500Y-51383333D01*
X149019166Y-51450000D01*
X148985833Y-51483333D01*
X148919166Y-51516666D01*
X148785833Y-51516666D01*
X148719166Y-51483333D01*
X148685833Y-51450000D01*
X148652500Y-51383333D01*
X148652500Y-51216666D01*
X148685833Y-51150000D01*
X148719166Y-51116666D01*
X148785833Y-51083333D01*
X148919166Y-51083333D01*
X148985833Y-51116666D01*
X149019166Y-51150000D01*
X149052500Y-51216666D01*
X148219166Y-50816666D02*
X148152500Y-50816666D01*
X148085833Y-50850000D01*
X148052500Y-50883333D01*
X148019166Y-50950000D01*
X147985833Y-51083333D01*
X147985833Y-51250000D01*
X148019166Y-51383333D01*
X148052500Y-51450000D01*
X148085833Y-51483333D01*
X148152500Y-51516666D01*
X148219166Y-51516666D01*
X148285833Y-51483333D01*
X148319166Y-51450000D01*
X148352500Y-51383333D01*
X148385833Y-51250000D01*
X148385833Y-51083333D01*
X148352500Y-50950000D01*
X148319166Y-50883333D01*
X148285833Y-50850000D01*
X148219166Y-50816666D01*
X147719166Y-51316666D02*
X147385833Y-51316666D01*
X147785833Y-51516666D02*
X147552500Y-50816666D01*
X147319166Y-51516666D01*
X147085833Y-51250000D02*
X146552500Y-51250000D01*
X146219166Y-51516666D02*
X146219166Y-50816666D01*
X145985833Y-51316666D01*
X145752500Y-50816666D01*
X145752500Y-51516666D01*
X145485833Y-50816666D02*
X145052500Y-50816666D01*
X145285833Y-51083333D01*
X145185833Y-51083333D01*
X145119166Y-51116666D01*
X145085833Y-51150000D01*
X145052500Y-51216666D01*
X145052500Y-51383333D01*
X145085833Y-51450000D01*
X145119166Y-51483333D01*
X145185833Y-51516666D01*
X145385833Y-51516666D01*
X145452500Y-51483333D01*
X145485833Y-51450000D01*
%TO.C,C7*%
X103997500Y-48050000D02*
X104030833Y-48083333D01*
X104130833Y-48116666D01*
X104197500Y-48116666D01*
X104297500Y-48083333D01*
X104364166Y-48016666D01*
X104397500Y-47950000D01*
X104430833Y-47816666D01*
X104430833Y-47716666D01*
X104397500Y-47583333D01*
X104364166Y-47516666D01*
X104297500Y-47450000D01*
X104197500Y-47416666D01*
X104130833Y-47416666D01*
X104030833Y-47450000D01*
X103997500Y-47483333D01*
X103864166Y-48183333D02*
X103330833Y-48183333D01*
X102797500Y-48116666D02*
X103197500Y-48116666D01*
X102997500Y-48116666D02*
X102997500Y-47416666D01*
X103064166Y-47516666D01*
X103130833Y-47583333D01*
X103197500Y-47616666D01*
X102364166Y-47416666D02*
X102297500Y-47416666D01*
X102230833Y-47450000D01*
X102197500Y-47483333D01*
X102164166Y-47550000D01*
X102130833Y-47683333D01*
X102130833Y-47850000D01*
X102164166Y-47983333D01*
X102197500Y-48050000D01*
X102230833Y-48083333D01*
X102297500Y-48116666D01*
X102364166Y-48116666D01*
X102430833Y-48083333D01*
X102464166Y-48050000D01*
X102497500Y-47983333D01*
X102530833Y-47850000D01*
X102530833Y-47683333D01*
X102497500Y-47550000D01*
X102464166Y-47483333D01*
X102430833Y-47450000D01*
X102364166Y-47416666D01*
X101697500Y-47416666D02*
X101630833Y-47416666D01*
X101564166Y-47450000D01*
X101530833Y-47483333D01*
X101497500Y-47550000D01*
X101464166Y-47683333D01*
X101464166Y-47850000D01*
X101497500Y-47983333D01*
X101530833Y-48050000D01*
X101564166Y-48083333D01*
X101630833Y-48116666D01*
X101697500Y-48116666D01*
X101764166Y-48083333D01*
X101797500Y-48050000D01*
X101830833Y-47983333D01*
X101864166Y-47850000D01*
X101864166Y-47683333D01*
X101830833Y-47550000D01*
X101797500Y-47483333D01*
X101764166Y-47450000D01*
X101697500Y-47416666D01*
X101164166Y-47650000D02*
X101164166Y-48116666D01*
X101164166Y-47716666D02*
X101130833Y-47683333D01*
X101064166Y-47650000D01*
X100964166Y-47650000D01*
X100897500Y-47683333D01*
X100864166Y-47750000D01*
X100864166Y-48116666D01*
X100697500Y-48183333D02*
X100164166Y-48183333D01*
X99864166Y-47416666D02*
X99797500Y-47416666D01*
X99730833Y-47450000D01*
X99697500Y-47483333D01*
X99664166Y-47550000D01*
X99630833Y-47683333D01*
X99630833Y-47850000D01*
X99664166Y-47983333D01*
X99697500Y-48050000D01*
X99730833Y-48083333D01*
X99797500Y-48116666D01*
X99864166Y-48116666D01*
X99930833Y-48083333D01*
X99964166Y-48050000D01*
X99997500Y-47983333D01*
X100030833Y-47850000D01*
X100030833Y-47683333D01*
X99997500Y-47550000D01*
X99964166Y-47483333D01*
X99930833Y-47450000D01*
X99864166Y-47416666D01*
X99030833Y-47650000D02*
X99030833Y-48116666D01*
X99197500Y-47383333D02*
X99364166Y-47883333D01*
X98930833Y-47883333D01*
X98530833Y-47416666D02*
X98464166Y-47416666D01*
X98397500Y-47450000D01*
X98364166Y-47483333D01*
X98330833Y-47550000D01*
X98297500Y-47683333D01*
X98297500Y-47850000D01*
X98330833Y-47983333D01*
X98364166Y-48050000D01*
X98397500Y-48083333D01*
X98464166Y-48116666D01*
X98530833Y-48116666D01*
X98597500Y-48083333D01*
X98630833Y-48050000D01*
X98664166Y-47983333D01*
X98697500Y-47850000D01*
X98697500Y-47683333D01*
X98664166Y-47550000D01*
X98630833Y-47483333D01*
X98597500Y-47450000D01*
X98530833Y-47416666D01*
X98030833Y-47483333D02*
X97997500Y-47450000D01*
X97930833Y-47416666D01*
X97764166Y-47416666D01*
X97697500Y-47450000D01*
X97664166Y-47483333D01*
X97630833Y-47550000D01*
X97630833Y-47616666D01*
X97664166Y-47716666D01*
X98064166Y-48116666D01*
X97630833Y-48116666D01*
%TO.C,U4*%
X82358490Y-33790474D02*
X82406266Y-33933800D01*
X82406266Y-34172677D01*
X82358490Y-34268228D01*
X82310715Y-34316003D01*
X82215164Y-34363779D01*
X82119613Y-34363779D01*
X82024063Y-34316003D01*
X81976287Y-34268228D01*
X81928512Y-34172677D01*
X81880736Y-33981576D01*
X81832961Y-33886025D01*
X81785186Y-33838249D01*
X81689635Y-33790474D01*
X81594084Y-33790474D01*
X81498533Y-33838249D01*
X81450758Y-33886025D01*
X81402983Y-33981576D01*
X81402983Y-34220453D01*
X81450758Y-34363779D01*
X82406266Y-34793757D02*
X81402983Y-34793757D01*
X82119613Y-35128185D01*
X81402983Y-35462612D01*
X82406266Y-35462612D01*
X81402983Y-36131468D02*
X81402983Y-36227019D01*
X81450758Y-36322569D01*
X81498533Y-36370345D01*
X81594084Y-36418120D01*
X81785186Y-36465895D01*
X82024063Y-36465895D01*
X82215164Y-36418120D01*
X82310715Y-36370345D01*
X82358490Y-36322569D01*
X82406266Y-36227019D01*
X82406266Y-36131468D01*
X82358490Y-36035917D01*
X82310715Y-35988142D01*
X82215164Y-35940366D01*
X82024063Y-35892591D01*
X81785186Y-35892591D01*
X81594084Y-35940366D01*
X81498533Y-35988142D01*
X81450758Y-36035917D01*
X81402983Y-36131468D01*
X81498533Y-36848098D02*
X81450758Y-36895874D01*
X81402983Y-36991425D01*
X81402983Y-37230302D01*
X81450758Y-37325852D01*
X81498533Y-37373628D01*
X81594084Y-37421403D01*
X81689635Y-37421403D01*
X81832961Y-37373628D01*
X82406266Y-36800323D01*
X82406266Y-37421403D01*
X81880736Y-38185809D02*
X81928512Y-38329135D01*
X81976287Y-38376911D01*
X82071838Y-38424686D01*
X82215164Y-38424686D01*
X82310715Y-38376911D01*
X82358490Y-38329135D01*
X82406266Y-38233585D01*
X82406266Y-37851381D01*
X81402983Y-37851381D01*
X81402983Y-38185809D01*
X81450758Y-38281360D01*
X81498533Y-38329135D01*
X81594084Y-38376911D01*
X81689635Y-38376911D01*
X81785186Y-38329135D01*
X81832961Y-38281360D01*
X81880736Y-38185809D01*
X81880736Y-37851381D01*
X82024063Y-38854664D02*
X82024063Y-39619071D01*
X82358490Y-40049049D02*
X82406266Y-40192375D01*
X82406266Y-40431252D01*
X82358490Y-40526803D01*
X82310715Y-40574578D01*
X82215164Y-40622354D01*
X82119613Y-40622354D01*
X82024063Y-40574578D01*
X81976287Y-40526803D01*
X81928512Y-40431252D01*
X81880736Y-40240151D01*
X81832961Y-40144600D01*
X81785186Y-40096824D01*
X81689635Y-40049049D01*
X81594084Y-40049049D01*
X81498533Y-40096824D01*
X81450758Y-40144600D01*
X81402983Y-40240151D01*
X81402983Y-40479027D01*
X81450758Y-40622354D01*
X82406266Y-41625637D02*
X81928512Y-41291209D01*
X82406266Y-41052332D02*
X81402983Y-41052332D01*
X81402983Y-41434535D01*
X81450758Y-41530086D01*
X81498533Y-41577861D01*
X81594084Y-41625637D01*
X81737410Y-41625637D01*
X81832961Y-41577861D01*
X81880736Y-41530086D01*
X81928512Y-41434535D01*
X81928512Y-41052332D01*
X82358490Y-42007840D02*
X82406266Y-42151166D01*
X82406266Y-42390043D01*
X82358490Y-42485593D01*
X82310715Y-42533369D01*
X82215164Y-42581144D01*
X82119613Y-42581144D01*
X82024063Y-42533369D01*
X81976287Y-42485593D01*
X81928512Y-42390043D01*
X81880736Y-42198941D01*
X81832961Y-42103390D01*
X81785186Y-42055615D01*
X81689635Y-42007840D01*
X81594084Y-42007840D01*
X81498533Y-42055615D01*
X81450758Y-42103390D01*
X81402983Y-42198941D01*
X81402983Y-42437818D01*
X81450758Y-42581144D01*
X82358490Y-42963347D02*
X82406266Y-43106673D01*
X82406266Y-43345550D01*
X82358490Y-43441101D01*
X82310715Y-43488876D01*
X82215164Y-43536652D01*
X82119613Y-43536652D01*
X82024063Y-43488876D01*
X81976287Y-43441101D01*
X81928512Y-43345550D01*
X81880736Y-43154449D01*
X81832961Y-43058898D01*
X81785186Y-43011123D01*
X81689635Y-42963347D01*
X81594084Y-42963347D01*
X81498533Y-43011123D01*
X81450758Y-43058898D01*
X81402983Y-43154449D01*
X81402983Y-43393326D01*
X81450758Y-43536652D01*
X82024063Y-43966630D02*
X82024063Y-44731036D01*
X81402983Y-45065464D02*
X81402983Y-45638769D01*
X82406266Y-45352116D02*
X81402983Y-45352116D01*
X81880736Y-46307624D02*
X81928512Y-46450950D01*
X81976287Y-46498725D01*
X82071838Y-46546501D01*
X82215164Y-46546501D01*
X82310715Y-46498725D01*
X82358490Y-46450950D01*
X82406266Y-46355399D01*
X82406266Y-45973196D01*
X81402983Y-45973196D01*
X81402983Y-46307624D01*
X81450758Y-46403175D01*
X81498533Y-46450950D01*
X81594084Y-46498725D01*
X81689635Y-46498725D01*
X81785186Y-46450950D01*
X81832961Y-46403175D01*
X81880736Y-46307624D01*
X81880736Y-45973196D01*
X82024063Y-46976479D02*
X82024063Y-47740885D01*
X82406266Y-48696393D02*
X82406266Y-48218639D01*
X81402983Y-48218639D01*
X81880736Y-49365248D02*
X81880736Y-49030821D01*
X82406266Y-49030821D02*
X81402983Y-49030821D01*
X81402983Y-49508574D01*
X82024063Y-49890777D02*
X82024063Y-50655184D01*
X82358490Y-51085162D02*
X82406266Y-51228488D01*
X82406266Y-51467365D01*
X82358490Y-51562916D01*
X82310715Y-51610691D01*
X82215164Y-51658467D01*
X82119613Y-51658467D01*
X82024063Y-51610691D01*
X81976287Y-51562916D01*
X81928512Y-51467365D01*
X81880736Y-51276264D01*
X81832961Y-51180713D01*
X81785186Y-51132937D01*
X81689635Y-51085162D01*
X81594084Y-51085162D01*
X81498533Y-51132937D01*
X81450758Y-51180713D01*
X81402983Y-51276264D01*
X81402983Y-51515140D01*
X81450758Y-51658467D01*
X82406266Y-52088445D02*
X81402983Y-52088445D01*
X82406266Y-52661750D01*
X81402983Y-52661750D01*
%TO.C,R1*%
X146916666Y-50002500D02*
X146583333Y-49769166D01*
X146916666Y-49602500D02*
X146216666Y-49602500D01*
X146216666Y-49869166D01*
X146250000Y-49935833D01*
X146283333Y-49969166D01*
X146350000Y-50002500D01*
X146450000Y-50002500D01*
X146516666Y-49969166D01*
X146550000Y-49935833D01*
X146583333Y-49869166D01*
X146583333Y-49602500D01*
X146983333Y-50135833D02*
X146983333Y-50669166D01*
X146216666Y-50969166D02*
X146216666Y-51035833D01*
X146250000Y-51102500D01*
X146283333Y-51135833D01*
X146350000Y-51169166D01*
X146483333Y-51202500D01*
X146650000Y-51202500D01*
X146783333Y-51169166D01*
X146850000Y-51135833D01*
X146883333Y-51102500D01*
X146916666Y-51035833D01*
X146916666Y-50969166D01*
X146883333Y-50902500D01*
X146850000Y-50869166D01*
X146783333Y-50835833D01*
X146650000Y-50802500D01*
X146483333Y-50802500D01*
X146350000Y-50835833D01*
X146283333Y-50869166D01*
X146250000Y-50902500D01*
X146216666Y-50969166D01*
X146916666Y-51902500D02*
X146583333Y-51669166D01*
X146916666Y-51502500D02*
X146216666Y-51502500D01*
X146216666Y-51769166D01*
X146250000Y-51835833D01*
X146283333Y-51869166D01*
X146350000Y-51902500D01*
X146450000Y-51902500D01*
X146516666Y-51869166D01*
X146550000Y-51835833D01*
X146583333Y-51769166D01*
X146583333Y-51502500D01*
X146283333Y-52169166D02*
X146250000Y-52202500D01*
X146216666Y-52269166D01*
X146216666Y-52435833D01*
X146250000Y-52502500D01*
X146283333Y-52535833D01*
X146350000Y-52569166D01*
X146416666Y-52569166D01*
X146516666Y-52535833D01*
X146916666Y-52135833D01*
X146916666Y-52569166D01*
X146983333Y-52702500D02*
X146983333Y-53235833D01*
X146916666Y-53769166D02*
X146916666Y-53369166D01*
X146916666Y-53569166D02*
X146216666Y-53569166D01*
X146316666Y-53502500D01*
X146383333Y-53435833D01*
X146416666Y-53369166D01*
X146283333Y-54035833D02*
X146250000Y-54069166D01*
X146216666Y-54135833D01*
X146216666Y-54302500D01*
X146250000Y-54369166D01*
X146283333Y-54402500D01*
X146350000Y-54435833D01*
X146416666Y-54435833D01*
X146516666Y-54402500D01*
X146916666Y-54002500D01*
X146916666Y-54435833D01*
X146216666Y-54869166D02*
X146216666Y-54935833D01*
X146250000Y-55002500D01*
X146283333Y-55035833D01*
X146350000Y-55069166D01*
X146483333Y-55102500D01*
X146650000Y-55102500D01*
X146783333Y-55069166D01*
X146850000Y-55035833D01*
X146883333Y-55002500D01*
X146916666Y-54935833D01*
X146916666Y-54869166D01*
X146883333Y-54802500D01*
X146850000Y-54769166D01*
X146783333Y-54735833D01*
X146650000Y-54702500D01*
X146483333Y-54702500D01*
X146350000Y-54735833D01*
X146283333Y-54769166D01*
X146250000Y-54802500D01*
X146216666Y-54869166D01*
X146216666Y-55702500D02*
X146216666Y-55569166D01*
X146250000Y-55502500D01*
X146283333Y-55469166D01*
X146383333Y-55402500D01*
X146516666Y-55369166D01*
X146783333Y-55369166D01*
X146850000Y-55402500D01*
X146883333Y-55435833D01*
X146916666Y-55502500D01*
X146916666Y-55635833D01*
X146883333Y-55702500D01*
X146850000Y-55735833D01*
X146783333Y-55769166D01*
X146616666Y-55769166D01*
X146550000Y-55735833D01*
X146516666Y-55702500D01*
X146483333Y-55635833D01*
X146483333Y-55502500D01*
X146516666Y-55435833D01*
X146550000Y-55402500D01*
X146616666Y-55369166D01*
%TO.C,C3*%
X151150000Y-39902500D02*
X151183333Y-39869166D01*
X151216666Y-39769166D01*
X151216666Y-39702500D01*
X151183333Y-39602500D01*
X151116666Y-39535833D01*
X151050000Y-39502500D01*
X150916666Y-39469166D01*
X150816666Y-39469166D01*
X150683333Y-39502500D01*
X150616666Y-39535833D01*
X150550000Y-39602500D01*
X150516666Y-39702500D01*
X150516666Y-39769166D01*
X150550000Y-39869166D01*
X150583333Y-39902500D01*
X151283333Y-40035833D02*
X151283333Y-40569166D01*
X151216666Y-41102500D02*
X151216666Y-40702500D01*
X151216666Y-40902500D02*
X150516666Y-40902500D01*
X150616666Y-40835833D01*
X150683333Y-40769166D01*
X150716666Y-40702500D01*
X150516666Y-41535833D02*
X150516666Y-41602500D01*
X150550000Y-41669166D01*
X150583333Y-41702500D01*
X150650000Y-41735833D01*
X150783333Y-41769166D01*
X150950000Y-41769166D01*
X151083333Y-41735833D01*
X151150000Y-41702500D01*
X151183333Y-41669166D01*
X151216666Y-41602500D01*
X151216666Y-41535833D01*
X151183333Y-41469166D01*
X151150000Y-41435833D01*
X151083333Y-41402500D01*
X150950000Y-41369166D01*
X150783333Y-41369166D01*
X150650000Y-41402500D01*
X150583333Y-41435833D01*
X150550000Y-41469166D01*
X150516666Y-41535833D01*
X150516666Y-42202500D02*
X150516666Y-42269166D01*
X150550000Y-42335833D01*
X150583333Y-42369166D01*
X150650000Y-42402500D01*
X150783333Y-42435833D01*
X150950000Y-42435833D01*
X151083333Y-42402500D01*
X151150000Y-42369166D01*
X151183333Y-42335833D01*
X151216666Y-42269166D01*
X151216666Y-42202500D01*
X151183333Y-42135833D01*
X151150000Y-42102500D01*
X151083333Y-42069166D01*
X150950000Y-42035833D01*
X150783333Y-42035833D01*
X150650000Y-42069166D01*
X150583333Y-42102500D01*
X150550000Y-42135833D01*
X150516666Y-42202500D01*
X150750000Y-42735833D02*
X151216666Y-42735833D01*
X150816666Y-42735833D02*
X150783333Y-42769166D01*
X150750000Y-42835833D01*
X150750000Y-42935833D01*
X150783333Y-43002500D01*
X150850000Y-43035833D01*
X151216666Y-43035833D01*
X151283333Y-43202500D02*
X151283333Y-43735833D01*
X150516666Y-44035833D02*
X150516666Y-44102500D01*
X150550000Y-44169166D01*
X150583333Y-44202500D01*
X150650000Y-44235833D01*
X150783333Y-44269166D01*
X150950000Y-44269166D01*
X151083333Y-44235833D01*
X151150000Y-44202500D01*
X151183333Y-44169166D01*
X151216666Y-44102500D01*
X151216666Y-44035833D01*
X151183333Y-43969166D01*
X151150000Y-43935833D01*
X151083333Y-43902500D01*
X150950000Y-43869166D01*
X150783333Y-43869166D01*
X150650000Y-43902500D01*
X150583333Y-43935833D01*
X150550000Y-43969166D01*
X150516666Y-44035833D01*
X150750000Y-44869166D02*
X151216666Y-44869166D01*
X150483333Y-44702500D02*
X150983333Y-44535833D01*
X150983333Y-44969166D01*
X150516666Y-45369166D02*
X150516666Y-45435833D01*
X150550000Y-45502500D01*
X150583333Y-45535833D01*
X150650000Y-45569166D01*
X150783333Y-45602500D01*
X150950000Y-45602500D01*
X151083333Y-45569166D01*
X151150000Y-45535833D01*
X151183333Y-45502500D01*
X151216666Y-45435833D01*
X151216666Y-45369166D01*
X151183333Y-45302500D01*
X151150000Y-45269166D01*
X151083333Y-45235833D01*
X150950000Y-45202500D01*
X150783333Y-45202500D01*
X150650000Y-45235833D01*
X150583333Y-45269166D01*
X150550000Y-45302500D01*
X150516666Y-45369166D01*
X150583333Y-45869166D02*
X150550000Y-45902500D01*
X150516666Y-45969166D01*
X150516666Y-46135833D01*
X150550000Y-46202500D01*
X150583333Y-46235833D01*
X150650000Y-46269166D01*
X150716666Y-46269166D01*
X150816666Y-46235833D01*
X151216666Y-45835833D01*
X151216666Y-46269166D01*
%TO.C,R4*%
X144166666Y-39751500D02*
X143833333Y-39518166D01*
X144166666Y-39351500D02*
X143466666Y-39351500D01*
X143466666Y-39618166D01*
X143500000Y-39684833D01*
X143533333Y-39718166D01*
X143600000Y-39751500D01*
X143700000Y-39751500D01*
X143766666Y-39718166D01*
X143800000Y-39684833D01*
X143833333Y-39618166D01*
X143833333Y-39351500D01*
X144233333Y-39884833D02*
X144233333Y-40418166D01*
X143533333Y-40551500D02*
X143500000Y-40584833D01*
X143466666Y-40651500D01*
X143466666Y-40818166D01*
X143500000Y-40884833D01*
X143533333Y-40918166D01*
X143600000Y-40951500D01*
X143666666Y-40951500D01*
X143766666Y-40918166D01*
X144166666Y-40518166D01*
X144166666Y-40951500D01*
X144166666Y-41251500D02*
X143466666Y-41251500D01*
X143900000Y-41318166D02*
X144166666Y-41518166D01*
X143700000Y-41518166D02*
X143966666Y-41251500D01*
X144233333Y-41651500D02*
X144233333Y-42184833D01*
X143466666Y-42484833D02*
X143466666Y-42551500D01*
X143500000Y-42618166D01*
X143533333Y-42651500D01*
X143600000Y-42684833D01*
X143733333Y-42718166D01*
X143900000Y-42718166D01*
X144033333Y-42684833D01*
X144100000Y-42651500D01*
X144133333Y-42618166D01*
X144166666Y-42551500D01*
X144166666Y-42484833D01*
X144133333Y-42418166D01*
X144100000Y-42384833D01*
X144033333Y-42351500D01*
X143900000Y-42318166D01*
X143733333Y-42318166D01*
X143600000Y-42351500D01*
X143533333Y-42384833D01*
X143500000Y-42418166D01*
X143466666Y-42484833D01*
X143700000Y-43318166D02*
X144166666Y-43318166D01*
X143433333Y-43151500D02*
X143933333Y-42984833D01*
X143933333Y-43418166D01*
X143466666Y-43818166D02*
X143466666Y-43884833D01*
X143500000Y-43951500D01*
X143533333Y-43984833D01*
X143600000Y-44018166D01*
X143733333Y-44051500D01*
X143900000Y-44051500D01*
X144033333Y-44018166D01*
X144100000Y-43984833D01*
X144133333Y-43951500D01*
X144166666Y-43884833D01*
X144166666Y-43818166D01*
X144133333Y-43751500D01*
X144100000Y-43718166D01*
X144033333Y-43684833D01*
X143900000Y-43651500D01*
X143733333Y-43651500D01*
X143600000Y-43684833D01*
X143533333Y-43718166D01*
X143500000Y-43751500D01*
X143466666Y-43818166D01*
X143533333Y-44318166D02*
X143500000Y-44351500D01*
X143466666Y-44418166D01*
X143466666Y-44584833D01*
X143500000Y-44651500D01*
X143533333Y-44684833D01*
X143600000Y-44718166D01*
X143666666Y-44718166D01*
X143766666Y-44684833D01*
X144166666Y-44284833D01*
X144166666Y-44718166D01*
%TO.C,C6*%
X105797500Y-44250000D02*
X105830833Y-44283333D01*
X105930833Y-44316666D01*
X105997500Y-44316666D01*
X106097500Y-44283333D01*
X106164166Y-44216666D01*
X106197500Y-44150000D01*
X106230833Y-44016666D01*
X106230833Y-43916666D01*
X106197500Y-43783333D01*
X106164166Y-43716666D01*
X106097500Y-43650000D01*
X105997500Y-43616666D01*
X105930833Y-43616666D01*
X105830833Y-43650000D01*
X105797500Y-43683333D01*
X105664166Y-44383333D02*
X105130833Y-44383333D01*
X104597500Y-44316666D02*
X104997500Y-44316666D01*
X104797500Y-44316666D02*
X104797500Y-43616666D01*
X104864166Y-43716666D01*
X104930833Y-43783333D01*
X104997500Y-43816666D01*
X104164166Y-43616666D02*
X104097500Y-43616666D01*
X104030833Y-43650000D01*
X103997500Y-43683333D01*
X103964166Y-43750000D01*
X103930833Y-43883333D01*
X103930833Y-44050000D01*
X103964166Y-44183333D01*
X103997500Y-44250000D01*
X104030833Y-44283333D01*
X104097500Y-44316666D01*
X104164166Y-44316666D01*
X104230833Y-44283333D01*
X104264166Y-44250000D01*
X104297500Y-44183333D01*
X104330833Y-44050000D01*
X104330833Y-43883333D01*
X104297500Y-43750000D01*
X104264166Y-43683333D01*
X104230833Y-43650000D01*
X104164166Y-43616666D01*
X103330833Y-43850000D02*
X103330833Y-44316666D01*
X103630833Y-43850000D02*
X103630833Y-44216666D01*
X103597500Y-44283333D01*
X103530833Y-44316666D01*
X103430833Y-44316666D01*
X103364166Y-44283333D01*
X103330833Y-44250000D01*
X103164166Y-44383333D02*
X102630833Y-44383333D01*
X102497500Y-43683333D02*
X102464166Y-43650000D01*
X102397500Y-43616666D01*
X102230833Y-43616666D01*
X102164166Y-43650000D01*
X102130833Y-43683333D01*
X102097500Y-43750000D01*
X102097500Y-43816666D01*
X102130833Y-43916666D01*
X102530833Y-44316666D01*
X102097500Y-44316666D01*
X101464166Y-43616666D02*
X101797500Y-43616666D01*
X101830833Y-43950000D01*
X101797500Y-43916666D01*
X101730833Y-43883333D01*
X101564166Y-43883333D01*
X101497500Y-43916666D01*
X101464166Y-43950000D01*
X101430833Y-44016666D01*
X101430833Y-44183333D01*
X101464166Y-44250000D01*
X101497500Y-44283333D01*
X101564166Y-44316666D01*
X101730833Y-44316666D01*
X101797500Y-44283333D01*
X101830833Y-44250000D01*
X101230833Y-43616666D02*
X100997500Y-44316666D01*
X100764166Y-43616666D01*
X100697500Y-44383333D02*
X100164166Y-44383333D01*
X99864166Y-43616666D02*
X99797500Y-43616666D01*
X99730833Y-43650000D01*
X99697500Y-43683333D01*
X99664166Y-43750000D01*
X99630833Y-43883333D01*
X99630833Y-44050000D01*
X99664166Y-44183333D01*
X99697500Y-44250000D01*
X99730833Y-44283333D01*
X99797500Y-44316666D01*
X99864166Y-44316666D01*
X99930833Y-44283333D01*
X99964166Y-44250000D01*
X99997500Y-44183333D01*
X100030833Y-44050000D01*
X100030833Y-43883333D01*
X99997500Y-43750000D01*
X99964166Y-43683333D01*
X99930833Y-43650000D01*
X99864166Y-43616666D01*
X99030833Y-43616666D02*
X99164166Y-43616666D01*
X99230833Y-43650000D01*
X99264166Y-43683333D01*
X99330833Y-43783333D01*
X99364166Y-43916666D01*
X99364166Y-44183333D01*
X99330833Y-44250000D01*
X99297500Y-44283333D01*
X99230833Y-44316666D01*
X99097500Y-44316666D01*
X99030833Y-44283333D01*
X98997500Y-44250000D01*
X98964166Y-44183333D01*
X98964166Y-44016666D01*
X98997500Y-43950000D01*
X99030833Y-43916666D01*
X99097500Y-43883333D01*
X99230833Y-43883333D01*
X99297500Y-43916666D01*
X99330833Y-43950000D01*
X99364166Y-44016666D01*
X98530833Y-43616666D02*
X98464166Y-43616666D01*
X98397500Y-43650000D01*
X98364166Y-43683333D01*
X98330833Y-43750000D01*
X98297500Y-43883333D01*
X98297500Y-44050000D01*
X98330833Y-44183333D01*
X98364166Y-44250000D01*
X98397500Y-44283333D01*
X98464166Y-44316666D01*
X98530833Y-44316666D01*
X98597500Y-44283333D01*
X98630833Y-44250000D01*
X98664166Y-44183333D01*
X98697500Y-44050000D01*
X98697500Y-43883333D01*
X98664166Y-43750000D01*
X98630833Y-43683333D01*
X98597500Y-43650000D01*
X98530833Y-43616666D01*
X98064166Y-43616666D02*
X97630833Y-43616666D01*
X97864166Y-43883333D01*
X97764166Y-43883333D01*
X97697500Y-43916666D01*
X97664166Y-43950000D01*
X97630833Y-44016666D01*
X97630833Y-44183333D01*
X97664166Y-44250000D01*
X97697500Y-44283333D01*
X97764166Y-44316666D01*
X97964166Y-44316666D01*
X98030833Y-44283333D01*
X98064166Y-44250000D01*
%TO.C,C10*%
X99435833Y-45350000D02*
X99469166Y-45383333D01*
X99569166Y-45416666D01*
X99635833Y-45416666D01*
X99735833Y-45383333D01*
X99802500Y-45316666D01*
X99835833Y-45250000D01*
X99869166Y-45116666D01*
X99869166Y-45016666D01*
X99835833Y-44883333D01*
X99802500Y-44816666D01*
X99735833Y-44750000D01*
X99635833Y-44716666D01*
X99569166Y-44716666D01*
X99469166Y-44750000D01*
X99435833Y-44783333D01*
X99302500Y-45483333D02*
X98769166Y-45483333D01*
X98635833Y-44783333D02*
X98602500Y-44750000D01*
X98535833Y-44716666D01*
X98369166Y-44716666D01*
X98302500Y-44750000D01*
X98269166Y-44783333D01*
X98235833Y-44850000D01*
X98235833Y-44916666D01*
X98269166Y-45016666D01*
X98669166Y-45416666D01*
X98235833Y-45416666D01*
X97969166Y-44783333D02*
X97935833Y-44750000D01*
X97869166Y-44716666D01*
X97702500Y-44716666D01*
X97635833Y-44750000D01*
X97602500Y-44783333D01*
X97569166Y-44850000D01*
X97569166Y-44916666D01*
X97602500Y-45016666D01*
X98002500Y-45416666D01*
X97569166Y-45416666D01*
X96969166Y-44950000D02*
X96969166Y-45416666D01*
X97269166Y-44950000D02*
X97269166Y-45316666D01*
X97235833Y-45383333D01*
X97169166Y-45416666D01*
X97069166Y-45416666D01*
X97002500Y-45383333D01*
X96969166Y-45350000D01*
X96802500Y-45483333D02*
X96269166Y-45483333D01*
X95969166Y-44716666D02*
X95902500Y-44716666D01*
X95835833Y-44750000D01*
X95802500Y-44783333D01*
X95769166Y-44850000D01*
X95735833Y-44983333D01*
X95735833Y-45150000D01*
X95769166Y-45283333D01*
X95802500Y-45350000D01*
X95835833Y-45383333D01*
X95902500Y-45416666D01*
X95969166Y-45416666D01*
X96035833Y-45383333D01*
X96069166Y-45350000D01*
X96102500Y-45283333D01*
X96135833Y-45150000D01*
X96135833Y-44983333D01*
X96102500Y-44850000D01*
X96069166Y-44783333D01*
X96035833Y-44750000D01*
X95969166Y-44716666D01*
X95135833Y-44716666D02*
X95269166Y-44716666D01*
X95335833Y-44750000D01*
X95369166Y-44783333D01*
X95435833Y-44883333D01*
X95469166Y-45016666D01*
X95469166Y-45283333D01*
X95435833Y-45350000D01*
X95402500Y-45383333D01*
X95335833Y-45416666D01*
X95202500Y-45416666D01*
X95135833Y-45383333D01*
X95102500Y-45350000D01*
X95069166Y-45283333D01*
X95069166Y-45116666D01*
X95102500Y-45050000D01*
X95135833Y-45016666D01*
X95202500Y-44983333D01*
X95335833Y-44983333D01*
X95402500Y-45016666D01*
X95435833Y-45050000D01*
X95469166Y-45116666D01*
X94635833Y-44716666D02*
X94569166Y-44716666D01*
X94502500Y-44750000D01*
X94469166Y-44783333D01*
X94435833Y-44850000D01*
X94402500Y-44983333D01*
X94402500Y-45150000D01*
X94435833Y-45283333D01*
X94469166Y-45350000D01*
X94502500Y-45383333D01*
X94569166Y-45416666D01*
X94635833Y-45416666D01*
X94702500Y-45383333D01*
X94735833Y-45350000D01*
X94769166Y-45283333D01*
X94802500Y-45150000D01*
X94802500Y-44983333D01*
X94769166Y-44850000D01*
X94735833Y-44783333D01*
X94702500Y-44750000D01*
X94635833Y-44716666D01*
X94169166Y-44716666D02*
X93735833Y-44716666D01*
X93969166Y-44983333D01*
X93869166Y-44983333D01*
X93802500Y-45016666D01*
X93769166Y-45050000D01*
X93735833Y-45116666D01*
X93735833Y-45283333D01*
X93769166Y-45350000D01*
X93802500Y-45383333D01*
X93869166Y-45416666D01*
X94069166Y-45416666D01*
X94135833Y-45383333D01*
X94169166Y-45350000D01*
%TO.C,R8*%
X97250000Y-44850000D02*
X98250000Y-44850000D01*
X98250000Y-44850000D02*
X98250000Y-44350000D01*
X98250000Y-44350000D02*
X97250000Y-44350000D01*
X97250000Y-44350000D02*
X97250000Y-44850000D01*
%TO.C,U2*%
X97900000Y-47050000D02*
X96798000Y-47050000D01*
X96798000Y-47050000D02*
X96798000Y-48748000D01*
X97900000Y-47050000D02*
X98100000Y-47223000D01*
X98100000Y-47223000D02*
X98100000Y-48748000D01*
X96798000Y-48748000D02*
X98100000Y-48748000D01*
D13*
%TO.C,L2*%
X99200000Y-47850000D02*
X101200000Y-47850000D01*
X101200000Y-45350000D02*
X99200000Y-45350000D01*
X101200000Y-47850000D02*
X101200000Y-45350000D01*
X99200000Y-45350000D02*
X99200000Y-47850000D01*
D11*
%TO.C,R3*%
X146600000Y-44449000D02*
X147100000Y-44449000D01*
X147100000Y-44449000D02*
X147100000Y-45449000D01*
X147100000Y-45449000D02*
X146600000Y-45449000D01*
X146600000Y-45449000D02*
X146600000Y-44449000D01*
%TO.C,C4*%
X149599000Y-42901000D02*
X148601000Y-42901000D01*
X148601000Y-42901000D02*
X148601000Y-43399000D01*
X148601000Y-43399000D02*
X149599000Y-43399000D01*
X149599000Y-43399000D02*
X149599000Y-42901000D01*
D13*
%TO.C,D2*%
X114890900Y-47802800D02*
X108947300Y-47802800D01*
X108947300Y-47802800D02*
X108947300Y-53797200D01*
X108947300Y-53797200D02*
X114890900Y-53797200D01*
X114890900Y-53797200D02*
X114890900Y-47802800D01*
D11*
%TO.C,R5*%
X102950000Y-49200000D02*
X102150000Y-49200000D01*
X102150000Y-49200000D02*
X102150000Y-47600000D01*
X102150000Y-47600000D02*
X102950000Y-47600000D01*
X102950000Y-47600000D02*
X102950000Y-49200000D01*
%TO.C,C5*%
X153599000Y-43551000D02*
X152601000Y-43551000D01*
X152601000Y-43551000D02*
X152601000Y-44049000D01*
X152601000Y-44049000D02*
X153599000Y-44049000D01*
X153599000Y-44049000D02*
X153599000Y-43551000D01*
%TO.C,R9*%
X95150000Y-48400000D02*
X94650000Y-48400000D01*
X94650000Y-48400000D02*
X94650000Y-47400000D01*
X94650000Y-47400000D02*
X95150000Y-47400000D01*
X95150000Y-47400000D02*
X95150000Y-48400000D01*
%TO.C,C1*%
X145525000Y-47200000D02*
X146875000Y-47200000D01*
X146875000Y-47200000D02*
X146875000Y-49100000D01*
X146875000Y-49100000D02*
X145525000Y-49100000D01*
X145525000Y-49100000D02*
X145525000Y-47200000D01*
%TO.C,R2*%
X153600000Y-42350000D02*
X152600000Y-42350000D01*
X152600000Y-42350000D02*
X152600000Y-42850000D01*
X152600000Y-42850000D02*
X153600000Y-42850000D01*
X153600000Y-42850000D02*
X153600000Y-42350000D01*
D13*
%TO.C,U1*%
X148400600Y-44000600D02*
X151499400Y-44000600D01*
X148400600Y-47099400D02*
X148400600Y-44000600D01*
X151499400Y-44000600D02*
X151499400Y-47099400D01*
X151499400Y-47099400D02*
X148400600Y-47099400D01*
X148984800Y-46550000D02*
G75*
G03*
X148984800Y-46550000I-76200J0D01*
G01*
D11*
%TO.C,C2*%
X147700000Y-52050000D02*
X149300000Y-52050000D01*
X149300000Y-52050000D02*
X149300000Y-51250000D01*
X149300000Y-51250000D02*
X147700000Y-51250000D01*
X147700000Y-51250000D02*
X147700000Y-52050000D01*
%TO.C,C8*%
X153699000Y-44701000D02*
X152701000Y-44701000D01*
X152701000Y-44701000D02*
X152701000Y-45199000D01*
X152701000Y-45199000D02*
X153699000Y-45199000D01*
X153699000Y-45199000D02*
X153699000Y-44701000D01*
D13*
%TO.C,D3*%
X141690900Y-47802800D02*
X135747300Y-47802800D01*
X135747300Y-47802800D02*
X135747300Y-53797200D01*
X135747300Y-53797200D02*
X141690900Y-53797200D01*
X141690900Y-53797200D02*
X141690900Y-47802800D01*
D11*
%TO.C,C11*%
X100900000Y-41950000D02*
X99300000Y-41950000D01*
X99300000Y-41950000D02*
X99300000Y-42750000D01*
X99300000Y-42750000D02*
X100900000Y-42750000D01*
X100900000Y-42750000D02*
X100900000Y-41950000D01*
%TO.C,R7*%
X147698000Y-53349000D02*
X149300000Y-53349000D01*
X147698000Y-56550000D02*
X149300000Y-56550000D01*
X149300000Y-53349000D02*
X149300000Y-56550000D01*
X147698000Y-53349000D02*
X147698000Y-56550000D01*
D14*
%TO.C,U3*%
X160100000Y-45300000D02*
X164350000Y-45300000D01*
X164350000Y-41300000D02*
X160100000Y-41300000D01*
X160100000Y-41300000D02*
X160100000Y-45300000D01*
X164350000Y-45300000D02*
X164350000Y-41300000D01*
D11*
%TO.C,C9*%
X151001000Y-59449000D02*
X151999000Y-59449000D01*
X151999000Y-59449000D02*
X151999000Y-58951000D01*
X151999000Y-58951000D02*
X151001000Y-58951000D01*
X151001000Y-58951000D02*
X151001000Y-59449000D01*
%TO.C,D1*%
X152800000Y-47799000D02*
X152800000Y-50400000D01*
X152013000Y-47799000D02*
X152092000Y-47799000D01*
X152800000Y-47799000D02*
X148502000Y-47799000D01*
X152092000Y-50400000D02*
X152015000Y-50400000D01*
X148502000Y-47799000D02*
X148502000Y-50400000D01*
X152800000Y-50400000D02*
X148502000Y-50400000D01*
X152013000Y-47799000D02*
X151750000Y-47799000D01*
X151750000Y-47799000D02*
X151750000Y-50400000D01*
X151750000Y-50400000D02*
X152013000Y-50400000D01*
X152013000Y-50400000D02*
X152013000Y-47799000D01*
G36*
X152013000Y-47799000D02*
G01*
X151750000Y-47799000D01*
X151750000Y-50400000D01*
X152013000Y-50400000D01*
X152013000Y-47799000D01*
G37*
%TO.C,C7*%
X96901000Y-49799000D02*
X97899000Y-49799000D01*
X97899000Y-49799000D02*
X97899000Y-49301000D01*
X97899000Y-49301000D02*
X96901000Y-49301000D01*
X96901000Y-49301000D02*
X96901000Y-49799000D01*
D14*
%TO.C,U4*%
X85550000Y-41250000D02*
X85550000Y-45250000D01*
X89800000Y-45250000D02*
X89800000Y-41250000D01*
X85550000Y-45250000D02*
X89800000Y-45250000D01*
X89800000Y-41250000D02*
X85550000Y-41250000D01*
D11*
%TO.C,R1*%
X146151000Y-53098000D02*
X146151000Y-54700000D01*
X146151000Y-53098000D02*
X142950000Y-53098000D01*
X142950000Y-53098000D02*
X142950000Y-54700000D01*
X146151000Y-54700000D02*
X142950000Y-54700000D01*
%TO.C,C3*%
X152899000Y-46999000D02*
X152401000Y-46999000D01*
X152401000Y-46999000D02*
X152401000Y-46001000D01*
X152401000Y-46001000D02*
X152899000Y-46001000D01*
X152899000Y-46001000D02*
X152899000Y-46999000D01*
%TO.C,R4*%
X145850000Y-45449000D02*
X145350000Y-45449000D01*
X145350000Y-45449000D02*
X145350000Y-44449000D01*
X145350000Y-44449000D02*
X145850000Y-44449000D01*
X145850000Y-44449000D02*
X145850000Y-45449000D01*
%TO.C,C6*%
X96600000Y-46350000D02*
X98200000Y-46350000D01*
X98200000Y-46350000D02*
X98200000Y-45550000D01*
X98200000Y-45550000D02*
X96600000Y-45550000D01*
X96600000Y-45550000D02*
X96600000Y-46350000D01*
%TO.C,C10*%
X100900000Y-43450000D02*
X99300000Y-43450000D01*
X99300000Y-43450000D02*
X99300000Y-44250000D01*
X99300000Y-44250000D02*
X100900000Y-44250000D01*
X100900000Y-44250000D02*
X100900000Y-43450000D01*
%TD*%
M02*
