%TF.GenerationSoftware,KiCad,Pcbnew,6.0.11+dfsg-1~bpo11+1*%
%TF.CreationDate,2023-04-14T13:04:02+02:00*%
%TF.ProjectId,IR-diode-general,49522d64-696f-4646-952d-67656e657261,rev?*%
%TF.SameCoordinates,Original*%
%TF.FileFunction,Other,User*%
%FSLAX46Y46*%
G04 Gerber Fmt 4.6, Leading zero omitted, Abs format (unit mm)*
G04 Created by KiCad (PCBNEW 6.0.11+dfsg-1~bpo11+1) date 2023-04-14 13:04:02 commit 5e22265*
%MOMM*%
%LPD*%
G01*
G04 APERTURE LIST*
%TA.AperFunction,Profile*%
%ADD10C,0.100000*%
%TD*%
%ADD11C,0.050000*%
%ADD12C,0.100000*%
G04 APERTURE END LIST*
D10*
X85000000Y-40500000D02*
X165000000Y-40500000D01*
X165000000Y-40500000D02*
X165000000Y-61000000D01*
X165000000Y-61000000D02*
X85000000Y-61000000D01*
X85000000Y-61000000D02*
X85000000Y-40500000D01*
D11*
%TO.C,R8*%
X96800000Y-45080000D02*
X98700000Y-45080000D01*
X98700000Y-45080000D02*
X98700000Y-44120000D01*
X98700000Y-44120000D02*
X96800000Y-44120000D01*
X96800000Y-44120000D02*
X96800000Y-45080000D01*
%TO.C,U2*%
X96150000Y-46799000D02*
X98748000Y-46799000D01*
X98748000Y-46799000D02*
X98748000Y-48999000D01*
X98748000Y-48999000D02*
X96150000Y-48999000D01*
X96150000Y-48999000D02*
X96150000Y-46799000D01*
%TO.C,L2*%
X101550000Y-48550000D02*
X101550000Y-44650000D01*
X98850000Y-48550000D02*
X101550000Y-48550000D01*
X101550000Y-44650000D02*
X98850000Y-44650000D01*
X98850000Y-44650000D02*
X98850000Y-48550000D01*
%TO.C,R3*%
X146370000Y-43999000D02*
X147330000Y-43999000D01*
X147330000Y-43999000D02*
X147330000Y-45899000D01*
X147330000Y-45899000D02*
X146370000Y-45899000D01*
X146370000Y-45899000D02*
X146370000Y-43999000D01*
%TO.C,C4*%
X150040000Y-42680000D02*
X148160000Y-42680000D01*
X148160000Y-42680000D02*
X148160000Y-43620000D01*
X148160000Y-43620000D02*
X150040000Y-43620000D01*
X150040000Y-43620000D02*
X150040000Y-42680000D01*
%TO.C,D2*%
X114992500Y-47701200D02*
X108845700Y-47701200D01*
X108845700Y-47701200D02*
X108845700Y-53898800D01*
X108845700Y-53898800D02*
X114992500Y-53898800D01*
X114992500Y-53898800D02*
X114992500Y-47701200D01*
%TO.C,R5*%
X103250000Y-49650000D02*
X101850000Y-49650000D01*
X101850000Y-49650000D02*
X101850000Y-47150000D01*
X101850000Y-47150000D02*
X103250000Y-47150000D01*
X103250000Y-47150000D02*
X103250000Y-49650000D01*
%TO.C,C5*%
X154040000Y-43330000D02*
X152160000Y-43330000D01*
X152160000Y-43330000D02*
X152160000Y-44270000D01*
X152160000Y-44270000D02*
X154040000Y-44270000D01*
X154040000Y-44270000D02*
X154040000Y-43330000D01*
%TO.C,R9*%
X95380000Y-48850000D02*
X94420000Y-48850000D01*
X94420000Y-48850000D02*
X94420000Y-46950000D01*
X94420000Y-46950000D02*
X95380000Y-46950000D01*
X95380000Y-46950000D02*
X95380000Y-48850000D01*
%TO.C,C1*%
X145270000Y-46250000D02*
X147130000Y-46250000D01*
X147130000Y-46250000D02*
X147130000Y-50050000D01*
X147130000Y-50050000D02*
X145270000Y-50050000D01*
X145270000Y-50050000D02*
X145270000Y-46250000D01*
%TO.C,R2*%
X154050000Y-42120000D02*
X152150000Y-42120000D01*
X152150000Y-42120000D02*
X152150000Y-43080000D01*
X152150000Y-43080000D02*
X154050000Y-43080000D01*
X154050000Y-43080000D02*
X154050000Y-42120000D01*
%TO.C,U1*%
X152053399Y-46931400D02*
X152053399Y-44168600D01*
X151753400Y-47353400D02*
X151753400Y-46931400D01*
X152053399Y-44168600D02*
X151753400Y-44168600D01*
X148146600Y-43746600D02*
X148146600Y-44168600D01*
X151753400Y-46931400D02*
X152053399Y-46931400D01*
X148146600Y-47353400D02*
X151753400Y-47353400D01*
X147846601Y-44168600D02*
X147846601Y-46931400D01*
X148146600Y-44168600D02*
X147846601Y-44168600D01*
X151753400Y-44168600D02*
X151753400Y-43746600D01*
X151753400Y-43746600D02*
X148146600Y-43746600D01*
X148146600Y-46931400D02*
X148146600Y-47353400D01*
X147846601Y-46931400D02*
X148146600Y-46931400D01*
%TO.C,C2*%
X147260000Y-52350000D02*
X149740000Y-52350000D01*
X149740000Y-52350000D02*
X149740000Y-50950000D01*
X149740000Y-50950000D02*
X147260000Y-50950000D01*
X147260000Y-50950000D02*
X147260000Y-52350000D01*
%TO.C,C8*%
X154140000Y-44480000D02*
X152260000Y-44480000D01*
X152260000Y-44480000D02*
X152260000Y-45420000D01*
X152260000Y-45420000D02*
X154140000Y-45420000D01*
X154140000Y-45420000D02*
X154140000Y-44480000D01*
%TO.C,D3*%
X141792500Y-47701200D02*
X135645700Y-47701200D01*
X135645700Y-47701200D02*
X135645700Y-53898800D01*
X135645700Y-53898800D02*
X141792500Y-53898800D01*
X141792500Y-53898800D02*
X141792500Y-47701200D01*
%TO.C,C11*%
X101340000Y-41650000D02*
X98860000Y-41650000D01*
X98860000Y-41650000D02*
X98860000Y-43050000D01*
X98860000Y-43050000D02*
X101340000Y-43050000D01*
X101340000Y-43050000D02*
X101340000Y-41650000D01*
%TO.C,R7*%
X147450000Y-52700000D02*
X149550000Y-52700000D01*
X149550000Y-52700000D02*
X149550000Y-57200000D01*
X149550000Y-57200000D02*
X147450000Y-57200000D01*
X147450000Y-57200000D02*
X147450000Y-52700000D01*
%TO.C,C9*%
X150560000Y-59670000D02*
X152440000Y-59670000D01*
X152440000Y-59670000D02*
X152440000Y-58730000D01*
X152440000Y-58730000D02*
X150560000Y-58730000D01*
X150560000Y-58730000D02*
X150560000Y-59670000D01*
%TO.C,D1*%
X153900000Y-47550000D02*
X147400000Y-47550000D01*
X147400000Y-47550000D02*
X147400000Y-50650000D01*
X147400000Y-50650000D02*
X153900000Y-50650000D01*
X153900000Y-50650000D02*
X153900000Y-47550000D01*
%TO.C,C7*%
X96460000Y-50020000D02*
X98340000Y-50020000D01*
X98340000Y-50020000D02*
X98340000Y-49080000D01*
X98340000Y-49080000D02*
X96460000Y-49080000D01*
X96460000Y-49080000D02*
X96460000Y-50020000D01*
%TO.C,R1*%
X146800000Y-52850000D02*
X142300000Y-52850000D01*
X142300000Y-52850000D02*
X142300000Y-54950000D01*
X142300000Y-54950000D02*
X146800000Y-54950000D01*
X146800000Y-54950000D02*
X146800000Y-52850000D01*
%TO.C,C3*%
X153120000Y-47440000D02*
X152180000Y-47440000D01*
X152180000Y-47440000D02*
X152180000Y-45560000D01*
X152180000Y-45560000D02*
X153120000Y-45560000D01*
X153120000Y-45560000D02*
X153120000Y-47440000D01*
%TO.C,R4*%
X146080000Y-45899000D02*
X145120000Y-45899000D01*
X145120000Y-45899000D02*
X145120000Y-43999000D01*
X145120000Y-43999000D02*
X146080000Y-43999000D01*
X146080000Y-43999000D02*
X146080000Y-45899000D01*
%TO.C,C6*%
X96160000Y-46650000D02*
X98640000Y-46650000D01*
X98640000Y-46650000D02*
X98640000Y-45250000D01*
X98640000Y-45250000D02*
X96160000Y-45250000D01*
X96160000Y-45250000D02*
X96160000Y-46650000D01*
%TO.C,C10*%
X101340000Y-43150000D02*
X98860000Y-43150000D01*
X98860000Y-43150000D02*
X98860000Y-44550000D01*
X98860000Y-44550000D02*
X101340000Y-44550000D01*
X101340000Y-44550000D02*
X101340000Y-43150000D01*
D12*
%TO.C,L1*%
X153540000Y-50890000D02*
X149990000Y-50890000D01*
X149990000Y-50890000D02*
X149990000Y-53640000D01*
X153540000Y-53640000D02*
X153540000Y-50890000D01*
X149990000Y-53640000D02*
X153540000Y-53640000D01*
%TD*%
M02*
