%TF.GenerationSoftware,KiCad,Pcbnew,6.0.11+dfsg-1~bpo11+1*%
%TF.CreationDate,2023-04-14T13:04:02+02:00*%
%TF.ProjectId,IR-diode-general,49522d64-696f-4646-952d-67656e657261,rev?*%
%TF.SameCoordinates,Original*%
%TF.FileFunction,Legend,Top*%
%TF.FilePolarity,Positive*%
%FSLAX46Y46*%
G04 Gerber Fmt 4.6, Leading zero omitted, Abs format (unit mm)*
G04 Created by KiCad (PCBNEW 6.0.11+dfsg-1~bpo11+1) date 2023-04-14 13:04:02 commit 5e22265*
%MOMM*%
%LPD*%
G01*
G04 APERTURE LIST*
G04 Aperture macros list*
%AMRoundRect*
0 Rectangle with rounded corners*
0 $1 Rounding radius*
0 $2 $3 $4 $5 $6 $7 $8 $9 X,Y pos of 4 corners*
0 Add a 4 corners polygon primitive as box body*
4,1,4,$2,$3,$4,$5,$6,$7,$8,$9,$2,$3,0*
0 Add four circle primitives for the rounded corners*
1,1,$1+$1,$2,$3*
1,1,$1+$1,$4,$5*
1,1,$1+$1,$6,$7*
1,1,$1+$1,$8,$9*
0 Add four rect primitives between the rounded corners*
20,1,$1+$1,$2,$3,$4,$5,0*
20,1,$1+$1,$4,$5,$6,$7,0*
20,1,$1+$1,$6,$7,$8,$9,0*
20,1,$1+$1,$8,$9,$2,$3,0*%
G04 Aperture macros list end*
%ADD10C,0.150000*%
%TA.AperFunction,Profile*%
%ADD11C,0.100000*%
%TD*%
%ADD12C,0.145711*%
%ADD13C,0.120000*%
%ADD14RoundRect,0.147500X-0.172500X0.147500X-0.172500X-0.147500X0.172500X-0.147500X0.172500X0.147500X0*%
%ADD15RoundRect,0.147500X0.172500X-0.147500X0.172500X0.147500X-0.172500X0.147500X-0.172500X-0.147500X0*%
%ADD16O,2.000000X4.500000*%
%ADD17O,4.000000X1.990000*%
%ADD18O,2.000000X4.000000*%
%ADD19C,0.650000*%
%ADD20RoundRect,0.150000X-0.425000X0.150000X-0.425000X-0.150000X0.425000X-0.150000X0.425000X0.150000X0*%
%ADD21RoundRect,0.075000X-0.500000X0.075000X-0.500000X-0.075000X0.500000X-0.075000X0.500000X0.075000X0*%
%ADD22O,2.100000X1.050000*%
%ADD23O,2.000000X1.000000*%
%ADD24RoundRect,0.180000X0.420000X0.720000X-0.420000X0.720000X-0.420000X-0.720000X0.420000X-0.720000X0*%
%ADD25C,2.000000*%
%ADD26C,3.000000*%
G04 APERTURE END LIST*
D10*
X158650000Y-40850000D02*
X150350000Y-40850000D01*
X150350000Y-40850000D02*
X150350000Y-43450000D01*
X150350000Y-43450000D02*
X158650000Y-43450000D01*
X158650000Y-43450000D02*
X158650000Y-40850000D01*
X153650000Y-43475000D02*
X160150000Y-43475000D01*
X160150000Y-43475000D02*
X160150000Y-46825000D01*
X160150000Y-46825000D02*
X153650000Y-46825000D01*
X153650000Y-46825000D02*
X153650000Y-43475000D01*
X144951000Y-67600000D02*
X150901000Y-67600000D01*
X150901000Y-67600000D02*
X150901000Y-74550000D01*
X150901000Y-74550000D02*
X144951000Y-74550000D01*
X144951000Y-74550000D02*
X144951000Y-67600000D01*
X143200000Y-59500000D02*
X107200000Y-59500000D01*
X107200000Y-59500000D02*
X107200000Y-42550000D01*
X107200000Y-42550000D02*
X143200000Y-42550000D01*
X143200000Y-42550000D02*
X143200000Y-59500000D01*
D11*
X85000000Y-40500000D02*
X165000000Y-40500000D01*
X165000000Y-40500000D02*
X165000000Y-61000000D01*
X165000000Y-61000000D02*
X85000000Y-61000000D01*
X85000000Y-61000000D02*
X85000000Y-40500000D01*
D10*
X150650000Y-42933333D02*
X150750000Y-42966666D01*
X150916666Y-42966666D01*
X150983333Y-42933333D01*
X151016666Y-42900000D01*
X151050000Y-42833333D01*
X151050000Y-42766666D01*
X151016666Y-42700000D01*
X150983333Y-42666666D01*
X150916666Y-42633333D01*
X150783333Y-42600000D01*
X150716666Y-42566666D01*
X150683333Y-42533333D01*
X150650000Y-42466666D01*
X150650000Y-42400000D01*
X150683333Y-42333333D01*
X150716666Y-42300000D01*
X150783333Y-42266666D01*
X150950000Y-42266666D01*
X151050000Y-42300000D01*
X151683333Y-42966666D02*
X151350000Y-42966666D01*
X151350000Y-42266666D01*
X151883333Y-42766666D02*
X152216666Y-42766666D01*
X151816666Y-42966666D02*
X152050000Y-42266666D01*
X152283333Y-42966666D01*
X152416666Y-42266666D02*
X152650000Y-42966666D01*
X152883333Y-42266666D01*
X153116666Y-42600000D02*
X153350000Y-42600000D01*
X153450000Y-42966666D02*
X153116666Y-42966666D01*
X153116666Y-42266666D01*
X153450000Y-42266666D01*
X153950000Y-46566666D02*
X153950000Y-45866666D01*
X154183333Y-46366666D01*
X154416666Y-45866666D01*
X154416666Y-46566666D01*
X154716666Y-46366666D02*
X155050000Y-46366666D01*
X154650000Y-46566666D02*
X154883333Y-45866666D01*
X155116666Y-46566666D01*
X155316666Y-46533333D02*
X155416666Y-46566666D01*
X155583333Y-46566666D01*
X155650000Y-46533333D01*
X155683333Y-46500000D01*
X155716666Y-46433333D01*
X155716666Y-46366666D01*
X155683333Y-46300000D01*
X155650000Y-46266666D01*
X155583333Y-46233333D01*
X155450000Y-46200000D01*
X155383333Y-46166666D01*
X155350000Y-46133333D01*
X155316666Y-46066666D01*
X155316666Y-46000000D01*
X155350000Y-45933333D01*
X155383333Y-45900000D01*
X155450000Y-45866666D01*
X155616666Y-45866666D01*
X155716666Y-45900000D01*
X155916666Y-45866666D02*
X156316666Y-45866666D01*
X156116666Y-46566666D02*
X156116666Y-45866666D01*
X156550000Y-46200000D02*
X156783333Y-46200000D01*
X156883333Y-46566666D02*
X156550000Y-46566666D01*
X156550000Y-45866666D01*
X156883333Y-45866666D01*
X157583333Y-46566666D02*
X157350000Y-46233333D01*
X157183333Y-46566666D02*
X157183333Y-45866666D01*
X157450000Y-45866666D01*
X157516666Y-45900000D01*
X157550000Y-45933333D01*
X157583333Y-46000000D01*
X157583333Y-46100000D01*
X157550000Y-46166666D01*
X157516666Y-46200000D01*
X157450000Y-46233333D01*
X157183333Y-46233333D01*
X107497619Y-41802380D02*
X107497619Y-40802380D01*
X107497619Y-41278571D02*
X108069047Y-41278571D01*
X108069047Y-41802380D02*
X108069047Y-40802380D01*
X108926190Y-41754761D02*
X108830952Y-41802380D01*
X108640476Y-41802380D01*
X108545238Y-41754761D01*
X108497619Y-41659523D01*
X108497619Y-41278571D01*
X108545238Y-41183333D01*
X108640476Y-41135714D01*
X108830952Y-41135714D01*
X108926190Y-41183333D01*
X108973809Y-41278571D01*
X108973809Y-41373809D01*
X108497619Y-41469047D01*
X109830952Y-41802380D02*
X109830952Y-41278571D01*
X109783333Y-41183333D01*
X109688095Y-41135714D01*
X109497619Y-41135714D01*
X109402380Y-41183333D01*
X109830952Y-41754761D02*
X109735714Y-41802380D01*
X109497619Y-41802380D01*
X109402380Y-41754761D01*
X109354761Y-41659523D01*
X109354761Y-41564285D01*
X109402380Y-41469047D01*
X109497619Y-41421428D01*
X109735714Y-41421428D01*
X109830952Y-41373809D01*
X110164285Y-41135714D02*
X110545238Y-41135714D01*
X110307142Y-40802380D02*
X110307142Y-41659523D01*
X110354761Y-41754761D01*
X110450000Y-41802380D01*
X110545238Y-41802380D01*
X110830952Y-41754761D02*
X110926190Y-41802380D01*
X111116666Y-41802380D01*
X111211904Y-41754761D01*
X111259523Y-41659523D01*
X111259523Y-41611904D01*
X111211904Y-41516666D01*
X111116666Y-41469047D01*
X110973809Y-41469047D01*
X110878571Y-41421428D01*
X110830952Y-41326190D01*
X110830952Y-41278571D01*
X110878571Y-41183333D01*
X110973809Y-41135714D01*
X111116666Y-41135714D01*
X111211904Y-41183333D01*
X111688095Y-41802380D02*
X111688095Y-41135714D01*
X111688095Y-40802380D02*
X111640476Y-40850000D01*
X111688095Y-40897619D01*
X111735714Y-40850000D01*
X111688095Y-40802380D01*
X111688095Y-40897619D01*
X112164285Y-41135714D02*
X112164285Y-41802380D01*
X112164285Y-41230952D02*
X112211904Y-41183333D01*
X112307142Y-41135714D01*
X112450000Y-41135714D01*
X112545238Y-41183333D01*
X112592857Y-41278571D01*
X112592857Y-41802380D01*
X113069047Y-41802380D02*
X113069047Y-40802380D01*
X113164285Y-41421428D02*
X113450000Y-41802380D01*
X113450000Y-41135714D02*
X113069047Y-41516666D01*
X151451000Y-68804761D02*
X151593857Y-68852380D01*
X151831952Y-68852380D01*
X151927190Y-68804761D01*
X151974809Y-68757142D01*
X152022428Y-68661904D01*
X152022428Y-68566666D01*
X151974809Y-68471428D01*
X151927190Y-68423809D01*
X151831952Y-68376190D01*
X151641476Y-68328571D01*
X151546238Y-68280952D01*
X151498619Y-68233333D01*
X151451000Y-68138095D01*
X151451000Y-68042857D01*
X151498619Y-67947619D01*
X151546238Y-67900000D01*
X151641476Y-67852380D01*
X151879571Y-67852380D01*
X152022428Y-67900000D01*
X152927190Y-68852380D02*
X152451000Y-68852380D01*
X152451000Y-67852380D01*
X153212904Y-68566666D02*
X153689095Y-68566666D01*
X153117666Y-68852380D02*
X153451000Y-67852380D01*
X153784333Y-68852380D01*
X153974809Y-67852380D02*
X154308142Y-68852380D01*
X154641476Y-67852380D01*
X154974809Y-68328571D02*
X155308142Y-68328571D01*
X155451000Y-68852380D02*
X154974809Y-68852380D01*
X154974809Y-67852380D01*
X155451000Y-67852380D01*
%TO.C,C13*%
X94050000Y-54615166D02*
X94083333Y-54648500D01*
X94116666Y-54748500D01*
X94116666Y-54815166D01*
X94083333Y-54915166D01*
X94016666Y-54981833D01*
X93950000Y-55015166D01*
X93816666Y-55048500D01*
X93716666Y-55048500D01*
X93583333Y-55015166D01*
X93516666Y-54981833D01*
X93450000Y-54915166D01*
X93416666Y-54815166D01*
X93416666Y-54748500D01*
X93450000Y-54648500D01*
X93483333Y-54615166D01*
X94116666Y-53948500D02*
X94116666Y-54348500D01*
X94116666Y-54148500D02*
X93416666Y-54148500D01*
X93516666Y-54215166D01*
X93583333Y-54281833D01*
X93616666Y-54348500D01*
X93416666Y-53715166D02*
X93416666Y-53281833D01*
X93683333Y-53515166D01*
X93683333Y-53415166D01*
X93716666Y-53348500D01*
X93750000Y-53315166D01*
X93816666Y-53281833D01*
X93983333Y-53281833D01*
X94050000Y-53315166D01*
X94083333Y-53348500D01*
X94116666Y-53415166D01*
X94116666Y-53615166D01*
X94083333Y-53681833D01*
X94050000Y-53715166D01*
%TO.C,R12*%
X97466666Y-55815833D02*
X97133333Y-56049166D01*
X97466666Y-56215833D02*
X96766666Y-56215833D01*
X96766666Y-55949166D01*
X96800000Y-55882500D01*
X96833333Y-55849166D01*
X96900000Y-55815833D01*
X97000000Y-55815833D01*
X97066666Y-55849166D01*
X97100000Y-55882500D01*
X97133333Y-55949166D01*
X97133333Y-56215833D01*
X97466666Y-55149166D02*
X97466666Y-55549166D01*
X97466666Y-55349166D02*
X96766666Y-55349166D01*
X96866666Y-55415833D01*
X96933333Y-55482500D01*
X96966666Y-55549166D01*
X96833333Y-54882500D02*
X96800000Y-54849166D01*
X96766666Y-54782500D01*
X96766666Y-54615833D01*
X96800000Y-54549166D01*
X96833333Y-54515833D01*
X96900000Y-54482500D01*
X96966666Y-54482500D01*
X97066666Y-54515833D01*
X97466666Y-54915833D01*
X97466666Y-54482500D01*
%TO.C,J1*%
X152414166Y-59966666D02*
X152414166Y-60466666D01*
X152380833Y-60566666D01*
X152314166Y-60633333D01*
X152214166Y-60666666D01*
X152147500Y-60666666D01*
X153114166Y-60666666D02*
X152714166Y-60666666D01*
X152914166Y-60666666D02*
X152914166Y-59966666D01*
X152847500Y-60066666D01*
X152780833Y-60133333D01*
X152714166Y-60166666D01*
%TO.C,J2*%
X84816667Y-61780833D02*
X85316667Y-61780833D01*
X85416667Y-61814166D01*
X85483334Y-61880833D01*
X85516667Y-61980833D01*
X85516667Y-62047500D01*
X84883334Y-61480833D02*
X84850001Y-61447500D01*
X84816667Y-61380833D01*
X84816667Y-61214166D01*
X84850001Y-61147500D01*
X84883334Y-61114166D01*
X84950001Y-61080833D01*
X85016667Y-61080833D01*
X85116667Y-61114166D01*
X85516667Y-61514166D01*
X85516667Y-61080833D01*
%TO.C,R11*%
X158735833Y-44516666D02*
X158502500Y-44183333D01*
X158335833Y-44516666D02*
X158335833Y-43816666D01*
X158602500Y-43816666D01*
X158669166Y-43850000D01*
X158702500Y-43883333D01*
X158735833Y-43950000D01*
X158735833Y-44050000D01*
X158702500Y-44116666D01*
X158669166Y-44150000D01*
X158602500Y-44183333D01*
X158335833Y-44183333D01*
X159402500Y-44516666D02*
X159002500Y-44516666D01*
X159202500Y-44516666D02*
X159202500Y-43816666D01*
X159135833Y-43916666D01*
X159069166Y-43983333D01*
X159002500Y-44016666D01*
X160069166Y-44516666D02*
X159669166Y-44516666D01*
X159869166Y-44516666D02*
X159869166Y-43816666D01*
X159802500Y-43916666D01*
X159735833Y-43983333D01*
X159669166Y-44016666D01*
%TO.C,R13*%
X94916666Y-54400833D02*
X94583333Y-54634166D01*
X94916666Y-54800833D02*
X94216666Y-54800833D01*
X94216666Y-54534166D01*
X94250000Y-54467500D01*
X94283333Y-54434166D01*
X94350000Y-54400833D01*
X94450000Y-54400833D01*
X94516666Y-54434166D01*
X94550000Y-54467500D01*
X94583333Y-54534166D01*
X94583333Y-54800833D01*
X94916666Y-53734166D02*
X94916666Y-54134166D01*
X94916666Y-53934166D02*
X94216666Y-53934166D01*
X94316666Y-54000833D01*
X94383333Y-54067500D01*
X94416666Y-54134166D01*
X94216666Y-53500833D02*
X94216666Y-53067500D01*
X94483333Y-53300833D01*
X94483333Y-53200833D01*
X94516666Y-53134166D01*
X94550000Y-53100833D01*
X94616666Y-53067500D01*
X94783333Y-53067500D01*
X94850000Y-53100833D01*
X94883333Y-53134166D01*
X94916666Y-53200833D01*
X94916666Y-53400833D01*
X94883333Y-53467500D01*
X94850000Y-53500833D01*
%TO.C,C12*%
X92450000Y-58034833D02*
X92483333Y-58068166D01*
X92516666Y-58168166D01*
X92516666Y-58234833D01*
X92483333Y-58334833D01*
X92416666Y-58401500D01*
X92350000Y-58434833D01*
X92216666Y-58468166D01*
X92116666Y-58468166D01*
X91983333Y-58434833D01*
X91916666Y-58401500D01*
X91850000Y-58334833D01*
X91816666Y-58234833D01*
X91816666Y-58168166D01*
X91850000Y-58068166D01*
X91883333Y-58034833D01*
X92516666Y-57368166D02*
X92516666Y-57768166D01*
X92516666Y-57568166D02*
X91816666Y-57568166D01*
X91916666Y-57634833D01*
X91983333Y-57701500D01*
X92016666Y-57768166D01*
X91883333Y-57101500D02*
X91850000Y-57068166D01*
X91816666Y-57001500D01*
X91816666Y-56834833D01*
X91850000Y-56768166D01*
X91883333Y-56734833D01*
X91950000Y-56701500D01*
X92016666Y-56701500D01*
X92116666Y-56734833D01*
X92516666Y-57134833D01*
X92516666Y-56701500D01*
%TO.C,R6*%
X96416666Y-60147500D02*
X96083333Y-60380833D01*
X96416666Y-60547500D02*
X95716666Y-60547500D01*
X95716666Y-60280833D01*
X95750000Y-60214166D01*
X95783333Y-60180833D01*
X95850000Y-60147500D01*
X95950000Y-60147500D01*
X96016666Y-60180833D01*
X96050000Y-60214166D01*
X96083333Y-60280833D01*
X96083333Y-60547500D01*
X95716666Y-59547500D02*
X95716666Y-59680833D01*
X95750000Y-59747500D01*
X95783333Y-59780833D01*
X95883333Y-59847500D01*
X96016666Y-59880833D01*
X96283333Y-59880833D01*
X96350000Y-59847500D01*
X96383333Y-59814166D01*
X96416666Y-59747500D01*
X96416666Y-59614166D01*
X96383333Y-59547500D01*
X96350000Y-59514166D01*
X96283333Y-59480833D01*
X96116666Y-59480833D01*
X96050000Y-59514166D01*
X96016666Y-59547500D01*
X95983333Y-59614166D01*
X95983333Y-59747500D01*
X96016666Y-59814166D01*
X96050000Y-59847500D01*
X96116666Y-59880833D01*
%TO.C,R10*%
X152035833Y-41866666D02*
X151802500Y-41533333D01*
X151635833Y-41866666D02*
X151635833Y-41166666D01*
X151902500Y-41166666D01*
X151969166Y-41200000D01*
X152002500Y-41233333D01*
X152035833Y-41300000D01*
X152035833Y-41400000D01*
X152002500Y-41466666D01*
X151969166Y-41500000D01*
X151902500Y-41533333D01*
X151635833Y-41533333D01*
X152702500Y-41866666D02*
X152302500Y-41866666D01*
X152502500Y-41866666D02*
X152502500Y-41166666D01*
X152435833Y-41266666D01*
X152369166Y-41333333D01*
X152302500Y-41366666D01*
X153135833Y-41166666D02*
X153202500Y-41166666D01*
X153269166Y-41200000D01*
X153302500Y-41233333D01*
X153335833Y-41300000D01*
X153369166Y-41433333D01*
X153369166Y-41600000D01*
X153335833Y-41733333D01*
X153302500Y-41800000D01*
X153269166Y-41833333D01*
X153202500Y-41866666D01*
X153135833Y-41866666D01*
X153069166Y-41833333D01*
X153035833Y-41800000D01*
X153002500Y-41733333D01*
X152969166Y-41600000D01*
X152969166Y-41433333D01*
X153002500Y-41300000D01*
X153035833Y-41233333D01*
X153069166Y-41200000D01*
X153135833Y-41166666D01*
%TO.C,POT1*%
X98185742Y-55478180D02*
X98185742Y-54478180D01*
X98566695Y-54478180D01*
X98661933Y-54525800D01*
X98709552Y-54573419D01*
X98757171Y-54668657D01*
X98757171Y-54811514D01*
X98709552Y-54906752D01*
X98661933Y-54954371D01*
X98566695Y-55001990D01*
X98185742Y-55001990D01*
X99376219Y-54478180D02*
X99566695Y-54478180D01*
X99661933Y-54525800D01*
X99757171Y-54621038D01*
X99804790Y-54811514D01*
X99804790Y-55144847D01*
X99757171Y-55335323D01*
X99661933Y-55430561D01*
X99566695Y-55478180D01*
X99376219Y-55478180D01*
X99280980Y-55430561D01*
X99185742Y-55335323D01*
X99138123Y-55144847D01*
X99138123Y-54811514D01*
X99185742Y-54621038D01*
X99280980Y-54525800D01*
X99376219Y-54478180D01*
X100090504Y-54478180D02*
X100661933Y-54478180D01*
X100376219Y-55478180D02*
X100376219Y-54478180D01*
X101519076Y-55478180D02*
X100947647Y-55478180D01*
X101233361Y-55478180D02*
X101233361Y-54478180D01*
X101138123Y-54621038D01*
X101042885Y-54716276D01*
X100947647Y-54763895D01*
%TO.C,R14*%
X95166666Y-60450833D02*
X94833333Y-60684166D01*
X95166666Y-60850833D02*
X94466666Y-60850833D01*
X94466666Y-60584166D01*
X94500000Y-60517500D01*
X94533333Y-60484166D01*
X94600000Y-60450833D01*
X94700000Y-60450833D01*
X94766666Y-60484166D01*
X94800000Y-60517500D01*
X94833333Y-60584166D01*
X94833333Y-60850833D01*
X95166666Y-59784166D02*
X95166666Y-60184166D01*
X95166666Y-59984166D02*
X94466666Y-59984166D01*
X94566666Y-60050833D01*
X94633333Y-60117500D01*
X94666666Y-60184166D01*
X94700000Y-59184166D02*
X95166666Y-59184166D01*
X94433333Y-59350833D02*
X94933333Y-59517500D01*
X94933333Y-59084166D01*
%TO.C,J1*%
X167700000Y-51800000D02*
X158800000Y-51800000D01*
X153600000Y-61400000D02*
X153600000Y-59000000D01*
X163800000Y-61400000D02*
X163800000Y-51800000D01*
X153600000Y-54200000D02*
X153600000Y-51800000D01*
X167700000Y-61400000D02*
X153600000Y-61400000D01*
X167700000Y-61400000D02*
X167700000Y-51800000D01*
X153600000Y-51800000D02*
X154525500Y-51800000D01*
%TO.C,J2*%
X89554645Y-51060000D02*
X88304645Y-51060000D01*
X92159645Y-52150000D02*
X92659645Y-52150000D01*
X84305645Y-60638000D02*
X85584645Y-60638000D01*
X84305645Y-51060000D02*
X84305645Y-60638000D01*
X85584645Y-51060000D02*
X84305645Y-51060000D01*
X89554645Y-60638000D02*
X88304645Y-60638000D01*
D12*
X92892500Y-52640000D02*
G75*
G03*
X92892500Y-52640000I-72855J0D01*
G01*
D10*
%TO.C,R11*%
X156000000Y-45602000D02*
X156500000Y-45602000D01*
X156000000Y-43800000D02*
X156500000Y-43800000D01*
X156000000Y-43800000D02*
X155502000Y-43800000D01*
X156000000Y-45602000D02*
X155502000Y-45602000D01*
%TO.C,R10*%
X156000000Y-41350000D02*
X156500000Y-41350000D01*
X156000000Y-41350000D02*
X155502000Y-41350000D01*
X156000000Y-43152000D02*
X155502000Y-43152000D01*
X156000000Y-43152000D02*
X156500000Y-43152000D01*
D13*
%TO.C,POT1*%
X93869400Y-53806600D02*
X93885000Y-50301400D01*
X99569400Y-53806600D02*
X93869400Y-53806600D01*
X105269400Y-53806600D02*
X99569400Y-53806600D01*
X105269400Y-53806600D02*
X105264200Y-50250600D01*
X105264200Y-50250600D02*
G75*
G03*
X93885000Y-50301400I-5714329J5513816D01*
G01*
%TD*%
%LPC*%
D10*
X107800000Y-42800000D02*
X142800000Y-42800000D01*
X142800000Y-42800000D02*
X142800000Y-59000000D01*
X142800000Y-59000000D02*
X107800000Y-59000000D01*
X107800000Y-59000000D02*
X107800000Y-42800000D01*
G36*
X107800000Y-42800000D02*
G01*
X142800000Y-42800000D01*
X142800000Y-59000000D01*
X107800000Y-59000000D01*
X107800000Y-42800000D01*
G37*
D14*
%TO.C,C13*%
X93450000Y-52566000D03*
X93450000Y-53534000D03*
%TD*%
D15*
%TO.C,R12*%
X96100000Y-56600000D03*
X96100000Y-55630000D03*
%TD*%
D16*
%TO.C,J1*%
X153700000Y-56600000D03*
D17*
X156648000Y-51721000D03*
D18*
X159699000Y-56600000D03*
%TD*%
D19*
%TO.C,J2*%
X90585645Y-58740000D03*
X90585645Y-52959000D03*
D20*
X91659645Y-52648000D03*
X91659645Y-53450000D03*
D21*
X91659645Y-54600000D03*
X91659645Y-55600000D03*
X91659645Y-56098000D03*
X91659645Y-57099000D03*
D20*
X91659645Y-58248000D03*
X91659645Y-59050000D03*
X91659645Y-59050000D03*
X91659645Y-58248000D03*
D21*
X91659645Y-57599000D03*
X91659645Y-56598000D03*
X91659645Y-55100000D03*
X91659645Y-54100000D03*
D20*
X91659645Y-53450000D03*
X91659645Y-52648000D03*
D22*
X91085645Y-51529000D03*
D23*
X86904645Y-51529000D03*
D22*
X91085645Y-60170000D03*
D23*
X86904645Y-60170000D03*
%TD*%
D24*
%TO.C,R11*%
X157500000Y-44700000D03*
X154501000Y-44700000D03*
%TD*%
D15*
%TO.C,R13*%
X94850000Y-56600000D03*
X94850000Y-55630000D03*
%TD*%
%TO.C,C12*%
X93250000Y-59184000D03*
X93250000Y-58216000D03*
%TD*%
D14*
%TO.C,R6*%
X96100000Y-57865000D03*
X96100000Y-58835000D03*
%TD*%
D24*
%TO.C,R10*%
X157500000Y-42250000D03*
X154501000Y-42250000D03*
%TD*%
D25*
%TO.C,POT1*%
X94574600Y-42111800D03*
X104574600Y-42111800D03*
D26*
X95574600Y-52111800D03*
X99574600Y-52111800D03*
X103574600Y-52111800D03*
%TD*%
D15*
%TO.C,R14*%
X94850000Y-58750000D03*
X94850000Y-57780000D03*
%TD*%
M02*
