%TF.GenerationSoftware,KiCad,Pcbnew,6.0.11+dfsg-1~bpo11+1*%
%TF.CreationDate,2023-04-14T13:04:02+02:00*%
%TF.ProjectId,IR-diode-general,49522d64-696f-4646-952d-67656e657261,rev?*%
%TF.SameCoordinates,Original*%
%TF.FileFunction,Copper,L1,Top*%
%TF.FilePolarity,Positive*%
%FSLAX46Y46*%
G04 Gerber Fmt 4.6, Leading zero omitted, Abs format (unit mm)*
G04 Created by KiCad (PCBNEW 6.0.11+dfsg-1~bpo11+1) date 2023-04-14 13:04:02 commit 5e22265*
%MOMM*%
%LPD*%
G01*
G04 APERTURE LIST*
G04 Aperture macros list*
%AMRoundRect*
0 Rectangle with rounded corners*
0 $1 Rounding radius*
0 $2 $3 $4 $5 $6 $7 $8 $9 X,Y pos of 4 corners*
0 Add a 4 corners polygon primitive as box body*
4,1,4,$2,$3,$4,$5,$6,$7,$8,$9,$2,$3,0*
0 Add four circle primitives for the rounded corners*
1,1,$1+$1,$2,$3*
1,1,$1+$1,$4,$5*
1,1,$1+$1,$6,$7*
1,1,$1+$1,$8,$9*
0 Add four rect primitives between the rounded corners*
20,1,$1+$1,$2,$3,$4,$5,0*
20,1,$1+$1,$4,$5,$6,$7,0*
20,1,$1+$1,$6,$7,$8,$9,0*
20,1,$1+$1,$8,$9,$2,$3,0*%
G04 Aperture macros list end*
%TA.AperFunction,Profile*%
%ADD10C,0.100000*%
%TD*%
%TA.AperFunction,SMDPad,CuDef*%
%ADD11RoundRect,0.147500X-0.172500X0.147500X-0.172500X-0.147500X0.172500X-0.147500X0.172500X0.147500X0*%
%TD*%
%TA.AperFunction,SMDPad,CuDef*%
%ADD12RoundRect,0.147500X0.172500X-0.147500X0.172500X0.147500X-0.172500X0.147500X-0.172500X-0.147500X0*%
%TD*%
%TA.AperFunction,ComponentPad*%
%ADD13O,2.000000X4.500000*%
%TD*%
%TA.AperFunction,ComponentPad*%
%ADD14O,4.000000X1.990000*%
%TD*%
%TA.AperFunction,ComponentPad*%
%ADD15O,2.000000X4.000000*%
%TD*%
%TA.AperFunction,SMDPad,CuDef*%
%ADD16RoundRect,0.150000X-0.425000X0.150000X-0.425000X-0.150000X0.425000X-0.150000X0.425000X0.150000X0*%
%TD*%
%TA.AperFunction,SMDPad,CuDef*%
%ADD17RoundRect,0.075000X-0.500000X0.075000X-0.500000X-0.075000X0.500000X-0.075000X0.500000X0.075000X0*%
%TD*%
%TA.AperFunction,ComponentPad*%
%ADD18O,2.100000X1.050000*%
%TD*%
%TA.AperFunction,ComponentPad*%
%ADD19O,2.000000X1.000000*%
%TD*%
%TA.AperFunction,SMDPad,CuDef*%
%ADD20RoundRect,0.180000X0.420000X0.720000X-0.420000X0.720000X-0.420000X-0.720000X0.420000X-0.720000X0*%
%TD*%
%TA.AperFunction,WasherPad*%
%ADD21C,2.000000*%
%TD*%
%TA.AperFunction,ComponentPad*%
%ADD22C,3.000000*%
%TD*%
%TA.AperFunction,ViaPad*%
%ADD23C,0.600000*%
%TD*%
%TA.AperFunction,Conductor*%
%ADD24C,0.250000*%
%TD*%
%TA.AperFunction,Conductor*%
%ADD25C,0.150000*%
%TD*%
G04 APERTURE END LIST*
D10*
X85000000Y-40500000D02*
X165000000Y-40500000D01*
X165000000Y-40500000D02*
X165000000Y-61000000D01*
X165000000Y-61000000D02*
X85000000Y-61000000D01*
X85000000Y-61000000D02*
X85000000Y-40500000D01*
D11*
%TO.P,C13,1*%
%TO.N,GND*%
X93450000Y-52566000D03*
%TO.P,C13,2*%
%TO.N,/LED DRIVER & USB-C Power output/VBUS*%
X93450000Y-53534000D03*
%TD*%
D12*
%TO.P,R12,1*%
%TO.N,GND*%
X96100000Y-56600000D03*
%TO.P,R12,2*%
%TO.N,Net-(J2-PadA7)*%
X96100000Y-55630000D03*
%TD*%
D13*
%TO.P,J1,1,1*%
%TO.N,+12V*%
X153700000Y-56600000D03*
D14*
%TO.P,J1,2,2*%
%TO.N,GND*%
X156648000Y-51721000D03*
D15*
%TO.P,J1,3,3*%
X159699000Y-56600000D03*
%TD*%
D16*
%TO.P,J2,A1,GND*%
%TO.N,GND*%
X91659645Y-52648000D03*
%TO.P,J2,A4,VBUS*%
%TO.N,/LED DRIVER & USB-C Power output/VBUS*%
X91659645Y-53450000D03*
D17*
%TO.P,J2,A5,CC1*%
%TO.N,unconnected-(J2-PadA5)*%
X91659645Y-54600000D03*
%TO.P,J2,A6,D+*%
%TO.N,Net-(J2-PadA6)*%
X91659645Y-55600000D03*
%TO.P,J2,A7,D-*%
%TO.N,Net-(J2-PadA7)*%
X91659645Y-56098000D03*
%TO.P,J2,A8,SBU1*%
%TO.N,unconnected-(J2-PadA8)*%
X91659645Y-57099000D03*
D16*
%TO.P,J2,A9,VBUS*%
%TO.N,/LED DRIVER & USB-C Power output/VBUS*%
X91659645Y-58248000D03*
%TO.P,J2,A12,GND*%
%TO.N,GND*%
X91659645Y-59050000D03*
%TO.P,J2,B1,GND*%
X91659645Y-59050000D03*
%TO.P,J2,B4,VBUS*%
%TO.N,/LED DRIVER & USB-C Power output/VBUS*%
X91659645Y-58248000D03*
D17*
%TO.P,J2,B5,CC2*%
%TO.N,unconnected-(J2-PadB5)*%
X91659645Y-57599000D03*
%TO.P,J2,B6,D+*%
%TO.N,Net-(J2-PadA6)*%
X91659645Y-56598000D03*
%TO.P,J2,B7,D-*%
%TO.N,Net-(J2-PadA7)*%
X91659645Y-55100000D03*
%TO.P,J2,B8,SBU2*%
%TO.N,unconnected-(J2-PadB8)*%
X91659645Y-54100000D03*
D16*
%TO.P,J2,B9,VBUS*%
%TO.N,/LED DRIVER & USB-C Power output/VBUS*%
X91659645Y-53450000D03*
%TO.P,J2,B12,GND*%
%TO.N,GND*%
X91659645Y-52648000D03*
D18*
%TO.P,J2,S1,SHIELD*%
X91085645Y-51529000D03*
D19*
X86904645Y-51529000D03*
D18*
X91085645Y-60170000D03*
D19*
X86904645Y-60170000D03*
%TD*%
D20*
%TO.P,R11,1*%
%TO.N,C_out*%
X157500000Y-44700000D03*
%TO.P,R11,2*%
%TO.N,SW*%
X154501000Y-44700000D03*
%TD*%
D12*
%TO.P,R13,1*%
%TO.N,Net-(J2-PadA6)*%
X94850000Y-56600000D03*
%TO.P,R13,2*%
%TO.N,Net-(J2-PadA7)*%
X94850000Y-55630000D03*
%TD*%
%TO.P,C12,1*%
%TO.N,GND*%
X93250000Y-59184000D03*
%TO.P,C12,2*%
%TO.N,/LED DRIVER & USB-C Power output/VBUS*%
X93250000Y-58216000D03*
%TD*%
D11*
%TO.P,R6,1*%
%TO.N,GND*%
X96100000Y-57865000D03*
%TO.P,R6,2*%
%TO.N,Net-(POT1-Pad1)*%
X96100000Y-58835000D03*
%TD*%
D20*
%TO.P,R10,1*%
%TO.N,C_out*%
X157500000Y-42250000D03*
%TO.P,R10,2*%
%TO.N,FB*%
X154501000Y-42250000D03*
%TD*%
D21*
%TO.P,POT1,*%
%TO.N,*%
X94574600Y-42111800D03*
X104574600Y-42111800D03*
D22*
%TO.P,POT1,1*%
%TO.N,Net-(POT1-Pad1)*%
X95574600Y-52111800D03*
%TO.P,POT1,2*%
%TO.N,Net-(POT1-Pad2)*%
X99574600Y-52111800D03*
%TO.P,POT1,3*%
%TO.N,Net-(C8-Pad2)*%
X103574600Y-52111800D03*
%TD*%
D12*
%TO.P,R14,1*%
%TO.N,GND*%
X94850000Y-58750000D03*
%TO.P,R14,2*%
%TO.N,Net-(J2-PadA6)*%
X94850000Y-57780000D03*
%TD*%
D23*
%TO.N,GND*%
X95550000Y-46200000D03*
X94250000Y-46350000D03*
%TO.N,+12V*%
X105600000Y-47700000D03*
X144750000Y-48150000D03*
%TO.N,SW*%
X146948423Y-43349500D03*
X151350000Y-50800000D03*
X150100000Y-50750000D03*
%TO.N,/LED DRIVER & USB-C Power output/VBUS*%
X93150000Y-54700000D03*
%TO.N,A_in*%
X107100000Y-52900000D03*
X91750000Y-43750000D03*
X146700000Y-52350000D03*
X91850000Y-42750000D03*
%TO.N,C_out*%
X158800000Y-41700000D03*
X159000000Y-45150000D03*
%TO.N,Thermal*%
X111250000Y-43830000D03*
X125580000Y-54540000D03*
X111250000Y-45370000D03*
X114090000Y-46910000D03*
X111250000Y-46910000D03*
X118700000Y-46900000D03*
X122500000Y-54540000D03*
X136510000Y-45420000D03*
X117880000Y-54540000D03*
X133280000Y-54540000D03*
X130200000Y-54540000D03*
X111720000Y-56080000D03*
X134970000Y-45420000D03*
X117170000Y-43830000D03*
X131740000Y-54540000D03*
X112550000Y-48450000D03*
X112550000Y-45370000D03*
X138050000Y-48500000D03*
X114090000Y-43830000D03*
X128660000Y-54540000D03*
X134970000Y-46960000D03*
X133430000Y-46960000D03*
X119420000Y-56080000D03*
X139350000Y-45420000D03*
X134970000Y-43880000D03*
X112600000Y-53050000D03*
X133430000Y-45420000D03*
X139350000Y-54540000D03*
X134820000Y-54540000D03*
X111250000Y-48450000D03*
X137900000Y-54540000D03*
X138050000Y-46960000D03*
X137900000Y-56080000D03*
X128660000Y-56080000D03*
X122500000Y-56080000D03*
X114800000Y-54540000D03*
X139350000Y-48500000D03*
X111200000Y-53050000D03*
X124040000Y-56080000D03*
X137900000Y-53000000D03*
X113260000Y-56080000D03*
X127120000Y-54540000D03*
X131740000Y-56080000D03*
X134820000Y-56080000D03*
X124040000Y-54540000D03*
X133280000Y-56080000D03*
X116340000Y-54540000D03*
X136360000Y-54540000D03*
X117170000Y-46910000D03*
X138050000Y-43880000D03*
X115630000Y-46910000D03*
X111900000Y-50900000D03*
X134250000Y-50850000D03*
X133430000Y-43880000D03*
X120960000Y-54540000D03*
X120960000Y-56080000D03*
X130200000Y-56080000D03*
X112550000Y-46910000D03*
X119420000Y-54540000D03*
X117880000Y-56080000D03*
X113260000Y-54540000D03*
X116340000Y-56080000D03*
X125580000Y-56080000D03*
X136360000Y-56080000D03*
X118710000Y-45370000D03*
X139350000Y-43880000D03*
X114800000Y-56080000D03*
X139350000Y-53000000D03*
X115630000Y-43830000D03*
X118710000Y-43830000D03*
X136510000Y-43880000D03*
X115630000Y-45370000D03*
X117170000Y-45370000D03*
X136510000Y-46960000D03*
X139350000Y-46960000D03*
X138050000Y-45420000D03*
X114090000Y-45370000D03*
X112550000Y-43830000D03*
X139350000Y-56080000D03*
X111720000Y-54540000D03*
X127120000Y-56080000D03*
%TO.N,FB*%
X150150000Y-42300000D03*
%TD*%
D24*
%TO.N,GND*%
X91659645Y-59596000D02*
X91085645Y-60170000D01*
X95450000Y-58450000D02*
X96020000Y-57880000D01*
X91659645Y-59050000D02*
X93116000Y-59050000D01*
X93150000Y-52616000D02*
X91691645Y-52616000D01*
X96100000Y-56600000D02*
X96100000Y-57780000D01*
X93250000Y-59184000D02*
X94416000Y-59184000D01*
X91659645Y-59050000D02*
X91659645Y-59596000D01*
X91659645Y-52103000D02*
X91085645Y-51529000D01*
X94416000Y-59184000D02*
X94850000Y-58750000D01*
X94850000Y-58750000D02*
X95150000Y-58450000D01*
X95150000Y-58450000D02*
X95450000Y-58450000D01*
X91659645Y-52648000D02*
X91659645Y-52103000D01*
%TO.N,SW*%
X148298923Y-44700000D02*
X154501000Y-44700000D01*
X146948423Y-43349500D02*
X148298923Y-44700000D01*
%TO.N,/LED DRIVER & USB-C Power output/VBUS*%
X91119952Y-53450000D02*
X90334645Y-54235307D01*
X90334645Y-54235307D02*
X90334645Y-57463693D01*
X93250000Y-58216000D02*
X91691645Y-58216000D01*
X93150000Y-54700000D02*
X93150000Y-53584000D01*
X93150000Y-53584000D02*
X91793645Y-53584000D01*
X91118952Y-58248000D02*
X91659645Y-58248000D01*
X91659645Y-53450000D02*
X91119952Y-53450000D01*
X90334645Y-57463693D02*
X91118952Y-58248000D01*
%TO.N,A_in*%
X107100000Y-52900000D02*
X105200000Y-54800000D01*
X143650000Y-58900000D02*
X143650000Y-53900000D01*
X142950000Y-59600000D02*
X143650000Y-58900000D01*
X105200000Y-54800000D02*
X105200000Y-57550000D01*
X105200000Y-57550000D02*
X107250000Y-59600000D01*
X143650000Y-53900000D02*
X145200000Y-52350000D01*
X145200000Y-52350000D02*
X146700000Y-52350000D01*
X107250000Y-59600000D02*
X142950000Y-59600000D01*
D25*
%TO.N,Net-(J2-PadA6)*%
X90950000Y-55600000D02*
X91659645Y-55600000D01*
X90898000Y-56598000D02*
X90784645Y-56484645D01*
X94850000Y-56600000D02*
X91661645Y-56600000D01*
X91659645Y-56598000D02*
X90898000Y-56598000D01*
X90784645Y-55765355D02*
X90950000Y-55600000D01*
X94850000Y-57780000D02*
X94850000Y-56600000D01*
X90784645Y-56484645D02*
X90784645Y-55765355D01*
%TO.N,Net-(J2-PadA7)*%
X92502000Y-56098000D02*
X91659645Y-56098000D01*
X92500000Y-55100000D02*
X91659645Y-55100000D01*
X93030000Y-55630000D02*
X92500000Y-55100000D01*
X96100000Y-55630000D02*
X94850000Y-55630000D01*
X92970000Y-55630000D02*
X92502000Y-56098000D01*
X94850000Y-55630000D02*
X93030000Y-55630000D01*
X93030000Y-55630000D02*
X92970000Y-55630000D01*
%TO.N,Net-(POT1-Pad1)*%
X97150000Y-58150000D02*
X96465000Y-58835000D01*
X95474600Y-52361800D02*
X97150000Y-54037200D01*
X97150000Y-54037200D02*
X97150000Y-58150000D01*
X96465000Y-58835000D02*
X96100000Y-58835000D01*
%TD*%
%TA.AperFunction,Conductor*%
%TO.N,+12V*%
G36*
X149399691Y-40773407D02*
G01*
X149435655Y-40822907D01*
X149440500Y-40853500D01*
X149440500Y-43541500D01*
X149443694Y-43582091D01*
X149443885Y-43583295D01*
X149431971Y-43643214D01*
X149386478Y-43685009D01*
X149367162Y-43693768D01*
X149317439Y-43729422D01*
X149315296Y-43731379D01*
X149315289Y-43731384D01*
X149278140Y-43765297D01*
X149272389Y-43770547D01*
X149268542Y-43777317D01*
X149268541Y-43777318D01*
X149235002Y-43836337D01*
X149222363Y-43858577D01*
X149220830Y-43863197D01*
X149206021Y-43907823D01*
X149203092Y-43916648D01*
X149189890Y-43996759D01*
X149189866Y-44000649D01*
X149188482Y-44222119D01*
X149169212Y-44280190D01*
X149119488Y-44315844D01*
X149089484Y-44320500D01*
X148497125Y-44320500D01*
X148438934Y-44301593D01*
X148427121Y-44291504D01*
X147534895Y-43399278D01*
X147506746Y-43342196D01*
X147499231Y-43285108D01*
X147488651Y-43204746D01*
X147432778Y-43069858D01*
X147343897Y-42954026D01*
X147338744Y-42950072D01*
X147233212Y-42869093D01*
X147233208Y-42869091D01*
X147228066Y-42865145D01*
X147093177Y-42809272D01*
X146948423Y-42790215D01*
X146803669Y-42809272D01*
X146668781Y-42865145D01*
X146552949Y-42954026D01*
X146464068Y-43069858D01*
X146408195Y-43204746D01*
X146389138Y-43349500D01*
X146408195Y-43494254D01*
X146464068Y-43629142D01*
X146552949Y-43744974D01*
X146558094Y-43748922D01*
X146558095Y-43748923D01*
X146663634Y-43829907D01*
X146663638Y-43829909D01*
X146668780Y-43833855D01*
X146803669Y-43889728D01*
X146941120Y-43907824D01*
X146998201Y-43935972D01*
X147994483Y-44932254D01*
X148007646Y-44948555D01*
X148014352Y-44958940D01*
X148020776Y-44964004D01*
X148041970Y-44980712D01*
X148048101Y-44986160D01*
X148049986Y-44987757D01*
X148052867Y-44990638D01*
X148056185Y-44993009D01*
X148056186Y-44993010D01*
X148069104Y-45002242D01*
X148072831Y-45005041D01*
X148113570Y-45037156D01*
X148120771Y-45039685D01*
X148123445Y-45041074D01*
X148129657Y-45045513D01*
X148137496Y-45047857D01*
X148137495Y-45047857D01*
X148179376Y-45060383D01*
X148183810Y-45061824D01*
X148226898Y-45076955D01*
X148226902Y-45076956D01*
X148232774Y-45079018D01*
X148238339Y-45079500D01*
X148240482Y-45079500D01*
X148241596Y-45079548D01*
X148244197Y-45079768D01*
X148250701Y-45081713D01*
X148258877Y-45081392D01*
X148258879Y-45081392D01*
X148305093Y-45079576D01*
X148308980Y-45079500D01*
X149083502Y-45079500D01*
X149141693Y-45098407D01*
X149177657Y-45147907D01*
X149182500Y-45179119D01*
X149180808Y-45449827D01*
X149180695Y-45467908D01*
X149141368Y-51760406D01*
X149141128Y-51798759D01*
X149144192Y-51840170D01*
X149144494Y-51842114D01*
X149144495Y-51842126D01*
X149148145Y-51865645D01*
X149149035Y-51871382D01*
X149153136Y-51892173D01*
X149155597Y-51897511D01*
X149193426Y-51979568D01*
X149195526Y-51984124D01*
X149231490Y-52033624D01*
X149233460Y-52035755D01*
X149233464Y-52035760D01*
X149248475Y-52051998D01*
X149272899Y-52078419D01*
X149279697Y-52082226D01*
X149356995Y-52125515D01*
X149356998Y-52125516D01*
X149361242Y-52127893D01*
X149419433Y-52146800D01*
X149423277Y-52147409D01*
X149423282Y-52147410D01*
X149495773Y-52158891D01*
X149495778Y-52158891D01*
X149499621Y-52159500D01*
X152560944Y-52159500D01*
X152561689Y-52159477D01*
X152561692Y-52159477D01*
X152576137Y-52159032D01*
X152576145Y-52159032D01*
X152576912Y-52159008D01*
X152577668Y-52158961D01*
X152577698Y-52158960D01*
X152584429Y-52158545D01*
X152584434Y-52158544D01*
X152589077Y-52158258D01*
X152638774Y-52145597D01*
X152678510Y-52135474D01*
X152678513Y-52135473D01*
X152683019Y-52134325D01*
X152738446Y-52108410D01*
X152741666Y-52106233D01*
X152741670Y-52106231D01*
X152794735Y-52070358D01*
X152805708Y-52062940D01*
X152808547Y-52060287D01*
X152808551Y-52060284D01*
X153129473Y-51760406D01*
X154389069Y-51760406D01*
X154389598Y-51764776D01*
X154389598Y-51764781D01*
X154398958Y-51842126D01*
X154415865Y-51981836D01*
X154417160Y-51986045D01*
X154480152Y-52190806D01*
X154480154Y-52190812D01*
X154481449Y-52195020D01*
X154483472Y-52198939D01*
X154483473Y-52198942D01*
X154581722Y-52389297D01*
X154583748Y-52393222D01*
X154719529Y-52570175D01*
X154884500Y-52720287D01*
X155073446Y-52838812D01*
X155280395Y-52922005D01*
X155498806Y-52967236D01*
X155555415Y-52970500D01*
X157709585Y-52970500D01*
X157711779Y-52970304D01*
X157711783Y-52970304D01*
X157870774Y-52956115D01*
X157870778Y-52956114D01*
X157875162Y-52955723D01*
X157879407Y-52954562D01*
X157879411Y-52954561D01*
X158048005Y-52908438D01*
X158090301Y-52896867D01*
X158094287Y-52894966D01*
X158287638Y-52802743D01*
X158287644Y-52802740D01*
X158291618Y-52800844D01*
X158472749Y-52670688D01*
X158627968Y-52510514D01*
X158634529Y-52500751D01*
X158749913Y-52329043D01*
X158749916Y-52329037D01*
X158752371Y-52325384D01*
X158754139Y-52321357D01*
X158754142Y-52321351D01*
X158807875Y-52198942D01*
X158842023Y-52121150D01*
X158894092Y-51904268D01*
X158894790Y-51892173D01*
X158906677Y-51685993D01*
X158906931Y-51681594D01*
X158880135Y-51460164D01*
X158866858Y-51417007D01*
X158815848Y-51251194D01*
X158815846Y-51251188D01*
X158814551Y-51246980D01*
X158754759Y-51131133D01*
X158714278Y-51052703D01*
X158714277Y-51052702D01*
X158712252Y-51048778D01*
X158618075Y-50926044D01*
X158579160Y-50875329D01*
X158579158Y-50875327D01*
X158576471Y-50871825D01*
X158411500Y-50721713D01*
X158222554Y-50603188D01*
X158015605Y-50519995D01*
X157797194Y-50474764D01*
X157740585Y-50471500D01*
X155586415Y-50471500D01*
X155584221Y-50471696D01*
X155584217Y-50471696D01*
X155425226Y-50485885D01*
X155425222Y-50485886D01*
X155420838Y-50486277D01*
X155416593Y-50487438D01*
X155416589Y-50487439D01*
X155263658Y-50529277D01*
X155205699Y-50545133D01*
X155201715Y-50547033D01*
X155201713Y-50547034D01*
X155008362Y-50639257D01*
X155008356Y-50639260D01*
X155004382Y-50641156D01*
X154823251Y-50771312D01*
X154668032Y-50931486D01*
X154665574Y-50935143D01*
X154665573Y-50935145D01*
X154546087Y-51112957D01*
X154546084Y-51112963D01*
X154543629Y-51116616D01*
X154541861Y-51120643D01*
X154541858Y-51120649D01*
X154488767Y-51241595D01*
X154453977Y-51320850D01*
X154401908Y-51537732D01*
X154401655Y-51542125D01*
X154401654Y-51542130D01*
X154395033Y-51656972D01*
X154389069Y-51760406D01*
X153129473Y-51760406D01*
X155794907Y-49269754D01*
X155794911Y-49269750D01*
X155795764Y-49268953D01*
X155813032Y-49251201D01*
X155825533Y-49237057D01*
X155877893Y-49145392D01*
X155896800Y-49087201D01*
X155909500Y-49007013D01*
X155909500Y-46254832D01*
X155928407Y-46196641D01*
X155977907Y-46160677D01*
X156039093Y-46160677D01*
X156081816Y-46188306D01*
X156117101Y-46227192D01*
X156123860Y-46231060D01*
X156200761Y-46275069D01*
X156200764Y-46275071D01*
X156204980Y-46277483D01*
X156209588Y-46279027D01*
X156209591Y-46279029D01*
X156248847Y-46292187D01*
X156262993Y-46296929D01*
X156343065Y-46310373D01*
X156346949Y-46310409D01*
X159812569Y-46342498D01*
X161546794Y-46358556D01*
X161576211Y-46356381D01*
X161587676Y-46355533D01*
X161587678Y-46355533D01*
X161589744Y-46355380D01*
X161591783Y-46355058D01*
X161591787Y-46355057D01*
X161621022Y-46350432D01*
X161622084Y-46350264D01*
X161623129Y-46350051D01*
X161623148Y-46350048D01*
X161638509Y-46346923D01*
X161638508Y-46346923D01*
X161644345Y-46345736D01*
X161735917Y-46302534D01*
X161742619Y-46297574D01*
X161756204Y-46287519D01*
X161785097Y-46266134D01*
X161829528Y-46224328D01*
X161878217Y-46135551D01*
X161896608Y-46077195D01*
X161908598Y-45996899D01*
X161908286Y-45961574D01*
X161863088Y-40854376D01*
X161881480Y-40796020D01*
X161930659Y-40759620D01*
X161962084Y-40754500D01*
X164646500Y-40754500D01*
X164704691Y-40773407D01*
X164740655Y-40822907D01*
X164745500Y-40853500D01*
X164745500Y-60646500D01*
X164726593Y-60704691D01*
X164677093Y-60740655D01*
X164646500Y-60745500D01*
X92348774Y-60745500D01*
X92290583Y-60726593D01*
X92254619Y-60677093D01*
X92254619Y-60615907D01*
X92265185Y-60593454D01*
X92312722Y-60518547D01*
X92312725Y-60518541D01*
X92315688Y-60513872D01*
X92374351Y-60349126D01*
X92380355Y-60298777D01*
X92394403Y-60180972D01*
X92394403Y-60180969D01*
X92395058Y-60175476D01*
X92376778Y-60001555D01*
X92370325Y-59982598D01*
X92322205Y-59841248D01*
X92322205Y-59841247D01*
X92320420Y-59836005D01*
X92235110Y-59697334D01*
X92220723Y-59637866D01*
X92244039Y-59581297D01*
X92274484Y-59557253D01*
X92325368Y-59531326D01*
X92398198Y-59458496D01*
X92452715Y-59430719D01*
X92468202Y-59429500D01*
X92615591Y-59429500D01*
X92673782Y-59448407D01*
X92703801Y-59483555D01*
X92744535Y-59563500D01*
X92748221Y-59570735D01*
X92838265Y-59660779D01*
X92845202Y-59664313D01*
X92845204Y-59664315D01*
X92944786Y-59715054D01*
X92944789Y-59715055D01*
X92951727Y-59718590D01*
X92959421Y-59719809D01*
X92959422Y-59719809D01*
X93042017Y-59732891D01*
X93042019Y-59732891D01*
X93045863Y-59733500D01*
X93249973Y-59733500D01*
X93454136Y-59733499D01*
X93457979Y-59732890D01*
X93457984Y-59732890D01*
X93540579Y-59719809D01*
X93540582Y-59719808D01*
X93548273Y-59718590D01*
X93610165Y-59687055D01*
X93654796Y-59664315D01*
X93654798Y-59664313D01*
X93661735Y-59660779D01*
X93730018Y-59592496D01*
X93784535Y-59564719D01*
X93800022Y-59563500D01*
X94364953Y-59563500D01*
X94385791Y-59565718D01*
X94389876Y-59566598D01*
X94389879Y-59566598D01*
X94397876Y-59568320D01*
X94432804Y-59564186D01*
X94440969Y-59563705D01*
X94443446Y-59563500D01*
X94447524Y-59563500D01*
X94459597Y-59561490D01*
X94467182Y-59560228D01*
X94471801Y-59559570D01*
X94508335Y-59555246D01*
X94523341Y-59553470D01*
X94530223Y-59550165D01*
X94533092Y-59549258D01*
X94540626Y-59548004D01*
X94586304Y-59523358D01*
X94590454Y-59521243D01*
X94631615Y-59501478D01*
X94637232Y-59498781D01*
X94641508Y-59495186D01*
X94643009Y-59493685D01*
X94643854Y-59492910D01*
X94645842Y-59491232D01*
X94651814Y-59488010D01*
X94688747Y-59448056D01*
X94691440Y-59445254D01*
X94808198Y-59328496D01*
X94862715Y-59300719D01*
X94878201Y-59299500D01*
X95035317Y-59299499D01*
X95054136Y-59299499D01*
X95057979Y-59298890D01*
X95057984Y-59298890D01*
X95140579Y-59285809D01*
X95140582Y-59285808D01*
X95148273Y-59284590D01*
X95218761Y-59248675D01*
X95254796Y-59230315D01*
X95254798Y-59230313D01*
X95261735Y-59226779D01*
X95351779Y-59136735D01*
X95365136Y-59110521D01*
X95408398Y-59067257D01*
X95468830Y-59057685D01*
X95523347Y-59085461D01*
X95541555Y-59110521D01*
X95582818Y-59191504D01*
X95598221Y-59221735D01*
X95688265Y-59311779D01*
X95695202Y-59315313D01*
X95695204Y-59315315D01*
X95794786Y-59366054D01*
X95794789Y-59366055D01*
X95801727Y-59369590D01*
X95809421Y-59370809D01*
X95809422Y-59370809D01*
X95892017Y-59383891D01*
X95892019Y-59383891D01*
X95895863Y-59384500D01*
X96099973Y-59384500D01*
X96304136Y-59384499D01*
X96307979Y-59383890D01*
X96307984Y-59383890D01*
X96390579Y-59370809D01*
X96390582Y-59370808D01*
X96398273Y-59369590D01*
X96478926Y-59328496D01*
X96504796Y-59315315D01*
X96504798Y-59315313D01*
X96511735Y-59311779D01*
X96601779Y-59221735D01*
X96617183Y-59191504D01*
X96652004Y-59123162D01*
X96675031Y-59094212D01*
X96680066Y-59091305D01*
X96687804Y-59082084D01*
X96705380Y-59061137D01*
X96711214Y-59054769D01*
X97369764Y-58396219D01*
X97376132Y-58390384D01*
X97378953Y-58388017D01*
X97406305Y-58365066D01*
X97426001Y-58330951D01*
X97430638Y-58323673D01*
X97448268Y-58298495D01*
X97448269Y-58298494D01*
X97453235Y-58291401D01*
X97455477Y-58283035D01*
X97458016Y-58277589D01*
X97460073Y-58271937D01*
X97464405Y-58264434D01*
X97471247Y-58225634D01*
X97473116Y-58217204D01*
X97481068Y-58187525D01*
X97483309Y-58179161D01*
X97479877Y-58139931D01*
X97479500Y-58131303D01*
X97479500Y-54055894D01*
X97479877Y-54047265D01*
X97482554Y-54016666D01*
X97483309Y-54008039D01*
X97473116Y-53969996D01*
X97471247Y-53961566D01*
X97468155Y-53944031D01*
X97464405Y-53922766D01*
X97460073Y-53915263D01*
X97458016Y-53909611D01*
X97455477Y-53904165D01*
X97453235Y-53895799D01*
X97430638Y-53863527D01*
X97425999Y-53856245D01*
X97410637Y-53829637D01*
X97406305Y-53822134D01*
X97376137Y-53796820D01*
X97369769Y-53790986D01*
X96937694Y-53358911D01*
X96909917Y-53304394D01*
X96919488Y-53243962D01*
X96933261Y-53223638D01*
X96979735Y-53170645D01*
X96997624Y-53142834D01*
X97045006Y-53104123D01*
X97106093Y-53100655D01*
X97132044Y-53111634D01*
X97148819Y-53121759D01*
X97155606Y-53124211D01*
X97196558Y-53139007D01*
X97206364Y-53142550D01*
X97210185Y-53143283D01*
X97210191Y-53143285D01*
X97260526Y-53152945D01*
X97286101Y-53157854D01*
X97846997Y-53176108D01*
X97855188Y-53176245D01*
X97856741Y-53176246D01*
X97857134Y-53176247D01*
X97857135Y-53176247D01*
X97861420Y-53176251D01*
X97865641Y-53175518D01*
X97865645Y-53175518D01*
X97945137Y-53161719D01*
X97945136Y-53161719D01*
X97949360Y-53160986D01*
X97953390Y-53159539D01*
X97953394Y-53159538D01*
X98004201Y-53141296D01*
X98004202Y-53141296D01*
X98006947Y-53140310D01*
X98009557Y-53139009D01*
X98009561Y-53139007D01*
X98039237Y-53124211D01*
X98099750Y-53115167D01*
X98154022Y-53143418D01*
X98162733Y-53153572D01*
X98246749Y-53266083D01*
X98284937Y-53303939D01*
X98357890Y-53376258D01*
X98431948Y-53449673D01*
X98434909Y-53451844D01*
X98434910Y-53451845D01*
X98453113Y-53465192D01*
X98642249Y-53603873D01*
X98645493Y-53605580D01*
X98645495Y-53605581D01*
X98869778Y-53723582D01*
X98869784Y-53723585D01*
X98873033Y-53725294D01*
X98876504Y-53726506D01*
X98876506Y-53726507D01*
X98915806Y-53740231D01*
X99119229Y-53811269D01*
X99375428Y-53859910D01*
X99517336Y-53865486D01*
X99632333Y-53870004D01*
X99632336Y-53870004D01*
X99636003Y-53870148D01*
X99769219Y-53855558D01*
X99891588Y-53842157D01*
X99891591Y-53842156D01*
X99895229Y-53841758D01*
X100147411Y-53775364D01*
X100150786Y-53773914D01*
X100150789Y-53773913D01*
X100277979Y-53719268D01*
X100387010Y-53672425D01*
X100489946Y-53608726D01*
X100605635Y-53537136D01*
X100605640Y-53537132D01*
X100608761Y-53535201D01*
X100616468Y-53528677D01*
X100796512Y-53376258D01*
X100807794Y-53366707D01*
X100860955Y-53306089D01*
X100918076Y-53240954D01*
X100970659Y-53209670D01*
X101031587Y-53215269D01*
X101043666Y-53221471D01*
X101047245Y-53223631D01*
X101091024Y-53250055D01*
X101119059Y-53260184D01*
X101127216Y-53263131D01*
X101148569Y-53270846D01*
X101152390Y-53271579D01*
X101152396Y-53271581D01*
X101202731Y-53281241D01*
X101228306Y-53286150D01*
X101514408Y-53295461D01*
X101838916Y-53306023D01*
X101838925Y-53306023D01*
X101840956Y-53306089D01*
X101883773Y-53303939D01*
X101885794Y-53303669D01*
X101885804Y-53303668D01*
X101908278Y-53300664D01*
X101916082Y-53299621D01*
X101917134Y-53299434D01*
X101917138Y-53299433D01*
X101932410Y-53296713D01*
X101932413Y-53296712D01*
X101938258Y-53295671D01*
X102030873Y-53254751D01*
X102037558Y-53250055D01*
X102078555Y-53221256D01*
X102078561Y-53221251D01*
X102080940Y-53219580D01*
X102083113Y-53217634D01*
X102083242Y-53217532D01*
X102140566Y-53196141D01*
X102199516Y-53212529D01*
X102224145Y-53235813D01*
X102246749Y-53266083D01*
X102284937Y-53303939D01*
X102357890Y-53376258D01*
X102431948Y-53449673D01*
X102434909Y-53451844D01*
X102434910Y-53451845D01*
X102453113Y-53465192D01*
X102642249Y-53603873D01*
X102645493Y-53605580D01*
X102645495Y-53605581D01*
X102869778Y-53723582D01*
X102869784Y-53723585D01*
X102873033Y-53725294D01*
X102876504Y-53726506D01*
X102876506Y-53726507D01*
X102915806Y-53740231D01*
X103119229Y-53811269D01*
X103375428Y-53859910D01*
X103517336Y-53865486D01*
X103632333Y-53870004D01*
X103632336Y-53870004D01*
X103636003Y-53870148D01*
X103769219Y-53855558D01*
X103891588Y-53842157D01*
X103891591Y-53842156D01*
X103895229Y-53841758D01*
X104147411Y-53775364D01*
X104150786Y-53773914D01*
X104150789Y-53773913D01*
X104277979Y-53719268D01*
X104387010Y-53672425D01*
X104489946Y-53608726D01*
X104605635Y-53537136D01*
X104605640Y-53537132D01*
X104608761Y-53535201D01*
X104616468Y-53528677D01*
X104796512Y-53376258D01*
X104807794Y-53366707D01*
X104862750Y-53304042D01*
X104898627Y-53263131D01*
X104979735Y-53170645D01*
X105120808Y-52951323D01*
X105134756Y-52920361D01*
X105226406Y-52716905D01*
X105226407Y-52716903D01*
X105227914Y-52713557D01*
X105250128Y-52634791D01*
X105297702Y-52466108D01*
X105297703Y-52466105D01*
X105298699Y-52462572D01*
X105331609Y-52203881D01*
X105334020Y-52111800D01*
X105324037Y-51977462D01*
X105314966Y-51855395D01*
X105314965Y-51855389D01*
X105314694Y-51851741D01*
X105257142Y-51597395D01*
X105233941Y-51537732D01*
X105163957Y-51357770D01*
X105162627Y-51354350D01*
X105033225Y-51127945D01*
X104871780Y-50923153D01*
X104869107Y-50920639D01*
X104869102Y-50920633D01*
X104713733Y-50774477D01*
X104681839Y-50744474D01*
X104467573Y-50595832D01*
X104233690Y-50480494D01*
X103985328Y-50400993D01*
X103981713Y-50400404D01*
X103981712Y-50400404D01*
X103731561Y-50359664D01*
X103731560Y-50359664D01*
X103727944Y-50359075D01*
X103724281Y-50359027D01*
X103724280Y-50359027D01*
X103597567Y-50357369D01*
X103467190Y-50355662D01*
X103463562Y-50356156D01*
X103463558Y-50356156D01*
X103337993Y-50373245D01*
X103208796Y-50390828D01*
X102958438Y-50463800D01*
X102933057Y-50475501D01*
X102724951Y-50571439D01*
X102724945Y-50571442D01*
X102721616Y-50572977D01*
X102503533Y-50715958D01*
X102500800Y-50718397D01*
X102500799Y-50718398D01*
X102411531Y-50798073D01*
X102355528Y-50822715D01*
X102295735Y-50809733D01*
X102254993Y-50764085D01*
X102246622Y-50722636D01*
X102270071Y-49251201D01*
X102335806Y-45126300D01*
X102355638Y-45068418D01*
X102405704Y-45033248D01*
X102436733Y-45028897D01*
X103345172Y-45046710D01*
X106191526Y-45102521D01*
X106249335Y-45122565D01*
X106284321Y-45172761D01*
X106288584Y-45202037D01*
X106258472Y-50742383D01*
X106245237Y-53177597D01*
X106226013Y-53235684D01*
X106216242Y-53247063D01*
X104967746Y-54495560D01*
X104951445Y-54508723D01*
X104941060Y-54515429D01*
X104935996Y-54521853D01*
X104919288Y-54543047D01*
X104913852Y-54549165D01*
X104912249Y-54551057D01*
X104909362Y-54553944D01*
X104899005Y-54568437D01*
X104897773Y-54570161D01*
X104894973Y-54573891D01*
X104862844Y-54614647D01*
X104860317Y-54621844D01*
X104858927Y-54624519D01*
X104854486Y-54630734D01*
X104852142Y-54638572D01*
X104839615Y-54680459D01*
X104838174Y-54684894D01*
X104828091Y-54713608D01*
X104820982Y-54733851D01*
X104820500Y-54739416D01*
X104820500Y-54741559D01*
X104820452Y-54742673D01*
X104820232Y-54745274D01*
X104818287Y-54751778D01*
X104818608Y-54759954D01*
X104818608Y-54759956D01*
X104820424Y-54806170D01*
X104820500Y-54810057D01*
X104820500Y-57498953D01*
X104818282Y-57519790D01*
X104815680Y-57531876D01*
X104818691Y-57557315D01*
X104819814Y-57566802D01*
X104820295Y-57574969D01*
X104820500Y-57577446D01*
X104820500Y-57581524D01*
X104821171Y-57585553D01*
X104823772Y-57601182D01*
X104824430Y-57605801D01*
X104830530Y-57657341D01*
X104833835Y-57664223D01*
X104834742Y-57667092D01*
X104835996Y-57674626D01*
X104854742Y-57709368D01*
X104860639Y-57720297D01*
X104862753Y-57724447D01*
X104885219Y-57771232D01*
X104888814Y-57775508D01*
X104890315Y-57777009D01*
X104891090Y-57777854D01*
X104892768Y-57779842D01*
X104895990Y-57785814D01*
X104931523Y-57818660D01*
X104935943Y-57822746D01*
X104938746Y-57825440D01*
X106945560Y-59832254D01*
X106958723Y-59848555D01*
X106965429Y-59858940D01*
X106971853Y-59864004D01*
X106993047Y-59880712D01*
X106999165Y-59886148D01*
X107001057Y-59887751D01*
X107003944Y-59890638D01*
X107014250Y-59898003D01*
X107020161Y-59902227D01*
X107023891Y-59905027D01*
X107064647Y-59937156D01*
X107071844Y-59939683D01*
X107074519Y-59941073D01*
X107080734Y-59945514D01*
X107114202Y-59955523D01*
X107130459Y-59960385D01*
X107134894Y-59961826D01*
X107177978Y-59976956D01*
X107177981Y-59976957D01*
X107183851Y-59979018D01*
X107189416Y-59979500D01*
X107191559Y-59979500D01*
X107192673Y-59979548D01*
X107195274Y-59979768D01*
X107201778Y-59981713D01*
X107209954Y-59981392D01*
X107209956Y-59981392D01*
X107256170Y-59979576D01*
X107260057Y-59979500D01*
X142898953Y-59979500D01*
X142919791Y-59981718D01*
X142923876Y-59982598D01*
X142923879Y-59982598D01*
X142931876Y-59984320D01*
X142966804Y-59980186D01*
X142974969Y-59979705D01*
X142977446Y-59979500D01*
X142981524Y-59979500D01*
X142993597Y-59977490D01*
X143001182Y-59976228D01*
X143005801Y-59975570D01*
X143034398Y-59972185D01*
X143057341Y-59969470D01*
X143064223Y-59966165D01*
X143067092Y-59965258D01*
X143074626Y-59964004D01*
X143120304Y-59939358D01*
X143124454Y-59937243D01*
X143171232Y-59914781D01*
X143175508Y-59911186D01*
X143177009Y-59909685D01*
X143177854Y-59908910D01*
X143179842Y-59907232D01*
X143185814Y-59904010D01*
X143195980Y-59893013D01*
X143222745Y-59864058D01*
X143225439Y-59861255D01*
X143882254Y-59204441D01*
X143898558Y-59191275D01*
X143902063Y-59189012D01*
X143902065Y-59189010D01*
X143908940Y-59184571D01*
X143930472Y-59157258D01*
X143930708Y-59156958D01*
X143936179Y-59150801D01*
X143937760Y-59148935D01*
X143940638Y-59146057D01*
X143947300Y-59136735D01*
X143952233Y-59129831D01*
X143955034Y-59126100D01*
X143969087Y-59108273D01*
X143987156Y-59085353D01*
X143989684Y-59078155D01*
X143991076Y-59075475D01*
X143995513Y-59069266D01*
X144006026Y-59034115D01*
X144010383Y-59019547D01*
X144011824Y-59015113D01*
X144026955Y-58972025D01*
X144026956Y-58972021D01*
X144029018Y-58966149D01*
X144029500Y-58960584D01*
X144029500Y-58958441D01*
X144029548Y-58957327D01*
X144029768Y-58954726D01*
X144031713Y-58948222D01*
X144030412Y-58915093D01*
X144029576Y-58893830D01*
X144029500Y-58889943D01*
X144029500Y-57904592D01*
X152446000Y-57904592D01*
X152446196Y-57908993D01*
X152460438Y-58068571D01*
X152461994Y-58077216D01*
X152518733Y-58284620D01*
X152521795Y-58292856D01*
X152614368Y-58486940D01*
X152618839Y-58494499D01*
X152744320Y-58669124D01*
X152750056Y-58675769D01*
X152904477Y-58825413D01*
X152911301Y-58830939D01*
X153089780Y-58950873D01*
X153097473Y-58955102D01*
X153294379Y-59041537D01*
X153302687Y-59044333D01*
X153511788Y-59094534D01*
X153520469Y-59095816D01*
X153557346Y-59097942D01*
X153570248Y-59094557D01*
X153572614Y-59091667D01*
X153573000Y-59089615D01*
X153573000Y-59082185D01*
X153827000Y-59082185D01*
X153831122Y-59094870D01*
X153832800Y-59096090D01*
X153837720Y-59096568D01*
X153957401Y-59082084D01*
X153965984Y-59080260D01*
X154171514Y-59017031D01*
X154179650Y-59013711D01*
X154370717Y-58915093D01*
X154378148Y-58910378D01*
X154548736Y-58779481D01*
X154555200Y-58773538D01*
X154699925Y-58614486D01*
X154705224Y-58607505D01*
X154819498Y-58425337D01*
X154823482Y-58417518D01*
X154903687Y-58218000D01*
X154906225Y-58209594D01*
X154949988Y-57998271D01*
X154950934Y-57991089D01*
X154953918Y-57939332D01*
X154954000Y-57936491D01*
X154954000Y-57656819D01*
X158444500Y-57656819D01*
X158444696Y-57659015D01*
X158455084Y-57775404D01*
X158459336Y-57823051D01*
X158460500Y-57827305D01*
X158511442Y-58013517D01*
X158518427Y-58039051D01*
X158520324Y-58043028D01*
X158520325Y-58043031D01*
X158612935Y-58237194D01*
X158612938Y-58237200D01*
X158614834Y-58241174D01*
X158745511Y-58423030D01*
X158906326Y-58578871D01*
X159092197Y-58703770D01*
X159096237Y-58705543D01*
X159096238Y-58705544D01*
X159105464Y-58709594D01*
X159297248Y-58793782D01*
X159301534Y-58794811D01*
X159301537Y-58794812D01*
X159452018Y-58830939D01*
X159514998Y-58846059D01*
X159519390Y-58846312D01*
X159519395Y-58846313D01*
X159641267Y-58853339D01*
X159738564Y-58858949D01*
X159742934Y-58858420D01*
X159742939Y-58858420D01*
X159902357Y-58839128D01*
X159960880Y-58832046D01*
X159965085Y-58830753D01*
X159965087Y-58830752D01*
X160073938Y-58797265D01*
X160174917Y-58766200D01*
X160178836Y-58764177D01*
X160178839Y-58764176D01*
X160289187Y-58707221D01*
X160373912Y-58663491D01*
X160494627Y-58570863D01*
X160548069Y-58529856D01*
X160548071Y-58529854D01*
X160551573Y-58527167D01*
X160643534Y-58426104D01*
X160699315Y-58364801D01*
X160702286Y-58361536D01*
X160821286Y-58171833D01*
X160904812Y-57964056D01*
X160910041Y-57938806D01*
X160949488Y-57748328D01*
X160949489Y-57748322D01*
X160950224Y-57744772D01*
X160953500Y-57687952D01*
X160953500Y-55543181D01*
X160938664Y-55376949D01*
X160879573Y-55160949D01*
X160875887Y-55153221D01*
X160785065Y-54962806D01*
X160785062Y-54962800D01*
X160783166Y-54958826D01*
X160652489Y-54776970D01*
X160645813Y-54770500D01*
X160552898Y-54680459D01*
X160491674Y-54621129D01*
X160305803Y-54496230D01*
X160100752Y-54406218D01*
X160096466Y-54405189D01*
X160096463Y-54405188D01*
X159887284Y-54354969D01*
X159883002Y-54353941D01*
X159878610Y-54353688D01*
X159878605Y-54353687D01*
X159756733Y-54346661D01*
X159659436Y-54341051D01*
X159655066Y-54341580D01*
X159655061Y-54341580D01*
X159506374Y-54359573D01*
X159437120Y-54367954D01*
X159432915Y-54369247D01*
X159432913Y-54369248D01*
X159367925Y-54389241D01*
X159223083Y-54433800D01*
X159219164Y-54435823D01*
X159219161Y-54435824D01*
X159158637Y-54467063D01*
X159024088Y-54536509D01*
X158951126Y-54592495D01*
X158901292Y-54630734D01*
X158846427Y-54672833D01*
X158843455Y-54676099D01*
X158843453Y-54676101D01*
X158748408Y-54780554D01*
X158695714Y-54838464D01*
X158576714Y-55028167D01*
X158493188Y-55235944D01*
X158492294Y-55240261D01*
X158448680Y-55450864D01*
X158447776Y-55455228D01*
X158444500Y-55512048D01*
X158444500Y-57656819D01*
X154954000Y-57656819D01*
X154954000Y-56742680D01*
X154949878Y-56729995D01*
X154945757Y-56727000D01*
X153842680Y-56727000D01*
X153829995Y-56731122D01*
X153827000Y-56735243D01*
X153827000Y-59082185D01*
X153573000Y-59082185D01*
X153573000Y-56742680D01*
X153568878Y-56729995D01*
X153564757Y-56727000D01*
X152461680Y-56727000D01*
X152448995Y-56731122D01*
X152446000Y-56735243D01*
X152446000Y-57904592D01*
X144029500Y-57904592D01*
X144029500Y-56457320D01*
X152446000Y-56457320D01*
X152450122Y-56470005D01*
X152454243Y-56473000D01*
X153557320Y-56473000D01*
X153570005Y-56468878D01*
X153573000Y-56464757D01*
X153573000Y-56457320D01*
X153827000Y-56457320D01*
X153831122Y-56470005D01*
X153835243Y-56473000D01*
X154938320Y-56473000D01*
X154951005Y-56468878D01*
X154954000Y-56464757D01*
X154954000Y-55295408D01*
X154953804Y-55291007D01*
X154939562Y-55131429D01*
X154938006Y-55122784D01*
X154881267Y-54915380D01*
X154878205Y-54907144D01*
X154785632Y-54713060D01*
X154781161Y-54705501D01*
X154655680Y-54530876D01*
X154649944Y-54524231D01*
X154495523Y-54374587D01*
X154488699Y-54369061D01*
X154310220Y-54249127D01*
X154302527Y-54244898D01*
X154105621Y-54158463D01*
X154097313Y-54155667D01*
X153888212Y-54105466D01*
X153879531Y-54104184D01*
X153842654Y-54102058D01*
X153829752Y-54105443D01*
X153827386Y-54108333D01*
X153827000Y-54110385D01*
X153827000Y-56457320D01*
X153573000Y-56457320D01*
X153573000Y-54117815D01*
X153568878Y-54105130D01*
X153567200Y-54103910D01*
X153562280Y-54103432D01*
X153442599Y-54117916D01*
X153434016Y-54119740D01*
X153228486Y-54182969D01*
X153220350Y-54186289D01*
X153029283Y-54284907D01*
X153021852Y-54289622D01*
X152851264Y-54420519D01*
X152844800Y-54426462D01*
X152700075Y-54585514D01*
X152694776Y-54592495D01*
X152580502Y-54774663D01*
X152576518Y-54782482D01*
X152496313Y-54982000D01*
X152493775Y-54990406D01*
X152450012Y-55201729D01*
X152449066Y-55208911D01*
X152446082Y-55260668D01*
X152446000Y-55263509D01*
X152446000Y-56457320D01*
X144029500Y-56457320D01*
X144029500Y-54098202D01*
X144048407Y-54040011D01*
X144058496Y-54028198D01*
X145328198Y-52758496D01*
X145382715Y-52730719D01*
X145398202Y-52729500D01*
X146250102Y-52729500D01*
X146310369Y-52749958D01*
X146335361Y-52769135D01*
X146415211Y-52830407D01*
X146415215Y-52830409D01*
X146420357Y-52834355D01*
X146555246Y-52890228D01*
X146700000Y-52909285D01*
X146844754Y-52890228D01*
X146979643Y-52834355D01*
X146984785Y-52830409D01*
X146984789Y-52830407D01*
X147090328Y-52749423D01*
X147090329Y-52749422D01*
X147095474Y-52745474D01*
X147184355Y-52629642D01*
X147240228Y-52494754D01*
X147259285Y-52350000D01*
X147240228Y-52205246D01*
X147184355Y-52070358D01*
X147095474Y-51954526D01*
X147090328Y-51950577D01*
X146984789Y-51869593D01*
X146984785Y-51869591D01*
X146979643Y-51865645D01*
X146844754Y-51809772D01*
X146700000Y-51790715D01*
X146555246Y-51809772D01*
X146420358Y-51865645D01*
X146378830Y-51897511D01*
X146310370Y-51950042D01*
X146250103Y-51970500D01*
X145251047Y-51970500D01*
X145230209Y-51968282D01*
X145226124Y-51967402D01*
X145226121Y-51967402D01*
X145218124Y-51965680D01*
X145183196Y-51969814D01*
X145175031Y-51970295D01*
X145172554Y-51970500D01*
X145168476Y-51970500D01*
X145156403Y-51972510D01*
X145148818Y-51973772D01*
X145144199Y-51974430D01*
X145118582Y-51977462D01*
X145092659Y-51980530D01*
X145085777Y-51983835D01*
X145082908Y-51984742D01*
X145075374Y-51985996D01*
X145029703Y-52010639D01*
X145025553Y-52012753D01*
X144978768Y-52035219D01*
X144974492Y-52038814D01*
X144972991Y-52040315D01*
X144972146Y-52041090D01*
X144970158Y-52042768D01*
X144964186Y-52045990D01*
X144936119Y-52076353D01*
X144927254Y-52085943D01*
X144924560Y-52088746D01*
X143417746Y-53595560D01*
X143401445Y-53608723D01*
X143391060Y-53615429D01*
X143385996Y-53621853D01*
X143369288Y-53643047D01*
X143363852Y-53649165D01*
X143362249Y-53651057D01*
X143359362Y-53653944D01*
X143356987Y-53657268D01*
X143347773Y-53670161D01*
X143344973Y-53673891D01*
X143312844Y-53714647D01*
X143310317Y-53721844D01*
X143308927Y-53724519D01*
X143304486Y-53730734D01*
X143302142Y-53738572D01*
X143289615Y-53780459D01*
X143288174Y-53784894D01*
X143275097Y-53822134D01*
X143270982Y-53833851D01*
X143270500Y-53839416D01*
X143270500Y-53841559D01*
X143270452Y-53842673D01*
X143270232Y-53845274D01*
X143268287Y-53851778D01*
X143268608Y-53859954D01*
X143268608Y-53859956D01*
X143270424Y-53906170D01*
X143270500Y-53910057D01*
X143270500Y-58701798D01*
X143251593Y-58759989D01*
X143241504Y-58771802D01*
X142821802Y-59191504D01*
X142767285Y-59219281D01*
X142751798Y-59220500D01*
X142569291Y-59220500D01*
X142511100Y-59201593D01*
X142475136Y-59152093D01*
X142475136Y-59090907D01*
X142511100Y-59041407D01*
X142528970Y-59031083D01*
X142577093Y-59009623D01*
X142577094Y-59009623D01*
X142581535Y-59007642D01*
X142608381Y-58988645D01*
X142629099Y-58973985D01*
X142629104Y-58973981D01*
X142631481Y-58972299D01*
X142676790Y-58931454D01*
X142727364Y-58843738D01*
X142733427Y-58825843D01*
X142745751Y-58789467D01*
X142745752Y-58789462D01*
X142746997Y-58785788D01*
X142747651Y-58781967D01*
X142747653Y-58781960D01*
X142760043Y-58709594D01*
X142760699Y-58705763D01*
X142760862Y-58692779D01*
X142958202Y-42905502D01*
X142958202Y-42905495D01*
X142958227Y-42903480D01*
X142955302Y-42861250D01*
X142950465Y-42829420D01*
X142946240Y-42807827D01*
X142903850Y-42715876D01*
X142867886Y-42666376D01*
X142865916Y-42664245D01*
X142865912Y-42664240D01*
X142849059Y-42646009D01*
X142826477Y-42621581D01*
X142814805Y-42615045D01*
X142742381Y-42574485D01*
X142742378Y-42574484D01*
X142738134Y-42572107D01*
X142698128Y-42559108D01*
X142683646Y-42554403D01*
X142683644Y-42554403D01*
X142679943Y-42553200D01*
X142676099Y-42552591D01*
X142676094Y-42552590D01*
X142603603Y-42541109D01*
X142603598Y-42541109D01*
X142599755Y-42540500D01*
X110425975Y-42540500D01*
X110425975Y-42540393D01*
X110367654Y-42524007D01*
X110329727Y-42475995D01*
X110323577Y-42442373D01*
X110315292Y-41328036D01*
X110311769Y-40854235D01*
X110330243Y-40795906D01*
X110379474Y-40759575D01*
X110410766Y-40754500D01*
X149341500Y-40754500D01*
X149399691Y-40773407D01*
G37*
%TD.AperFunction*%
%TD*%
%TA.AperFunction,Conductor*%
%TO.N,SW*%
G36*
X153606191Y-43918907D02*
G01*
X153642155Y-43968407D01*
X153647000Y-43999000D01*
X153647000Y-44557320D01*
X153651122Y-44570005D01*
X153655243Y-44573000D01*
X155339319Y-44573000D01*
X155352004Y-44568878D01*
X155354999Y-44564757D01*
X155354999Y-43999000D01*
X155373906Y-43940809D01*
X155423406Y-43904845D01*
X155453999Y-43900000D01*
X155551000Y-43900000D01*
X155609191Y-43918907D01*
X155645155Y-43968407D01*
X155650000Y-43999000D01*
X155650000Y-49007013D01*
X155631093Y-49065204D01*
X155618592Y-49079348D01*
X152628536Y-51873335D01*
X152573109Y-51899250D01*
X152560944Y-51900000D01*
X149499621Y-51900000D01*
X149441430Y-51881093D01*
X149405466Y-51831593D01*
X149400623Y-51800381D01*
X149439950Y-45507931D01*
X149440190Y-45469530D01*
X153647001Y-45469530D01*
X153647220Y-45474176D01*
X153649305Y-45496238D01*
X153651870Y-45507931D01*
X153690662Y-45618394D01*
X153697509Y-45631327D01*
X153766249Y-45724394D01*
X153776606Y-45734751D01*
X153869673Y-45803491D01*
X153882606Y-45810338D01*
X153993064Y-45849128D01*
X154004766Y-45851696D01*
X154026830Y-45853782D01*
X154031466Y-45854000D01*
X154358320Y-45854000D01*
X154371005Y-45849878D01*
X154374000Y-45845757D01*
X154374000Y-45838319D01*
X154628000Y-45838319D01*
X154632122Y-45851004D01*
X154636243Y-45853999D01*
X154970530Y-45853999D01*
X154975176Y-45853780D01*
X154997238Y-45851695D01*
X155008931Y-45849130D01*
X155119394Y-45810338D01*
X155132327Y-45803491D01*
X155225394Y-45734751D01*
X155235751Y-45724394D01*
X155304491Y-45631327D01*
X155311338Y-45618394D01*
X155350128Y-45507936D01*
X155352696Y-45496234D01*
X155354782Y-45474170D01*
X155355000Y-45469534D01*
X155355000Y-44842680D01*
X155350878Y-44829995D01*
X155346757Y-44827000D01*
X154643680Y-44827000D01*
X154630995Y-44831122D01*
X154628000Y-44835243D01*
X154628000Y-45838319D01*
X154374000Y-45838319D01*
X154374000Y-44842680D01*
X154369878Y-44829995D01*
X154365757Y-44827000D01*
X153662681Y-44827000D01*
X153649996Y-44831122D01*
X153647001Y-44835243D01*
X153647001Y-45469530D01*
X149440190Y-45469530D01*
X149449385Y-43998381D01*
X149468656Y-43940310D01*
X149518379Y-43904656D01*
X149548383Y-43900000D01*
X153548000Y-43900000D01*
X153606191Y-43918907D01*
G37*
%TD.AperFunction*%
%TD*%
%TA.AperFunction,Conductor*%
%TO.N,A_in*%
G36*
X94128570Y-40773407D02*
G01*
X94164534Y-40822907D01*
X94164534Y-40884093D01*
X94128570Y-40933593D01*
X94112218Y-40943225D01*
X93944954Y-41021221D01*
X93765143Y-41147126D01*
X93609926Y-41302343D01*
X93484021Y-41482154D01*
X93391253Y-41681097D01*
X93334439Y-41893126D01*
X93315308Y-42111800D01*
X93334439Y-42330474D01*
X93391253Y-42542503D01*
X93484021Y-42741446D01*
X93609926Y-42921257D01*
X93765143Y-43076474D01*
X93944954Y-43202379D01*
X94143897Y-43295147D01*
X94148059Y-43296262D01*
X94148064Y-43296264D01*
X94351753Y-43350843D01*
X94351755Y-43350843D01*
X94355926Y-43351961D01*
X94574600Y-43371092D01*
X94578909Y-43370715D01*
X94788965Y-43352338D01*
X94793274Y-43351961D01*
X94797445Y-43350843D01*
X94797447Y-43350843D01*
X95001136Y-43296264D01*
X95001141Y-43296262D01*
X95005303Y-43295147D01*
X95204246Y-43202379D01*
X95384057Y-43076474D01*
X95539274Y-42921257D01*
X95665179Y-42741446D01*
X95757947Y-42542503D01*
X95814761Y-42330474D01*
X95833892Y-42111800D01*
X95814761Y-41893126D01*
X95757947Y-41681097D01*
X95665179Y-41482154D01*
X95539274Y-41302343D01*
X95384057Y-41147126D01*
X95204246Y-41021221D01*
X95036982Y-40943225D01*
X94992234Y-40901496D01*
X94980559Y-40841435D01*
X95006417Y-40785982D01*
X95059931Y-40756319D01*
X95078821Y-40754500D01*
X104070379Y-40754500D01*
X104128570Y-40773407D01*
X104164534Y-40822907D01*
X104164534Y-40884093D01*
X104128570Y-40933593D01*
X104112218Y-40943225D01*
X103944954Y-41021221D01*
X103765143Y-41147126D01*
X103609926Y-41302343D01*
X103484021Y-41482154D01*
X103391253Y-41681097D01*
X103334439Y-41893126D01*
X103315308Y-42111800D01*
X103334439Y-42330474D01*
X103391253Y-42542503D01*
X103484021Y-42741446D01*
X103609926Y-42921257D01*
X103765143Y-43076474D01*
X103944954Y-43202379D01*
X104143897Y-43295147D01*
X104148059Y-43296262D01*
X104148064Y-43296264D01*
X104351753Y-43350843D01*
X104351755Y-43350843D01*
X104355926Y-43351961D01*
X104574600Y-43371092D01*
X104578909Y-43370715D01*
X104788965Y-43352338D01*
X104793274Y-43351961D01*
X104797445Y-43350843D01*
X104797447Y-43350843D01*
X105001136Y-43296264D01*
X105001141Y-43296262D01*
X105005303Y-43295147D01*
X105204246Y-43202379D01*
X105384057Y-43076474D01*
X105539274Y-42921257D01*
X105665179Y-42741446D01*
X105757947Y-42542503D01*
X105814761Y-42330474D01*
X105833892Y-42111800D01*
X105814761Y-41893126D01*
X105757947Y-41681097D01*
X105665179Y-41482154D01*
X105539274Y-41302343D01*
X105384057Y-41147126D01*
X105204246Y-41021221D01*
X105036982Y-40943225D01*
X104992234Y-40901496D01*
X104980559Y-40841435D01*
X105006417Y-40785982D01*
X105059931Y-40756319D01*
X105078821Y-40754500D01*
X109953254Y-40754500D01*
X110011445Y-40773407D01*
X110047409Y-40822907D01*
X110052251Y-40852764D01*
X110052484Y-40884093D01*
X110070397Y-43293323D01*
X110149269Y-53901621D01*
X110130795Y-53959951D01*
X110081564Y-53996282D01*
X110051631Y-54001348D01*
X106600902Y-54048618D01*
X106542459Y-54030509D01*
X106505820Y-53981506D01*
X106500548Y-53949089D01*
X106549915Y-44865677D01*
X106549915Y-44865676D01*
X106550000Y-44850000D01*
X106541593Y-44849835D01*
X88797059Y-44501903D01*
X88739250Y-44481859D01*
X88704264Y-44431663D01*
X88700000Y-44402922D01*
X88700000Y-40853500D01*
X88718907Y-40795309D01*
X88768407Y-40759345D01*
X88799000Y-40754500D01*
X94070379Y-40754500D01*
X94128570Y-40773407D01*
G37*
%TD.AperFunction*%
%TD*%
%TA.AperFunction,Conductor*%
%TO.N,FB*%
G36*
X155167998Y-40773407D02*
G01*
X155203962Y-40822907D01*
X155208776Y-40851024D01*
X155213262Y-41030469D01*
X155195815Y-41089114D01*
X155147229Y-41126304D01*
X155081491Y-41126351D01*
X155008936Y-41100872D01*
X154997234Y-41098304D01*
X154975170Y-41096218D01*
X154970534Y-41096000D01*
X154643680Y-41096000D01*
X154630995Y-41100122D01*
X154628000Y-41104243D01*
X154628000Y-42278000D01*
X154609093Y-42336191D01*
X154559593Y-42372155D01*
X154529000Y-42377000D01*
X153662681Y-42377000D01*
X153649996Y-42381122D01*
X153647001Y-42385243D01*
X153647001Y-43019530D01*
X153647220Y-43024176D01*
X153649305Y-43046238D01*
X153651870Y-43057931D01*
X153690662Y-43168394D01*
X153697509Y-43181327D01*
X153766249Y-43274394D01*
X153776606Y-43284751D01*
X153869673Y-43353491D01*
X153882604Y-43360337D01*
X153942373Y-43381327D01*
X153991012Y-43418448D01*
X154008543Y-43477068D01*
X153988269Y-43534797D01*
X153942372Y-43568143D01*
X153875388Y-43591666D01*
X153869437Y-43596061D01*
X153869436Y-43596062D01*
X153782291Y-43660429D01*
X153724251Y-43679793D01*
X153686403Y-43672033D01*
X153686379Y-43672107D01*
X153685720Y-43671893D01*
X153685721Y-43671893D01*
X153628188Y-43653200D01*
X153624344Y-43652591D01*
X153624339Y-43652590D01*
X153551848Y-43641109D01*
X153551843Y-43641109D01*
X153548000Y-43640500D01*
X149799000Y-43640500D01*
X149740809Y-43621593D01*
X149704845Y-43572093D01*
X149700000Y-43541500D01*
X149700000Y-42107320D01*
X153647000Y-42107320D01*
X153651122Y-42120005D01*
X153655243Y-42123000D01*
X154358320Y-42123000D01*
X154371005Y-42118878D01*
X154374000Y-42114757D01*
X154374000Y-41111681D01*
X154369878Y-41098996D01*
X154365757Y-41096001D01*
X154031470Y-41096001D01*
X154026824Y-41096220D01*
X154004762Y-41098305D01*
X153993069Y-41100870D01*
X153882606Y-41139662D01*
X153869673Y-41146509D01*
X153776606Y-41215249D01*
X153766249Y-41225606D01*
X153697509Y-41318673D01*
X153690662Y-41331606D01*
X153651872Y-41442064D01*
X153649304Y-41453766D01*
X153647218Y-41475830D01*
X153647000Y-41480466D01*
X153647000Y-42107320D01*
X149700000Y-42107320D01*
X149700000Y-40853500D01*
X149718907Y-40795309D01*
X149768407Y-40759345D01*
X149799000Y-40754500D01*
X155109807Y-40754500D01*
X155167998Y-40773407D01*
G37*
%TD.AperFunction*%
%TD*%
%TA.AperFunction,Conductor*%
%TO.N,C_out*%
G36*
X161562757Y-40773407D02*
G01*
X161598721Y-40822907D01*
X161603562Y-40852624D01*
X161638734Y-44827000D01*
X161647797Y-45851004D01*
X161649108Y-45999195D01*
X161630717Y-46057551D01*
X161581537Y-46093951D01*
X161549197Y-46099067D01*
X156345468Y-46050884D01*
X156287455Y-46031438D01*
X156251951Y-45981608D01*
X156247421Y-45954563D01*
X156234312Y-45469530D01*
X156646001Y-45469530D01*
X156646220Y-45474176D01*
X156648305Y-45496238D01*
X156650870Y-45507931D01*
X156689662Y-45618394D01*
X156696509Y-45631327D01*
X156765249Y-45724394D01*
X156775606Y-45734751D01*
X156868673Y-45803491D01*
X156881606Y-45810338D01*
X156992064Y-45849128D01*
X157003766Y-45851696D01*
X157025830Y-45853782D01*
X157030466Y-45854000D01*
X157357320Y-45854000D01*
X157370005Y-45849878D01*
X157373000Y-45845757D01*
X157373000Y-45838319D01*
X157627000Y-45838319D01*
X157631122Y-45851004D01*
X157635243Y-45853999D01*
X157969530Y-45853999D01*
X157974176Y-45853780D01*
X157996238Y-45851695D01*
X158007931Y-45849130D01*
X158118394Y-45810338D01*
X158131327Y-45803491D01*
X158224394Y-45734751D01*
X158234751Y-45724394D01*
X158303491Y-45631327D01*
X158310338Y-45618394D01*
X158349128Y-45507936D01*
X158351696Y-45496234D01*
X158353782Y-45474170D01*
X158354000Y-45469534D01*
X158354000Y-44842680D01*
X158349878Y-44829995D01*
X158345757Y-44827000D01*
X157642680Y-44827000D01*
X157629995Y-44831122D01*
X157627000Y-44835243D01*
X157627000Y-45838319D01*
X157373000Y-45838319D01*
X157373000Y-44842680D01*
X157368878Y-44829995D01*
X157364757Y-44827000D01*
X156661681Y-44827000D01*
X156648996Y-44831122D01*
X156646001Y-44835243D01*
X156646001Y-45469530D01*
X156234312Y-45469530D01*
X156209658Y-44557320D01*
X156646000Y-44557320D01*
X156650122Y-44570005D01*
X156654243Y-44573000D01*
X158338319Y-44573000D01*
X158351004Y-44568878D01*
X158353999Y-44564757D01*
X158353999Y-43930470D01*
X158353780Y-43925824D01*
X158351695Y-43903762D01*
X158349130Y-43892069D01*
X158310338Y-43781606D01*
X158303491Y-43768673D01*
X158234751Y-43675606D01*
X158224394Y-43665249D01*
X158131327Y-43596509D01*
X158118394Y-43589662D01*
X158057873Y-43568408D01*
X158009234Y-43531288D01*
X157991702Y-43472668D01*
X158011975Y-43414938D01*
X158057873Y-43381592D01*
X158118394Y-43360338D01*
X158131327Y-43353491D01*
X158224394Y-43284751D01*
X158234751Y-43274394D01*
X158303491Y-43181327D01*
X158310338Y-43168394D01*
X158349128Y-43057936D01*
X158351696Y-43046234D01*
X158353782Y-43024170D01*
X158354000Y-43019534D01*
X158354000Y-42392680D01*
X158349878Y-42379995D01*
X158345757Y-42377000D01*
X156661681Y-42377000D01*
X156648996Y-42381122D01*
X156646001Y-42385243D01*
X156646001Y-43019530D01*
X156646220Y-43024176D01*
X156648305Y-43046238D01*
X156650870Y-43057931D01*
X156689662Y-43168394D01*
X156696509Y-43181327D01*
X156765249Y-43274394D01*
X156775606Y-43284751D01*
X156868673Y-43353491D01*
X156881606Y-43360338D01*
X156942127Y-43381592D01*
X156990766Y-43418712D01*
X157008298Y-43477332D01*
X156988025Y-43535062D01*
X156942127Y-43568408D01*
X156881606Y-43589662D01*
X156868673Y-43596509D01*
X156775606Y-43665249D01*
X156765249Y-43675606D01*
X156696509Y-43768673D01*
X156689662Y-43781606D01*
X156650872Y-43892064D01*
X156648304Y-43903766D01*
X156646218Y-43925830D01*
X156646000Y-43930466D01*
X156646000Y-44557320D01*
X156209658Y-44557320D01*
X156168221Y-43024170D01*
X156143441Y-42107320D01*
X156646000Y-42107320D01*
X156650122Y-42120005D01*
X156654243Y-42123000D01*
X157357320Y-42123000D01*
X157370005Y-42118878D01*
X157373000Y-42114757D01*
X157373000Y-42107320D01*
X157627000Y-42107320D01*
X157631122Y-42120005D01*
X157635243Y-42123000D01*
X158338319Y-42123000D01*
X158351004Y-42118878D01*
X158353999Y-42114757D01*
X158353999Y-41480470D01*
X158353780Y-41475824D01*
X158351695Y-41453762D01*
X158349130Y-41442069D01*
X158310338Y-41331606D01*
X158303491Y-41318673D01*
X158234751Y-41225606D01*
X158224394Y-41215249D01*
X158131327Y-41146509D01*
X158118394Y-41139662D01*
X158007936Y-41100872D01*
X157996234Y-41098304D01*
X157974170Y-41096218D01*
X157969534Y-41096000D01*
X157642680Y-41096000D01*
X157629995Y-41100122D01*
X157627000Y-41104243D01*
X157627000Y-42107320D01*
X157373000Y-42107320D01*
X157373000Y-41111681D01*
X157368878Y-41098996D01*
X157364757Y-41096001D01*
X157030470Y-41096001D01*
X157025824Y-41096220D01*
X157003762Y-41098305D01*
X156992069Y-41100870D01*
X156881606Y-41139662D01*
X156868673Y-41146509D01*
X156775606Y-41215249D01*
X156765249Y-41225606D01*
X156696509Y-41318673D01*
X156689662Y-41331606D01*
X156650872Y-41442064D01*
X156648304Y-41453766D01*
X156646218Y-41475830D01*
X156646000Y-41480466D01*
X156646000Y-42107320D01*
X156143441Y-42107320D01*
X156109626Y-40856174D01*
X156126954Y-40797494D01*
X156175465Y-40760206D01*
X156208590Y-40754500D01*
X161504566Y-40754500D01*
X161562757Y-40773407D01*
G37*
%TD.AperFunction*%
%TD*%
%TA.AperFunction,Conductor*%
%TO.N,Thermal*%
G36*
X142657946Y-42818907D02*
G01*
X142693910Y-42868407D01*
X142698747Y-42900237D01*
X142555884Y-54329322D01*
X142501219Y-58702520D01*
X142481586Y-58760470D01*
X142431640Y-58795813D01*
X142402517Y-58800283D01*
X108098672Y-58899714D01*
X108040427Y-58880975D01*
X108004319Y-58831579D01*
X107999387Y-58801329D01*
X107971973Y-54387629D01*
X107990518Y-54329322D01*
X108039794Y-54293051D01*
X108069612Y-54288023D01*
X110055185Y-54260824D01*
X110069498Y-54259522D01*
X110093047Y-54257381D01*
X110093057Y-54257380D01*
X110094934Y-54257209D01*
X110124867Y-54252143D01*
X110144018Y-54248154D01*
X110149265Y-54245688D01*
X110149267Y-54245687D01*
X110231248Y-54207151D01*
X110235652Y-54205081D01*
X110284883Y-54168750D01*
X110300302Y-54154283D01*
X110323687Y-54132342D01*
X110323689Y-54132339D01*
X110329369Y-54127010D01*
X110378184Y-54038303D01*
X110396658Y-53979973D01*
X110408762Y-53899692D01*
X110395951Y-52176588D01*
X110326978Y-42899736D01*
X110345452Y-42841406D01*
X110394683Y-42805075D01*
X110425975Y-42800000D01*
X142599755Y-42800000D01*
X142657946Y-42818907D01*
G37*
%TD.AperFunction*%
%TD*%
%TA.AperFunction,Conductor*%
%TO.N,GND*%
G36*
X88399691Y-40773407D02*
G01*
X88435655Y-40822907D01*
X88440500Y-40853500D01*
X88440500Y-44402922D01*
X88443310Y-44441004D01*
X88447574Y-44469745D01*
X88450794Y-44487281D01*
X88491372Y-44580046D01*
X88526358Y-44630242D01*
X88566884Y-44675844D01*
X88654239Y-44727039D01*
X88712048Y-44747083D01*
X88715873Y-44747766D01*
X88715877Y-44747767D01*
X88764256Y-44756404D01*
X88791972Y-44761353D01*
X101979321Y-45019928D01*
X102037129Y-45039972D01*
X102072115Y-45090168D01*
X102076366Y-45120486D01*
X101992937Y-50355710D01*
X101983454Y-50950793D01*
X101976829Y-51366487D01*
X101969140Y-51403194D01*
X101906100Y-51553528D01*
X101905196Y-51557090D01*
X101905194Y-51557094D01*
X101876094Y-51671680D01*
X101841910Y-51806280D01*
X101815783Y-52065744D01*
X101815959Y-52069410D01*
X101815959Y-52069412D01*
X101824732Y-52252069D01*
X101828294Y-52326219D01*
X101879169Y-52581985D01*
X101880409Y-52585440D01*
X101880410Y-52585442D01*
X101948032Y-52773785D01*
X101953843Y-52808816D01*
X101951604Y-52949355D01*
X101931773Y-53007237D01*
X101881706Y-53042408D01*
X101849397Y-53046726D01*
X101793942Y-53044921D01*
X101236747Y-53026787D01*
X101179202Y-53005996D01*
X101144867Y-52955353D01*
X101146857Y-52894200D01*
X101149703Y-52887178D01*
X101226406Y-52716905D01*
X101226408Y-52716900D01*
X101227914Y-52713557D01*
X101232549Y-52697122D01*
X101297702Y-52466108D01*
X101297703Y-52466105D01*
X101298699Y-52462572D01*
X101331609Y-52203881D01*
X101333742Y-52122407D01*
X101333955Y-52114292D01*
X101333955Y-52114287D01*
X101334020Y-52111800D01*
X101314694Y-51851741D01*
X101257142Y-51597395D01*
X101238763Y-51550132D01*
X101163957Y-51357770D01*
X101162627Y-51354350D01*
X101033225Y-51127945D01*
X100871780Y-50923153D01*
X100869107Y-50920639D01*
X100869102Y-50920633D01*
X100729768Y-50789561D01*
X100681839Y-50744474D01*
X100467573Y-50595832D01*
X100233690Y-50480494D01*
X99985328Y-50400993D01*
X99981713Y-50400404D01*
X99981712Y-50400404D01*
X99731561Y-50359664D01*
X99731560Y-50359664D01*
X99727944Y-50359075D01*
X99724281Y-50359027D01*
X99724280Y-50359027D01*
X99597567Y-50357369D01*
X99467190Y-50355662D01*
X99463562Y-50356156D01*
X99463558Y-50356156D01*
X99337993Y-50373245D01*
X99208796Y-50390828D01*
X98958438Y-50463800D01*
X98955100Y-50465339D01*
X98724951Y-50571439D01*
X98724945Y-50571442D01*
X98721616Y-50572977D01*
X98503533Y-50715958D01*
X98500800Y-50718397D01*
X98500799Y-50718398D01*
X98349572Y-50853373D01*
X98308979Y-50889604D01*
X98306632Y-50892426D01*
X98306631Y-50892427D01*
X98281077Y-50923153D01*
X98142229Y-51090100D01*
X98006945Y-51313040D01*
X97906100Y-51553528D01*
X97905196Y-51557089D01*
X97905195Y-51557091D01*
X97876094Y-51671680D01*
X97841910Y-51806280D01*
X97815783Y-52065744D01*
X97815959Y-52069410D01*
X97815959Y-52069412D01*
X97824732Y-52252069D01*
X97828294Y-52326219D01*
X97879169Y-52581985D01*
X97880409Y-52585440D01*
X97880410Y-52585442D01*
X97951823Y-52784343D01*
X97953692Y-52845500D01*
X97919257Y-52896075D01*
X97861670Y-52916751D01*
X97855438Y-52916745D01*
X97294542Y-52898491D01*
X97236997Y-52877700D01*
X97202662Y-52827057D01*
X97204652Y-52765904D01*
X97207497Y-52758883D01*
X97226409Y-52716900D01*
X97226413Y-52716889D01*
X97227914Y-52713557D01*
X97283383Y-52516878D01*
X97297702Y-52466108D01*
X97297703Y-52466105D01*
X97298699Y-52462572D01*
X97331609Y-52203881D01*
X97333742Y-52122407D01*
X97333955Y-52114292D01*
X97333955Y-52114287D01*
X97334020Y-52111800D01*
X97314694Y-51851741D01*
X97257142Y-51597395D01*
X97238763Y-51550132D01*
X97163957Y-51357770D01*
X97162627Y-51354350D01*
X97033225Y-51127945D01*
X96871780Y-50923153D01*
X96869107Y-50920639D01*
X96869102Y-50920633D01*
X96729768Y-50789561D01*
X96681839Y-50744474D01*
X96467573Y-50595832D01*
X96233690Y-50480494D01*
X95985328Y-50400993D01*
X95981713Y-50400404D01*
X95981712Y-50400404D01*
X95731561Y-50359664D01*
X95731560Y-50359664D01*
X95727944Y-50359075D01*
X95724281Y-50359027D01*
X95724280Y-50359027D01*
X95597567Y-50357369D01*
X95467190Y-50355662D01*
X95463562Y-50356156D01*
X95463558Y-50356156D01*
X95337993Y-50373245D01*
X95208796Y-50390828D01*
X94958438Y-50463800D01*
X94955100Y-50465339D01*
X94724951Y-50571439D01*
X94724945Y-50571442D01*
X94721616Y-50572977D01*
X94503533Y-50715958D01*
X94500800Y-50718397D01*
X94500799Y-50718398D01*
X94349572Y-50853373D01*
X94308979Y-50889604D01*
X94306632Y-50892426D01*
X94306631Y-50892427D01*
X94281077Y-50923153D01*
X94142229Y-51090100D01*
X94006945Y-51313040D01*
X93906100Y-51553528D01*
X93905196Y-51557089D01*
X93905195Y-51557091D01*
X93876094Y-51671680D01*
X93841910Y-51806280D01*
X93841542Y-51809935D01*
X93828574Y-51938718D01*
X93803932Y-51994721D01*
X93751077Y-52025545D01*
X93714585Y-52026580D01*
X93657946Y-52017609D01*
X93650207Y-52017000D01*
X93592680Y-52017000D01*
X93579995Y-52021122D01*
X93577000Y-52025243D01*
X93577000Y-52594000D01*
X93558093Y-52652191D01*
X93508593Y-52688155D01*
X93478000Y-52693000D01*
X92891680Y-52693000D01*
X92878994Y-52697122D01*
X92868915Y-52710994D01*
X92819415Y-52746957D01*
X92785603Y-52751750D01*
X92596832Y-52745607D01*
X91104382Y-52697036D01*
X91094320Y-52672745D01*
X91091837Y-52666751D01*
X91091861Y-52666741D01*
X91079725Y-52609655D01*
X91104610Y-52553758D01*
X91157597Y-52523164D01*
X91178183Y-52521000D01*
X91516965Y-52521000D01*
X91529650Y-52516878D01*
X91532645Y-52512757D01*
X91532645Y-52153000D01*
X91551552Y-52094809D01*
X91601052Y-52058845D01*
X91631645Y-52054000D01*
X91687645Y-52054000D01*
X91745836Y-52072907D01*
X91781800Y-52122407D01*
X91786645Y-52153000D01*
X91786645Y-52505320D01*
X91790767Y-52518005D01*
X91794888Y-52521000D01*
X92472964Y-52521000D01*
X92485649Y-52516878D01*
X92488644Y-52512757D01*
X92488644Y-52470100D01*
X92488035Y-52462358D01*
X92481852Y-52423320D01*
X92876000Y-52423320D01*
X92880122Y-52436005D01*
X92884243Y-52439000D01*
X93307320Y-52439000D01*
X93320005Y-52434878D01*
X93323000Y-52430757D01*
X93323000Y-52032680D01*
X93318878Y-52019995D01*
X93314757Y-52017000D01*
X93249793Y-52017000D01*
X93242054Y-52017609D01*
X93159578Y-52030672D01*
X93144943Y-52035427D01*
X93045501Y-52086095D01*
X93033056Y-52095137D01*
X92954137Y-52174056D01*
X92945095Y-52186501D01*
X92894427Y-52285943D01*
X92889672Y-52300578D01*
X92876609Y-52383054D01*
X92876000Y-52390793D01*
X92876000Y-52423320D01*
X92481852Y-52423320D01*
X92474880Y-52379295D01*
X92470125Y-52364662D01*
X92419098Y-52264514D01*
X92410056Y-52252069D01*
X92330576Y-52172589D01*
X92318131Y-52163547D01*
X92273385Y-52140748D01*
X92230120Y-52097483D01*
X92220549Y-52037051D01*
X92234741Y-51999491D01*
X92312273Y-51877320D01*
X92317092Y-51867440D01*
X92372007Y-51713220D01*
X92374517Y-51702521D01*
X92378208Y-51671568D01*
X92375617Y-51658486D01*
X92374061Y-51657045D01*
X92369307Y-51656000D01*
X89806338Y-51656000D01*
X89793653Y-51660122D01*
X89792188Y-51662137D01*
X89791746Y-51666348D01*
X89794424Y-51691833D01*
X89796788Y-51702579D01*
X89849540Y-51857538D01*
X89854225Y-51867496D01*
X89940004Y-52006926D01*
X89946769Y-52015585D01*
X90061308Y-52132548D01*
X90069831Y-52139499D01*
X90207433Y-52228177D01*
X90217279Y-52233065D01*
X90300947Y-52263518D01*
X90349162Y-52301188D01*
X90366027Y-52360003D01*
X90345100Y-52417499D01*
X90304974Y-52448011D01*
X90299394Y-52450322D01*
X90299387Y-52450326D01*
X90293395Y-52452808D01*
X90172341Y-52545696D01*
X90142066Y-52585152D01*
X90112701Y-52623421D01*
X90062277Y-52658077D01*
X90030942Y-52662102D01*
X87666482Y-52585152D01*
X85350280Y-52509772D01*
X85292735Y-52488982D01*
X85258400Y-52438338D01*
X85254500Y-52410824D01*
X85254500Y-51667873D01*
X85663431Y-51667873D01*
X85675424Y-51737664D01*
X85678651Y-51748630D01*
X85742987Y-51899829D01*
X85748645Y-51909748D01*
X85846041Y-52042095D01*
X85853834Y-52050452D01*
X85979058Y-52156838D01*
X85988570Y-52163181D01*
X86134908Y-52237906D01*
X86145618Y-52241889D01*
X86306535Y-52281265D01*
X86315214Y-52282585D01*
X86320389Y-52282906D01*
X86323423Y-52283000D01*
X86761965Y-52283000D01*
X86774650Y-52278878D01*
X86777645Y-52274757D01*
X86777645Y-52267320D01*
X87031645Y-52267320D01*
X87035767Y-52280005D01*
X87039888Y-52283000D01*
X87445805Y-52283000D01*
X87451517Y-52282668D01*
X87573566Y-52268439D01*
X87584694Y-52265808D01*
X87739146Y-52209745D01*
X87749367Y-52204627D01*
X87886783Y-52114532D01*
X87895544Y-52107207D01*
X88008551Y-51987915D01*
X88015396Y-51978766D01*
X88097930Y-51836673D01*
X88102482Y-51826203D01*
X88150112Y-51668938D01*
X88150301Y-51667888D01*
X88147942Y-51658734D01*
X88145148Y-51656427D01*
X88142904Y-51656000D01*
X87047325Y-51656000D01*
X87034640Y-51660122D01*
X87031645Y-51664243D01*
X87031645Y-52267320D01*
X86777645Y-52267320D01*
X86777645Y-51671680D01*
X86773523Y-51658995D01*
X86769402Y-51656000D01*
X85677071Y-51656000D01*
X85664386Y-51660122D01*
X85663947Y-51660726D01*
X85663431Y-51667873D01*
X85254500Y-51667873D01*
X85254500Y-51390112D01*
X85658989Y-51390112D01*
X85661348Y-51399266D01*
X85664142Y-51401573D01*
X85666386Y-51402000D01*
X86761965Y-51402000D01*
X86774650Y-51397878D01*
X86777645Y-51393757D01*
X86777645Y-51386320D01*
X87031645Y-51386320D01*
X87035767Y-51399005D01*
X87039888Y-51402000D01*
X88132219Y-51402000D01*
X88144904Y-51397878D01*
X88145343Y-51397274D01*
X88145859Y-51390127D01*
X88145224Y-51386432D01*
X89793082Y-51386432D01*
X89795673Y-51399514D01*
X89797229Y-51400955D01*
X89801983Y-51402000D01*
X90942965Y-51402000D01*
X90955650Y-51397878D01*
X90958645Y-51393757D01*
X90958645Y-51386320D01*
X91212645Y-51386320D01*
X91216767Y-51399005D01*
X91220888Y-51402000D01*
X92364952Y-51402000D01*
X92377637Y-51397878D01*
X92379102Y-51395863D01*
X92379544Y-51391651D01*
X92376866Y-51366167D01*
X92374502Y-51355421D01*
X92321750Y-51200462D01*
X92317065Y-51190504D01*
X92231286Y-51051074D01*
X92224521Y-51042415D01*
X92109982Y-50925452D01*
X92101459Y-50918501D01*
X91963857Y-50829823D01*
X91954011Y-50824935D01*
X91800180Y-50768945D01*
X91789486Y-50766358D01*
X91663087Y-50750390D01*
X91656899Y-50750000D01*
X91228325Y-50750000D01*
X91215640Y-50754122D01*
X91212645Y-50758243D01*
X91212645Y-51386320D01*
X90958645Y-51386320D01*
X90958645Y-50765680D01*
X90954523Y-50752995D01*
X90950402Y-50750000D01*
X90519475Y-50750000D01*
X90513946Y-50750309D01*
X90392472Y-50763935D01*
X90381735Y-50766374D01*
X90227146Y-50820207D01*
X90217228Y-50824959D01*
X90078401Y-50911708D01*
X90069784Y-50918538D01*
X89953626Y-51033887D01*
X89946732Y-51042463D01*
X89859020Y-51180674D01*
X89854198Y-51190560D01*
X89799283Y-51344780D01*
X89796773Y-51355479D01*
X89793082Y-51386432D01*
X88145224Y-51386432D01*
X88133866Y-51320336D01*
X88130639Y-51309370D01*
X88066303Y-51158171D01*
X88060645Y-51148252D01*
X87963249Y-51015905D01*
X87955456Y-51007548D01*
X87830232Y-50901162D01*
X87820720Y-50894819D01*
X87674382Y-50820094D01*
X87663672Y-50816111D01*
X87502755Y-50776735D01*
X87494076Y-50775415D01*
X87488901Y-50775094D01*
X87485867Y-50775000D01*
X87047325Y-50775000D01*
X87034640Y-50779122D01*
X87031645Y-50783243D01*
X87031645Y-51386320D01*
X86777645Y-51386320D01*
X86777645Y-50790680D01*
X86773523Y-50777995D01*
X86769402Y-50775000D01*
X86363485Y-50775000D01*
X86357773Y-50775332D01*
X86235724Y-50789561D01*
X86224596Y-50792192D01*
X86070144Y-50848255D01*
X86059923Y-50853373D01*
X85922507Y-50943468D01*
X85913746Y-50950793D01*
X85800739Y-51070085D01*
X85793894Y-51079234D01*
X85711360Y-51221327D01*
X85706808Y-51231797D01*
X85659178Y-51389062D01*
X85658989Y-51390112D01*
X85254500Y-51390112D01*
X85254500Y-40853500D01*
X85273407Y-40795309D01*
X85322907Y-40759345D01*
X85353500Y-40754500D01*
X88341500Y-40754500D01*
X88399691Y-40773407D01*
G37*
%TD.AperFunction*%
%TD*%
M02*
