%TF.GenerationSoftware,KiCad,Pcbnew,6.0.11+dfsg-1~bpo11+1*%
%TF.CreationDate,2023-04-14T13:04:02+02:00*%
%TF.ProjectId,IR-diode-general,49522d64-696f-4646-952d-67656e657261,rev?*%
%TF.SameCoordinates,Original*%
%TF.FileFunction,Paste,Top*%
%TF.FilePolarity,Positive*%
%FSLAX46Y46*%
G04 Gerber Fmt 4.6, Leading zero omitted, Abs format (unit mm)*
G04 Created by KiCad (PCBNEW 6.0.11+dfsg-1~bpo11+1) date 2023-04-14 13:04:02 commit 5e22265*
%MOMM*%
%LPD*%
G01*
G04 APERTURE LIST*
G04 Aperture macros list*
%AMRoundRect*
0 Rectangle with rounded corners*
0 $1 Rounding radius*
0 $2 $3 $4 $5 $6 $7 $8 $9 X,Y pos of 4 corners*
0 Add a 4 corners polygon primitive as box body*
4,1,4,$2,$3,$4,$5,$6,$7,$8,$9,$2,$3,0*
0 Add four circle primitives for the rounded corners*
1,1,$1+$1,$2,$3*
1,1,$1+$1,$4,$5*
1,1,$1+$1,$6,$7*
1,1,$1+$1,$8,$9*
0 Add four rect primitives between the rounded corners*
20,1,$1+$1,$2,$3,$4,$5,0*
20,1,$1+$1,$4,$5,$6,$7,0*
20,1,$1+$1,$6,$7,$8,$9,0*
20,1,$1+$1,$8,$9,$2,$3,0*%
G04 Aperture macros list end*
%TA.AperFunction,Profile*%
%ADD10C,0.100000*%
%TD*%
%ADD11RoundRect,0.147500X-0.172500X0.147500X-0.172500X-0.147500X0.172500X-0.147500X0.172500X0.147500X0*%
%ADD12RoundRect,0.147500X0.172500X-0.147500X0.172500X0.147500X-0.172500X0.147500X-0.172500X-0.147500X0*%
%ADD13RoundRect,0.150000X-0.425000X0.150000X-0.425000X-0.150000X0.425000X-0.150000X0.425000X0.150000X0*%
%ADD14RoundRect,0.075000X-0.500000X0.075000X-0.500000X-0.075000X0.500000X-0.075000X0.500000X0.075000X0*%
%ADD15RoundRect,0.180000X0.420000X0.720000X-0.420000X0.720000X-0.420000X-0.720000X0.420000X-0.720000X0*%
G04 APERTURE END LIST*
D10*
X85000000Y-40500000D02*
X165000000Y-40500000D01*
X165000000Y-40500000D02*
X165000000Y-61000000D01*
X165000000Y-61000000D02*
X85000000Y-61000000D01*
X85000000Y-61000000D02*
X85000000Y-40500000D01*
D11*
%TO.C,C13*%
X93450000Y-52566000D03*
X93450000Y-53534000D03*
%TD*%
D12*
%TO.C,R12*%
X96100000Y-56600000D03*
X96100000Y-55630000D03*
%TD*%
D13*
%TO.C,J2*%
X91659645Y-52648000D03*
X91659645Y-53450000D03*
D14*
X91659645Y-54600000D03*
X91659645Y-55600000D03*
X91659645Y-56098000D03*
X91659645Y-57099000D03*
D13*
X91659645Y-58248000D03*
X91659645Y-59050000D03*
X91659645Y-59050000D03*
X91659645Y-58248000D03*
D14*
X91659645Y-57599000D03*
X91659645Y-56598000D03*
X91659645Y-55100000D03*
X91659645Y-54100000D03*
D13*
X91659645Y-53450000D03*
X91659645Y-52648000D03*
%TD*%
D15*
%TO.C,R11*%
X157500000Y-44700000D03*
X154501000Y-44700000D03*
%TD*%
D12*
%TO.C,R13*%
X94850000Y-56600000D03*
X94850000Y-55630000D03*
%TD*%
%TO.C,C12*%
X93250000Y-59184000D03*
X93250000Y-58216000D03*
%TD*%
D11*
%TO.C,R6*%
X96100000Y-57865000D03*
X96100000Y-58835000D03*
%TD*%
D15*
%TO.C,R10*%
X157500000Y-42250000D03*
X154501000Y-42250000D03*
%TD*%
D12*
%TO.C,R14*%
X94850000Y-58750000D03*
X94850000Y-57780000D03*
%TD*%
M02*
