%TF.GenerationSoftware,KiCad,Pcbnew,6.0.11+dfsg-1~bpo11+1*%
%TF.CreationDate,2023-04-14T13:04:02+02:00*%
%TF.ProjectId,IR-diode-general,49522d64-696f-4646-952d-67656e657261,rev?*%
%TF.SameCoordinates,Original*%
%TF.FileFunction,Legend,Bot*%
%TF.FilePolarity,Positive*%
%FSLAX46Y46*%
G04 Gerber Fmt 4.6, Leading zero omitted, Abs format (unit mm)*
G04 Created by KiCad (PCBNEW 6.0.11+dfsg-1~bpo11+1) date 2023-04-14 13:04:02 commit 5e22265*
%MOMM*%
%LPD*%
G01*
G04 APERTURE LIST*
G04 Aperture macros list*
%AMRoundRect*
0 Rectangle with rounded corners*
0 $1 Rounding radius*
0 $2 $3 $4 $5 $6 $7 $8 $9 X,Y pos of 4 corners*
0 Add a 4 corners polygon primitive as box body*
4,1,4,$2,$3,$4,$5,$6,$7,$8,$9,$2,$3,0*
0 Add four circle primitives for the rounded corners*
1,1,$1+$1,$2,$3*
1,1,$1+$1,$4,$5*
1,1,$1+$1,$6,$7*
1,1,$1+$1,$8,$9*
0 Add four rect primitives between the rounded corners*
20,1,$1+$1,$2,$3,$4,$5,0*
20,1,$1+$1,$4,$5,$6,$7,0*
20,1,$1+$1,$6,$7,$8,$9,0*
20,1,$1+$1,$8,$9,$2,$3,0*%
%AMFreePoly0*
4,1,6,0.615000,-0.615000,-0.391294,-0.615000,-0.615000,-0.391294,-0.615000,0.615000,0.615000,0.615000,0.615000,-0.615000,0.615000,-0.615000,$1*%
G04 Aperture macros list end*
%ADD10C,0.150000*%
%TA.AperFunction,Profile*%
%ADD11C,0.100000*%
%TD*%
%ADD12C,0.145711*%
%ADD13C,0.120000*%
%ADD14C,0.100000*%
%ADD15C,0.161600*%
%ADD16C,0.254000*%
%ADD17C,0.125000*%
%ADD18O,2.000000X4.500000*%
%ADD19O,4.000000X1.990000*%
%ADD20O,2.000000X4.000000*%
%ADD21C,0.650000*%
%ADD22O,2.100000X1.050000*%
%ADD23O,2.000000X1.000000*%
%ADD24C,2.000000*%
%ADD25C,3.000000*%
%ADD26RoundRect,0.147500X-0.147500X-0.172500X0.147500X-0.172500X0.147500X0.172500X-0.147500X0.172500X0*%
%ADD27RoundRect,0.075000X-0.225000X0.075000X-0.225000X-0.075000X0.225000X-0.075000X0.225000X0.075000X0*%
%ADD28RoundRect,0.250000X0.850000X-0.375000X0.850000X0.375000X-0.850000X0.375000X-0.850000X-0.375000X0*%
%ADD29RoundRect,0.147500X-0.172500X0.147500X-0.172500X-0.147500X0.172500X-0.147500X0.172500X0.147500X0*%
%ADD30RoundRect,0.147500X0.147500X0.172500X-0.147500X0.172500X-0.147500X-0.172500X0.147500X-0.172500X0*%
%ADD31FreePoly0,0.000000*%
%ADD32FreePoly0,90.000000*%
%ADD33FreePoly0,180.000000*%
%ADD34FreePoly0,270.000000*%
%ADD35C,3.500000*%
%ADD36RoundRect,0.120000X0.280000X-0.180000X0.280000X0.180000X-0.280000X0.180000X-0.280000X-0.180000X0*%
%ADD37RoundRect,0.147500X0.172500X-0.147500X0.172500X0.147500X-0.172500X0.147500X-0.172500X-0.147500X0*%
%ADD38R,1.200000X1.200000*%
%ADD39R,0.807999X0.254800*%
%ADD40R,1.752600X2.540000*%
%ADD41RoundRect,0.120000X-0.180000X-0.280000X0.180000X-0.280000X0.180000X0.280000X-0.180000X0.280000X0*%
%ADD42RoundRect,0.120000X0.180000X0.280000X-0.180000X0.280000X-0.180000X-0.280000X0.180000X-0.280000X0*%
%ADD43RoundRect,0.180000X-0.720000X0.420000X-0.720000X-0.420000X0.720000X-0.420000X0.720000X0.420000X0*%
%ADD44R,1.550000X0.600000*%
%ADD45R,1.800000X1.200000*%
%ADD46RoundRect,0.200000X0.800000X0.850000X-0.800000X0.850000X-0.800000X-0.850000X0.800000X-0.850000X0*%
%ADD47RoundRect,0.180000X0.420000X0.720000X-0.420000X0.720000X-0.420000X-0.720000X0.420000X-0.720000X0*%
%ADD48R,0.800000X2.000000*%
G04 APERTURE END LIST*
D10*
X149850000Y-52550000D02*
X147150000Y-52550000D01*
X147150000Y-52550000D02*
X147150000Y-59650000D01*
X147150000Y-59650000D02*
X149850000Y-59650000D01*
X149850000Y-59650000D02*
X149850000Y-52550000D01*
D11*
X85000000Y-40500000D02*
X165000000Y-40500000D01*
X165000000Y-40500000D02*
X165000000Y-61000000D01*
X165000000Y-61000000D02*
X85000000Y-61000000D01*
X85000000Y-61000000D02*
X85000000Y-40500000D01*
D10*
X149416666Y-57566666D02*
X148716666Y-57566666D01*
X148716666Y-57733333D01*
X148750000Y-57833333D01*
X148816666Y-57900000D01*
X148883333Y-57933333D01*
X149016666Y-57966666D01*
X149116666Y-57966666D01*
X149250000Y-57933333D01*
X149316666Y-57900000D01*
X149383333Y-57833333D01*
X149416666Y-57733333D01*
X149416666Y-57566666D01*
X149050000Y-58500000D02*
X149083333Y-58600000D01*
X149116666Y-58633333D01*
X149183333Y-58666666D01*
X149283333Y-58666666D01*
X149350000Y-58633333D01*
X149383333Y-58600000D01*
X149416666Y-58533333D01*
X149416666Y-58266666D01*
X148716666Y-58266666D01*
X148716666Y-58500000D01*
X148750000Y-58566666D01*
X148783333Y-58600000D01*
X148850000Y-58633333D01*
X148916666Y-58633333D01*
X148983333Y-58600000D01*
X149016666Y-58566666D01*
X149050000Y-58500000D01*
X149050000Y-58266666D01*
X148750000Y-59333333D02*
X148716666Y-59266666D01*
X148716666Y-59166666D01*
X148750000Y-59066666D01*
X148816666Y-59000000D01*
X148883333Y-58966666D01*
X149016666Y-58933333D01*
X149116666Y-58933333D01*
X149250000Y-58966666D01*
X149316666Y-59000000D01*
X149383333Y-59066666D01*
X149416666Y-59166666D01*
X149416666Y-59233333D01*
X149383333Y-59333333D01*
X149350000Y-59366666D01*
X149116666Y-59366666D01*
X149116666Y-59233333D01*
%TO.C,R8*%
X98097500Y-43916666D02*
X98330833Y-43583333D01*
X98497500Y-43916666D02*
X98497500Y-43216666D01*
X98230833Y-43216666D01*
X98164166Y-43250000D01*
X98130833Y-43283333D01*
X98097500Y-43350000D01*
X98097500Y-43450000D01*
X98130833Y-43516666D01*
X98164166Y-43550000D01*
X98230833Y-43583333D01*
X98497500Y-43583333D01*
X97697500Y-43516666D02*
X97764166Y-43483333D01*
X97797500Y-43450000D01*
X97830833Y-43383333D01*
X97830833Y-43350000D01*
X97797500Y-43283333D01*
X97764166Y-43250000D01*
X97697500Y-43216666D01*
X97564166Y-43216666D01*
X97497500Y-43250000D01*
X97464166Y-43283333D01*
X97430833Y-43350000D01*
X97430833Y-43383333D01*
X97464166Y-43450000D01*
X97497500Y-43483333D01*
X97564166Y-43516666D01*
X97697500Y-43516666D01*
X97764166Y-43550000D01*
X97797500Y-43583333D01*
X97830833Y-43650000D01*
X97830833Y-43783333D01*
X97797500Y-43850000D01*
X97764166Y-43883333D01*
X97697500Y-43916666D01*
X97564166Y-43916666D01*
X97497500Y-43883333D01*
X97464166Y-43850000D01*
X97430833Y-43783333D01*
X97430833Y-43650000D01*
X97464166Y-43583333D01*
X97497500Y-43550000D01*
X97564166Y-43516666D01*
%TO.C,U2*%
X95216666Y-48164166D02*
X95783333Y-48164166D01*
X95850000Y-48197500D01*
X95883333Y-48230833D01*
X95916666Y-48297500D01*
X95916666Y-48430833D01*
X95883333Y-48497500D01*
X95850000Y-48530833D01*
X95783333Y-48564166D01*
X95216666Y-48564166D01*
X95283333Y-48864166D02*
X95250000Y-48897500D01*
X95216666Y-48964166D01*
X95216666Y-49130833D01*
X95250000Y-49197500D01*
X95283333Y-49230833D01*
X95350000Y-49264166D01*
X95416666Y-49264166D01*
X95516666Y-49230833D01*
X95916666Y-48830833D01*
X95916666Y-49264166D01*
%TO.C,L2*%
X102702380Y-46433333D02*
X102702380Y-45957142D01*
X101702380Y-45957142D01*
X101797619Y-46719047D02*
X101750000Y-46766666D01*
X101702380Y-46861904D01*
X101702380Y-47100000D01*
X101750000Y-47195238D01*
X101797619Y-47242857D01*
X101892857Y-47290476D01*
X101988095Y-47290476D01*
X102130952Y-47242857D01*
X102702380Y-46671428D01*
X102702380Y-47290476D01*
%TO.C,R3*%
X146466666Y-43163166D02*
X146133333Y-42929833D01*
X146466666Y-42763166D02*
X145766666Y-42763166D01*
X145766666Y-43029833D01*
X145800000Y-43096500D01*
X145833333Y-43129833D01*
X145900000Y-43163166D01*
X146000000Y-43163166D01*
X146066666Y-43129833D01*
X146100000Y-43096500D01*
X146133333Y-43029833D01*
X146133333Y-42763166D01*
X145766666Y-43396500D02*
X145766666Y-43829833D01*
X146033333Y-43596500D01*
X146033333Y-43696500D01*
X146066666Y-43763166D01*
X146100000Y-43796500D01*
X146166666Y-43829833D01*
X146333333Y-43829833D01*
X146400000Y-43796500D01*
X146433333Y-43763166D01*
X146466666Y-43696500D01*
X146466666Y-43496500D01*
X146433333Y-43429833D01*
X146400000Y-43396500D01*
%TO.C,C4*%
X149035833Y-41650000D02*
X149069166Y-41683333D01*
X149169166Y-41716666D01*
X149235833Y-41716666D01*
X149335833Y-41683333D01*
X149402500Y-41616666D01*
X149435833Y-41550000D01*
X149469166Y-41416666D01*
X149469166Y-41316666D01*
X149435833Y-41183333D01*
X149402500Y-41116666D01*
X149335833Y-41050000D01*
X149235833Y-41016666D01*
X149169166Y-41016666D01*
X149069166Y-41050000D01*
X149035833Y-41083333D01*
X148435833Y-41250000D02*
X148435833Y-41716666D01*
X148602500Y-40983333D02*
X148769166Y-41483333D01*
X148335833Y-41483333D01*
%TO.C,D2*%
X112410366Y-56423866D02*
X112410366Y-55723866D01*
X112243700Y-55723866D01*
X112143700Y-55757200D01*
X112077033Y-55823866D01*
X112043700Y-55890533D01*
X112010366Y-56023866D01*
X112010366Y-56123866D01*
X112043700Y-56257200D01*
X112077033Y-56323866D01*
X112143700Y-56390533D01*
X112243700Y-56423866D01*
X112410366Y-56423866D01*
X111743700Y-55790533D02*
X111710366Y-55757200D01*
X111643700Y-55723866D01*
X111477033Y-55723866D01*
X111410366Y-55757200D01*
X111377033Y-55790533D01*
X111343700Y-55857200D01*
X111343700Y-55923866D01*
X111377033Y-56023866D01*
X111777033Y-56423866D01*
X111343700Y-56423866D01*
%TO.C,R5*%
X101616666Y-47686500D02*
X101283333Y-47453166D01*
X101616666Y-47286500D02*
X100916666Y-47286500D01*
X100916666Y-47553166D01*
X100950000Y-47619833D01*
X100983333Y-47653166D01*
X101050000Y-47686500D01*
X101150000Y-47686500D01*
X101216666Y-47653166D01*
X101250000Y-47619833D01*
X101283333Y-47553166D01*
X101283333Y-47286500D01*
X100916666Y-48319833D02*
X100916666Y-47986500D01*
X101250000Y-47953166D01*
X101216666Y-47986500D01*
X101183333Y-48053166D01*
X101183333Y-48219833D01*
X101216666Y-48286500D01*
X101250000Y-48319833D01*
X101316666Y-48353166D01*
X101483333Y-48353166D01*
X101550000Y-48319833D01*
X101583333Y-48286500D01*
X101616666Y-48219833D01*
X101616666Y-48053166D01*
X101583333Y-47986500D01*
X101550000Y-47953166D01*
%TO.C,C5*%
X154885833Y-44000000D02*
X154919166Y-44033333D01*
X155019166Y-44066666D01*
X155085833Y-44066666D01*
X155185833Y-44033333D01*
X155252500Y-43966666D01*
X155285833Y-43900000D01*
X155319166Y-43766666D01*
X155319166Y-43666666D01*
X155285833Y-43533333D01*
X155252500Y-43466666D01*
X155185833Y-43400000D01*
X155085833Y-43366666D01*
X155019166Y-43366666D01*
X154919166Y-43400000D01*
X154885833Y-43433333D01*
X154252500Y-43366666D02*
X154585833Y-43366666D01*
X154619166Y-43700000D01*
X154585833Y-43666666D01*
X154519166Y-43633333D01*
X154352500Y-43633333D01*
X154285833Y-43666666D01*
X154252500Y-43700000D01*
X154219166Y-43766666D01*
X154219166Y-43933333D01*
X154252500Y-44000000D01*
X154285833Y-44033333D01*
X154352500Y-44066666D01*
X154519166Y-44066666D01*
X154585833Y-44033333D01*
X154619166Y-44000000D01*
%TO.C,R9*%
X95066666Y-45952500D02*
X94733333Y-45719166D01*
X95066666Y-45552500D02*
X94366666Y-45552500D01*
X94366666Y-45819166D01*
X94400000Y-45885833D01*
X94433333Y-45919166D01*
X94500000Y-45952500D01*
X94600000Y-45952500D01*
X94666666Y-45919166D01*
X94700000Y-45885833D01*
X94733333Y-45819166D01*
X94733333Y-45552500D01*
X95066666Y-46285833D02*
X95066666Y-46419166D01*
X95033333Y-46485833D01*
X95000000Y-46519166D01*
X94900000Y-46585833D01*
X94766666Y-46619166D01*
X94500000Y-46619166D01*
X94433333Y-46585833D01*
X94400000Y-46552500D01*
X94366666Y-46485833D01*
X94366666Y-46352500D01*
X94400000Y-46285833D01*
X94433333Y-46252500D01*
X94500000Y-46219166D01*
X94666666Y-46219166D01*
X94733333Y-46252500D01*
X94766666Y-46285833D01*
X94800000Y-46352500D01*
X94800000Y-46485833D01*
X94766666Y-46552500D01*
X94733333Y-46585833D01*
X94666666Y-46619166D01*
%TO.C,C1*%
X147950000Y-49564166D02*
X147983333Y-49530833D01*
X148016666Y-49430833D01*
X148016666Y-49364166D01*
X147983333Y-49264166D01*
X147916666Y-49197500D01*
X147850000Y-49164166D01*
X147716666Y-49130833D01*
X147616666Y-49130833D01*
X147483333Y-49164166D01*
X147416666Y-49197500D01*
X147350000Y-49264166D01*
X147316666Y-49364166D01*
X147316666Y-49430833D01*
X147350000Y-49530833D01*
X147383333Y-49564166D01*
X148016666Y-50230833D02*
X148016666Y-49830833D01*
X148016666Y-50030833D02*
X147316666Y-50030833D01*
X147416666Y-49964166D01*
X147483333Y-49897500D01*
X147516666Y-49830833D01*
%TO.C,R2*%
X154885833Y-42916666D02*
X155119166Y-42583333D01*
X155285833Y-42916666D02*
X155285833Y-42216666D01*
X155019166Y-42216666D01*
X154952500Y-42250000D01*
X154919166Y-42283333D01*
X154885833Y-42350000D01*
X154885833Y-42450000D01*
X154919166Y-42516666D01*
X154952500Y-42550000D01*
X155019166Y-42583333D01*
X155285833Y-42583333D01*
X154619166Y-42283333D02*
X154585833Y-42250000D01*
X154519166Y-42216666D01*
X154352500Y-42216666D01*
X154285833Y-42250000D01*
X154252500Y-42283333D01*
X154219166Y-42350000D01*
X154219166Y-42416666D01*
X154252500Y-42516666D01*
X154652500Y-42916666D01*
X154219166Y-42916666D01*
%TO.C,U1*%
X151883333Y-42866666D02*
X151883333Y-43433333D01*
X151850000Y-43500000D01*
X151816666Y-43533333D01*
X151750000Y-43566666D01*
X151616666Y-43566666D01*
X151550000Y-43533333D01*
X151516666Y-43500000D01*
X151483333Y-43433333D01*
X151483333Y-42866666D01*
X150783333Y-43566666D02*
X151183333Y-43566666D01*
X150983333Y-43566666D02*
X150983333Y-42866666D01*
X151050000Y-42966666D01*
X151116666Y-43033333D01*
X151183333Y-43066666D01*
%TO.C,C2*%
X146497500Y-51250000D02*
X146530833Y-51283333D01*
X146630833Y-51316666D01*
X146697500Y-51316666D01*
X146797500Y-51283333D01*
X146864166Y-51216666D01*
X146897500Y-51150000D01*
X146930833Y-51016666D01*
X146930833Y-50916666D01*
X146897500Y-50783333D01*
X146864166Y-50716666D01*
X146797500Y-50650000D01*
X146697500Y-50616666D01*
X146630833Y-50616666D01*
X146530833Y-50650000D01*
X146497500Y-50683333D01*
X146230833Y-50683333D02*
X146197500Y-50650000D01*
X146130833Y-50616666D01*
X145964166Y-50616666D01*
X145897500Y-50650000D01*
X145864166Y-50683333D01*
X145830833Y-50750000D01*
X145830833Y-50816666D01*
X145864166Y-50916666D01*
X146264166Y-51316666D01*
X145830833Y-51316666D01*
%TO.C,C8*%
X155085833Y-45150000D02*
X155119166Y-45183333D01*
X155219166Y-45216666D01*
X155285833Y-45216666D01*
X155385833Y-45183333D01*
X155452500Y-45116666D01*
X155485833Y-45050000D01*
X155519166Y-44916666D01*
X155519166Y-44816666D01*
X155485833Y-44683333D01*
X155452500Y-44616666D01*
X155385833Y-44550000D01*
X155285833Y-44516666D01*
X155219166Y-44516666D01*
X155119166Y-44550000D01*
X155085833Y-44583333D01*
X154685833Y-44816666D02*
X154752500Y-44783333D01*
X154785833Y-44750000D01*
X154819166Y-44683333D01*
X154819166Y-44650000D01*
X154785833Y-44583333D01*
X154752500Y-44550000D01*
X154685833Y-44516666D01*
X154552500Y-44516666D01*
X154485833Y-44550000D01*
X154452500Y-44583333D01*
X154419166Y-44650000D01*
X154419166Y-44683333D01*
X154452500Y-44750000D01*
X154485833Y-44783333D01*
X154552500Y-44816666D01*
X154685833Y-44816666D01*
X154752500Y-44850000D01*
X154785833Y-44883333D01*
X154819166Y-44950000D01*
X154819166Y-45083333D01*
X154785833Y-45150000D01*
X154752500Y-45183333D01*
X154685833Y-45216666D01*
X154552500Y-45216666D01*
X154485833Y-45183333D01*
X154452500Y-45150000D01*
X154419166Y-45083333D01*
X154419166Y-44950000D01*
X154452500Y-44883333D01*
X154485833Y-44850000D01*
X154552500Y-44816666D01*
%TO.C,D3*%
X139210366Y-56423866D02*
X139210366Y-55723866D01*
X139043700Y-55723866D01*
X138943700Y-55757200D01*
X138877033Y-55823866D01*
X138843700Y-55890533D01*
X138810366Y-56023866D01*
X138810366Y-56123866D01*
X138843700Y-56257200D01*
X138877033Y-56323866D01*
X138943700Y-56390533D01*
X139043700Y-56423866D01*
X139210366Y-56423866D01*
X138577033Y-55723866D02*
X138143700Y-55723866D01*
X138377033Y-55990533D01*
X138277033Y-55990533D01*
X138210366Y-56023866D01*
X138177033Y-56057200D01*
X138143700Y-56123866D01*
X138143700Y-56290533D01*
X138177033Y-56357200D01*
X138210366Y-56390533D01*
X138277033Y-56423866D01*
X138477033Y-56423866D01*
X138543700Y-56390533D01*
X138577033Y-56357200D01*
%TO.C,C11*%
X100535833Y-41300000D02*
X100569166Y-41333333D01*
X100669166Y-41366666D01*
X100735833Y-41366666D01*
X100835833Y-41333333D01*
X100902500Y-41266666D01*
X100935833Y-41200000D01*
X100969166Y-41066666D01*
X100969166Y-40966666D01*
X100935833Y-40833333D01*
X100902500Y-40766666D01*
X100835833Y-40700000D01*
X100735833Y-40666666D01*
X100669166Y-40666666D01*
X100569166Y-40700000D01*
X100535833Y-40733333D01*
X99869166Y-41366666D02*
X100269166Y-41366666D01*
X100069166Y-41366666D02*
X100069166Y-40666666D01*
X100135833Y-40766666D01*
X100202500Y-40833333D01*
X100269166Y-40866666D01*
X99202500Y-41366666D02*
X99602500Y-41366666D01*
X99402500Y-41366666D02*
X99402500Y-40666666D01*
X99469166Y-40766666D01*
X99535833Y-40833333D01*
X99602500Y-40866666D01*
%TO.C,R7*%
X148416666Y-57964166D02*
X148083333Y-57730833D01*
X148416666Y-57564166D02*
X147716666Y-57564166D01*
X147716666Y-57830833D01*
X147750000Y-57897500D01*
X147783333Y-57930833D01*
X147850000Y-57964166D01*
X147950000Y-57964166D01*
X148016666Y-57930833D01*
X148050000Y-57897500D01*
X148083333Y-57830833D01*
X148083333Y-57564166D01*
X147716666Y-58197500D02*
X147716666Y-58664166D01*
X148416666Y-58364166D01*
%TO.C,U3*%
X165874622Y-42536205D02*
X166686154Y-42536205D01*
X166781628Y-42583942D01*
X166829365Y-42631680D01*
X166877102Y-42727154D01*
X166877102Y-42918102D01*
X166829365Y-43013577D01*
X166781628Y-43061314D01*
X166686154Y-43109051D01*
X165874622Y-43109051D01*
X165874622Y-43490948D02*
X165874622Y-44111531D01*
X166256520Y-43777371D01*
X166256520Y-43920582D01*
X166304257Y-44016057D01*
X166351994Y-44063794D01*
X166447468Y-44111531D01*
X166686154Y-44111531D01*
X166781628Y-44063794D01*
X166829365Y-44016057D01*
X166877102Y-43920582D01*
X166877102Y-43634160D01*
X166829365Y-43538685D01*
X166781628Y-43490948D01*
%TO.C,C9*%
X151897500Y-58400000D02*
X151930833Y-58433333D01*
X152030833Y-58466666D01*
X152097500Y-58466666D01*
X152197500Y-58433333D01*
X152264166Y-58366666D01*
X152297500Y-58300000D01*
X152330833Y-58166666D01*
X152330833Y-58066666D01*
X152297500Y-57933333D01*
X152264166Y-57866666D01*
X152197500Y-57800000D01*
X152097500Y-57766666D01*
X152030833Y-57766666D01*
X151930833Y-57800000D01*
X151897500Y-57833333D01*
X151564166Y-58466666D02*
X151430833Y-58466666D01*
X151364166Y-58433333D01*
X151330833Y-58400000D01*
X151264166Y-58300000D01*
X151230833Y-58166666D01*
X151230833Y-57900000D01*
X151264166Y-57833333D01*
X151297500Y-57800000D01*
X151364166Y-57766666D01*
X151497500Y-57766666D01*
X151564166Y-57800000D01*
X151597500Y-57833333D01*
X151630833Y-57900000D01*
X151630833Y-58066666D01*
X151597500Y-58133333D01*
X151564166Y-58166666D01*
X151497500Y-58200000D01*
X151364166Y-58200000D01*
X151297500Y-58166666D01*
X151264166Y-58133333D01*
X151230833Y-58066666D01*
%TO.C,D1*%
X148747500Y-48316666D02*
X148747500Y-47616666D01*
X148580833Y-47616666D01*
X148480833Y-47650000D01*
X148414166Y-47716666D01*
X148380833Y-47783333D01*
X148347500Y-47916666D01*
X148347500Y-48016666D01*
X148380833Y-48150000D01*
X148414166Y-48216666D01*
X148480833Y-48283333D01*
X148580833Y-48316666D01*
X148747500Y-48316666D01*
X147680833Y-48316666D02*
X148080833Y-48316666D01*
X147880833Y-48316666D02*
X147880833Y-47616666D01*
X147947500Y-47716666D01*
X148014166Y-47783333D01*
X148080833Y-47816666D01*
%TO.C,C7*%
X95747500Y-49000000D02*
X95780833Y-49033333D01*
X95880833Y-49066666D01*
X95947500Y-49066666D01*
X96047500Y-49033333D01*
X96114166Y-48966666D01*
X96147500Y-48900000D01*
X96180833Y-48766666D01*
X96180833Y-48666666D01*
X96147500Y-48533333D01*
X96114166Y-48466666D01*
X96047500Y-48400000D01*
X95947500Y-48366666D01*
X95880833Y-48366666D01*
X95780833Y-48400000D01*
X95747500Y-48433333D01*
X95514166Y-48366666D02*
X95047500Y-48366666D01*
X95347500Y-49066666D01*
%TO.C,U4*%
X82927422Y-42486205D02*
X83738954Y-42486205D01*
X83834428Y-42533942D01*
X83882165Y-42581680D01*
X83929902Y-42677154D01*
X83929902Y-42868102D01*
X83882165Y-42963577D01*
X83834428Y-43011314D01*
X83738954Y-43059051D01*
X82927422Y-43059051D01*
X83261582Y-43966057D02*
X83929902Y-43966057D01*
X82879685Y-43727371D02*
X83595742Y-43488685D01*
X83595742Y-44109268D01*
%TO.C,R1*%
X141535833Y-54116666D02*
X141769166Y-53783333D01*
X141935833Y-54116666D02*
X141935833Y-53416666D01*
X141669166Y-53416666D01*
X141602500Y-53450000D01*
X141569166Y-53483333D01*
X141535833Y-53550000D01*
X141535833Y-53650000D01*
X141569166Y-53716666D01*
X141602500Y-53750000D01*
X141669166Y-53783333D01*
X141935833Y-53783333D01*
X140869166Y-54116666D02*
X141269166Y-54116666D01*
X141069166Y-54116666D02*
X141069166Y-53416666D01*
X141135833Y-53516666D01*
X141202500Y-53583333D01*
X141269166Y-53616666D01*
%TO.C,C3*%
X153250000Y-46552500D02*
X153283333Y-46519166D01*
X153316666Y-46419166D01*
X153316666Y-46352500D01*
X153283333Y-46252500D01*
X153216666Y-46185833D01*
X153150000Y-46152500D01*
X153016666Y-46119166D01*
X152916666Y-46119166D01*
X152783333Y-46152500D01*
X152716666Y-46185833D01*
X152650000Y-46252500D01*
X152616666Y-46352500D01*
X152616666Y-46419166D01*
X152650000Y-46519166D01*
X152683333Y-46552500D01*
X152616666Y-46785833D02*
X152616666Y-47219166D01*
X152883333Y-46985833D01*
X152883333Y-47085833D01*
X152916666Y-47152500D01*
X152950000Y-47185833D01*
X153016666Y-47219166D01*
X153183333Y-47219166D01*
X153250000Y-47185833D01*
X153283333Y-47152500D01*
X153316666Y-47085833D01*
X153316666Y-46885833D01*
X153283333Y-46819166D01*
X153250000Y-46785833D01*
%TO.C,R4*%
X145216666Y-43051500D02*
X144883333Y-42818166D01*
X145216666Y-42651500D02*
X144516666Y-42651500D01*
X144516666Y-42918166D01*
X144550000Y-42984833D01*
X144583333Y-43018166D01*
X144650000Y-43051500D01*
X144750000Y-43051500D01*
X144816666Y-43018166D01*
X144850000Y-42984833D01*
X144883333Y-42918166D01*
X144883333Y-42651500D01*
X144750000Y-43651500D02*
X145216666Y-43651500D01*
X144483333Y-43484833D02*
X144983333Y-43318166D01*
X144983333Y-43751500D01*
%TO.C,C6*%
X98297500Y-46750000D02*
X98330833Y-46783333D01*
X98430833Y-46816666D01*
X98497500Y-46816666D01*
X98597500Y-46783333D01*
X98664166Y-46716666D01*
X98697500Y-46650000D01*
X98730833Y-46516666D01*
X98730833Y-46416666D01*
X98697500Y-46283333D01*
X98664166Y-46216666D01*
X98597500Y-46150000D01*
X98497500Y-46116666D01*
X98430833Y-46116666D01*
X98330833Y-46150000D01*
X98297500Y-46183333D01*
X97697500Y-46116666D02*
X97830833Y-46116666D01*
X97897500Y-46150000D01*
X97930833Y-46183333D01*
X97997500Y-46283333D01*
X98030833Y-46416666D01*
X98030833Y-46683333D01*
X97997500Y-46750000D01*
X97964166Y-46783333D01*
X97897500Y-46816666D01*
X97764166Y-46816666D01*
X97697500Y-46783333D01*
X97664166Y-46750000D01*
X97630833Y-46683333D01*
X97630833Y-46516666D01*
X97664166Y-46450000D01*
X97697500Y-46416666D01*
X97764166Y-46383333D01*
X97897500Y-46383333D01*
X97964166Y-46416666D01*
X97997500Y-46450000D01*
X98030833Y-46516666D01*
%TO.C,C10*%
X102935833Y-44100000D02*
X102969166Y-44133333D01*
X103069166Y-44166666D01*
X103135833Y-44166666D01*
X103235833Y-44133333D01*
X103302500Y-44066666D01*
X103335833Y-44000000D01*
X103369166Y-43866666D01*
X103369166Y-43766666D01*
X103335833Y-43633333D01*
X103302500Y-43566666D01*
X103235833Y-43500000D01*
X103135833Y-43466666D01*
X103069166Y-43466666D01*
X102969166Y-43500000D01*
X102935833Y-43533333D01*
X102269166Y-44166666D02*
X102669166Y-44166666D01*
X102469166Y-44166666D02*
X102469166Y-43466666D01*
X102535833Y-43566666D01*
X102602500Y-43633333D01*
X102669166Y-43666666D01*
X101835833Y-43466666D02*
X101769166Y-43466666D01*
X101702500Y-43500000D01*
X101669166Y-43533333D01*
X101635833Y-43600000D01*
X101602500Y-43733333D01*
X101602500Y-43900000D01*
X101635833Y-44033333D01*
X101669166Y-44100000D01*
X101702500Y-44133333D01*
X101769166Y-44166666D01*
X101835833Y-44166666D01*
X101902500Y-44133333D01*
X101935833Y-44100000D01*
X101969166Y-44033333D01*
X102002500Y-43900000D01*
X102002500Y-43733333D01*
X101969166Y-43600000D01*
X101935833Y-43533333D01*
X101902500Y-43500000D01*
X101835833Y-43466666D01*
%TO.C,U2*%
X97948000Y-46925000D02*
X98173000Y-47123000D01*
X96673000Y-46925000D02*
X96923000Y-46925000D01*
X96673000Y-46925000D02*
X96673000Y-47123000D01*
X98225000Y-48675000D02*
X98225000Y-48849000D01*
X96673000Y-48873000D02*
X96923000Y-48873000D01*
X98225000Y-48849000D02*
X97873000Y-48849000D01*
X96673000Y-48675000D02*
X96673000Y-48873000D01*
X98173000Y-47123000D02*
X98399000Y-47123000D01*
D12*
X98262855Y-46240000D02*
G75*
G03*
X98262855Y-46240000I-72855J0D01*
G01*
D13*
%TO.C,L2*%
X99090000Y-46861252D02*
X99090000Y-46338748D01*
X101310000Y-46861252D02*
X101310000Y-46338748D01*
D14*
%TO.C,D2*%
X114789300Y-47904400D02*
X109048900Y-47904400D01*
X109048900Y-47904400D02*
X109048900Y-53695600D01*
X109048900Y-53695600D02*
X114789300Y-53695600D01*
X114789300Y-53695600D02*
X114789300Y-47904400D01*
D15*
X108824900Y-48056800D02*
G75*
G03*
X108824900Y-48056800I-80800J0D01*
G01*
D10*
%TO.C,R5*%
X102850000Y-48700000D02*
X102850000Y-48100000D01*
X102250000Y-48700000D02*
X102250000Y-48100000D01*
%TO.C,C1*%
X145400000Y-47850000D02*
X145400000Y-48450000D01*
X147000000Y-47850000D02*
X147000000Y-48450000D01*
D13*
%TO.C,U1*%
X151626400Y-43873600D02*
X151626400Y-44089859D01*
X148273600Y-47226400D02*
X148273600Y-47010141D01*
X151626400Y-47226400D02*
X148273600Y-47226400D01*
X151626400Y-47010141D02*
X151626400Y-47226400D01*
X148273600Y-44089859D02*
X148273600Y-43873600D01*
X148273600Y-43873600D02*
X151626400Y-43873600D01*
X147651401Y-46550000D02*
G75*
G03*
X147651401Y-46550000I-101600J0D01*
G01*
D10*
%TO.C,C2*%
X148200000Y-51950000D02*
X148800000Y-51950000D01*
X148200000Y-51350000D02*
X148800000Y-51350000D01*
D14*
%TO.C,D3*%
X141589300Y-47904400D02*
X135848900Y-47904400D01*
X135848900Y-47904400D02*
X135848900Y-53695600D01*
X135848900Y-53695600D02*
X141589300Y-53695600D01*
X141589300Y-53695600D02*
X141589300Y-47904400D01*
D15*
X135624900Y-48056800D02*
G75*
G03*
X135624900Y-48056800I-80800J0D01*
G01*
D10*
%TO.C,C11*%
X100400000Y-42050000D02*
X99800000Y-42050000D01*
X100400000Y-42650000D02*
X99800000Y-42650000D01*
%TO.C,R7*%
X147598000Y-54950000D02*
X147598000Y-55448000D01*
X149400000Y-54950000D02*
X149400000Y-54450000D01*
X147598000Y-54950000D02*
X147598000Y-54450000D01*
X149400000Y-54950000D02*
X149400000Y-55448000D01*
D16*
%TO.C,U3*%
X160100000Y-41300000D02*
X160100000Y-42155000D01*
X160100000Y-45300000D02*
X162447000Y-45300000D01*
X160100000Y-45300000D02*
X160100000Y-44400000D01*
X160100000Y-41300000D02*
X162313000Y-41300000D01*
X164350000Y-42533000D02*
X164350000Y-44022000D01*
D10*
%TO.C,D1*%
X153951000Y-50600000D02*
X150650000Y-50600000D01*
X153951000Y-47600000D02*
X153951000Y-50600000D01*
X150650000Y-47600000D02*
X153951000Y-47600000D01*
D16*
%TO.C,U4*%
X89800000Y-41250000D02*
X87453000Y-41250000D01*
X89800000Y-45250000D02*
X89800000Y-44395000D01*
X89800000Y-41250000D02*
X89800000Y-42150000D01*
X85550000Y-44017000D02*
X85550000Y-42528000D01*
X89800000Y-45250000D02*
X87587000Y-45250000D01*
D10*
%TO.C,R1*%
X144550000Y-52998000D02*
X144052000Y-52998000D01*
X144550000Y-52998000D02*
X145050000Y-52998000D01*
X144550000Y-54800000D02*
X144052000Y-54800000D01*
X144550000Y-54800000D02*
X145050000Y-54800000D01*
%TO.C,C6*%
X97100000Y-46250000D02*
X97700000Y-46250000D01*
X97100000Y-45650000D02*
X97700000Y-45650000D01*
%TO.C,C10*%
X100400000Y-44150000D02*
X99800000Y-44150000D01*
X100400000Y-43550000D02*
X99800000Y-43550000D01*
D17*
%TO.C,L1*%
X150210000Y-53430000D02*
X153350000Y-53430000D01*
X150210000Y-51100000D02*
X150210000Y-53430000D01*
X153350000Y-51100000D02*
X150210000Y-51100000D01*
X153350000Y-53430000D02*
X153350000Y-51100000D01*
%TD*%
%LPC*%
D18*
%TO.C,J1*%
X153700000Y-56600000D03*
D19*
X156648000Y-51721000D03*
D20*
X159699000Y-56600000D03*
%TD*%
D21*
%TO.C,J2*%
X90585645Y-58740000D03*
X90585645Y-52959000D03*
D22*
X91085645Y-51529000D03*
D23*
X86904645Y-51529000D03*
D22*
X91085645Y-60170000D03*
D23*
X86904645Y-60170000D03*
%TD*%
D24*
%TO.C,POT1*%
X94574600Y-42111800D03*
X104574600Y-42111800D03*
D25*
X95574600Y-52111800D03*
X99574600Y-52111800D03*
X103574600Y-52111800D03*
%TD*%
D26*
%TO.C,R8*%
X97265000Y-44600000D03*
X98235000Y-44600000D03*
%TD*%
D27*
%TO.C,U2*%
X98198000Y-47400000D03*
X98198000Y-47900000D03*
X98198000Y-48398000D03*
X96700000Y-48398000D03*
X96700000Y-47900000D03*
X96700000Y-47400000D03*
%TD*%
D28*
%TO.C,L2*%
X100200000Y-47675000D03*
X100200000Y-45525000D03*
%TD*%
D29*
%TO.C,R3*%
X146850000Y-44464000D03*
X146850000Y-45434000D03*
%TD*%
D30*
%TO.C,C4*%
X149584000Y-43150000D03*
X148616000Y-43150000D03*
%TD*%
D31*
%TO.C,D2*%
X113976500Y-48717200D03*
D32*
X109861700Y-48717200D03*
D33*
X109861700Y-52882800D03*
D34*
X113976500Y-52882800D03*
D35*
X111893700Y-50850800D03*
%TD*%
D36*
%TO.C,R5*%
X102550000Y-49100000D03*
X102550000Y-47700000D03*
%TD*%
D30*
%TO.C,C5*%
X153584000Y-43800000D03*
X152616000Y-43800000D03*
%TD*%
D37*
%TO.C,R9*%
X94900000Y-48385000D03*
X94900000Y-47415000D03*
%TD*%
D38*
%TO.C,C1*%
X146200000Y-47100000D03*
X146200000Y-49200000D03*
%TD*%
D30*
%TO.C,R2*%
X153585000Y-42600000D03*
X152615000Y-42600000D03*
%TD*%
D39*
%TO.C,U1*%
X148504600Y-46550001D03*
X148504600Y-46049999D03*
X148504600Y-45550000D03*
X148504600Y-45050001D03*
X148504600Y-44549999D03*
X151395400Y-44549999D03*
X151395400Y-45050001D03*
X151395400Y-45550000D03*
X151395400Y-46049999D03*
X151395400Y-46550001D03*
D40*
X149950000Y-45550000D03*
%TD*%
D41*
%TO.C,C2*%
X147800000Y-51650000D03*
X149200000Y-51650000D03*
%TD*%
D30*
%TO.C,C8*%
X153684000Y-44950000D03*
X152716000Y-44950000D03*
%TD*%
D31*
%TO.C,D3*%
X140776500Y-48717200D03*
D32*
X136661700Y-48717200D03*
D33*
X136661700Y-52882800D03*
D34*
X140776500Y-52882800D03*
D35*
X138693700Y-50850800D03*
%TD*%
D42*
%TO.C,C11*%
X100800000Y-42350000D03*
X99400000Y-42350000D03*
%TD*%
D43*
%TO.C,R7*%
X148500000Y-53450000D03*
X148500000Y-56449000D03*
%TD*%
D44*
%TO.C,U3*%
X159775000Y-42800000D03*
X159775000Y-43800000D03*
D45*
X163650000Y-41500000D03*
X163650000Y-45100000D03*
%TD*%
D26*
%TO.C,C9*%
X151016000Y-59200000D03*
X151984000Y-59200000D03*
%TD*%
D46*
%TO.C,D1*%
X148651000Y-49100000D03*
X152650000Y-49100000D03*
%TD*%
D26*
%TO.C,C7*%
X96916000Y-49550000D03*
X97884000Y-49550000D03*
%TD*%
D44*
%TO.C,U4*%
X90125000Y-43750000D03*
X90125000Y-42750000D03*
D45*
X86250000Y-45050000D03*
X86250000Y-41450000D03*
%TD*%
D47*
%TO.C,R1*%
X146050000Y-53900000D03*
X143051000Y-53900000D03*
%TD*%
D37*
%TO.C,C3*%
X152650000Y-46984000D03*
X152650000Y-46016000D03*
%TD*%
%TO.C,R4*%
X145600000Y-45434000D03*
X145600000Y-44464000D03*
%TD*%
D41*
%TO.C,C6*%
X96700000Y-45950000D03*
X98100000Y-45950000D03*
%TD*%
D42*
%TO.C,C10*%
X100800000Y-43850000D03*
X99400000Y-43850000D03*
%TD*%
D48*
%TO.C,L1*%
X152800000Y-52250000D03*
X150800000Y-52250000D03*
%TD*%
M02*
