%TF.GenerationSoftware,KiCad,Pcbnew,6.0.11+dfsg-1~bpo11+1*%
%TF.CreationDate,2023-04-14T13:04:02+02:00*%
%TF.ProjectId,IR-diode-general,49522d64-696f-4646-952d-67656e657261,rev?*%
%TF.SameCoordinates,Original*%
%TF.FileFunction,Soldermask,Bot*%
%TF.FilePolarity,Negative*%
%FSLAX46Y46*%
G04 Gerber Fmt 4.6, Leading zero omitted, Abs format (unit mm)*
G04 Created by KiCad (PCBNEW 6.0.11+dfsg-1~bpo11+1) date 2023-04-14 13:04:02 commit 5e22265*
%MOMM*%
%LPD*%
G01*
G04 APERTURE LIST*
G04 Aperture macros list*
%AMRoundRect*
0 Rectangle with rounded corners*
0 $1 Rounding radius*
0 $2 $3 $4 $5 $6 $7 $8 $9 X,Y pos of 4 corners*
0 Add a 4 corners polygon primitive as box body*
4,1,4,$2,$3,$4,$5,$6,$7,$8,$9,$2,$3,0*
0 Add four circle primitives for the rounded corners*
1,1,$1+$1,$2,$3*
1,1,$1+$1,$4,$5*
1,1,$1+$1,$6,$7*
1,1,$1+$1,$8,$9*
0 Add four rect primitives between the rounded corners*
20,1,$1+$1,$2,$3,$4,$5,0*
20,1,$1+$1,$4,$5,$6,$7,0*
20,1,$1+$1,$6,$7,$8,$9,0*
20,1,$1+$1,$8,$9,$2,$3,0*%
%AMFreePoly0*
4,1,6,0.615000,-0.615000,-0.391294,-0.615000,-0.615000,-0.391294,-0.615000,0.615000,0.615000,0.615000,0.615000,-0.615000,0.615000,-0.615000,$1*%
G04 Aperture macros list end*
%TA.AperFunction,Profile*%
%ADD10C,0.100000*%
%TD*%
%ADD11O,2.000000X4.500000*%
%ADD12O,4.000000X1.990000*%
%ADD13O,2.000000X4.000000*%
%ADD14C,0.650000*%
%ADD15O,2.100000X1.050000*%
%ADD16O,2.000000X1.000000*%
%ADD17C,2.000000*%
%ADD18C,3.000000*%
%ADD19RoundRect,0.147500X-0.147500X-0.172500X0.147500X-0.172500X0.147500X0.172500X-0.147500X0.172500X0*%
%ADD20RoundRect,0.075000X-0.225000X0.075000X-0.225000X-0.075000X0.225000X-0.075000X0.225000X0.075000X0*%
%ADD21RoundRect,0.250000X0.850000X-0.375000X0.850000X0.375000X-0.850000X0.375000X-0.850000X-0.375000X0*%
%ADD22RoundRect,0.147500X-0.172500X0.147500X-0.172500X-0.147500X0.172500X-0.147500X0.172500X0.147500X0*%
%ADD23RoundRect,0.147500X0.147500X0.172500X-0.147500X0.172500X-0.147500X-0.172500X0.147500X-0.172500X0*%
%ADD24FreePoly0,0.000000*%
%ADD25FreePoly0,90.000000*%
%ADD26FreePoly0,180.000000*%
%ADD27FreePoly0,270.000000*%
%ADD28C,3.500000*%
%ADD29RoundRect,0.120000X0.280000X-0.180000X0.280000X0.180000X-0.280000X0.180000X-0.280000X-0.180000X0*%
%ADD30RoundRect,0.147500X0.172500X-0.147500X0.172500X0.147500X-0.172500X0.147500X-0.172500X-0.147500X0*%
%ADD31R,1.200000X1.200000*%
%ADD32R,0.807999X0.254800*%
%ADD33R,1.752600X2.540000*%
%ADD34RoundRect,0.120000X-0.180000X-0.280000X0.180000X-0.280000X0.180000X0.280000X-0.180000X0.280000X0*%
%ADD35RoundRect,0.120000X0.180000X0.280000X-0.180000X0.280000X-0.180000X-0.280000X0.180000X-0.280000X0*%
%ADD36RoundRect,0.180000X-0.720000X0.420000X-0.720000X-0.420000X0.720000X-0.420000X0.720000X0.420000X0*%
%ADD37R,1.550000X0.600000*%
%ADD38R,1.800000X1.200000*%
%ADD39RoundRect,0.200000X0.800000X0.850000X-0.800000X0.850000X-0.800000X-0.850000X0.800000X-0.850000X0*%
%ADD40RoundRect,0.180000X0.420000X0.720000X-0.420000X0.720000X-0.420000X-0.720000X0.420000X-0.720000X0*%
%ADD41R,0.800000X2.000000*%
G04 APERTURE END LIST*
D10*
X85000000Y-40500000D02*
X165000000Y-40500000D01*
X165000000Y-40500000D02*
X165000000Y-61000000D01*
X165000000Y-61000000D02*
X85000000Y-61000000D01*
X85000000Y-61000000D02*
X85000000Y-40500000D01*
D11*
%TO.C,J1*%
X153700000Y-56600000D03*
D12*
X156648000Y-51721000D03*
D13*
X159699000Y-56600000D03*
%TD*%
D14*
%TO.C,J2*%
X90585645Y-58740000D03*
X90585645Y-52959000D03*
D15*
X91085645Y-51529000D03*
D16*
X86904645Y-51529000D03*
D15*
X91085645Y-60170000D03*
D16*
X86904645Y-60170000D03*
%TD*%
D17*
%TO.C,POT1*%
X94574600Y-42111800D03*
X104574600Y-42111800D03*
D18*
X95574600Y-52111800D03*
X99574600Y-52111800D03*
X103574600Y-52111800D03*
%TD*%
D19*
%TO.C,R8*%
X97265000Y-44600000D03*
X98235000Y-44600000D03*
%TD*%
D20*
%TO.C,U2*%
X98198000Y-47400000D03*
X98198000Y-47900000D03*
X98198000Y-48398000D03*
X96700000Y-48398000D03*
X96700000Y-47900000D03*
X96700000Y-47400000D03*
%TD*%
D21*
%TO.C,L2*%
X100200000Y-47675000D03*
X100200000Y-45525000D03*
%TD*%
D22*
%TO.C,R3*%
X146850000Y-44464000D03*
X146850000Y-45434000D03*
%TD*%
D23*
%TO.C,C4*%
X149584000Y-43150000D03*
X148616000Y-43150000D03*
%TD*%
D24*
%TO.C,D2*%
X113976500Y-48717200D03*
D25*
X109861700Y-48717200D03*
D26*
X109861700Y-52882800D03*
D27*
X113976500Y-52882800D03*
D28*
X111893700Y-50850800D03*
%TD*%
D29*
%TO.C,R5*%
X102550000Y-49100000D03*
X102550000Y-47700000D03*
%TD*%
D23*
%TO.C,C5*%
X153584000Y-43800000D03*
X152616000Y-43800000D03*
%TD*%
D30*
%TO.C,R9*%
X94900000Y-48385000D03*
X94900000Y-47415000D03*
%TD*%
D31*
%TO.C,C1*%
X146200000Y-47100000D03*
X146200000Y-49200000D03*
%TD*%
D23*
%TO.C,R2*%
X153585000Y-42600000D03*
X152615000Y-42600000D03*
%TD*%
D32*
%TO.C,U1*%
X148504600Y-46550001D03*
X148504600Y-46049999D03*
X148504600Y-45550000D03*
X148504600Y-45050001D03*
X148504600Y-44549999D03*
X151395400Y-44549999D03*
X151395400Y-45050001D03*
X151395400Y-45550000D03*
X151395400Y-46049999D03*
X151395400Y-46550001D03*
D33*
X149950000Y-45550000D03*
%TD*%
D34*
%TO.C,C2*%
X147800000Y-51650000D03*
X149200000Y-51650000D03*
%TD*%
D23*
%TO.C,C8*%
X153684000Y-44950000D03*
X152716000Y-44950000D03*
%TD*%
D24*
%TO.C,D3*%
X140776500Y-48717200D03*
D25*
X136661700Y-48717200D03*
D26*
X136661700Y-52882800D03*
D27*
X140776500Y-52882800D03*
D28*
X138693700Y-50850800D03*
%TD*%
D35*
%TO.C,C11*%
X100800000Y-42350000D03*
X99400000Y-42350000D03*
%TD*%
D36*
%TO.C,R7*%
X148500000Y-53450000D03*
X148500000Y-56449000D03*
%TD*%
D37*
%TO.C,U3*%
X159775000Y-42800000D03*
X159775000Y-43800000D03*
D38*
X163650000Y-41500000D03*
X163650000Y-45100000D03*
%TD*%
D19*
%TO.C,C9*%
X151016000Y-59200000D03*
X151984000Y-59200000D03*
%TD*%
D39*
%TO.C,D1*%
X148651000Y-49100000D03*
X152650000Y-49100000D03*
%TD*%
D19*
%TO.C,C7*%
X96916000Y-49550000D03*
X97884000Y-49550000D03*
%TD*%
D37*
%TO.C,U4*%
X90125000Y-43750000D03*
X90125000Y-42750000D03*
D38*
X86250000Y-45050000D03*
X86250000Y-41450000D03*
%TD*%
D40*
%TO.C,R1*%
X146050000Y-53900000D03*
X143051000Y-53900000D03*
%TD*%
D30*
%TO.C,C3*%
X152650000Y-46984000D03*
X152650000Y-46016000D03*
%TD*%
%TO.C,R4*%
X145600000Y-45434000D03*
X145600000Y-44464000D03*
%TD*%
D34*
%TO.C,C6*%
X96700000Y-45950000D03*
X98100000Y-45950000D03*
%TD*%
D35*
%TO.C,C10*%
X100800000Y-43850000D03*
X99400000Y-43850000D03*
%TD*%
D41*
%TO.C,L1*%
X152800000Y-52250000D03*
X150800000Y-52250000D03*
%TD*%
M02*
