%TF.GenerationSoftware,KiCad,Pcbnew,6.0.11+dfsg-1~bpo11+1*%
%TF.CreationDate,2023-04-14T13:04:02+02:00*%
%TF.ProjectId,IR-diode-general,49522d64-696f-4646-952d-67656e657261,rev?*%
%TF.SameCoordinates,Original*%
%TF.FileFunction,Copper,L2,Bot*%
%TF.FilePolarity,Positive*%
%FSLAX46Y46*%
G04 Gerber Fmt 4.6, Leading zero omitted, Abs format (unit mm)*
G04 Created by KiCad (PCBNEW 6.0.11+dfsg-1~bpo11+1) date 2023-04-14 13:04:02 commit 5e22265*
%MOMM*%
%LPD*%
G01*
G04 APERTURE LIST*
G04 Aperture macros list*
%AMRoundRect*
0 Rectangle with rounded corners*
0 $1 Rounding radius*
0 $2 $3 $4 $5 $6 $7 $8 $9 X,Y pos of 4 corners*
0 Add a 4 corners polygon primitive as box body*
4,1,4,$2,$3,$4,$5,$6,$7,$8,$9,$2,$3,0*
0 Add four circle primitives for the rounded corners*
1,1,$1+$1,$2,$3*
1,1,$1+$1,$4,$5*
1,1,$1+$1,$6,$7*
1,1,$1+$1,$8,$9*
0 Add four rect primitives between the rounded corners*
20,1,$1+$1,$2,$3,$4,$5,0*
20,1,$1+$1,$4,$5,$6,$7,0*
20,1,$1+$1,$6,$7,$8,$9,0*
20,1,$1+$1,$8,$9,$2,$3,0*%
%AMOutline5P*
0 Free polygon, 5 corners , with rotation*
0 The origin of the aperture is its center*
0 number of corners: always 5*
0 $1 to $10 corner X, Y*
0 $11 Rotation angle, in degrees counterclockwise*
0 create outline with 5 corners*
4,1,5,$1,$2,$3,$4,$5,$6,$7,$8,$9,$10,$1,$2,$11*%
%AMOutline6P*
0 Free polygon, 6 corners , with rotation*
0 The origin of the aperture is its center*
0 number of corners: always 6*
0 $1 to $12 corner X, Y*
0 $13 Rotation angle, in degrees counterclockwise*
0 create outline with 6 corners*
4,1,6,$1,$2,$3,$4,$5,$6,$7,$8,$9,$10,$11,$12,$1,$2,$13*%
%AMOutline7P*
0 Free polygon, 7 corners , with rotation*
0 The origin of the aperture is its center*
0 number of corners: always 7*
0 $1 to $14 corner X, Y*
0 $15 Rotation angle, in degrees counterclockwise*
0 create outline with 7 corners*
4,1,7,$1,$2,$3,$4,$5,$6,$7,$8,$9,$10,$11,$12,$13,$14,$1,$2,$15*%
%AMOutline8P*
0 Free polygon, 8 corners , with rotation*
0 The origin of the aperture is its center*
0 number of corners: always 8*
0 $1 to $16 corner X, Y*
0 $17 Rotation angle, in degrees counterclockwise*
0 create outline with 8 corners*
4,1,8,$1,$2,$3,$4,$5,$6,$7,$8,$9,$10,$11,$12,$13,$14,$15,$16,$1,$2,$17*%
G04 Aperture macros list end*
%TA.AperFunction,Profile*%
%ADD10C,0.100000*%
%TD*%
%TA.AperFunction,ComponentPad*%
%ADD11O,2.000000X4.500000*%
%TD*%
%TA.AperFunction,ComponentPad*%
%ADD12O,4.000000X1.990000*%
%TD*%
%TA.AperFunction,ComponentPad*%
%ADD13O,2.000000X4.000000*%
%TD*%
%TA.AperFunction,ComponentPad*%
%ADD14O,2.100000X1.050000*%
%TD*%
%TA.AperFunction,ComponentPad*%
%ADD15O,2.000000X1.000000*%
%TD*%
%TA.AperFunction,WasherPad*%
%ADD16C,2.000000*%
%TD*%
%TA.AperFunction,ComponentPad*%
%ADD17C,3.000000*%
%TD*%
%TA.AperFunction,SMDPad,CuDef*%
%ADD18RoundRect,0.147500X-0.147500X-0.172500X0.147500X-0.172500X0.147500X0.172500X-0.147500X0.172500X0*%
%TD*%
%TA.AperFunction,SMDPad,CuDef*%
%ADD19RoundRect,0.075000X-0.225000X0.075000X-0.225000X-0.075000X0.225000X-0.075000X0.225000X0.075000X0*%
%TD*%
%TA.AperFunction,SMDPad,CuDef*%
%ADD20RoundRect,0.250000X0.850000X-0.375000X0.850000X0.375000X-0.850000X0.375000X-0.850000X-0.375000X0*%
%TD*%
%TA.AperFunction,SMDPad,CuDef*%
%ADD21RoundRect,0.147500X-0.172500X0.147500X-0.172500X-0.147500X0.172500X-0.147500X0.172500X0.147500X0*%
%TD*%
%TA.AperFunction,SMDPad,CuDef*%
%ADD22RoundRect,0.147500X0.147500X0.172500X-0.147500X0.172500X-0.147500X-0.172500X0.147500X-0.172500X0*%
%TD*%
%TA.AperFunction,SMDPad,CuDef*%
%ADD23Outline5P,-0.735000X0.735000X0.735000X0.735000X0.735000X-0.735000X-0.441000X-0.735000X-0.735000X-0.441000X0.000000*%
%TD*%
%TA.AperFunction,SMDPad,CuDef*%
%ADD24Outline5P,-0.735000X0.735000X0.735000X0.735000X0.735000X-0.735000X-0.441000X-0.735000X-0.735000X-0.441000X90.000000*%
%TD*%
%TA.AperFunction,SMDPad,CuDef*%
%ADD25Outline5P,-0.735000X0.735000X0.735000X0.735000X0.735000X-0.735000X-0.441000X-0.735000X-0.735000X-0.441000X180.000000*%
%TD*%
%TA.AperFunction,SMDPad,CuDef*%
%ADD26Outline5P,-0.735000X0.735000X0.735000X0.735000X0.735000X-0.735000X-0.441000X-0.735000X-0.735000X-0.441000X270.000000*%
%TD*%
%TA.AperFunction,SMDPad,CuDef*%
%ADD27C,3.200000*%
%TD*%
%TA.AperFunction,SMDPad,CuDef*%
%ADD28RoundRect,0.120000X0.280000X-0.180000X0.280000X0.180000X-0.280000X0.180000X-0.280000X-0.180000X0*%
%TD*%
%TA.AperFunction,SMDPad,CuDef*%
%ADD29RoundRect,0.147500X0.172500X-0.147500X0.172500X0.147500X-0.172500X0.147500X-0.172500X-0.147500X0*%
%TD*%
%TA.AperFunction,SMDPad,CuDef*%
%ADD30R,1.200000X1.200000*%
%TD*%
%TA.AperFunction,SMDPad,CuDef*%
%ADD31R,0.807999X0.254800*%
%TD*%
%TA.AperFunction,SMDPad,CuDef*%
%ADD32R,1.752600X2.540000*%
%TD*%
%TA.AperFunction,SMDPad,CuDef*%
%ADD33RoundRect,0.120000X-0.180000X-0.280000X0.180000X-0.280000X0.180000X0.280000X-0.180000X0.280000X0*%
%TD*%
%TA.AperFunction,SMDPad,CuDef*%
%ADD34RoundRect,0.120000X0.180000X0.280000X-0.180000X0.280000X-0.180000X-0.280000X0.180000X-0.280000X0*%
%TD*%
%TA.AperFunction,SMDPad,CuDef*%
%ADD35RoundRect,0.180000X-0.720000X0.420000X-0.720000X-0.420000X0.720000X-0.420000X0.720000X0.420000X0*%
%TD*%
%TA.AperFunction,SMDPad,CuDef*%
%ADD36R,1.550000X0.600000*%
%TD*%
%TA.AperFunction,SMDPad,CuDef*%
%ADD37R,1.800000X1.200000*%
%TD*%
%TA.AperFunction,SMDPad,CuDef*%
%ADD38RoundRect,0.200000X0.800000X0.850000X-0.800000X0.850000X-0.800000X-0.850000X0.800000X-0.850000X0*%
%TD*%
%TA.AperFunction,SMDPad,CuDef*%
%ADD39RoundRect,0.180000X0.420000X0.720000X-0.420000X0.720000X-0.420000X-0.720000X0.420000X-0.720000X0*%
%TD*%
%TA.AperFunction,SMDPad,CuDef*%
%ADD40R,0.800000X2.000000*%
%TD*%
%TA.AperFunction,ViaPad*%
%ADD41C,0.600000*%
%TD*%
%TA.AperFunction,Conductor*%
%ADD42C,0.250000*%
%TD*%
%TA.AperFunction,Conductor*%
%ADD43C,0.150000*%
%TD*%
G04 APERTURE END LIST*
D10*
X85000000Y-40500000D02*
X165000000Y-40500000D01*
X165000000Y-40500000D02*
X165000000Y-61000000D01*
X165000000Y-61000000D02*
X85000000Y-61000000D01*
X85000000Y-61000000D02*
X85000000Y-40500000D01*
D11*
%TO.P,J1,1,1*%
%TO.N,+12V*%
X153700000Y-56600000D03*
D12*
%TO.P,J1,2,2*%
%TO.N,GND*%
X156648000Y-51721000D03*
D13*
%TO.P,J1,3,3*%
X159699000Y-56600000D03*
%TD*%
D14*
%TO.P,J2,S1,SHIELD*%
%TO.N,GND*%
X91085645Y-51529000D03*
D15*
X86904645Y-51529000D03*
D14*
X91085645Y-60170000D03*
D15*
X86904645Y-60170000D03*
%TD*%
D16*
%TO.P,POT1,*%
%TO.N,*%
X94574600Y-42111800D03*
X104574600Y-42111800D03*
D17*
%TO.P,POT1,1*%
%TO.N,Net-(POT1-Pad1)*%
X95574600Y-52111800D03*
%TO.P,POT1,2*%
%TO.N,Net-(POT1-Pad2)*%
X99574600Y-52111800D03*
%TO.P,POT1,3*%
%TO.N,Net-(C8-Pad2)*%
X103574600Y-52111800D03*
%TD*%
D18*
%TO.P,R8,1*%
%TO.N,Net-(R8-Pad1)*%
X97265000Y-44600000D03*
%TO.P,R8,2*%
%TO.N,/LED DRIVER & USB-C Power output/VBUS*%
X98235000Y-44600000D03*
%TD*%
D19*
%TO.P,U2,1,VIN*%
%TO.N,+12V*%
X98198000Y-47400000D03*
%TO.P,U2,2,SW*%
%TO.N,Net-(C7-Pad2)*%
X98198000Y-47900000D03*
%TO.P,U2,3,GND*%
%TO.N,GND*%
X98198000Y-48398000D03*
%TO.P,U2,4,BST*%
%TO.N,Net-(C7-Pad1)*%
X96700000Y-48398000D03*
%TO.P,U2,5,EN*%
%TO.N,Net-(TP1-Pad1)*%
X96700000Y-47900000D03*
%TO.P,U2,6,FB*%
%TO.N,Net-(R8-Pad1)*%
X96700000Y-47400000D03*
%TD*%
D20*
%TO.P,L2,1*%
%TO.N,Net-(C7-Pad2)*%
X100200000Y-47675000D03*
%TO.P,L2,2*%
%TO.N,/LED DRIVER & USB-C Power output/VBUS*%
X100200000Y-45525000D03*
%TD*%
D21*
%TO.P,R3,1*%
%TO.N,SW*%
X146850000Y-44464000D03*
%TO.P,R3,2*%
%TO.N,Net-(R3-Pad2)*%
X146850000Y-45434000D03*
%TD*%
D22*
%TO.P,C4,1*%
%TO.N,GND*%
X149584000Y-43150000D03*
%TO.P,C4,2*%
%TO.N,Net-(C4-Pad2)*%
X148616000Y-43150000D03*
%TD*%
D23*
%TO.P,D2,1,C*%
%TO.N,Net-(D2-Pad1)*%
X113976500Y-48717200D03*
D24*
%TO.P,D2,2,A*%
%TO.N,A_in*%
X109861700Y-48717200D03*
D25*
%TO.P,D2,3,A*%
X109861700Y-52882800D03*
D26*
%TO.P,D2,4,C*%
%TO.N,Net-(D2-Pad1)*%
X113976500Y-52882800D03*
D27*
%TO.P,D2,5,T*%
%TO.N,Thermal*%
X111893700Y-50850800D03*
%TD*%
D28*
%TO.P,R5,1*%
%TO.N,Net-(POT1-Pad2)*%
X102550000Y-49100000D03*
%TO.P,R5,2*%
%TO.N,+12V*%
X102550000Y-47700000D03*
%TD*%
D22*
%TO.P,C5,1*%
%TO.N,GND*%
X153584000Y-43800000D03*
%TO.P,C5,2*%
%TO.N,Net-(C5-Pad2)*%
X152616000Y-43800000D03*
%TD*%
D29*
%TO.P,R9,1*%
%TO.N,GND*%
X94900000Y-48385000D03*
%TO.P,R9,2*%
%TO.N,Net-(R8-Pad1)*%
X94900000Y-47415000D03*
%TD*%
D30*
%TO.P,C1,1*%
%TO.N,GND*%
X146200000Y-47100000D03*
%TO.P,C1,2*%
%TO.N,+12V*%
X146200000Y-49200000D03*
%TD*%
D22*
%TO.P,R2,1*%
%TO.N,GND*%
X153585000Y-42600000D03*
%TO.P,R2,2*%
%TO.N,Net-(C5-Pad2)*%
X152615000Y-42600000D03*
%TD*%
D31*
%TO.P,U1,1,VDD*%
%TO.N,+12V*%
X148504600Y-46550001D03*
%TO.P,U1,2,VSS*%
%TO.N,GND*%
X148504600Y-46049999D03*
%TO.P,U1,3,OVP*%
%TO.N,Net-(R3-Pad2)*%
X148504600Y-45550000D03*
%TO.P,U1,4,FB*%
%TO.N,FB*%
X148504600Y-45050001D03*
%TO.P,U1,5,COMP*%
%TO.N,Net-(C4-Pad2)*%
X148504600Y-44549999D03*
%TO.P,U1,6,RSET*%
%TO.N,Net-(C5-Pad2)*%
X151395400Y-44549999D03*
%TO.P,U1,7,EN/DIM*%
%TO.N,Net-(C8-Pad2)*%
X151395400Y-45050001D03*
%TO.P,U1,8,INGND*%
%TO.N,GND*%
X151395400Y-45550000D03*
%TO.P,U1,9,BST*%
%TO.N,Net-(C3-Pad2)*%
X151395400Y-46049999D03*
%TO.P,U1,10,SW*%
%TO.N,Net-(C3-Pad1)*%
X151395400Y-46550001D03*
D32*
%TO.P,U1,EPAD,EPAD*%
%TO.N,GND*%
X149950000Y-45550000D03*
%TD*%
D33*
%TO.P,C2,1*%
%TO.N,GND*%
X147800000Y-51650000D03*
%TO.P,C2,2*%
%TO.N,SW*%
X149200000Y-51650000D03*
%TD*%
D22*
%TO.P,C8,1*%
%TO.N,GND*%
X153684000Y-44950000D03*
%TO.P,C8,2*%
%TO.N,Net-(C8-Pad2)*%
X152716000Y-44950000D03*
%TD*%
D23*
%TO.P,D3,1,C*%
%TO.N,FB*%
X140776500Y-48717200D03*
D24*
%TO.P,D3,2,A*%
%TO.N,Net-(D2-Pad1)*%
X136661700Y-48717200D03*
D25*
%TO.P,D3,3,A*%
X136661700Y-52882800D03*
D26*
%TO.P,D3,4,C*%
%TO.N,FB*%
X140776500Y-52882800D03*
D27*
%TO.P,D3,5,T*%
%TO.N,Thermal*%
X138693700Y-50850800D03*
%TD*%
D34*
%TO.P,C11,1*%
%TO.N,GND*%
X100800000Y-42350000D03*
%TO.P,C11,2*%
%TO.N,/LED DRIVER & USB-C Power output/VBUS*%
X99400000Y-42350000D03*
%TD*%
D35*
%TO.P,R7,1*%
%TO.N,A_in*%
X148500000Y-53450000D03*
%TO.P,R7,2*%
%TO.N,SW*%
X148500000Y-56449000D03*
%TD*%
D36*
%TO.P,U3,1,1*%
%TO.N,C_out*%
X159775000Y-42800000D03*
%TO.P,U3,2,2*%
X159775000Y-43800000D03*
D37*
%TO.P,U3,3,SHIELD*%
%TO.N,GND*%
X163650000Y-41500000D03*
%TO.P,U3,4,SHIELD*%
X163650000Y-45100000D03*
%TD*%
D18*
%TO.P,C9,1*%
%TO.N,GND*%
X151016000Y-59200000D03*
%TO.P,C9,2*%
%TO.N,+12V*%
X151984000Y-59200000D03*
%TD*%
D38*
%TO.P,D1,A*%
%TO.N,GND*%
X148651000Y-49100000D03*
%TO.P,D1,K*%
%TO.N,Net-(C3-Pad1)*%
X152650000Y-49100000D03*
%TD*%
D18*
%TO.P,C7,1*%
%TO.N,Net-(C7-Pad1)*%
X96916000Y-49550000D03*
%TO.P,C7,2*%
%TO.N,Net-(C7-Pad2)*%
X97884000Y-49550000D03*
%TD*%
D36*
%TO.P,U4,1,1*%
%TO.N,A_in*%
X90125000Y-43750000D03*
%TO.P,U4,2,2*%
X90125000Y-42750000D03*
D37*
%TO.P,U4,3,SHIELD*%
%TO.N,GND*%
X86250000Y-45050000D03*
%TO.P,U4,4,SHIELD*%
X86250000Y-41450000D03*
%TD*%
D39*
%TO.P,R1,1*%
%TO.N,GND*%
X146050000Y-53900000D03*
%TO.P,R1,2*%
%TO.N,FB*%
X143051000Y-53900000D03*
%TD*%
D29*
%TO.P,C3,1*%
%TO.N,Net-(C3-Pad1)*%
X152650000Y-46984000D03*
%TO.P,C3,2*%
%TO.N,Net-(C3-Pad2)*%
X152650000Y-46016000D03*
%TD*%
%TO.P,R4,1*%
%TO.N,Net-(R3-Pad2)*%
X145600000Y-45434000D03*
%TO.P,R4,2*%
%TO.N,GND*%
X145600000Y-44464000D03*
%TD*%
D33*
%TO.P,C6,1*%
%TO.N,GND*%
X96700000Y-45950000D03*
%TO.P,C6,2*%
%TO.N,+12V*%
X98100000Y-45950000D03*
%TD*%
D34*
%TO.P,C10,1*%
%TO.N,GND*%
X100800000Y-43850000D03*
%TO.P,C10,2*%
%TO.N,/LED DRIVER & USB-C Power output/VBUS*%
X99400000Y-43850000D03*
%TD*%
D40*
%TO.P,L1,1,P*%
%TO.N,Net-(C3-Pad1)*%
X152800000Y-52250000D03*
%TO.P,L1,2,P*%
%TO.N,SW*%
X150800000Y-52250000D03*
%TD*%
D41*
%TO.N,GND*%
X95550000Y-46200000D03*
X94250000Y-46350000D03*
%TO.N,+12V*%
X105600000Y-47700000D03*
X144750000Y-48150000D03*
%TO.N,SW*%
X146948423Y-43349500D03*
X151350000Y-50800000D03*
X150100000Y-50750000D03*
%TO.N,/LED DRIVER & USB-C Power output/VBUS*%
X93150000Y-54700000D03*
%TO.N,A_in*%
X107100000Y-52900000D03*
X91750000Y-43750000D03*
X146700000Y-52350000D03*
X91850000Y-42750000D03*
%TO.N,C_out*%
X158800000Y-41700000D03*
X159000000Y-45150000D03*
%TO.N,Thermal*%
X111250000Y-43830000D03*
X125580000Y-54540000D03*
X111250000Y-45370000D03*
X114090000Y-46910000D03*
X111250000Y-46910000D03*
X118700000Y-46900000D03*
X122500000Y-54540000D03*
X136510000Y-45420000D03*
X117880000Y-54540000D03*
X133280000Y-54540000D03*
X130200000Y-54540000D03*
X111720000Y-56080000D03*
X134970000Y-45420000D03*
X117170000Y-43830000D03*
X131740000Y-54540000D03*
X112550000Y-48450000D03*
X112550000Y-45370000D03*
X138050000Y-48500000D03*
X114090000Y-43830000D03*
X128660000Y-54540000D03*
X134970000Y-46960000D03*
X133430000Y-46960000D03*
X119420000Y-56080000D03*
X139350000Y-45420000D03*
X134970000Y-43880000D03*
X112600000Y-53050000D03*
X133430000Y-45420000D03*
X139350000Y-54540000D03*
X134820000Y-54540000D03*
X111250000Y-48450000D03*
X137900000Y-54540000D03*
X138050000Y-46960000D03*
X137900000Y-56080000D03*
X128660000Y-56080000D03*
X122500000Y-56080000D03*
X114800000Y-54540000D03*
X139350000Y-48500000D03*
X111200000Y-53050000D03*
X124040000Y-56080000D03*
X137900000Y-53000000D03*
X113260000Y-56080000D03*
X127120000Y-54540000D03*
X131740000Y-56080000D03*
X134820000Y-56080000D03*
X124040000Y-54540000D03*
X133280000Y-56080000D03*
X116340000Y-54540000D03*
X136360000Y-54540000D03*
X117170000Y-46910000D03*
X138050000Y-43880000D03*
X115630000Y-46910000D03*
X111900000Y-50900000D03*
X134250000Y-50850000D03*
X133430000Y-43880000D03*
X120960000Y-54540000D03*
X120960000Y-56080000D03*
X130200000Y-56080000D03*
X112550000Y-46910000D03*
X119420000Y-54540000D03*
X117880000Y-56080000D03*
X113260000Y-54540000D03*
X116340000Y-56080000D03*
X125580000Y-56080000D03*
X136360000Y-56080000D03*
X118710000Y-45370000D03*
X139350000Y-43880000D03*
X114800000Y-56080000D03*
X139350000Y-53000000D03*
X115630000Y-43830000D03*
X118710000Y-43830000D03*
X136510000Y-43880000D03*
X115630000Y-45370000D03*
X117170000Y-45370000D03*
X136510000Y-46960000D03*
X139350000Y-46960000D03*
X138050000Y-45420000D03*
X114090000Y-45370000D03*
X112550000Y-43830000D03*
X139350000Y-56080000D03*
X111720000Y-54540000D03*
X127120000Y-56080000D03*
%TO.N,FB*%
X150150000Y-42300000D03*
%TD*%
D42*
%TO.N,GND*%
X98650000Y-50300000D02*
X96200000Y-50300000D01*
X151395400Y-45550000D02*
X149950000Y-45550000D01*
X148504600Y-46049999D02*
X147250001Y-46049999D01*
X96200000Y-50300000D02*
X94900000Y-49000000D01*
X98750000Y-50200000D02*
X98650000Y-50300000D01*
X149950000Y-45550000D02*
X149950000Y-43516000D01*
X146050000Y-52116116D02*
X146516116Y-51650000D01*
X96450000Y-46200000D02*
X96700000Y-45950000D01*
X147250001Y-46049999D02*
X146200000Y-47100000D01*
X98198000Y-48398000D02*
X98750000Y-48950000D01*
X95550000Y-46200000D02*
X96450000Y-46200000D01*
X146516116Y-51650000D02*
X147800000Y-51650000D01*
X98750000Y-48950000D02*
X98750000Y-50200000D01*
X94900000Y-49000000D02*
X94900000Y-48385000D01*
X148504600Y-46049999D02*
X149450001Y-46049999D01*
X149950000Y-43516000D02*
X149584000Y-43150000D01*
X146050000Y-53900000D02*
X146050000Y-52116116D01*
%TO.N,+12V*%
X98300000Y-47298000D02*
X98198000Y-47400000D01*
X151984000Y-59200000D02*
X153700000Y-57484000D01*
X147300000Y-47150000D02*
X147300000Y-48450000D01*
X101248528Y-46650000D02*
X98684000Y-46650000D01*
X102298528Y-47700000D02*
X101248528Y-46650000D01*
X148504600Y-46550001D02*
X147899999Y-46550001D01*
X147899999Y-46550001D02*
X147300000Y-47150000D01*
X98200000Y-46300000D02*
X98200000Y-46650000D01*
X98684000Y-46650000D02*
X98234000Y-46200000D01*
X98200000Y-46650000D02*
X98200000Y-47298000D01*
X102550000Y-47700000D02*
X105600000Y-47700000D01*
X147300000Y-48450000D02*
X146550000Y-49200000D01*
X144750000Y-48150000D02*
X145150000Y-48150000D01*
X145150000Y-48150000D02*
X146200000Y-49200000D01*
%TO.N,Net-(C3-Pad1)*%
X152650000Y-49100000D02*
X153600000Y-49100000D01*
X152216001Y-46550001D02*
X152650000Y-46984000D01*
X153600000Y-49100000D02*
X153900000Y-48800000D01*
X151395400Y-46550001D02*
X152216001Y-46550001D01*
X152650000Y-46984000D02*
X152890107Y-46984000D01*
X153949000Y-51101000D02*
X152800000Y-52250000D01*
X152890107Y-46984000D02*
X153949000Y-48042893D01*
X153949000Y-48042893D02*
X153949000Y-51101000D01*
D43*
%TO.N,Net-(C3-Pad2)*%
X152650000Y-46016000D02*
X151429399Y-46016000D01*
%TO.N,Net-(C4-Pad2)*%
X148616000Y-43150000D02*
X148616000Y-44438599D01*
X148616000Y-44438599D02*
X148504600Y-44549999D01*
%TO.N,Net-(C5-Pad2)*%
X152145399Y-43800000D02*
X151395400Y-44549999D01*
X152615000Y-42600000D02*
X152615000Y-43799000D01*
X152616000Y-43800000D02*
X152145399Y-43800000D01*
D42*
%TO.N,SW*%
X150800000Y-55500000D02*
X150800000Y-52250000D01*
X146948423Y-43349500D02*
X146850000Y-43447923D01*
X149200000Y-51650000D02*
X150200000Y-51650000D01*
X149851000Y-56449000D02*
X150800000Y-55500000D01*
X149851000Y-56449000D02*
X148500000Y-56449000D01*
X146850000Y-43447923D02*
X146850000Y-44464000D01*
X150200000Y-51650000D02*
X150800000Y-52250000D01*
D43*
%TO.N,Net-(POT1-Pad2)*%
X102550000Y-49286400D02*
X99474600Y-52361800D01*
D42*
%TO.N,Net-(D2-Pad1)*%
X119875000Y-50675000D02*
X119725000Y-50675000D01*
X113976500Y-52882800D02*
X117517200Y-52882800D01*
X133982800Y-52882800D02*
X136661700Y-52882800D01*
X132025000Y-50675000D02*
X119875000Y-50675000D01*
X131900000Y-50800000D02*
X133982800Y-52882800D01*
X119875000Y-50675000D02*
X117917200Y-48717200D01*
X133982800Y-48717200D02*
X132025000Y-50675000D01*
X136661700Y-48717200D02*
X133982800Y-48717200D01*
X117517200Y-52882800D02*
X119725000Y-50675000D01*
X132025000Y-50675000D02*
X131900000Y-50800000D01*
X117917200Y-48717200D02*
X113976500Y-48717200D01*
D43*
%TO.N,Net-(C8-Pad2)*%
X151400000Y-54700000D02*
X152550000Y-53550000D01*
X154348000Y-52702000D02*
X154348000Y-51184593D01*
X152550000Y-53550000D02*
X153500000Y-53550000D01*
X108561800Y-57449000D02*
X149699529Y-57449000D01*
X154400000Y-46634000D02*
X152716000Y-44950000D01*
X151400000Y-55748529D02*
X151400000Y-54700000D01*
X154348000Y-51184593D02*
X154400000Y-51132593D01*
X152716000Y-44950000D02*
X152150000Y-44950000D01*
X153500000Y-53550000D02*
X154348000Y-52702000D01*
X152050000Y-45050000D02*
X151395400Y-45050001D01*
X103474600Y-52361800D02*
X108561800Y-57449000D01*
X154400000Y-51132593D02*
X154400000Y-46634000D01*
X149699529Y-57449000D02*
X151400000Y-55748529D01*
X152150000Y-44950000D02*
X152050000Y-45050000D01*
D42*
%TO.N,/LED DRIVER & USB-C Power output/VBUS*%
X98535000Y-45150000D02*
X99825000Y-45150000D01*
X95600000Y-43950000D02*
X97750000Y-43950000D01*
X98235000Y-44850000D02*
X98535000Y-45150000D01*
X99400000Y-43850000D02*
X98850000Y-43850000D01*
X99400000Y-42350000D02*
X99400000Y-43850000D01*
X98850000Y-43850000D02*
X98235000Y-44465000D01*
X93150000Y-54700000D02*
X93100000Y-54650000D01*
X93100000Y-54650000D02*
X93100000Y-46450000D01*
X93100000Y-46450000D02*
X95600000Y-43950000D01*
X98235000Y-44465000D02*
X98235000Y-44850000D01*
X97750000Y-43950000D02*
X98235000Y-44435000D01*
X98235000Y-44435000D02*
X98235000Y-44465000D01*
%TO.N,A_in*%
X146700000Y-52350000D02*
X147200000Y-52350000D01*
X91750000Y-43750000D02*
X90125000Y-43750000D01*
X90125000Y-42750000D02*
X91850000Y-42750000D01*
X107100000Y-52900000D02*
X107117200Y-52882800D01*
X107117200Y-52882800D02*
X109861700Y-52882800D01*
X147200000Y-52350000D02*
X148300000Y-53450000D01*
X109500000Y-49078900D02*
X109500000Y-52521100D01*
D43*
%TO.N,Thermal*%
X134250800Y-50850800D02*
X134250000Y-50850000D01*
X138649200Y-50850800D02*
X134250800Y-50850800D01*
%TO.N,Net-(C7-Pad1)*%
X96916000Y-49550000D02*
X96916000Y-48614000D01*
X96916000Y-48614000D02*
X96700000Y-48398000D01*
%TO.N,Net-(C7-Pad2)*%
X99975000Y-47900000D02*
X97901025Y-47900000D01*
X97901025Y-47900000D02*
X97623000Y-48178025D01*
X97623000Y-48178025D02*
X97623000Y-49289000D01*
X97623000Y-49289000D02*
X97884000Y-49550000D01*
%TO.N,Net-(R3-Pad2)*%
X146850000Y-45434000D02*
X147534000Y-45434000D01*
X145600000Y-45434000D02*
X146850000Y-45434000D01*
X147650000Y-45550000D02*
X148504600Y-45550000D01*
X147534000Y-45434000D02*
X147650000Y-45550000D01*
D42*
%TO.N,FB*%
X148504600Y-45050001D02*
X147773203Y-45050001D01*
X147773203Y-45050001D02*
X147600000Y-44876798D01*
X148000000Y-42300000D02*
X147600000Y-42700000D01*
X150150000Y-42300000D02*
X148000000Y-42300000D01*
X147600000Y-44876798D02*
X147600000Y-42700000D01*
D43*
%TO.N,Net-(R8-Pad1)*%
X94900000Y-47415000D02*
X94900000Y-45750000D01*
X95800000Y-44850000D02*
X97265000Y-44850000D01*
X94900000Y-45750000D02*
X95800000Y-44850000D01*
X94900000Y-47415000D02*
X96685000Y-47415000D01*
%TD*%
%TA.AperFunction,Conductor*%
%TO.N,Thermal*%
G36*
X112949290Y-52457649D02*
G01*
X112983283Y-52508523D01*
X112987000Y-52535396D01*
X112987001Y-53094794D01*
X112987001Y-53642866D01*
X113001766Y-53717101D01*
X113058016Y-53801284D01*
X113142199Y-53857534D01*
X113151762Y-53859436D01*
X113151764Y-53859437D01*
X113182681Y-53865586D01*
X113216433Y-53872300D01*
X113976343Y-53872300D01*
X114736566Y-53872299D01*
X114741332Y-53871351D01*
X114741333Y-53871351D01*
X114801238Y-53859436D01*
X114810801Y-53857534D01*
X114894984Y-53801284D01*
X114951234Y-53717101D01*
X114954228Y-53702053D01*
X114965052Y-53647631D01*
X114966000Y-53642867D01*
X114966000Y-53361300D01*
X114984907Y-53303109D01*
X115034407Y-53267145D01*
X115065000Y-53262300D01*
X117466153Y-53262300D01*
X117486991Y-53264518D01*
X117491076Y-53265398D01*
X117491079Y-53265398D01*
X117499076Y-53267120D01*
X117534004Y-53262986D01*
X117542169Y-53262505D01*
X117544646Y-53262300D01*
X117548724Y-53262300D01*
X117560797Y-53260290D01*
X117568382Y-53259028D01*
X117573001Y-53258370D01*
X117601598Y-53254985D01*
X117624541Y-53252270D01*
X117631423Y-53248965D01*
X117634292Y-53248058D01*
X117641826Y-53246804D01*
X117687504Y-53222158D01*
X117691654Y-53220043D01*
X117738432Y-53197581D01*
X117742708Y-53193986D01*
X117744209Y-53192485D01*
X117745054Y-53191710D01*
X117747042Y-53190032D01*
X117753014Y-53186810D01*
X117789947Y-53146856D01*
X117792640Y-53144054D01*
X118077665Y-52859029D01*
X118132182Y-52831252D01*
X118149238Y-52830045D01*
X133598821Y-53074966D01*
X133656705Y-53094794D01*
X133667256Y-53103950D01*
X133678360Y-53115054D01*
X133691523Y-53131355D01*
X133698229Y-53141740D01*
X133704653Y-53146804D01*
X133725847Y-53163512D01*
X133731965Y-53168948D01*
X133733857Y-53170551D01*
X133736744Y-53173438D01*
X133747049Y-53180802D01*
X133752961Y-53185027D01*
X133756691Y-53187827D01*
X133797447Y-53219956D01*
X133804644Y-53222483D01*
X133807319Y-53223873D01*
X133813534Y-53228314D01*
X133821372Y-53230658D01*
X133863259Y-53243185D01*
X133867694Y-53244626D01*
X133910778Y-53259756D01*
X133910781Y-53259757D01*
X133916651Y-53261818D01*
X133922216Y-53262300D01*
X133924359Y-53262300D01*
X133925473Y-53262348D01*
X133928074Y-53262568D01*
X133934578Y-53264513D01*
X133942754Y-53264192D01*
X133942756Y-53264192D01*
X133988970Y-53262376D01*
X133992857Y-53262300D01*
X135573201Y-53262300D01*
X135631392Y-53281207D01*
X135667356Y-53330707D01*
X135672201Y-53361300D01*
X135672201Y-53642866D01*
X135686966Y-53717101D01*
X135743216Y-53801284D01*
X135827399Y-53857534D01*
X135836962Y-53859436D01*
X135836964Y-53859437D01*
X135867881Y-53865586D01*
X135901633Y-53872300D01*
X136661543Y-53872300D01*
X137421766Y-53872299D01*
X137426532Y-53871351D01*
X137426533Y-53871351D01*
X137486438Y-53859436D01*
X137496001Y-53857534D01*
X137580184Y-53801284D01*
X137636434Y-53717101D01*
X137639428Y-53702053D01*
X137650252Y-53647631D01*
X137651200Y-53642867D01*
X137651200Y-53103950D01*
X137651201Y-52562509D01*
X137670108Y-52504318D01*
X137719608Y-52468354D01*
X137780794Y-52468354D01*
X137801263Y-52477694D01*
X137846844Y-52505136D01*
X137853076Y-52508311D01*
X138088399Y-52607958D01*
X138095011Y-52610221D01*
X138342019Y-52675714D01*
X138348886Y-52677025D01*
X138602670Y-52707062D01*
X138609635Y-52707391D01*
X138865127Y-52701369D01*
X138872079Y-52700712D01*
X139124158Y-52658754D01*
X139130950Y-52657124D01*
X139374602Y-52580066D01*
X139381108Y-52577491D01*
X139611466Y-52466875D01*
X139617539Y-52463411D01*
X139632999Y-52453081D01*
X139691887Y-52436473D01*
X139749291Y-52457651D01*
X139783283Y-52508525D01*
X139787000Y-52535397D01*
X139787001Y-53094794D01*
X139787001Y-53642866D01*
X139798775Y-53702063D01*
X139800675Y-53721352D01*
X139800853Y-56502525D01*
X139781949Y-56560717D01*
X139732452Y-56596684D01*
X139702191Y-56601530D01*
X127507823Y-56643220D01*
X110652780Y-56700845D01*
X110594526Y-56682137D01*
X110558394Y-56632760D01*
X110553476Y-56599304D01*
X110621521Y-53949947D01*
X110641916Y-53892261D01*
X110682602Y-53861025D01*
X110686438Y-53859436D01*
X110696001Y-53857534D01*
X110780184Y-53801284D01*
X110836434Y-53717101D01*
X110839428Y-53702053D01*
X110850252Y-53647631D01*
X110851200Y-53642867D01*
X110851200Y-53103950D01*
X110851201Y-52562509D01*
X110870108Y-52504318D01*
X110919608Y-52468354D01*
X110980794Y-52468354D01*
X111001263Y-52477694D01*
X111046844Y-52505136D01*
X111053076Y-52508311D01*
X111288399Y-52607958D01*
X111295011Y-52610221D01*
X111542019Y-52675714D01*
X111548886Y-52677025D01*
X111802670Y-52707062D01*
X111809635Y-52707391D01*
X112065127Y-52701369D01*
X112072079Y-52700712D01*
X112324158Y-52658754D01*
X112330950Y-52657124D01*
X112574602Y-52580066D01*
X112581108Y-52577491D01*
X112811468Y-52466874D01*
X112817536Y-52463412D01*
X112832998Y-52453081D01*
X112891886Y-52436472D01*
X112949290Y-52457649D01*
G37*
%TD.AperFunction*%
%TA.AperFunction,Conductor*%
G36*
X134499103Y-43072046D02*
G01*
X139702462Y-43148566D01*
X139760368Y-43168327D01*
X139795600Y-43218350D01*
X139800006Y-43247549D01*
X139800302Y-47880500D01*
X139798400Y-47899820D01*
X139787000Y-47957133D01*
X139787000Y-47961991D01*
X139786999Y-49169120D01*
X139768092Y-49227311D01*
X139718592Y-49263275D01*
X139657406Y-49263275D01*
X139639625Y-49255497D01*
X139488161Y-49170673D01*
X139481848Y-49167702D01*
X139243509Y-49075497D01*
X139236832Y-49073442D01*
X138987886Y-49015740D01*
X138980979Y-49014646D01*
X138726384Y-48992595D01*
X138719395Y-48992486D01*
X138464238Y-49006528D01*
X138457307Y-49007404D01*
X138206659Y-49057260D01*
X138199930Y-49059101D01*
X137958803Y-49143779D01*
X137952402Y-49146548D01*
X137795836Y-49227878D01*
X137735481Y-49237924D01*
X137680748Y-49210575D01*
X137652544Y-49156279D01*
X137651200Y-49140024D01*
X137651199Y-47961994D01*
X137651199Y-47957134D01*
X137636434Y-47882899D01*
X137580184Y-47798716D01*
X137579178Y-47798044D01*
X137553849Y-47748332D01*
X137552636Y-47733960D01*
X137550177Y-47515679D01*
X137550177Y-47515678D01*
X137550000Y-47500000D01*
X134746844Y-47469859D01*
X133000186Y-47451077D01*
X132942201Y-47431545D01*
X132906772Y-47381662D01*
X132902276Y-47349837D01*
X132989858Y-43496266D01*
X132997769Y-43148184D01*
X133017993Y-43090437D01*
X133068298Y-43055608D01*
X133098198Y-43051444D01*
X134499103Y-43072046D01*
G37*
%TD.AperFunction*%
%TA.AperFunction,Conductor*%
G36*
X119357551Y-43369159D02*
G01*
X119393808Y-43418445D01*
X119398829Y-43450743D01*
X119368060Y-46096843D01*
X119351137Y-47552196D01*
X119331555Y-47610163D01*
X119281640Y-47645549D01*
X119252190Y-47650045D01*
X118366402Y-47650453D01*
X113173586Y-47652844D01*
X113173465Y-47661260D01*
X113173336Y-47670167D01*
X113153591Y-47728078D01*
X113129348Y-47751053D01*
X113058016Y-47798716D01*
X113001766Y-47882899D01*
X112987000Y-47957133D01*
X112987000Y-47961991D01*
X112986999Y-49169120D01*
X112968092Y-49227311D01*
X112918592Y-49263275D01*
X112857406Y-49263275D01*
X112839625Y-49255497D01*
X112688161Y-49170673D01*
X112681848Y-49167702D01*
X112443509Y-49075497D01*
X112436832Y-49073442D01*
X112187886Y-49015740D01*
X112180979Y-49014646D01*
X111926384Y-48992595D01*
X111919395Y-48992486D01*
X111664238Y-49006528D01*
X111657307Y-49007404D01*
X111406659Y-49057260D01*
X111399930Y-49059101D01*
X111158803Y-49143779D01*
X111152402Y-49146548D01*
X110995836Y-49227878D01*
X110935481Y-49237924D01*
X110880748Y-49210575D01*
X110852544Y-49156279D01*
X110851200Y-49140024D01*
X110851199Y-47961994D01*
X110851199Y-47957134D01*
X110836434Y-47882899D01*
X110796990Y-47823867D01*
X110780339Y-47766324D01*
X110890009Y-43496266D01*
X110910404Y-43438580D01*
X110960811Y-43403899D01*
X110988390Y-43399810D01*
X111268353Y-43398152D01*
X119299250Y-43350597D01*
X119357551Y-43369159D01*
G37*
%TD.AperFunction*%
%TD*%
%TA.AperFunction,Conductor*%
%TO.N,SW*%
G36*
X151585043Y-50319366D02*
G01*
X151634924Y-50356209D01*
X151641906Y-50358661D01*
X151733803Y-50390933D01*
X151782441Y-50428053D01*
X151800000Y-50484341D01*
X151800000Y-53651000D01*
X151781093Y-53709191D01*
X151731593Y-53745155D01*
X151701000Y-53750000D01*
X149849000Y-53750000D01*
X149790809Y-53731093D01*
X149754845Y-53681593D01*
X149750000Y-53651000D01*
X149750000Y-53270156D01*
X150146001Y-53270156D01*
X150146949Y-53279783D01*
X150158835Y-53339541D01*
X150166155Y-53357214D01*
X150211457Y-53425014D01*
X150224986Y-53438543D01*
X150292788Y-53483846D01*
X150310456Y-53491165D01*
X150370219Y-53503052D01*
X150379841Y-53504000D01*
X150657320Y-53504000D01*
X150670005Y-53499878D01*
X150673000Y-53495757D01*
X150673000Y-53488319D01*
X150927000Y-53488319D01*
X150931122Y-53501004D01*
X150935243Y-53503999D01*
X151220156Y-53503999D01*
X151229783Y-53503051D01*
X151289541Y-53491165D01*
X151307214Y-53483845D01*
X151375014Y-53438543D01*
X151388543Y-53425014D01*
X151433846Y-53357212D01*
X151441165Y-53339544D01*
X151453052Y-53279781D01*
X151454000Y-53270159D01*
X151454000Y-52392680D01*
X151449878Y-52379995D01*
X151445757Y-52377000D01*
X150942680Y-52377000D01*
X150929995Y-52381122D01*
X150927000Y-52385243D01*
X150927000Y-53488319D01*
X150673000Y-53488319D01*
X150673000Y-52392680D01*
X150668878Y-52379995D01*
X150664757Y-52377000D01*
X150161681Y-52377000D01*
X150148996Y-52381122D01*
X150146001Y-52385243D01*
X150146001Y-53270156D01*
X149750000Y-53270156D01*
X149750000Y-52107320D01*
X150146000Y-52107320D01*
X150150122Y-52120005D01*
X150154243Y-52123000D01*
X150657320Y-52123000D01*
X150670005Y-52118878D01*
X150673000Y-52114757D01*
X150673000Y-52107320D01*
X150927000Y-52107320D01*
X150931122Y-52120005D01*
X150935243Y-52123000D01*
X151438319Y-52123000D01*
X151451004Y-52118878D01*
X151453999Y-52114757D01*
X151453999Y-51229844D01*
X151453051Y-51220217D01*
X151441165Y-51160459D01*
X151433845Y-51142786D01*
X151388543Y-51074986D01*
X151375014Y-51061457D01*
X151307212Y-51016154D01*
X151289544Y-51008835D01*
X151229781Y-50996948D01*
X151220159Y-50996000D01*
X150942680Y-50996000D01*
X150929995Y-51000122D01*
X150927000Y-51004243D01*
X150927000Y-52107320D01*
X150673000Y-52107320D01*
X150673000Y-51011681D01*
X150668878Y-50998996D01*
X150664757Y-50996001D01*
X150379844Y-50996001D01*
X150370217Y-50996949D01*
X150310459Y-51008835D01*
X150292786Y-51016155D01*
X150224986Y-51061457D01*
X150211457Y-51074986D01*
X150166154Y-51142788D01*
X150158835Y-51160456D01*
X150146948Y-51220219D01*
X150146000Y-51229841D01*
X150146000Y-52107320D01*
X149750000Y-52107320D01*
X149750000Y-52000048D01*
X149751037Y-51985757D01*
X149753483Y-51968991D01*
X149754000Y-51961864D01*
X149754000Y-51792680D01*
X149750000Y-51780370D01*
X149750000Y-51519205D01*
X149751005Y-51518878D01*
X149754000Y-51514757D01*
X149754000Y-51338171D01*
X149753474Y-51330978D01*
X149751055Y-51314547D01*
X149750000Y-51300130D01*
X149750000Y-50399000D01*
X149768907Y-50340809D01*
X149818407Y-50304845D01*
X149849000Y-50300000D01*
X151526227Y-50300000D01*
X151585043Y-50319366D01*
G37*
%TD.AperFunction*%
%TD*%
%TA.AperFunction,Conductor*%
%TO.N,GND*%
G36*
X94128570Y-40773407D02*
G01*
X94164534Y-40822907D01*
X94164534Y-40884093D01*
X94128570Y-40933593D01*
X94112218Y-40943225D01*
X93944954Y-41021221D01*
X93941419Y-41023696D01*
X93941416Y-41023698D01*
X93875262Y-41070020D01*
X93765143Y-41147126D01*
X93609926Y-41302343D01*
X93553714Y-41382622D01*
X93488929Y-41475145D01*
X93484021Y-41482154D01*
X93391253Y-41681097D01*
X93390138Y-41685259D01*
X93390136Y-41685264D01*
X93344075Y-41857165D01*
X93334439Y-41893126D01*
X93334062Y-41897435D01*
X93327789Y-41969135D01*
X93315308Y-42111800D01*
X93334439Y-42330474D01*
X93335557Y-42334645D01*
X93335557Y-42334647D01*
X93377903Y-42492680D01*
X93391253Y-42542503D01*
X93484021Y-42741446D01*
X93486496Y-42744981D01*
X93486498Y-42744984D01*
X93538405Y-42819114D01*
X93609926Y-42921257D01*
X93765143Y-43076474D01*
X93865392Y-43146669D01*
X93939770Y-43198749D01*
X93944954Y-43202379D01*
X94143897Y-43295147D01*
X94148059Y-43296262D01*
X94148064Y-43296264D01*
X94351753Y-43350843D01*
X94351755Y-43350843D01*
X94355926Y-43351961D01*
X94360235Y-43352338D01*
X94424337Y-43357946D01*
X94574600Y-43371092D01*
X94578909Y-43370715D01*
X94788965Y-43352338D01*
X94793274Y-43351961D01*
X94797445Y-43350843D01*
X94797447Y-43350843D01*
X95001136Y-43296264D01*
X95001141Y-43296262D01*
X95005303Y-43295147D01*
X95204246Y-43202379D01*
X95209431Y-43198749D01*
X95283808Y-43146669D01*
X95384057Y-43076474D01*
X95539274Y-42921257D01*
X95610795Y-42819114D01*
X95662702Y-42744984D01*
X95662704Y-42744981D01*
X95665179Y-42741446D01*
X95757947Y-42542503D01*
X95771298Y-42492680D01*
X95813643Y-42334647D01*
X95813643Y-42334645D01*
X95814761Y-42330474D01*
X95833892Y-42111800D01*
X95821411Y-41969135D01*
X95815138Y-41897435D01*
X95814761Y-41893126D01*
X95805125Y-41857165D01*
X95759064Y-41685264D01*
X95759062Y-41685259D01*
X95757947Y-41681097D01*
X95665179Y-41482154D01*
X95660272Y-41475145D01*
X95595486Y-41382622D01*
X95539274Y-41302343D01*
X95384057Y-41147126D01*
X95273938Y-41070020D01*
X95207784Y-41023698D01*
X95207781Y-41023696D01*
X95204246Y-41021221D01*
X95036982Y-40943225D01*
X94992234Y-40901496D01*
X94980559Y-40841435D01*
X95006417Y-40785982D01*
X95059931Y-40756319D01*
X95078821Y-40754500D01*
X104070379Y-40754500D01*
X104128570Y-40773407D01*
X104164534Y-40822907D01*
X104164534Y-40884093D01*
X104128570Y-40933593D01*
X104112218Y-40943225D01*
X103944954Y-41021221D01*
X103941419Y-41023696D01*
X103941416Y-41023698D01*
X103875262Y-41070020D01*
X103765143Y-41147126D01*
X103609926Y-41302343D01*
X103553714Y-41382622D01*
X103488929Y-41475145D01*
X103484021Y-41482154D01*
X103391253Y-41681097D01*
X103390138Y-41685259D01*
X103390136Y-41685264D01*
X103344075Y-41857165D01*
X103334439Y-41893126D01*
X103334062Y-41897435D01*
X103327789Y-41969135D01*
X103315308Y-42111800D01*
X103334439Y-42330474D01*
X103335557Y-42334645D01*
X103335557Y-42334647D01*
X103377903Y-42492680D01*
X103391253Y-42542503D01*
X103484021Y-42741446D01*
X103486496Y-42744981D01*
X103486498Y-42744984D01*
X103538405Y-42819114D01*
X103609926Y-42921257D01*
X103765143Y-43076474D01*
X103865392Y-43146669D01*
X103939770Y-43198749D01*
X103944954Y-43202379D01*
X104143897Y-43295147D01*
X104148059Y-43296262D01*
X104148064Y-43296264D01*
X104351753Y-43350843D01*
X104351755Y-43350843D01*
X104355926Y-43351961D01*
X104360235Y-43352338D01*
X104424337Y-43357946D01*
X104574600Y-43371092D01*
X104578909Y-43370715D01*
X104788965Y-43352338D01*
X104793274Y-43351961D01*
X104797445Y-43350843D01*
X104797447Y-43350843D01*
X105001136Y-43296264D01*
X105001141Y-43296262D01*
X105005303Y-43295147D01*
X105204246Y-43202379D01*
X105209431Y-43198749D01*
X105283808Y-43146669D01*
X105384057Y-43076474D01*
X105539274Y-42921257D01*
X105610795Y-42819114D01*
X105662702Y-42744984D01*
X105662704Y-42744981D01*
X105665179Y-42741446D01*
X105757947Y-42542503D01*
X105771298Y-42492680D01*
X105813643Y-42334647D01*
X105813643Y-42334645D01*
X105814761Y-42330474D01*
X105833892Y-42111800D01*
X105821411Y-41969135D01*
X105815138Y-41897435D01*
X105814761Y-41893126D01*
X105805125Y-41857165D01*
X105759064Y-41685264D01*
X105759062Y-41685259D01*
X105757947Y-41681097D01*
X105665179Y-41482154D01*
X105660272Y-41475145D01*
X105595486Y-41382622D01*
X105539274Y-41302343D01*
X105384057Y-41147126D01*
X105273938Y-41070020D01*
X105207784Y-41023698D01*
X105207781Y-41023696D01*
X105204246Y-41021221D01*
X105036982Y-40943225D01*
X104992234Y-40901496D01*
X104980559Y-40841435D01*
X105006417Y-40785982D01*
X105059931Y-40756319D01*
X105078821Y-40754500D01*
X155364264Y-40754500D01*
X155422455Y-40773407D01*
X155458419Y-40822907D01*
X155462777Y-40863306D01*
X155451699Y-40974603D01*
X155442263Y-41069404D01*
X155441306Y-41082235D01*
X155440819Y-41092041D01*
X155440500Y-41104913D01*
X155440500Y-46051828D01*
X155443527Y-46091349D01*
X155448119Y-46121149D01*
X155448293Y-46122052D01*
X155448296Y-46122071D01*
X155450667Y-46134395D01*
X155451761Y-46140081D01*
X155467247Y-46174430D01*
X155478317Y-46198983D01*
X155493376Y-46232386D01*
X155505232Y-46248996D01*
X155525006Y-46276700D01*
X155528922Y-46282187D01*
X155569953Y-46327330D01*
X155576719Y-46331194D01*
X155576720Y-46331195D01*
X155605747Y-46347773D01*
X155657876Y-46377545D01*
X155662485Y-46379085D01*
X155662486Y-46379086D01*
X155712219Y-46395709D01*
X155712223Y-46395710D01*
X155715906Y-46396941D01*
X155719741Y-46397582D01*
X155719743Y-46397582D01*
X155792142Y-46409674D01*
X155792144Y-46409674D01*
X155795987Y-46410316D01*
X155799876Y-46410349D01*
X155799880Y-46410349D01*
X158335853Y-46431660D01*
X161546276Y-46458638D01*
X161548360Y-46458478D01*
X161548369Y-46458478D01*
X161568133Y-46456963D01*
X161590157Y-46455275D01*
X161623177Y-46449899D01*
X161646341Y-46445034D01*
X161651738Y-46442434D01*
X161651740Y-46442433D01*
X161702977Y-46417746D01*
X161737557Y-46401085D01*
X161760448Y-46383851D01*
X161784112Y-46366036D01*
X161784121Y-46366029D01*
X161786438Y-46364284D01*
X161788544Y-46362270D01*
X161824890Y-46327508D01*
X161824891Y-46327507D01*
X161830521Y-46322122D01*
X161861436Y-46264647D01*
X161876180Y-46237237D01*
X161876181Y-46237234D01*
X161878485Y-46232951D01*
X161881260Y-46223891D01*
X161893155Y-46185043D01*
X161896400Y-46174447D01*
X161896957Y-46170501D01*
X161907192Y-46097903D01*
X161907735Y-46094052D01*
X161905337Y-45953052D01*
X161901375Y-45720156D01*
X162496001Y-45720156D01*
X162496949Y-45729783D01*
X162508835Y-45789541D01*
X162516155Y-45807214D01*
X162561457Y-45875014D01*
X162574986Y-45888543D01*
X162642788Y-45933846D01*
X162660456Y-45941165D01*
X162720219Y-45953052D01*
X162729841Y-45954000D01*
X163507320Y-45954000D01*
X163520005Y-45949878D01*
X163523000Y-45945757D01*
X163523000Y-45242680D01*
X163518878Y-45229995D01*
X163514757Y-45227000D01*
X162511681Y-45227000D01*
X162498996Y-45231122D01*
X162496001Y-45235243D01*
X162496001Y-45720156D01*
X161901375Y-45720156D01*
X161889694Y-45033517D01*
X161888398Y-44957320D01*
X162496000Y-44957320D01*
X162500122Y-44970005D01*
X162504243Y-44973000D01*
X163507320Y-44973000D01*
X163520005Y-44968878D01*
X163523000Y-44964757D01*
X163523000Y-44261681D01*
X163518878Y-44248996D01*
X163514757Y-44246001D01*
X162729844Y-44246001D01*
X162720217Y-44246949D01*
X162660459Y-44258835D01*
X162642786Y-44266155D01*
X162574986Y-44311457D01*
X162561457Y-44324986D01*
X162516154Y-44392788D01*
X162508835Y-44410456D01*
X162496948Y-44470219D01*
X162496000Y-44479841D01*
X162496000Y-44957320D01*
X161888398Y-44957320D01*
X161840135Y-42120156D01*
X162496001Y-42120156D01*
X162496949Y-42129783D01*
X162508835Y-42189541D01*
X162516155Y-42207214D01*
X162561457Y-42275014D01*
X162574986Y-42288543D01*
X162642788Y-42333846D01*
X162660456Y-42341165D01*
X162720219Y-42353052D01*
X162729841Y-42354000D01*
X163507320Y-42354000D01*
X163520005Y-42349878D01*
X163523000Y-42345757D01*
X163523000Y-41642680D01*
X163518878Y-41629995D01*
X163514757Y-41627000D01*
X162511681Y-41627000D01*
X162498996Y-41631122D01*
X162496001Y-41635243D01*
X162496001Y-42120156D01*
X161840135Y-42120156D01*
X161818617Y-40855183D01*
X161836532Y-40796680D01*
X161885413Y-40759879D01*
X161917603Y-40754500D01*
X162399333Y-40754500D01*
X162457524Y-40773407D01*
X162493488Y-40822907D01*
X162495988Y-40865230D01*
X162497425Y-40865371D01*
X162496000Y-40879841D01*
X162496000Y-41357320D01*
X162500122Y-41370005D01*
X162504243Y-41373000D01*
X163678000Y-41373000D01*
X163736191Y-41391907D01*
X163772155Y-41441407D01*
X163777000Y-41472000D01*
X163777000Y-42338319D01*
X163781122Y-42351004D01*
X163785243Y-42353999D01*
X164570156Y-42353999D01*
X164579781Y-42353051D01*
X164627187Y-42343622D01*
X164687948Y-42350814D01*
X164732878Y-42392348D01*
X164745500Y-42440720D01*
X164745500Y-44159279D01*
X164726593Y-44217470D01*
X164677093Y-44253434D01*
X164627186Y-44256377D01*
X164579781Y-44246948D01*
X164570159Y-44246000D01*
X163792680Y-44246000D01*
X163779995Y-44250122D01*
X163777000Y-44254243D01*
X163777000Y-45938319D01*
X163781122Y-45951004D01*
X163785243Y-45953999D01*
X164570156Y-45953999D01*
X164579781Y-45953051D01*
X164627187Y-45943622D01*
X164687948Y-45950814D01*
X164732878Y-45992348D01*
X164745500Y-46040720D01*
X164745500Y-54420650D01*
X164745489Y-54422098D01*
X164654418Y-60647948D01*
X164634662Y-60705856D01*
X164584641Y-60741092D01*
X164555429Y-60745500D01*
X92348181Y-60745500D01*
X92289990Y-60726593D01*
X92254026Y-60677093D01*
X92254026Y-60615907D01*
X92264592Y-60593453D01*
X92312273Y-60518320D01*
X92317092Y-60508440D01*
X92372007Y-60354220D01*
X92374517Y-60343521D01*
X92378208Y-60312568D01*
X92375617Y-60299486D01*
X92374061Y-60298045D01*
X92369307Y-60297000D01*
X89806338Y-60297000D01*
X89793653Y-60301122D01*
X89792188Y-60303137D01*
X89791746Y-60307348D01*
X89794424Y-60332833D01*
X89796788Y-60343579D01*
X89849540Y-60498538D01*
X89854225Y-60508495D01*
X89907213Y-60594625D01*
X89921600Y-60654095D01*
X89898284Y-60710664D01*
X89846171Y-60742724D01*
X89822892Y-60745500D01*
X88114356Y-60745500D01*
X88056165Y-60726593D01*
X88020201Y-60677093D01*
X88020201Y-60615907D01*
X88028749Y-60596776D01*
X88097930Y-60477673D01*
X88102482Y-60467203D01*
X88150112Y-60309938D01*
X88150301Y-60308888D01*
X88147942Y-60299734D01*
X88145148Y-60297427D01*
X88142904Y-60297000D01*
X85677071Y-60297000D01*
X85664386Y-60301122D01*
X85663947Y-60301726D01*
X85663431Y-60308873D01*
X85675424Y-60378664D01*
X85678651Y-60389630D01*
X85742987Y-60540829D01*
X85748645Y-60550748D01*
X85775927Y-60587821D01*
X85795189Y-60645896D01*
X85776637Y-60704201D01*
X85727358Y-60740466D01*
X85696191Y-60745500D01*
X85353500Y-60745500D01*
X85295309Y-60726593D01*
X85259345Y-60677093D01*
X85254500Y-60646500D01*
X85254500Y-60031112D01*
X85658989Y-60031112D01*
X85661348Y-60040266D01*
X85664142Y-60042573D01*
X85666386Y-60043000D01*
X86761965Y-60043000D01*
X86774650Y-60038878D01*
X86777645Y-60034757D01*
X86777645Y-60027320D01*
X87031645Y-60027320D01*
X87035767Y-60040005D01*
X87039888Y-60043000D01*
X88132219Y-60043000D01*
X88144904Y-60038878D01*
X88145343Y-60038274D01*
X88145859Y-60031127D01*
X88145224Y-60027432D01*
X89793082Y-60027432D01*
X89795673Y-60040514D01*
X89797229Y-60041955D01*
X89801983Y-60043000D01*
X90942965Y-60043000D01*
X90955650Y-60038878D01*
X90958645Y-60034757D01*
X90958645Y-60027320D01*
X91212645Y-60027320D01*
X91216767Y-60040005D01*
X91220888Y-60043000D01*
X92364952Y-60043000D01*
X92377637Y-60038878D01*
X92379102Y-60036863D01*
X92379544Y-60032651D01*
X92376866Y-60007167D01*
X92374502Y-59996421D01*
X92321750Y-59841462D01*
X92317065Y-59831504D01*
X92231286Y-59692074D01*
X92224521Y-59683415D01*
X92109982Y-59566452D01*
X92101459Y-59559501D01*
X91963857Y-59470823D01*
X91954011Y-59465935D01*
X91800180Y-59409945D01*
X91789486Y-59407358D01*
X91732880Y-59400207D01*
X150467000Y-59400207D01*
X150467609Y-59407946D01*
X150480672Y-59490422D01*
X150485427Y-59505057D01*
X150536095Y-59604499D01*
X150545137Y-59616944D01*
X150624056Y-59695863D01*
X150636501Y-59704905D01*
X150735943Y-59755573D01*
X150750578Y-59760328D01*
X150833054Y-59773391D01*
X150840793Y-59774000D01*
X150873320Y-59774000D01*
X150886005Y-59769878D01*
X150889000Y-59765757D01*
X150889000Y-59758320D01*
X151143000Y-59758320D01*
X151147122Y-59771005D01*
X151151243Y-59774000D01*
X151191207Y-59774000D01*
X151198946Y-59773391D01*
X151281422Y-59760328D01*
X151296057Y-59755573D01*
X151395499Y-59704905D01*
X151407949Y-59695860D01*
X151429645Y-59674164D01*
X151484162Y-59646388D01*
X151544594Y-59655960D01*
X151569650Y-59674164D01*
X151597265Y-59701779D01*
X151604202Y-59705313D01*
X151604204Y-59705315D01*
X151703786Y-59756054D01*
X151703789Y-59756055D01*
X151710727Y-59759590D01*
X151718421Y-59760809D01*
X151718422Y-59760809D01*
X151801017Y-59773891D01*
X151801019Y-59773891D01*
X151804863Y-59774500D01*
X151983976Y-59774500D01*
X152163136Y-59774499D01*
X152166979Y-59773890D01*
X152166984Y-59773890D01*
X152249579Y-59760809D01*
X152249582Y-59760808D01*
X152257273Y-59759590D01*
X152352471Y-59711085D01*
X152363796Y-59705315D01*
X152363798Y-59705313D01*
X152370735Y-59701779D01*
X152460779Y-59611735D01*
X152470940Y-59591793D01*
X152515054Y-59505214D01*
X152515055Y-59505211D01*
X152518590Y-59498273D01*
X152520019Y-59489255D01*
X152532891Y-59407983D01*
X152532891Y-59407981D01*
X152533500Y-59404137D01*
X152533499Y-59228203D01*
X152552406Y-59170013D01*
X152562495Y-59158199D01*
X152840450Y-58880244D01*
X152894967Y-58852467D01*
X152955399Y-58862038D01*
X152965668Y-58868075D01*
X153093197Y-58953770D01*
X153298248Y-59043782D01*
X153302534Y-59044811D01*
X153302537Y-59044812D01*
X153457629Y-59082046D01*
X153515998Y-59096059D01*
X153520390Y-59096312D01*
X153520395Y-59096313D01*
X153642267Y-59103339D01*
X153739564Y-59108949D01*
X153743934Y-59108420D01*
X153743939Y-59108420D01*
X153892626Y-59090427D01*
X153961880Y-59082046D01*
X153966085Y-59080753D01*
X153966087Y-59080752D01*
X154043568Y-59056916D01*
X154175917Y-59016200D01*
X154179836Y-59014177D01*
X154179839Y-59014176D01*
X154301633Y-58951313D01*
X154374912Y-58913491D01*
X154538110Y-58788265D01*
X154549069Y-58779856D01*
X154549071Y-58779854D01*
X154552573Y-58777167D01*
X154586393Y-58740000D01*
X154700315Y-58614801D01*
X154703286Y-58611536D01*
X154822286Y-58421833D01*
X154905812Y-58214056D01*
X154913830Y-58175337D01*
X154950488Y-57998328D01*
X154950489Y-57998322D01*
X154951224Y-57994772D01*
X154954500Y-57937952D01*
X154954500Y-57654592D01*
X158445000Y-57654592D01*
X158445196Y-57658993D01*
X158459438Y-57818571D01*
X158460994Y-57827216D01*
X158517733Y-58034620D01*
X158520795Y-58042856D01*
X158613368Y-58236940D01*
X158617839Y-58244499D01*
X158743320Y-58419124D01*
X158749056Y-58425769D01*
X158903477Y-58575413D01*
X158910301Y-58580939D01*
X159088780Y-58700873D01*
X159096473Y-58705102D01*
X159293379Y-58791537D01*
X159301687Y-58794333D01*
X159510788Y-58844534D01*
X159519469Y-58845816D01*
X159556346Y-58847942D01*
X159569248Y-58844557D01*
X159571614Y-58841667D01*
X159572000Y-58839615D01*
X159572000Y-58832185D01*
X159826000Y-58832185D01*
X159830122Y-58844870D01*
X159831800Y-58846090D01*
X159836720Y-58846568D01*
X159956401Y-58832084D01*
X159964984Y-58830260D01*
X160170514Y-58767031D01*
X160178650Y-58763711D01*
X160369717Y-58665093D01*
X160377148Y-58660378D01*
X160547736Y-58529481D01*
X160554200Y-58523538D01*
X160698925Y-58364486D01*
X160704224Y-58357505D01*
X160818498Y-58175337D01*
X160822482Y-58167518D01*
X160902687Y-57968000D01*
X160905225Y-57959594D01*
X160948988Y-57748271D01*
X160949934Y-57741089D01*
X160952918Y-57689332D01*
X160953000Y-57686491D01*
X160953000Y-56742680D01*
X160948878Y-56729995D01*
X160944757Y-56727000D01*
X159841680Y-56727000D01*
X159828995Y-56731122D01*
X159826000Y-56735243D01*
X159826000Y-58832185D01*
X159572000Y-58832185D01*
X159572000Y-56742680D01*
X159567878Y-56729995D01*
X159563757Y-56727000D01*
X158460680Y-56727000D01*
X158447995Y-56731122D01*
X158445000Y-56735243D01*
X158445000Y-57654592D01*
X154954500Y-57654592D01*
X154954500Y-56457320D01*
X158445000Y-56457320D01*
X158449122Y-56470005D01*
X158453243Y-56473000D01*
X159556320Y-56473000D01*
X159569005Y-56468878D01*
X159572000Y-56464757D01*
X159572000Y-56457320D01*
X159826000Y-56457320D01*
X159830122Y-56470005D01*
X159834243Y-56473000D01*
X160937320Y-56473000D01*
X160950005Y-56468878D01*
X160953000Y-56464757D01*
X160953000Y-55545408D01*
X160952804Y-55541007D01*
X160938562Y-55381429D01*
X160937006Y-55372784D01*
X160880267Y-55165380D01*
X160877205Y-55157144D01*
X160784632Y-54963060D01*
X160780161Y-54955501D01*
X160654680Y-54780876D01*
X160648944Y-54774231D01*
X160494523Y-54624587D01*
X160487699Y-54619061D01*
X160309220Y-54499127D01*
X160301527Y-54494898D01*
X160104621Y-54408463D01*
X160096313Y-54405667D01*
X159887212Y-54355466D01*
X159878531Y-54354184D01*
X159841654Y-54352058D01*
X159828752Y-54355443D01*
X159826386Y-54358333D01*
X159826000Y-54360385D01*
X159826000Y-56457320D01*
X159572000Y-56457320D01*
X159572000Y-54367815D01*
X159567878Y-54355130D01*
X159566200Y-54353910D01*
X159561280Y-54353432D01*
X159441599Y-54367916D01*
X159433016Y-54369740D01*
X159227486Y-54432969D01*
X159219350Y-54436289D01*
X159028283Y-54534907D01*
X159020852Y-54539622D01*
X158850264Y-54670519D01*
X158843800Y-54676462D01*
X158699075Y-54835514D01*
X158693776Y-54842495D01*
X158579502Y-55024663D01*
X158575518Y-55032482D01*
X158495313Y-55232000D01*
X158492775Y-55240406D01*
X158449012Y-55451729D01*
X158448066Y-55458911D01*
X158445082Y-55510668D01*
X158445000Y-55513509D01*
X158445000Y-56457320D01*
X154954500Y-56457320D01*
X154954500Y-55293181D01*
X154940718Y-55138755D01*
X154940056Y-55131340D01*
X154940056Y-55131339D01*
X154939664Y-55126949D01*
X154887182Y-54935108D01*
X154881737Y-54915203D01*
X154881736Y-54915201D01*
X154880573Y-54910949D01*
X154878675Y-54906969D01*
X154786065Y-54712806D01*
X154786062Y-54712800D01*
X154784166Y-54708826D01*
X154653489Y-54526970D01*
X154492674Y-54371129D01*
X154487743Y-54367815D01*
X154409536Y-54315263D01*
X154306803Y-54246230D01*
X154101752Y-54156218D01*
X154097466Y-54155189D01*
X154097463Y-54155188D01*
X153888284Y-54104969D01*
X153884002Y-54103941D01*
X153879610Y-54103688D01*
X153879605Y-54103687D01*
X153757733Y-54096661D01*
X153660436Y-54091051D01*
X153656066Y-54091580D01*
X153656061Y-54091580D01*
X153516244Y-54108500D01*
X153438120Y-54117954D01*
X153433915Y-54119247D01*
X153433913Y-54119248D01*
X153369406Y-54139093D01*
X153224083Y-54183800D01*
X153220164Y-54185823D01*
X153220161Y-54185824D01*
X153162648Y-54215509D01*
X153025088Y-54286509D01*
X152987615Y-54315263D01*
X152857363Y-54415209D01*
X152847427Y-54422833D01*
X152844455Y-54426099D01*
X152844453Y-54426101D01*
X152752669Y-54526970D01*
X152696714Y-54588464D01*
X152577714Y-54778167D01*
X152494188Y-54985944D01*
X152493294Y-54990261D01*
X152452585Y-55186837D01*
X152448776Y-55205228D01*
X152445500Y-55262048D01*
X152445500Y-57906819D01*
X152460336Y-58073051D01*
X152469633Y-58107035D01*
X152466749Y-58168153D01*
X152444145Y-58203161D01*
X152050802Y-58596504D01*
X151996285Y-58624281D01*
X151980799Y-58625500D01*
X151823683Y-58625501D01*
X151804864Y-58625501D01*
X151801021Y-58626110D01*
X151801016Y-58626110D01*
X151718421Y-58639191D01*
X151718418Y-58639192D01*
X151710727Y-58640410D01*
X151671537Y-58660378D01*
X151604204Y-58694685D01*
X151604202Y-58694687D01*
X151597265Y-58698221D01*
X151591760Y-58703726D01*
X151591756Y-58703729D01*
X151569652Y-58725834D01*
X151515136Y-58753613D01*
X151454704Y-58744042D01*
X151429643Y-58725836D01*
X151407944Y-58704137D01*
X151395499Y-58695095D01*
X151296057Y-58644427D01*
X151281422Y-58639672D01*
X151198946Y-58626609D01*
X151191207Y-58626000D01*
X151158680Y-58626000D01*
X151145995Y-58630122D01*
X151143000Y-58634243D01*
X151143000Y-59758320D01*
X150889000Y-59758320D01*
X150889000Y-59342680D01*
X150884878Y-59329995D01*
X150880757Y-59327000D01*
X150482680Y-59327000D01*
X150469995Y-59331122D01*
X150467000Y-59335243D01*
X150467000Y-59400207D01*
X91732880Y-59400207D01*
X91663087Y-59391390D01*
X91656899Y-59391000D01*
X91228325Y-59391000D01*
X91215640Y-59395122D01*
X91212645Y-59399243D01*
X91212645Y-60027320D01*
X90958645Y-60027320D01*
X90958645Y-59406680D01*
X90954523Y-59393995D01*
X90932045Y-59377663D01*
X90907024Y-59364914D01*
X90879247Y-59310397D01*
X90888819Y-59249965D01*
X90916761Y-59216369D01*
X90993796Y-59157258D01*
X90998949Y-59153304D01*
X91072600Y-59057320D01*
X150467000Y-59057320D01*
X150471122Y-59070005D01*
X150475243Y-59073000D01*
X150873320Y-59073000D01*
X150886005Y-59068878D01*
X150889000Y-59064757D01*
X150889000Y-58641680D01*
X150884878Y-58628995D01*
X150880757Y-58626000D01*
X150840793Y-58626000D01*
X150833054Y-58626609D01*
X150750578Y-58639672D01*
X150735943Y-58644427D01*
X150636501Y-58695095D01*
X150624056Y-58704137D01*
X150545137Y-58783056D01*
X150536095Y-58795501D01*
X150485427Y-58894943D01*
X150480672Y-58909578D01*
X150467609Y-58992054D01*
X150467000Y-58999793D01*
X150467000Y-59057320D01*
X91072600Y-59057320D01*
X91091837Y-59032250D01*
X91150229Y-58891280D01*
X91170145Y-58740000D01*
X91150229Y-58588720D01*
X91091837Y-58447750D01*
X90998949Y-58326696D01*
X90877895Y-58233808D01*
X90736925Y-58175416D01*
X90623625Y-58160500D01*
X90547665Y-58160500D01*
X90434365Y-58175416D01*
X90293395Y-58233808D01*
X90172341Y-58326696D01*
X90079453Y-58447750D01*
X90021061Y-58588720D01*
X90001145Y-58740000D01*
X90021061Y-58891280D01*
X90079453Y-59032250D01*
X90172341Y-59153304D01*
X90293395Y-59246192D01*
X90304992Y-59250995D01*
X90351518Y-59290730D01*
X90365803Y-59350224D01*
X90342390Y-59406753D01*
X90299666Y-59435953D01*
X90227147Y-59461207D01*
X90217228Y-59465959D01*
X90078401Y-59552708D01*
X90069784Y-59559538D01*
X89953626Y-59674887D01*
X89946732Y-59683463D01*
X89859020Y-59821674D01*
X89854198Y-59831560D01*
X89799283Y-59985780D01*
X89796773Y-59996479D01*
X89793082Y-60027432D01*
X88145224Y-60027432D01*
X88133866Y-59961336D01*
X88130639Y-59950370D01*
X88066303Y-59799171D01*
X88060645Y-59789252D01*
X87963249Y-59656905D01*
X87955456Y-59648548D01*
X87830232Y-59542162D01*
X87820720Y-59535819D01*
X87674382Y-59461094D01*
X87663672Y-59457111D01*
X87502755Y-59417735D01*
X87494076Y-59416415D01*
X87488901Y-59416094D01*
X87485867Y-59416000D01*
X87047325Y-59416000D01*
X87034640Y-59420122D01*
X87031645Y-59424243D01*
X87031645Y-60027320D01*
X86777645Y-60027320D01*
X86777645Y-59431680D01*
X86773523Y-59418995D01*
X86769402Y-59416000D01*
X86363485Y-59416000D01*
X86357773Y-59416332D01*
X86235724Y-59430561D01*
X86224596Y-59433192D01*
X86070144Y-59489255D01*
X86059923Y-59494373D01*
X85922507Y-59584468D01*
X85913746Y-59591793D01*
X85800739Y-59711085D01*
X85793894Y-59720234D01*
X85711360Y-59862327D01*
X85706808Y-59872797D01*
X85659178Y-60030062D01*
X85658989Y-60031112D01*
X85254500Y-60031112D01*
X85254500Y-54700000D01*
X92590715Y-54700000D01*
X92609772Y-54844754D01*
X92665645Y-54979642D01*
X92754526Y-55095474D01*
X92759671Y-55099422D01*
X92759672Y-55099423D01*
X92865211Y-55180407D01*
X92865215Y-55180409D01*
X92870357Y-55184355D01*
X93005246Y-55240228D01*
X93150000Y-55259285D01*
X93294754Y-55240228D01*
X93429643Y-55184355D01*
X93434785Y-55180409D01*
X93434789Y-55180407D01*
X93540328Y-55099423D01*
X93540329Y-55099422D01*
X93545474Y-55095474D01*
X93634355Y-54979642D01*
X93690228Y-54844754D01*
X93709285Y-54700000D01*
X93690228Y-54555246D01*
X93634355Y-54420358D01*
X93545474Y-54304526D01*
X93540329Y-54300578D01*
X93540324Y-54300573D01*
X93518232Y-54283621D01*
X93483577Y-54233196D01*
X93479500Y-54205080D01*
X93479500Y-52065744D01*
X93815783Y-52065744D01*
X93815959Y-52069410D01*
X93815959Y-52069412D01*
X93824245Y-52241911D01*
X93828294Y-52326219D01*
X93879169Y-52581985D01*
X93880409Y-52585440D01*
X93880410Y-52585442D01*
X93909603Y-52666750D01*
X93967290Y-52827421D01*
X93969028Y-52830656D01*
X93969030Y-52830660D01*
X94018880Y-52923435D01*
X94090720Y-53057136D01*
X94246749Y-53266083D01*
X94272186Y-53291299D01*
X94423275Y-53441075D01*
X94431948Y-53449673D01*
X94434909Y-53451844D01*
X94434910Y-53451845D01*
X94453113Y-53465192D01*
X94642249Y-53603873D01*
X94645493Y-53605580D01*
X94645495Y-53605581D01*
X94869778Y-53723582D01*
X94869784Y-53723585D01*
X94873033Y-53725294D01*
X94876504Y-53726506D01*
X94876506Y-53726507D01*
X94915806Y-53740231D01*
X95119229Y-53811269D01*
X95375428Y-53859910D01*
X95517336Y-53865486D01*
X95632333Y-53870004D01*
X95632336Y-53870004D01*
X95636003Y-53870148D01*
X95790434Y-53853235D01*
X95891588Y-53842157D01*
X95891591Y-53842156D01*
X95895229Y-53841758D01*
X96147411Y-53775364D01*
X96150786Y-53773914D01*
X96150789Y-53773913D01*
X96290995Y-53713676D01*
X96387010Y-53672425D01*
X96482301Y-53613457D01*
X96605635Y-53537136D01*
X96605640Y-53537132D01*
X96608761Y-53535201D01*
X96807794Y-53366707D01*
X96979735Y-53170645D01*
X97120808Y-52951323D01*
X97127957Y-52935454D01*
X97226406Y-52716905D01*
X97226407Y-52716903D01*
X97227914Y-52713557D01*
X97236687Y-52682450D01*
X97297702Y-52466108D01*
X97297703Y-52466105D01*
X97298699Y-52462572D01*
X97331609Y-52203881D01*
X97333185Y-52143678D01*
X97333955Y-52114292D01*
X97333955Y-52114287D01*
X97334020Y-52111800D01*
X97330597Y-52065744D01*
X97815783Y-52065744D01*
X97815959Y-52069410D01*
X97815959Y-52069412D01*
X97824245Y-52241911D01*
X97828294Y-52326219D01*
X97879169Y-52581985D01*
X97880409Y-52585440D01*
X97880410Y-52585442D01*
X97909603Y-52666750D01*
X97967290Y-52827421D01*
X97969028Y-52830656D01*
X97969030Y-52830660D01*
X98018880Y-52923435D01*
X98090720Y-53057136D01*
X98246749Y-53266083D01*
X98272186Y-53291299D01*
X98423275Y-53441075D01*
X98431948Y-53449673D01*
X98434909Y-53451844D01*
X98434910Y-53451845D01*
X98453113Y-53465192D01*
X98642249Y-53603873D01*
X98645493Y-53605580D01*
X98645495Y-53605581D01*
X98869778Y-53723582D01*
X98869784Y-53723585D01*
X98873033Y-53725294D01*
X98876504Y-53726506D01*
X98876506Y-53726507D01*
X98915806Y-53740231D01*
X99119229Y-53811269D01*
X99375428Y-53859910D01*
X99517336Y-53865486D01*
X99632333Y-53870004D01*
X99632336Y-53870004D01*
X99636003Y-53870148D01*
X99790434Y-53853235D01*
X99891588Y-53842157D01*
X99891591Y-53842156D01*
X99895229Y-53841758D01*
X100147411Y-53775364D01*
X100150786Y-53773914D01*
X100150789Y-53773913D01*
X100290995Y-53713676D01*
X100387010Y-53672425D01*
X100482301Y-53613457D01*
X100605635Y-53537136D01*
X100605640Y-53537132D01*
X100608761Y-53535201D01*
X100807794Y-53366707D01*
X100979735Y-53170645D01*
X101120808Y-52951323D01*
X101127957Y-52935454D01*
X101226406Y-52716905D01*
X101226407Y-52716903D01*
X101227914Y-52713557D01*
X101236687Y-52682450D01*
X101297702Y-52466108D01*
X101297703Y-52466105D01*
X101298699Y-52462572D01*
X101331609Y-52203881D01*
X101333185Y-52143678D01*
X101333955Y-52114292D01*
X101333955Y-52114287D01*
X101334020Y-52111800D01*
X101330597Y-52065744D01*
X101815783Y-52065744D01*
X101815959Y-52069410D01*
X101815959Y-52069412D01*
X101824245Y-52241911D01*
X101828294Y-52326219D01*
X101879169Y-52581985D01*
X101880409Y-52585440D01*
X101880410Y-52585442D01*
X101909603Y-52666750D01*
X101967290Y-52827421D01*
X101969028Y-52830656D01*
X101969030Y-52830660D01*
X102018880Y-52923435D01*
X102090720Y-53057136D01*
X102246749Y-53266083D01*
X102272186Y-53291299D01*
X102423275Y-53441075D01*
X102431948Y-53449673D01*
X102434909Y-53451844D01*
X102434910Y-53451845D01*
X102453113Y-53465192D01*
X102642249Y-53603873D01*
X102645493Y-53605580D01*
X102645495Y-53605581D01*
X102869778Y-53723582D01*
X102869784Y-53723585D01*
X102873033Y-53725294D01*
X102876504Y-53726506D01*
X102876506Y-53726507D01*
X102915806Y-53740231D01*
X103119229Y-53811269D01*
X103375428Y-53859910D01*
X103517336Y-53865486D01*
X103632333Y-53870004D01*
X103632336Y-53870004D01*
X103636003Y-53870148D01*
X103790434Y-53853235D01*
X103891588Y-53842157D01*
X103891591Y-53842156D01*
X103895229Y-53841758D01*
X104147411Y-53775364D01*
X104150778Y-53773918D01*
X104150791Y-53773913D01*
X104277965Y-53719275D01*
X104338893Y-53713676D01*
X104387048Y-53740231D01*
X108315581Y-57668764D01*
X108321416Y-57675132D01*
X108346734Y-57705305D01*
X108354234Y-57709635D01*
X108380845Y-57724999D01*
X108388127Y-57729638D01*
X108420399Y-57752235D01*
X108428765Y-57754477D01*
X108434211Y-57757016D01*
X108439863Y-57759073D01*
X108447366Y-57763405D01*
X108477287Y-57768681D01*
X108486166Y-57770247D01*
X108494598Y-57772116D01*
X108532639Y-57782309D01*
X108571868Y-57778877D01*
X108580497Y-57778500D01*
X149680823Y-57778500D01*
X149689452Y-57778877D01*
X149728689Y-57782310D01*
X149766744Y-57772113D01*
X149775173Y-57770245D01*
X149775783Y-57770137D01*
X149813963Y-57763405D01*
X149821466Y-57759073D01*
X149827118Y-57757016D01*
X149832564Y-57754477D01*
X149840930Y-57752235D01*
X149873202Y-57729638D01*
X149880484Y-57724999D01*
X149907092Y-57709637D01*
X149914595Y-57705305D01*
X149939909Y-57675137D01*
X149945743Y-57668769D01*
X151619764Y-55994748D01*
X151626132Y-55988913D01*
X151630440Y-55985298D01*
X151656305Y-55963595D01*
X151676001Y-55929480D01*
X151680638Y-55922202D01*
X151698268Y-55897024D01*
X151698269Y-55897023D01*
X151703235Y-55889930D01*
X151705477Y-55881564D01*
X151708016Y-55876118D01*
X151710073Y-55870466D01*
X151714405Y-55862963D01*
X151721245Y-55824173D01*
X151723114Y-55815741D01*
X151731069Y-55786052D01*
X151733310Y-55777689D01*
X151729877Y-55738452D01*
X151729500Y-55729823D01*
X151729500Y-54877491D01*
X151748407Y-54819300D01*
X151758496Y-54807487D01*
X152657488Y-53908496D01*
X152712005Y-53880719D01*
X152727492Y-53879500D01*
X153481294Y-53879500D01*
X153489923Y-53879877D01*
X153529160Y-53883310D01*
X153567215Y-53873113D01*
X153575644Y-53871245D01*
X153581865Y-53870148D01*
X153614434Y-53864405D01*
X153621937Y-53860073D01*
X153627589Y-53858016D01*
X153633035Y-53855477D01*
X153641401Y-53853235D01*
X153659125Y-53840825D01*
X153673673Y-53830638D01*
X153680955Y-53825999D01*
X153707563Y-53810637D01*
X153715066Y-53806305D01*
X153740380Y-53776137D01*
X153746214Y-53769769D01*
X154567764Y-52948219D01*
X154574132Y-52942384D01*
X154582391Y-52935454D01*
X154604305Y-52917066D01*
X154624001Y-52882951D01*
X154628638Y-52875673D01*
X154646268Y-52850495D01*
X154646269Y-52850494D01*
X154651235Y-52843401D01*
X154653477Y-52835035D01*
X154656016Y-52829589D01*
X154658073Y-52823937D01*
X154662405Y-52816434D01*
X154669245Y-52777644D01*
X154671114Y-52769212D01*
X154681310Y-52731160D01*
X154684762Y-52732085D01*
X154702316Y-52690726D01*
X154754762Y-52659212D01*
X154815714Y-52664543D01*
X154843662Y-52682450D01*
X154881545Y-52716921D01*
X154888543Y-52722233D01*
X155069939Y-52836022D01*
X155077762Y-52840008D01*
X155276451Y-52919881D01*
X155284857Y-52922419D01*
X155495305Y-52966000D01*
X155502488Y-52966946D01*
X155554035Y-52969918D01*
X155556876Y-52970000D01*
X156505320Y-52970000D01*
X156518005Y-52965878D01*
X156521000Y-52961757D01*
X156521000Y-52954320D01*
X156775000Y-52954320D01*
X156779122Y-52967005D01*
X156783243Y-52970000D01*
X157707357Y-52970000D01*
X157711761Y-52969804D01*
X157870682Y-52955621D01*
X157879326Y-52954066D01*
X158085870Y-52897561D01*
X158094106Y-52894499D01*
X158287384Y-52802310D01*
X158294943Y-52797839D01*
X158468843Y-52672879D01*
X158475488Y-52667143D01*
X158624511Y-52513363D01*
X158630037Y-52506539D01*
X158749473Y-52328801D01*
X158753702Y-52321109D01*
X158839778Y-52125019D01*
X158842574Y-52116711D01*
X158892567Y-51908477D01*
X158893849Y-51899798D01*
X158895932Y-51863654D01*
X158892548Y-51850752D01*
X158889656Y-51848385D01*
X158887608Y-51848000D01*
X156790680Y-51848000D01*
X156777995Y-51852122D01*
X156775000Y-51856243D01*
X156775000Y-52954320D01*
X156521000Y-52954320D01*
X156521000Y-51578320D01*
X156775000Y-51578320D01*
X156779122Y-51591005D01*
X156783243Y-51594000D01*
X158880147Y-51594000D01*
X158892832Y-51589878D01*
X158894052Y-51588200D01*
X158894530Y-51583280D01*
X158880174Y-51464645D01*
X158878347Y-51456053D01*
X158815385Y-51251392D01*
X158812061Y-51243246D01*
X158713849Y-51052963D01*
X158709147Y-51045553D01*
X158578785Y-50875663D01*
X158572836Y-50869194D01*
X158414461Y-50725084D01*
X158407457Y-50719767D01*
X158226061Y-50605978D01*
X158218238Y-50601992D01*
X158019549Y-50522119D01*
X158011143Y-50519581D01*
X157800695Y-50476000D01*
X157793512Y-50475054D01*
X157741965Y-50472082D01*
X157739124Y-50472000D01*
X156790680Y-50472000D01*
X156777995Y-50476122D01*
X156775000Y-50480243D01*
X156775000Y-51578320D01*
X156521000Y-51578320D01*
X156521000Y-50487680D01*
X156516878Y-50474995D01*
X156512757Y-50472000D01*
X155588643Y-50472000D01*
X155584239Y-50472196D01*
X155425318Y-50486379D01*
X155416674Y-50487934D01*
X155210130Y-50544439D01*
X155201894Y-50547501D01*
X155008616Y-50639690D01*
X155001052Y-50644164D01*
X154886270Y-50726643D01*
X154827981Y-50745246D01*
X154769891Y-50726034D01*
X154734186Y-50676346D01*
X154729500Y-50646247D01*
X154729500Y-46652706D01*
X154729877Y-46644077D01*
X154732555Y-46613467D01*
X154733310Y-46604840D01*
X154723113Y-46566785D01*
X154721245Y-46558356D01*
X154718483Y-46542694D01*
X154714405Y-46519566D01*
X154710073Y-46512063D01*
X154708016Y-46506411D01*
X154705477Y-46500966D01*
X154703235Y-46492599D01*
X154680637Y-46460327D01*
X154675997Y-46453042D01*
X154660637Y-46426436D01*
X154660634Y-46426433D01*
X154656305Y-46418934D01*
X154626143Y-46393625D01*
X154619775Y-46387791D01*
X153907338Y-45675354D01*
X153879561Y-45620838D01*
X153889132Y-45560406D01*
X153932397Y-45517141D01*
X153946749Y-45511196D01*
X153964060Y-45505571D01*
X154063499Y-45454905D01*
X154075944Y-45445863D01*
X154154863Y-45366944D01*
X154163905Y-45354499D01*
X154214573Y-45255057D01*
X154219328Y-45240422D01*
X154232391Y-45157946D01*
X154233000Y-45150207D01*
X154233000Y-45092680D01*
X154228878Y-45079995D01*
X154224757Y-45077000D01*
X153656000Y-45077000D01*
X153597809Y-45058093D01*
X153561845Y-45008593D01*
X153557000Y-44978000D01*
X153557000Y-44418976D01*
X153554481Y-44418158D01*
X153548632Y-44413908D01*
X153541514Y-44412781D01*
X153542039Y-44409464D01*
X153497809Y-44395093D01*
X153461845Y-44345593D01*
X153459538Y-44331024D01*
X153711000Y-44331024D01*
X153713519Y-44331842D01*
X153719368Y-44336092D01*
X153726486Y-44337219D01*
X153725961Y-44340536D01*
X153770191Y-44354907D01*
X153806155Y-44404407D01*
X153811000Y-44435000D01*
X153811000Y-44807320D01*
X153815122Y-44820005D01*
X153819243Y-44823000D01*
X154217320Y-44823000D01*
X154230005Y-44818878D01*
X154233000Y-44814757D01*
X154233000Y-44749793D01*
X154232391Y-44742054D01*
X154219328Y-44659578D01*
X154214573Y-44644943D01*
X154163905Y-44545501D01*
X154154863Y-44533056D01*
X154075944Y-44454137D01*
X154063494Y-44445092D01*
X154028048Y-44427031D01*
X153984783Y-44383767D01*
X153975212Y-44323335D01*
X154002989Y-44268818D01*
X154054863Y-44216944D01*
X154063905Y-44204499D01*
X154114573Y-44105057D01*
X154119328Y-44090422D01*
X154132391Y-44007946D01*
X154133000Y-44000207D01*
X154133000Y-43942680D01*
X154128878Y-43929995D01*
X154124757Y-43927000D01*
X153726680Y-43927000D01*
X153713995Y-43931122D01*
X153711000Y-43935243D01*
X153711000Y-44331024D01*
X153459538Y-44331024D01*
X153457000Y-44315000D01*
X153457000Y-43657320D01*
X153711000Y-43657320D01*
X153715122Y-43670005D01*
X153719243Y-43673000D01*
X154117320Y-43673000D01*
X154130005Y-43668878D01*
X154133000Y-43664757D01*
X154133000Y-43599793D01*
X154132391Y-43592054D01*
X154119328Y-43509578D01*
X154114573Y-43494943D01*
X154063905Y-43395501D01*
X154054863Y-43383056D01*
X153975944Y-43304137D01*
X153963499Y-43295095D01*
X153950486Y-43288465D01*
X153907221Y-43245200D01*
X153897650Y-43184768D01*
X153925427Y-43130252D01*
X153950485Y-43112046D01*
X153964496Y-43104907D01*
X153976944Y-43095863D01*
X154055863Y-43016944D01*
X154064905Y-43004499D01*
X154115573Y-42905057D01*
X154120328Y-42890422D01*
X154133391Y-42807946D01*
X154134000Y-42800207D01*
X154134000Y-42742680D01*
X154129878Y-42729995D01*
X154125757Y-42727000D01*
X153727680Y-42727000D01*
X153714995Y-42731122D01*
X153712000Y-42735243D01*
X153712000Y-43158321D01*
X153713149Y-43161858D01*
X153713148Y-43210659D01*
X153714626Y-43210893D01*
X153713148Y-43220225D01*
X153713148Y-43223044D01*
X153712500Y-43224315D01*
X153711000Y-43233789D01*
X153711000Y-43657320D01*
X153457000Y-43657320D01*
X153457000Y-43241679D01*
X153455851Y-43238142D01*
X153455852Y-43189341D01*
X153454374Y-43189107D01*
X153455852Y-43179775D01*
X153455852Y-43176956D01*
X153456500Y-43175685D01*
X153458000Y-43166211D01*
X153458000Y-42457320D01*
X153712000Y-42457320D01*
X153716122Y-42470005D01*
X153720243Y-42473000D01*
X154118320Y-42473000D01*
X154131005Y-42468878D01*
X154134000Y-42464757D01*
X154134000Y-42399793D01*
X154133391Y-42392054D01*
X154120328Y-42309578D01*
X154115573Y-42294943D01*
X154064904Y-42195500D01*
X154055863Y-42183056D01*
X153976944Y-42104137D01*
X153964499Y-42095095D01*
X153865057Y-42044427D01*
X153850422Y-42039672D01*
X153767946Y-42026609D01*
X153760207Y-42026000D01*
X153727680Y-42026000D01*
X153714995Y-42030122D01*
X153712000Y-42034243D01*
X153712000Y-42457320D01*
X153458000Y-42457320D01*
X153458000Y-42041680D01*
X153453878Y-42028995D01*
X153449757Y-42026000D01*
X153409793Y-42026000D01*
X153402054Y-42026609D01*
X153319578Y-42039672D01*
X153304943Y-42044427D01*
X153205501Y-42095095D01*
X153193053Y-42104139D01*
X153170359Y-42126834D01*
X153115843Y-42154613D01*
X153055411Y-42145042D01*
X153030350Y-42126836D01*
X153001735Y-42098221D01*
X152994798Y-42094687D01*
X152994796Y-42094685D01*
X152895214Y-42043946D01*
X152895211Y-42043945D01*
X152888273Y-42040410D01*
X152880579Y-42039191D01*
X152880578Y-42039191D01*
X152797983Y-42026109D01*
X152797981Y-42026109D01*
X152794137Y-42025500D01*
X152615024Y-42025500D01*
X152435864Y-42025501D01*
X152432021Y-42026110D01*
X152432016Y-42026110D01*
X152349421Y-42039191D01*
X152349418Y-42039192D01*
X152341727Y-42040410D01*
X152284996Y-42069316D01*
X152235204Y-42094685D01*
X152235202Y-42094687D01*
X152228265Y-42098221D01*
X152138221Y-42188265D01*
X152134687Y-42195202D01*
X152134685Y-42195204D01*
X152083946Y-42294786D01*
X152083945Y-42294789D01*
X152080410Y-42301727D01*
X152079191Y-42309421D01*
X152079191Y-42309422D01*
X152072047Y-42354526D01*
X152065500Y-42395863D01*
X152065501Y-42804136D01*
X152066110Y-42807979D01*
X152066110Y-42807984D01*
X152079167Y-42890422D01*
X152080410Y-42898273D01*
X152106400Y-42949281D01*
X152132804Y-43001103D01*
X152138221Y-43011735D01*
X152228265Y-43101779D01*
X152235204Y-43105315D01*
X152241509Y-43109895D01*
X152240008Y-43111961D01*
X152274712Y-43146669D01*
X152285500Y-43191609D01*
X152285500Y-43208900D01*
X152266593Y-43267091D01*
X152241415Y-43288597D01*
X152242510Y-43290104D01*
X152236204Y-43294685D01*
X152229265Y-43298221D01*
X152139221Y-43388265D01*
X152117829Y-43430250D01*
X152074567Y-43473514D01*
X152046810Y-43482801D01*
X152039496Y-43484090D01*
X152039492Y-43484091D01*
X152030965Y-43485595D01*
X152023463Y-43489926D01*
X152017810Y-43491984D01*
X152012365Y-43494523D01*
X152003998Y-43496765D01*
X151996903Y-43501733D01*
X151971728Y-43519361D01*
X151964441Y-43524003D01*
X151937835Y-43539363D01*
X151937832Y-43539366D01*
X151930333Y-43543695D01*
X151908013Y-43570295D01*
X151905024Y-43573857D01*
X151899190Y-43580225D01*
X151608337Y-43871079D01*
X151340312Y-44139104D01*
X151285795Y-44166881D01*
X151270308Y-44168100D01*
X151109931Y-44168100D01*
X151051740Y-44149193D01*
X151027615Y-44124101D01*
X151014843Y-44104986D01*
X151001314Y-44091457D01*
X150933512Y-44046154D01*
X150915844Y-44038835D01*
X150856081Y-44026948D01*
X150846459Y-44026000D01*
X150092680Y-44026000D01*
X150079995Y-44030122D01*
X150077000Y-44034243D01*
X150077000Y-45407320D01*
X150081122Y-45420005D01*
X150085243Y-45423000D01*
X150911833Y-45423000D01*
X150931147Y-45424902D01*
X150937450Y-45426156D01*
X150966334Y-45431901D01*
X151395311Y-45431901D01*
X151824465Y-45431900D01*
X151859651Y-45424902D01*
X151878961Y-45423000D01*
X152037718Y-45423000D01*
X152050404Y-45418878D01*
X152054934Y-45412643D01*
X152109409Y-45375205D01*
X152117218Y-45373113D01*
X152125644Y-45371245D01*
X152140758Y-45368580D01*
X152160084Y-45365172D01*
X152220673Y-45373687D01*
X152264686Y-45416189D01*
X152275312Y-45476445D01*
X152248491Y-45531438D01*
X152241340Y-45537654D01*
X152238265Y-45539221D01*
X152148221Y-45629265D01*
X152144684Y-45636206D01*
X152143541Y-45637780D01*
X152094042Y-45673745D01*
X152053399Y-45676945D01*
X152053399Y-45677000D01*
X152052701Y-45677000D01*
X152047964Y-45677373D01*
X152045608Y-45677000D01*
X151878967Y-45677000D01*
X151859653Y-45675098D01*
X151852850Y-45673745D01*
X151824466Y-45668099D01*
X151395489Y-45668099D01*
X150966335Y-45668100D01*
X150931149Y-45675098D01*
X150911839Y-45677000D01*
X150092680Y-45677000D01*
X150079995Y-45681122D01*
X150077000Y-45685243D01*
X150077000Y-47058319D01*
X150081122Y-47071004D01*
X150085243Y-47073999D01*
X150846456Y-47073999D01*
X150856083Y-47073051D01*
X150915841Y-47061165D01*
X150933514Y-47053845D01*
X151001314Y-47008543D01*
X151014842Y-46995015D01*
X151027614Y-46975900D01*
X151075664Y-46938020D01*
X151109930Y-46931901D01*
X151796372Y-46931900D01*
X151824465Y-46931900D01*
X151829232Y-46930952D01*
X151834074Y-46930475D01*
X151834096Y-46930701D01*
X151846276Y-46929501D01*
X151976500Y-46929501D01*
X152034691Y-46948408D01*
X152070655Y-46997908D01*
X152075500Y-47028500D01*
X152075501Y-47094378D01*
X152075501Y-47163136D01*
X152076110Y-47166979D01*
X152076110Y-47166984D01*
X152088099Y-47242680D01*
X152090410Y-47257273D01*
X152093946Y-47264212D01*
X152135596Y-47345956D01*
X152148221Y-47370735D01*
X152238265Y-47460779D01*
X152245202Y-47464313D01*
X152245204Y-47464315D01*
X152344786Y-47515054D01*
X152344789Y-47515055D01*
X152351727Y-47518590D01*
X152359421Y-47519809D01*
X152359422Y-47519809D01*
X152442017Y-47532891D01*
X152442019Y-47532891D01*
X152445863Y-47533500D01*
X152649868Y-47533500D01*
X152854136Y-47533499D01*
X152854450Y-47533449D01*
X152913061Y-47547519D01*
X152931341Y-47561928D01*
X152995909Y-47626496D01*
X153023686Y-47681013D01*
X153014115Y-47741445D01*
X152970850Y-47784710D01*
X152925905Y-47795500D01*
X151808894Y-47795501D01*
X151795686Y-47795501D01*
X151793369Y-47795720D01*
X151793368Y-47795720D01*
X151769883Y-47797939D01*
X151769882Y-47797939D01*
X151763873Y-47798507D01*
X151634924Y-47843791D01*
X151628973Y-47848186D01*
X151628970Y-47848188D01*
X151543290Y-47911473D01*
X151524990Y-47924990D01*
X151520590Y-47930947D01*
X151448188Y-48028970D01*
X151448186Y-48028973D01*
X151443791Y-48034924D01*
X151441339Y-48041906D01*
X151420953Y-48099958D01*
X151398507Y-48163873D01*
X151395500Y-48195685D01*
X151395501Y-49097919D01*
X151395501Y-49941500D01*
X151376594Y-49999691D01*
X151327094Y-50035655D01*
X151296501Y-50040500D01*
X150004000Y-50040500D01*
X149945809Y-50021593D01*
X149909845Y-49972093D01*
X149905000Y-49941500D01*
X149905000Y-49242680D01*
X149900878Y-49229995D01*
X149896757Y-49227000D01*
X148793680Y-49227000D01*
X148780995Y-49231122D01*
X148778000Y-49235243D01*
X148778000Y-50388319D01*
X148782122Y-50401004D01*
X148786243Y-50403999D01*
X149391500Y-50403999D01*
X149449691Y-50422906D01*
X149485655Y-50472406D01*
X149490500Y-50502999D01*
X149490500Y-50896500D01*
X149471593Y-50954691D01*
X149422093Y-50990655D01*
X149391500Y-50995500D01*
X148984506Y-50995500D01*
X148910896Y-51006336D01*
X148903992Y-51009726D01*
X148903988Y-51009727D01*
X148853692Y-51034422D01*
X148798981Y-51061284D01*
X148793202Y-51067073D01*
X148775310Y-51084996D01*
X148710898Y-51149520D01*
X148656146Y-51261530D01*
X148654328Y-51273994D01*
X148648128Y-51316495D01*
X148645500Y-51334506D01*
X148645500Y-51965494D01*
X148656336Y-52039104D01*
X148659726Y-52046008D01*
X148659727Y-52046012D01*
X148681845Y-52091060D01*
X148711284Y-52151019D01*
X148799520Y-52239102D01*
X148911530Y-52293854D01*
X148961803Y-52301188D01*
X148980961Y-52303983D01*
X148980963Y-52303983D01*
X148984506Y-52304500D01*
X149391500Y-52304500D01*
X149449691Y-52323407D01*
X149485655Y-52372907D01*
X149490500Y-52403500D01*
X149490500Y-52524760D01*
X149471593Y-52582951D01*
X149422093Y-52618915D01*
X149358697Y-52618167D01*
X149308036Y-52600376D01*
X149308033Y-52600375D01*
X149302337Y-52598375D01*
X149296331Y-52597807D01*
X149296330Y-52597807D01*
X149274233Y-52595718D01*
X149274224Y-52595718D01*
X149271922Y-52595500D01*
X148023202Y-52595500D01*
X147965011Y-52576593D01*
X147953198Y-52566504D01*
X147859698Y-52473004D01*
X147831921Y-52418487D01*
X147841492Y-52358055D01*
X147884757Y-52314790D01*
X147929702Y-52304000D01*
X148011829Y-52304000D01*
X148019022Y-52303474D01*
X148081348Y-52294299D01*
X148095867Y-52289787D01*
X148193377Y-52241911D01*
X148206506Y-52232512D01*
X148282908Y-52155977D01*
X148292282Y-52142835D01*
X148339993Y-52045229D01*
X148344478Y-52030720D01*
X148353483Y-51968991D01*
X148354000Y-51961864D01*
X148354000Y-51792680D01*
X148349878Y-51779995D01*
X148345757Y-51777000D01*
X147261680Y-51777000D01*
X147248995Y-51781122D01*
X147246000Y-51785243D01*
X147246000Y-51869276D01*
X147227093Y-51927467D01*
X147177593Y-51963431D01*
X147116407Y-51963431D01*
X147086732Y-51947818D01*
X146984789Y-51869593D01*
X146984785Y-51869591D01*
X146979643Y-51865645D01*
X146844754Y-51809772D01*
X146700000Y-51790715D01*
X146555246Y-51809772D01*
X146420358Y-51865645D01*
X146304526Y-51954526D01*
X146215645Y-52070358D01*
X146159772Y-52205246D01*
X146140715Y-52350000D01*
X146141562Y-52356434D01*
X146143202Y-52368891D01*
X146159772Y-52494754D01*
X146162256Y-52500751D01*
X146214416Y-52626675D01*
X146219217Y-52687672D01*
X146197513Y-52723089D01*
X146198902Y-52724098D01*
X146177000Y-52754243D01*
X146177000Y-53757320D01*
X146181122Y-53770005D01*
X146185243Y-53773000D01*
X146888319Y-53773000D01*
X146901004Y-53768878D01*
X146903999Y-53764757D01*
X146903999Y-53130470D01*
X146903780Y-53125824D01*
X146901695Y-53103762D01*
X146899130Y-53092068D01*
X146861392Y-52984604D01*
X146859951Y-52923435D01*
X146894739Y-52873102D01*
X146916915Y-52860338D01*
X146973646Y-52836840D01*
X146973652Y-52836837D01*
X146979643Y-52834355D01*
X146984789Y-52830406D01*
X146984793Y-52830404D01*
X147005831Y-52814260D01*
X147063506Y-52793835D01*
X147122172Y-52811212D01*
X147136103Y-52822797D01*
X147316504Y-53003198D01*
X147344281Y-53057715D01*
X147345500Y-53073202D01*
X147345500Y-53921922D01*
X147345718Y-53924224D01*
X147345718Y-53924233D01*
X147347519Y-53943284D01*
X147348375Y-53952337D01*
X147391666Y-54075612D01*
X147396061Y-54081563D01*
X147396062Y-54081564D01*
X147423896Y-54119248D01*
X147469292Y-54180708D01*
X147475249Y-54185108D01*
X147568388Y-54253902D01*
X147574388Y-54258334D01*
X147697663Y-54301625D01*
X147703669Y-54302193D01*
X147703670Y-54302193D01*
X147725767Y-54304282D01*
X147725776Y-54304282D01*
X147728078Y-54304500D01*
X149271922Y-54304500D01*
X149274224Y-54304282D01*
X149274233Y-54304282D01*
X149296330Y-54302193D01*
X149296331Y-54302193D01*
X149302337Y-54301625D01*
X149425612Y-54258334D01*
X149431613Y-54253902D01*
X149524751Y-54185108D01*
X149530708Y-54180708D01*
X149576104Y-54119248D01*
X149603938Y-54081564D01*
X149603939Y-54081563D01*
X149608334Y-54075612D01*
X149617573Y-54049303D01*
X149654693Y-54000664D01*
X149713313Y-53983132D01*
X149741572Y-53987950D01*
X149765104Y-53995596D01*
X149765113Y-53995598D01*
X149768812Y-53996800D01*
X149772656Y-53997409D01*
X149772661Y-53997410D01*
X149845152Y-54008891D01*
X149845157Y-54008891D01*
X149849000Y-54009500D01*
X150321500Y-54009500D01*
X150379691Y-54028407D01*
X150415655Y-54077907D01*
X150420500Y-54108500D01*
X150420500Y-55301798D01*
X150401593Y-55359989D01*
X150391504Y-55371802D01*
X149805785Y-55957521D01*
X149751268Y-55985298D01*
X149690836Y-55975727D01*
X149647571Y-55932462D01*
X149642377Y-55920328D01*
X149608334Y-55823388D01*
X149530708Y-55718292D01*
X149425612Y-55640666D01*
X149302337Y-55597375D01*
X149296331Y-55596807D01*
X149296330Y-55596807D01*
X149274233Y-55594718D01*
X149274224Y-55594718D01*
X149271922Y-55594500D01*
X147728078Y-55594500D01*
X147725776Y-55594718D01*
X147725767Y-55594718D01*
X147703670Y-55596807D01*
X147703669Y-55596807D01*
X147697663Y-55597375D01*
X147574388Y-55640666D01*
X147469292Y-55718292D01*
X147391666Y-55823388D01*
X147348375Y-55946663D01*
X147347807Y-55952669D01*
X147347807Y-55952670D01*
X147347349Y-55957521D01*
X147345500Y-55977078D01*
X147345500Y-56920922D01*
X147348375Y-56951337D01*
X147350375Y-56957031D01*
X147361144Y-56987698D01*
X147362585Y-57048866D01*
X147327797Y-57099200D01*
X147267736Y-57119500D01*
X122015201Y-57119500D01*
X121957010Y-57100593D01*
X121921046Y-57051093D01*
X121921046Y-56989907D01*
X121957010Y-56940407D01*
X122014863Y-56921501D01*
X139701151Y-56861035D01*
X139701162Y-56861035D01*
X139703078Y-56861028D01*
X139704981Y-56860873D01*
X139704989Y-56860873D01*
X139741319Y-56857920D01*
X139741321Y-56857920D01*
X139743225Y-56857765D01*
X139745118Y-56857462D01*
X139745125Y-56857461D01*
X139761771Y-56854795D01*
X139773486Y-56852919D01*
X139774388Y-56852739D01*
X139774409Y-56852735D01*
X139787344Y-56850150D01*
X139793049Y-56849010D01*
X139884997Y-56806613D01*
X139888929Y-56803756D01*
X139888932Y-56803754D01*
X139932138Y-56772358D01*
X139934494Y-56770646D01*
X139979284Y-56729237D01*
X140028753Y-56640893D01*
X140047657Y-56582701D01*
X140060353Y-56502508D01*
X140060321Y-55991692D01*
X140060267Y-55149437D01*
X140060191Y-53971305D01*
X140079095Y-53913114D01*
X140128592Y-53877147D01*
X140159191Y-53872300D01*
X140471617Y-53872300D01*
X140842753Y-53872299D01*
X140900944Y-53891206D01*
X140936908Y-53940706D01*
X140941752Y-53971633D01*
X140939295Y-54700000D01*
X140938957Y-54800055D01*
X140942592Y-54844222D01*
X140948213Y-54877444D01*
X140953306Y-54900891D01*
X140958245Y-54910949D01*
X140995788Y-54987408D01*
X140995791Y-54987413D01*
X140997934Y-54991777D01*
X141000891Y-54995644D01*
X141033326Y-55038064D01*
X141033331Y-55038070D01*
X141035099Y-55040382D01*
X141077591Y-55084149D01*
X141084478Y-55087787D01*
X141084480Y-55087789D01*
X141162812Y-55129172D01*
X141162815Y-55129173D01*
X141167117Y-55131446D01*
X141171781Y-55132836D01*
X141171783Y-55132837D01*
X141189871Y-55138228D01*
X141225752Y-55148923D01*
X141229601Y-55149436D01*
X141229604Y-55149437D01*
X141302366Y-55159142D01*
X141302368Y-55159142D01*
X141306228Y-55159657D01*
X141310121Y-55159562D01*
X141310126Y-55159562D01*
X141822919Y-55147009D01*
X142131400Y-55139457D01*
X142187498Y-55129172D01*
X142207326Y-55125537D01*
X142207330Y-55125536D01*
X142211142Y-55124837D01*
X142227506Y-55119082D01*
X142266031Y-55105534D01*
X142266039Y-55105530D01*
X142268779Y-55104567D01*
X142323447Y-55077771D01*
X142359206Y-55043119D01*
X142414152Y-55016201D01*
X142460902Y-55020806D01*
X142522605Y-55042474D01*
X142548663Y-55051625D01*
X142554669Y-55052193D01*
X142554670Y-55052193D01*
X142576767Y-55054282D01*
X142576776Y-55054282D01*
X142579078Y-55054500D01*
X143522922Y-55054500D01*
X143525224Y-55054282D01*
X143525233Y-55054282D01*
X143547330Y-55052193D01*
X143547331Y-55052193D01*
X143553337Y-55051625D01*
X143676612Y-55008334D01*
X143696432Y-54993695D01*
X143775751Y-54935108D01*
X143781708Y-54930708D01*
X143799749Y-54906283D01*
X143854938Y-54831564D01*
X143854939Y-54831563D01*
X143859334Y-54825612D01*
X143902625Y-54702337D01*
X143905500Y-54671922D01*
X143905500Y-54669530D01*
X145196001Y-54669530D01*
X145196220Y-54674176D01*
X145198305Y-54696238D01*
X145200870Y-54707931D01*
X145239662Y-54818394D01*
X145246509Y-54831327D01*
X145315249Y-54924394D01*
X145325606Y-54934751D01*
X145418673Y-55003491D01*
X145431606Y-55010338D01*
X145542064Y-55049128D01*
X145553766Y-55051696D01*
X145575830Y-55053782D01*
X145580466Y-55054000D01*
X145907320Y-55054000D01*
X145920005Y-55049878D01*
X145923000Y-55045757D01*
X145923000Y-55038319D01*
X146177000Y-55038319D01*
X146181122Y-55051004D01*
X146185243Y-55053999D01*
X146519530Y-55053999D01*
X146524176Y-55053780D01*
X146546238Y-55051695D01*
X146557931Y-55049130D01*
X146668394Y-55010338D01*
X146681327Y-55003491D01*
X146774394Y-54934751D01*
X146784751Y-54924394D01*
X146853491Y-54831327D01*
X146860338Y-54818394D01*
X146899128Y-54707936D01*
X146901696Y-54696234D01*
X146903782Y-54674170D01*
X146904000Y-54669534D01*
X146904000Y-54042680D01*
X146899878Y-54029995D01*
X146895757Y-54027000D01*
X146192680Y-54027000D01*
X146179995Y-54031122D01*
X146177000Y-54035243D01*
X146177000Y-55038319D01*
X145923000Y-55038319D01*
X145923000Y-54042680D01*
X145918878Y-54029995D01*
X145914757Y-54027000D01*
X145211681Y-54027000D01*
X145198996Y-54031122D01*
X145196001Y-54035243D01*
X145196001Y-54669530D01*
X143905500Y-54669530D01*
X143905500Y-53757320D01*
X145196000Y-53757320D01*
X145200122Y-53770005D01*
X145204243Y-53773000D01*
X145907320Y-53773000D01*
X145920005Y-53768878D01*
X145923000Y-53764757D01*
X145923000Y-52761681D01*
X145918878Y-52748996D01*
X145914757Y-52746001D01*
X145580470Y-52746001D01*
X145575824Y-52746220D01*
X145553762Y-52748305D01*
X145542069Y-52750870D01*
X145431606Y-52789662D01*
X145418673Y-52796509D01*
X145325606Y-52865249D01*
X145315249Y-52875606D01*
X145246509Y-52968673D01*
X145239662Y-52981606D01*
X145200872Y-53092064D01*
X145198304Y-53103766D01*
X145196218Y-53125830D01*
X145196000Y-53130466D01*
X145196000Y-53757320D01*
X143905500Y-53757320D01*
X143905500Y-53128078D01*
X143902625Y-53097663D01*
X143859334Y-52974388D01*
X143853139Y-52966000D01*
X143786108Y-52875249D01*
X143781708Y-52869292D01*
X143683450Y-52796717D01*
X143647878Y-52746937D01*
X143644426Y-52701998D01*
X143652541Y-52649372D01*
X143652541Y-52649367D01*
X143653133Y-52645530D01*
X143648468Y-51507320D01*
X147246000Y-51507320D01*
X147250122Y-51520005D01*
X147254243Y-51523000D01*
X147657320Y-51523000D01*
X147670005Y-51518878D01*
X147673000Y-51514757D01*
X147673000Y-51507320D01*
X147927000Y-51507320D01*
X147931122Y-51520005D01*
X147935243Y-51523000D01*
X148338320Y-51523000D01*
X148351005Y-51518878D01*
X148354000Y-51514757D01*
X148354000Y-51338171D01*
X148353474Y-51330978D01*
X148344299Y-51268652D01*
X148339787Y-51254133D01*
X148291911Y-51156623D01*
X148282512Y-51143494D01*
X148205977Y-51067092D01*
X148192835Y-51057718D01*
X148095229Y-51010007D01*
X148080720Y-51005522D01*
X148018991Y-50996517D01*
X148011864Y-50996000D01*
X147942680Y-50996000D01*
X147929995Y-51000122D01*
X147927000Y-51004243D01*
X147927000Y-51507320D01*
X147673000Y-51507320D01*
X147673000Y-51011680D01*
X147668878Y-50998995D01*
X147664757Y-50996000D01*
X147588171Y-50996000D01*
X147580978Y-50996526D01*
X147518652Y-51005701D01*
X147504133Y-51010213D01*
X147406623Y-51058089D01*
X147393494Y-51067488D01*
X147317092Y-51144023D01*
X147307718Y-51157165D01*
X147260007Y-51254771D01*
X147255522Y-51269280D01*
X147246517Y-51331009D01*
X147246000Y-51338136D01*
X147246000Y-51507320D01*
X143648468Y-51507320D01*
X143629820Y-46957320D01*
X145346000Y-46957320D01*
X145350122Y-46970005D01*
X145354243Y-46973000D01*
X146057320Y-46973000D01*
X146070005Y-46968878D01*
X146073000Y-46964757D01*
X146073000Y-46261681D01*
X146068878Y-46248996D01*
X146064757Y-46246001D01*
X145579844Y-46246001D01*
X145570217Y-46246949D01*
X145510459Y-46258835D01*
X145492786Y-46266155D01*
X145424986Y-46311457D01*
X145411457Y-46324986D01*
X145366154Y-46392788D01*
X145358835Y-46410456D01*
X145346948Y-46470219D01*
X145346000Y-46479841D01*
X145346000Y-46957320D01*
X143629820Y-46957320D01*
X143619017Y-44321320D01*
X145026000Y-44321320D01*
X145030122Y-44334005D01*
X145034243Y-44337000D01*
X145457320Y-44337000D01*
X145470005Y-44332878D01*
X145473000Y-44328757D01*
X145473000Y-43930680D01*
X145468878Y-43917995D01*
X145464757Y-43915000D01*
X145399793Y-43915000D01*
X145392054Y-43915609D01*
X145309578Y-43928672D01*
X145294943Y-43933427D01*
X145195501Y-43984095D01*
X145183056Y-43993137D01*
X145104137Y-44072056D01*
X145095095Y-44084501D01*
X145044427Y-44183943D01*
X145039672Y-44198578D01*
X145026609Y-44281054D01*
X145026000Y-44288793D01*
X145026000Y-44321320D01*
X143619017Y-44321320D01*
X143613633Y-43007725D01*
X143632302Y-42949458D01*
X143681654Y-42913292D01*
X143712649Y-42908320D01*
X146386937Y-42908775D01*
X146445124Y-42927692D01*
X146481080Y-42977198D01*
X146481069Y-43038384D01*
X146470424Y-43058608D01*
X146471262Y-43059092D01*
X146468019Y-43064709D01*
X146464068Y-43069858D01*
X146408195Y-43204746D01*
X146389138Y-43349500D01*
X146408195Y-43494254D01*
X146410679Y-43500251D01*
X146462964Y-43626477D01*
X146470500Y-43664363D01*
X146470500Y-43914864D01*
X146451593Y-43973055D01*
X146437845Y-43986801D01*
X146438265Y-43987221D01*
X146348221Y-44077265D01*
X146344685Y-44084204D01*
X146344684Y-44084206D01*
X146312930Y-44146528D01*
X146269666Y-44189793D01*
X146209234Y-44199365D01*
X146154717Y-44171588D01*
X146136511Y-44146530D01*
X146104907Y-44084504D01*
X146095863Y-44072056D01*
X146016944Y-43993137D01*
X146004499Y-43984095D01*
X145905057Y-43933427D01*
X145890422Y-43928672D01*
X145807946Y-43915609D01*
X145800207Y-43915000D01*
X145742680Y-43915000D01*
X145729995Y-43919122D01*
X145727000Y-43923243D01*
X145727000Y-44492000D01*
X145708093Y-44550191D01*
X145658593Y-44586155D01*
X145628000Y-44591000D01*
X145041680Y-44591000D01*
X145028995Y-44595122D01*
X145026000Y-44599243D01*
X145026000Y-44639207D01*
X145026609Y-44646946D01*
X145039672Y-44729422D01*
X145044427Y-44744057D01*
X145095095Y-44843499D01*
X145104137Y-44855944D01*
X145126836Y-44878643D01*
X145154613Y-44933160D01*
X145145042Y-44993592D01*
X145126834Y-45018652D01*
X145103729Y-45041756D01*
X145103726Y-45041760D01*
X145098221Y-45047265D01*
X145094687Y-45054202D01*
X145094685Y-45054204D01*
X145043946Y-45153786D01*
X145043945Y-45153789D01*
X145040410Y-45160727D01*
X145039191Y-45168421D01*
X145039191Y-45168422D01*
X145026109Y-45251017D01*
X145025500Y-45254863D01*
X145025501Y-45613136D01*
X145026110Y-45616979D01*
X145026110Y-45616984D01*
X145037086Y-45686284D01*
X145040410Y-45707273D01*
X145065855Y-45757212D01*
X145092238Y-45808992D01*
X145098221Y-45820735D01*
X145188265Y-45910779D01*
X145195202Y-45914313D01*
X145195204Y-45914315D01*
X145294786Y-45965054D01*
X145294789Y-45965055D01*
X145301727Y-45968590D01*
X145309421Y-45969809D01*
X145309422Y-45969809D01*
X145392017Y-45982891D01*
X145392019Y-45982891D01*
X145395863Y-45983500D01*
X145599973Y-45983500D01*
X145804136Y-45983499D01*
X145807979Y-45982890D01*
X145807984Y-45982890D01*
X145890579Y-45969809D01*
X145890582Y-45969808D01*
X145898273Y-45968590D01*
X145972143Y-45930952D01*
X146004796Y-45914315D01*
X146004798Y-45914313D01*
X146011735Y-45910779D01*
X146101779Y-45820735D01*
X146105315Y-45813796D01*
X146109895Y-45807491D01*
X146111961Y-45808992D01*
X146146669Y-45774288D01*
X146191609Y-45763500D01*
X146258391Y-45763500D01*
X146316582Y-45782407D01*
X146338810Y-45808432D01*
X146340105Y-45807491D01*
X146344685Y-45813796D01*
X146348221Y-45820735D01*
X146438265Y-45910779D01*
X146445202Y-45914313D01*
X146445204Y-45914315D01*
X146544786Y-45965054D01*
X146544789Y-45965055D01*
X146551727Y-45968590D01*
X146559421Y-45969809D01*
X146559422Y-45969809D01*
X146642017Y-45982891D01*
X146642019Y-45982891D01*
X146645863Y-45983500D01*
X146849973Y-45983500D01*
X147054136Y-45983499D01*
X147057979Y-45982890D01*
X147057984Y-45982890D01*
X147140579Y-45969809D01*
X147140582Y-45969808D01*
X147148273Y-45968590D01*
X147222143Y-45930952D01*
X147254796Y-45914315D01*
X147254798Y-45914313D01*
X147261735Y-45910779D01*
X147337649Y-45834865D01*
X147392166Y-45807088D01*
X147457151Y-45819132D01*
X147469050Y-45826002D01*
X147476327Y-45830637D01*
X147508599Y-45853235D01*
X147516966Y-45855477D01*
X147522411Y-45858016D01*
X147528063Y-45860073D01*
X147535566Y-45864405D01*
X147563326Y-45869300D01*
X147574356Y-45871245D01*
X147582785Y-45873113D01*
X147620840Y-45883310D01*
X147660080Y-45879877D01*
X147668709Y-45879500D01*
X147765634Y-45879500D01*
X147823825Y-45898407D01*
X147826987Y-45902759D01*
X147854844Y-45922999D01*
X148021033Y-45922999D01*
X148040347Y-45924901D01*
X148046650Y-45926155D01*
X148075534Y-45931900D01*
X148085804Y-45931900D01*
X148532601Y-45931899D01*
X148590791Y-45950806D01*
X148626755Y-46000306D01*
X148631600Y-46030899D01*
X148631600Y-46069101D01*
X148612693Y-46127292D01*
X148563193Y-46163256D01*
X148532600Y-46168101D01*
X148085809Y-46168102D01*
X148075535Y-46168102D01*
X148070768Y-46169050D01*
X148065926Y-46169527D01*
X148065904Y-46169301D01*
X148053724Y-46170501D01*
X147951051Y-46170501D01*
X147930214Y-46168283D01*
X147928159Y-46167841D01*
X147918123Y-46165680D01*
X147888109Y-46169233D01*
X147883189Y-46169815D01*
X147875075Y-46170293D01*
X147872558Y-46170501D01*
X147868475Y-46170501D01*
X147864449Y-46171171D01*
X147864438Y-46171172D01*
X147848820Y-46173772D01*
X147844216Y-46174428D01*
X147792658Y-46180531D01*
X147785774Y-46183837D01*
X147782909Y-46184743D01*
X147775373Y-46185997D01*
X147735951Y-46207268D01*
X147729702Y-46210640D01*
X147725545Y-46212758D01*
X147684387Y-46232521D01*
X147684385Y-46232522D01*
X147678767Y-46235220D01*
X147674492Y-46238814D01*
X147672983Y-46240323D01*
X147672140Y-46241096D01*
X147670158Y-46242768D01*
X147664185Y-46245991D01*
X147658633Y-46251997D01*
X147658632Y-46251998D01*
X147627253Y-46285944D01*
X147624559Y-46288747D01*
X147223003Y-46690303D01*
X147168486Y-46718080D01*
X147108054Y-46708509D01*
X147064789Y-46665244D01*
X147053999Y-46620299D01*
X147053999Y-46479844D01*
X147053051Y-46470217D01*
X147041165Y-46410459D01*
X147033845Y-46392786D01*
X146988543Y-46324986D01*
X146975014Y-46311457D01*
X146907212Y-46266154D01*
X146889544Y-46258835D01*
X146829781Y-46246948D01*
X146820159Y-46246000D01*
X146342680Y-46246000D01*
X146329995Y-46250122D01*
X146327000Y-46254243D01*
X146327000Y-47938319D01*
X146331122Y-47951004D01*
X146335243Y-47953999D01*
X146821500Y-47953999D01*
X146879691Y-47972906D01*
X146915655Y-48022406D01*
X146920500Y-48052999D01*
X146920500Y-48246500D01*
X146901593Y-48304691D01*
X146852093Y-48340655D01*
X146821500Y-48345500D01*
X146749616Y-48345500D01*
X145923203Y-48345501D01*
X145865012Y-48326594D01*
X145853199Y-48316505D01*
X145659698Y-48123004D01*
X145631921Y-48068487D01*
X145641492Y-48008055D01*
X145684757Y-47964790D01*
X145729702Y-47954000D01*
X146057320Y-47954000D01*
X146070005Y-47949878D01*
X146073000Y-47945757D01*
X146073000Y-47242680D01*
X146068878Y-47229995D01*
X146064757Y-47227000D01*
X145361681Y-47227000D01*
X145348996Y-47231122D01*
X145346001Y-47235243D01*
X145346001Y-47677154D01*
X145327094Y-47735345D01*
X145277594Y-47771309D01*
X145226164Y-47773936D01*
X145222020Y-47773044D01*
X145216149Y-47770982D01*
X145210584Y-47770500D01*
X145208441Y-47770500D01*
X145207327Y-47770452D01*
X145204726Y-47770232D01*
X145198222Y-47768287D01*
X145190044Y-47768608D01*
X145185247Y-47768002D01*
X145137393Y-47748325D01*
X145034789Y-47669593D01*
X145034785Y-47669591D01*
X145029643Y-47665645D01*
X144894754Y-47609772D01*
X144750000Y-47590715D01*
X144605246Y-47609772D01*
X144470358Y-47665645D01*
X144354526Y-47754526D01*
X144265645Y-47870358D01*
X144209772Y-48005246D01*
X144190715Y-48150000D01*
X144209772Y-48294754D01*
X144265645Y-48429642D01*
X144354526Y-48545474D01*
X144359671Y-48549422D01*
X144359672Y-48549423D01*
X144465211Y-48630407D01*
X144465215Y-48630409D01*
X144470357Y-48634355D01*
X144605246Y-48690228D01*
X144750000Y-48709285D01*
X144894754Y-48690228D01*
X144900751Y-48687744D01*
X145016624Y-48639748D01*
X145077621Y-48634947D01*
X145124514Y-48661208D01*
X145316504Y-48853198D01*
X145344281Y-48907715D01*
X145345500Y-48923202D01*
X145345501Y-49825066D01*
X145360266Y-49899301D01*
X145416516Y-49983484D01*
X145500699Y-50039734D01*
X145510262Y-50041636D01*
X145510264Y-50041637D01*
X145541181Y-50047786D01*
X145574933Y-50054500D01*
X146199871Y-50054500D01*
X146825066Y-50054499D01*
X146829832Y-50053551D01*
X146829833Y-50053551D01*
X146889738Y-50041636D01*
X146899301Y-50039734D01*
X146955890Y-50001922D01*
X147397001Y-50001922D01*
X147397220Y-50006568D01*
X147399437Y-50030028D01*
X147402002Y-50041721D01*
X147442787Y-50157859D01*
X147449634Y-50170792D01*
X147521947Y-50268696D01*
X147532304Y-50279053D01*
X147630208Y-50351366D01*
X147643141Y-50358213D01*
X147759275Y-50398997D01*
X147770975Y-50401564D01*
X147794437Y-50403781D01*
X147799075Y-50404000D01*
X148508320Y-50404000D01*
X148521005Y-50399878D01*
X148524000Y-50395757D01*
X148524000Y-49242680D01*
X148519878Y-49229995D01*
X148515757Y-49227000D01*
X147412681Y-49227000D01*
X147399996Y-49231122D01*
X147397001Y-49235243D01*
X147397001Y-50001922D01*
X146955890Y-50001922D01*
X146983484Y-49983484D01*
X147039734Y-49899301D01*
X147054500Y-49825067D01*
X147054500Y-49273202D01*
X147073407Y-49215011D01*
X147083496Y-49203198D01*
X147292430Y-48994264D01*
X147346947Y-48966487D01*
X147381484Y-48971957D01*
X147381893Y-48969374D01*
X147404789Y-48973000D01*
X148508320Y-48973000D01*
X148521005Y-48968878D01*
X148524000Y-48964757D01*
X148524000Y-48957320D01*
X148778000Y-48957320D01*
X148782122Y-48970005D01*
X148786243Y-48973000D01*
X149889319Y-48973000D01*
X149902004Y-48968878D01*
X149904999Y-48964757D01*
X149904999Y-48198078D01*
X149904780Y-48193432D01*
X149902563Y-48169972D01*
X149899998Y-48158279D01*
X149859213Y-48042141D01*
X149852366Y-48029208D01*
X149780053Y-47931304D01*
X149769696Y-47920947D01*
X149671792Y-47848634D01*
X149658859Y-47841787D01*
X149542725Y-47801003D01*
X149531025Y-47798436D01*
X149507563Y-47796219D01*
X149502925Y-47796000D01*
X148793680Y-47796000D01*
X148780995Y-47800122D01*
X148778000Y-47804243D01*
X148778000Y-48957320D01*
X148524000Y-48957320D01*
X148524000Y-47811681D01*
X148519878Y-47798996D01*
X148515757Y-47796001D01*
X147799078Y-47796001D01*
X147794420Y-47796221D01*
X147787808Y-47796845D01*
X147728097Y-47783493D01*
X147687639Y-47737594D01*
X147679500Y-47698284D01*
X147679500Y-47348202D01*
X147698407Y-47290011D01*
X147708496Y-47278198D01*
X148025797Y-46960897D01*
X148080314Y-46933120D01*
X148095801Y-46931901D01*
X148181670Y-46931901D01*
X148790070Y-46931900D01*
X148848260Y-46950807D01*
X148872385Y-46975899D01*
X148885157Y-46995014D01*
X148898686Y-47008543D01*
X148966488Y-47053846D01*
X148984156Y-47061165D01*
X149043919Y-47073052D01*
X149053541Y-47074000D01*
X149807320Y-47074000D01*
X149820005Y-47069878D01*
X149823000Y-47065757D01*
X149823000Y-44041681D01*
X149818878Y-44028996D01*
X149814757Y-44026001D01*
X149048684Y-44026001D01*
X149048684Y-44024725D01*
X148994438Y-44012823D01*
X148953797Y-43967085D01*
X148945500Y-43927413D01*
X148945500Y-43741609D01*
X148964407Y-43683418D01*
X148990432Y-43661190D01*
X148989491Y-43659895D01*
X148995797Y-43655314D01*
X149002735Y-43651779D01*
X149008238Y-43646276D01*
X149008245Y-43646271D01*
X149030352Y-43624164D01*
X149084869Y-43596388D01*
X149145301Y-43605960D01*
X149170358Y-43624165D01*
X149192056Y-43645863D01*
X149204501Y-43654905D01*
X149303943Y-43705573D01*
X149318578Y-43710328D01*
X149401054Y-43723391D01*
X149408793Y-43724000D01*
X149441320Y-43724000D01*
X149454005Y-43719878D01*
X149457000Y-43715757D01*
X149457000Y-43708320D01*
X149711000Y-43708320D01*
X149715122Y-43721005D01*
X149719243Y-43724000D01*
X149759207Y-43724000D01*
X149766946Y-43723391D01*
X149849422Y-43710328D01*
X149864057Y-43705573D01*
X149963499Y-43654905D01*
X149975944Y-43645863D01*
X150054863Y-43566944D01*
X150063905Y-43554499D01*
X150114573Y-43455057D01*
X150119328Y-43440422D01*
X150132391Y-43357946D01*
X150133000Y-43350207D01*
X150133000Y-43292680D01*
X150128878Y-43279995D01*
X150124757Y-43277000D01*
X149726680Y-43277000D01*
X149713995Y-43281122D01*
X149711000Y-43285243D01*
X149711000Y-43708320D01*
X149457000Y-43708320D01*
X149457000Y-43122000D01*
X149475907Y-43063809D01*
X149525407Y-43027845D01*
X149556000Y-43023000D01*
X150117320Y-43023000D01*
X150130005Y-43018878D01*
X150133000Y-43014757D01*
X150133000Y-43008429D01*
X150151907Y-42950238D01*
X150201407Y-42914274D01*
X150232017Y-42909429D01*
X150549004Y-42909483D01*
X150550939Y-42909483D01*
X150552857Y-42909332D01*
X150552865Y-42909332D01*
X150569277Y-42908042D01*
X150591552Y-42906292D01*
X150593457Y-42905990D01*
X150593461Y-42905990D01*
X150621211Y-42901598D01*
X150621234Y-42901594D01*
X150622162Y-42901447D01*
X150642173Y-42897468D01*
X150647473Y-42895025D01*
X150647475Y-42895024D01*
X150729702Y-42857117D01*
X150729705Y-42857115D01*
X150734124Y-42855078D01*
X150783624Y-42819114D01*
X150785755Y-42817144D01*
X150785760Y-42817140D01*
X150810459Y-42794307D01*
X150828419Y-42777705D01*
X150846606Y-42745229D01*
X150875515Y-42693609D01*
X150875516Y-42693606D01*
X150877893Y-42689362D01*
X150896800Y-42631171D01*
X150909500Y-42550983D01*
X150909500Y-41706416D01*
X150906406Y-41666464D01*
X150905834Y-41662794D01*
X150901857Y-41637268D01*
X150901855Y-41637259D01*
X150901713Y-41636345D01*
X150897939Y-41616989D01*
X150886881Y-41592680D01*
X150858023Y-41529246D01*
X150856012Y-41524825D01*
X150825337Y-41482154D01*
X150821997Y-41477508D01*
X150821995Y-41477505D01*
X150820298Y-41475145D01*
X150779116Y-41430142D01*
X150772340Y-41426302D01*
X150772337Y-41426300D01*
X150695254Y-41382622D01*
X150695255Y-41382622D01*
X150691024Y-41380225D01*
X150686409Y-41378700D01*
X150686405Y-41378698D01*
X150650042Y-41366681D01*
X150632929Y-41361025D01*
X150629091Y-41360397D01*
X150629090Y-41360397D01*
X150607035Y-41356790D01*
X150552803Y-41347920D01*
X150548927Y-41347901D01*
X150548921Y-41347900D01*
X144539021Y-41317682D01*
X141343596Y-41301615D01*
X141302770Y-41304639D01*
X141294691Y-41305884D01*
X141272943Y-41309235D01*
X141272932Y-41309237D01*
X141271997Y-41309381D01*
X141271084Y-41309559D01*
X141271067Y-41309562D01*
X141264322Y-41310878D01*
X141251793Y-41313321D01*
X141246476Y-41315750D01*
X141246471Y-41315752D01*
X141192672Y-41340333D01*
X141159699Y-41355399D01*
X141110078Y-41391195D01*
X141065140Y-41432454D01*
X141061312Y-41439236D01*
X141061311Y-41439237D01*
X141017760Y-41516392D01*
X141017758Y-41516397D01*
X141015369Y-41520629D01*
X140996266Y-41578755D01*
X140983295Y-41658900D01*
X140963156Y-47627990D01*
X140962305Y-47627987D01*
X140946351Y-47683939D01*
X140898192Y-47721679D01*
X140864195Y-47727700D01*
X140486101Y-47727701D01*
X140158786Y-47727701D01*
X140100595Y-47708794D01*
X140064631Y-47659294D01*
X140059786Y-47628707D01*
X140059559Y-44071759D01*
X140059506Y-43247532D01*
X140056601Y-43208830D01*
X140052195Y-43179631D01*
X140050785Y-43172109D01*
X140049852Y-43167133D01*
X140049851Y-43167130D01*
X140048793Y-43161487D01*
X140007760Y-43068923D01*
X140003174Y-43062411D01*
X139974205Y-43021281D01*
X139972528Y-43018900D01*
X139963867Y-43009249D01*
X139936987Y-42979299D01*
X139936986Y-42979298D01*
X139931784Y-42973502D01*
X139858510Y-42931039D01*
X139848388Y-42925173D01*
X139848387Y-42925172D01*
X139844179Y-42922734D01*
X139786273Y-42902973D01*
X139782443Y-42902308D01*
X139782441Y-42902308D01*
X139710106Y-42889758D01*
X139710104Y-42889758D01*
X139706278Y-42889094D01*
X134502919Y-42812574D01*
X133103922Y-42792000D01*
X133103920Y-42792000D01*
X133102014Y-42791972D01*
X133062404Y-42794424D01*
X133060524Y-42794686D01*
X133060522Y-42794686D01*
X133033400Y-42798463D01*
X133033389Y-42798465D01*
X133032504Y-42798588D01*
X133031623Y-42798744D01*
X133031619Y-42798745D01*
X133019173Y-42800954D01*
X133019172Y-42800954D01*
X133013472Y-42801966D01*
X132920581Y-42842254D01*
X132916582Y-42845023D01*
X132916578Y-42845025D01*
X132872673Y-42875423D01*
X132872668Y-42875427D01*
X132870276Y-42877083D01*
X132868099Y-42879006D01*
X132868092Y-42879011D01*
X132850266Y-42894754D01*
X132824545Y-42917468D01*
X132773078Y-43004664D01*
X132771473Y-43009247D01*
X132771472Y-43009249D01*
X132758816Y-43045388D01*
X132752854Y-43062411D01*
X132738336Y-43142288D01*
X132642843Y-47343941D01*
X132645327Y-47386137D01*
X132649823Y-47417962D01*
X132650703Y-47422725D01*
X132651373Y-47426353D01*
X132653805Y-47439525D01*
X132656220Y-47444916D01*
X132656221Y-47444918D01*
X132664912Y-47464315D01*
X132695204Y-47531926D01*
X132730633Y-47581809D01*
X132771558Y-47627047D01*
X132859363Y-47677468D01*
X132863968Y-47679019D01*
X132863972Y-47679021D01*
X132891440Y-47688273D01*
X132917348Y-47697000D01*
X132956635Y-47703656D01*
X132993557Y-47709912D01*
X132993562Y-47709912D01*
X132997396Y-47710562D01*
X133001290Y-47710604D01*
X133001291Y-47710604D01*
X135601712Y-47738566D01*
X135659697Y-47758098D01*
X135695126Y-47807981D01*
X135694468Y-47869163D01*
X135692324Y-47874880D01*
X135686966Y-47882899D01*
X135672200Y-47957133D01*
X135672200Y-48238700D01*
X135653293Y-48296891D01*
X135603793Y-48332855D01*
X135573200Y-48337700D01*
X134033847Y-48337700D01*
X134013009Y-48335482D01*
X134008924Y-48334602D01*
X134008921Y-48334602D01*
X134000924Y-48332880D01*
X133965999Y-48337014D01*
X133957829Y-48337496D01*
X133955362Y-48337700D01*
X133951276Y-48337700D01*
X133943322Y-48339024D01*
X133931605Y-48340974D01*
X133926987Y-48341632D01*
X133914582Y-48343100D01*
X133875459Y-48347731D01*
X133868583Y-48351033D01*
X133865705Y-48351942D01*
X133858174Y-48353196D01*
X133850973Y-48357081D01*
X133850974Y-48357081D01*
X133812486Y-48377848D01*
X133808336Y-48379963D01*
X133761568Y-48402420D01*
X133757292Y-48406014D01*
X133755780Y-48407526D01*
X133754939Y-48408297D01*
X133752961Y-48409966D01*
X133746986Y-48413190D01*
X133725450Y-48436488D01*
X133710054Y-48453143D01*
X133707360Y-48455946D01*
X131896802Y-50266504D01*
X131842285Y-50294281D01*
X131826798Y-50295500D01*
X120073202Y-50295500D01*
X120015011Y-50276593D01*
X120003198Y-50266504D01*
X118221640Y-48484946D01*
X118208477Y-48468645D01*
X118201771Y-48458260D01*
X118174153Y-48436488D01*
X118168035Y-48431052D01*
X118166143Y-48429449D01*
X118163256Y-48426562D01*
X118147039Y-48414973D01*
X118143309Y-48412173D01*
X118108977Y-48385108D01*
X118108976Y-48385107D01*
X118102553Y-48380044D01*
X118095356Y-48377517D01*
X118092681Y-48376127D01*
X118086466Y-48371686D01*
X118036737Y-48356814D01*
X118032306Y-48355374D01*
X117989222Y-48340244D01*
X117989219Y-48340243D01*
X117983349Y-48338182D01*
X117977784Y-48337700D01*
X117975641Y-48337700D01*
X117974527Y-48337652D01*
X117971926Y-48337432D01*
X117965422Y-48335487D01*
X117957246Y-48335808D01*
X117957244Y-48335808D01*
X117911030Y-48337624D01*
X117907143Y-48337700D01*
X115064999Y-48337700D01*
X115006808Y-48318793D01*
X114970844Y-48269293D01*
X114965999Y-48238700D01*
X114965999Y-48010473D01*
X114984906Y-47952282D01*
X115034406Y-47916318D01*
X115064951Y-47911473D01*
X117738837Y-47910242D01*
X119250450Y-47909546D01*
X119250454Y-47909546D01*
X119252309Y-47909545D01*
X119278043Y-47907586D01*
X119289477Y-47906716D01*
X119289482Y-47906715D01*
X119291353Y-47906573D01*
X119293203Y-47906291D01*
X119293208Y-47906290D01*
X119319901Y-47902215D01*
X119319917Y-47902212D01*
X119320803Y-47902077D01*
X119321669Y-47901912D01*
X119321695Y-47901908D01*
X119333619Y-47899642D01*
X119333620Y-47899642D01*
X119339281Y-47898566D01*
X119344541Y-47896215D01*
X119344544Y-47896214D01*
X119427278Y-47859233D01*
X119431719Y-47857248D01*
X119481634Y-47821862D01*
X119526909Y-47780976D01*
X119545696Y-47748325D01*
X119574981Y-47697430D01*
X119574982Y-47697428D01*
X119577406Y-47693215D01*
X119596988Y-47635248D01*
X119606493Y-47579437D01*
X119609967Y-47559042D01*
X119609967Y-47559040D01*
X119610619Y-47555213D01*
X119658311Y-43453760D01*
X119657920Y-43448273D01*
X119655395Y-43412923D01*
X119655395Y-43412920D01*
X119655249Y-43410880D01*
X119654506Y-43406097D01*
X119651733Y-43388265D01*
X119650228Y-43378582D01*
X119645774Y-43356370D01*
X119602839Y-43264672D01*
X119566582Y-43215386D01*
X119551019Y-43198749D01*
X119530235Y-43176530D01*
X119530233Y-43176529D01*
X119524911Y-43170839D01*
X119518091Y-43167072D01*
X119518089Y-43167071D01*
X119440532Y-43124239D01*
X119440533Y-43124239D01*
X119436277Y-43121889D01*
X119431647Y-43120415D01*
X119431645Y-43120414D01*
X119381686Y-43104508D01*
X119381684Y-43104507D01*
X119377976Y-43103327D01*
X119297713Y-43091102D01*
X119293822Y-43091125D01*
X119293821Y-43091125D01*
X118435296Y-43096209D01*
X110986853Y-43140315D01*
X110985109Y-43140449D01*
X110985103Y-43140449D01*
X110952086Y-43142981D01*
X110952075Y-43142982D01*
X110950331Y-43143116D01*
X110922752Y-43147205D01*
X110906731Y-43150097D01*
X110901555Y-43152324D01*
X110901551Y-43152325D01*
X110818192Y-43188188D01*
X110818188Y-43188190D01*
X110813721Y-43190112D01*
X110763314Y-43224793D01*
X110761133Y-43226708D01*
X110761130Y-43226710D01*
X110752422Y-43234355D01*
X110717471Y-43265038D01*
X110713492Y-43271734D01*
X110713491Y-43271735D01*
X110693722Y-43305002D01*
X110665745Y-43352080D01*
X110645350Y-43409766D01*
X110630595Y-43489603D01*
X110624706Y-43718878D01*
X110524223Y-47631242D01*
X110503828Y-47688928D01*
X110453421Y-47723609D01*
X110425256Y-47727700D01*
X109169732Y-47727701D01*
X109101634Y-47727701D01*
X109096868Y-47728649D01*
X109096867Y-47728649D01*
X109063202Y-47735345D01*
X109027399Y-47742466D01*
X108943216Y-47798716D01*
X108886966Y-47882899D01*
X108885064Y-47892461D01*
X108885063Y-47892464D01*
X108879768Y-47919086D01*
X108872200Y-47957133D01*
X108872201Y-49477266D01*
X108886966Y-49551501D01*
X108943216Y-49635684D01*
X109027399Y-49691934D01*
X109036964Y-49693837D01*
X109036965Y-49693837D01*
X109040811Y-49694602D01*
X109094196Y-49724497D01*
X109119813Y-49780061D01*
X109120500Y-49791700D01*
X109120500Y-51808300D01*
X109101593Y-51866491D01*
X109052093Y-51902455D01*
X109040817Y-51905397D01*
X109038778Y-51905803D01*
X109036961Y-51906164D01*
X109036960Y-51906164D01*
X109027399Y-51908066D01*
X108943216Y-51964316D01*
X108886966Y-52048499D01*
X108885064Y-52058062D01*
X108885063Y-52058064D01*
X108878914Y-52088981D01*
X108872200Y-52122733D01*
X108872200Y-52404300D01*
X108853293Y-52462491D01*
X108803793Y-52498455D01*
X108773200Y-52503300D01*
X107527483Y-52503300D01*
X107467215Y-52482842D01*
X107384789Y-52419593D01*
X107384785Y-52419591D01*
X107379643Y-52415645D01*
X107244754Y-52359772D01*
X107100000Y-52340715D01*
X106955246Y-52359772D01*
X106820358Y-52415645D01*
X106704526Y-52504526D01*
X106615645Y-52620358D01*
X106559772Y-52755246D01*
X106540715Y-52900000D01*
X106559772Y-53044754D01*
X106615645Y-53179642D01*
X106704526Y-53295474D01*
X106709671Y-53299422D01*
X106709672Y-53299423D01*
X106815211Y-53380407D01*
X106815215Y-53380409D01*
X106820357Y-53384355D01*
X106955246Y-53440228D01*
X107100000Y-53459285D01*
X107244754Y-53440228D01*
X107379643Y-53384355D01*
X107384785Y-53380409D01*
X107384789Y-53380407D01*
X107490328Y-53299423D01*
X107490329Y-53299422D01*
X107495474Y-53295474D01*
X107498823Y-53291109D01*
X107552966Y-53263519D01*
X107568457Y-53262300D01*
X108773201Y-53262300D01*
X108831392Y-53281207D01*
X108867356Y-53330707D01*
X108872201Y-53361300D01*
X108872201Y-53642866D01*
X108886966Y-53717101D01*
X108943216Y-53801284D01*
X109027399Y-53857534D01*
X109036962Y-53859436D01*
X109036964Y-53859437D01*
X109061942Y-53864405D01*
X109101633Y-53872300D01*
X109154187Y-53872300D01*
X110262355Y-53872299D01*
X110320546Y-53891206D01*
X110356510Y-53940706D01*
X110361322Y-53973841D01*
X110294116Y-56590519D01*
X110294116Y-56590531D01*
X110294062Y-56592641D01*
X110296735Y-56637045D01*
X110301653Y-56670501D01*
X110306272Y-56694198D01*
X110348975Y-56786004D01*
X110351850Y-56789932D01*
X110351850Y-56789933D01*
X110381993Y-56831125D01*
X110385107Y-56835381D01*
X110426670Y-56880037D01*
X110433479Y-56883820D01*
X110433482Y-56883822D01*
X110510933Y-56926850D01*
X110510937Y-56926852D01*
X110515180Y-56929209D01*
X110517902Y-56930083D01*
X110563301Y-56970151D01*
X110576616Y-57029870D01*
X110552286Y-57086010D01*
X110499604Y-57117127D01*
X110478060Y-57119500D01*
X108739291Y-57119500D01*
X108681100Y-57100593D01*
X108669287Y-57090504D01*
X104937694Y-53358911D01*
X104909917Y-53304394D01*
X104919488Y-53243962D01*
X104933261Y-53223638D01*
X104979735Y-53170645D01*
X105120808Y-52951323D01*
X105127957Y-52935454D01*
X105226406Y-52716905D01*
X105226407Y-52716903D01*
X105227914Y-52713557D01*
X105236687Y-52682450D01*
X105297702Y-52466108D01*
X105297703Y-52466105D01*
X105298699Y-52462572D01*
X105331609Y-52203881D01*
X105333185Y-52143678D01*
X105333955Y-52114292D01*
X105333955Y-52114287D01*
X105334020Y-52111800D01*
X105321834Y-51947818D01*
X105314966Y-51855395D01*
X105314965Y-51855389D01*
X105314694Y-51851741D01*
X105257142Y-51597395D01*
X105253567Y-51588200D01*
X105163957Y-51357770D01*
X105162627Y-51354350D01*
X105033225Y-51127945D01*
X104871780Y-50923153D01*
X104869107Y-50920639D01*
X104869102Y-50920633D01*
X104729768Y-50789561D01*
X104681839Y-50744474D01*
X104467573Y-50595832D01*
X104233690Y-50480494D01*
X103985328Y-50400993D01*
X103981713Y-50400404D01*
X103981712Y-50400404D01*
X103731561Y-50359664D01*
X103731560Y-50359664D01*
X103727944Y-50359075D01*
X103724281Y-50359027D01*
X103724280Y-50359027D01*
X103597567Y-50357369D01*
X103467190Y-50355662D01*
X103463562Y-50356156D01*
X103463558Y-50356156D01*
X103364827Y-50369593D01*
X103208796Y-50390828D01*
X102958438Y-50463800D01*
X102931974Y-50476000D01*
X102724951Y-50571439D01*
X102724945Y-50571442D01*
X102721616Y-50572977D01*
X102584155Y-50663100D01*
X102519872Y-50705246D01*
X102503533Y-50715958D01*
X102500800Y-50718397D01*
X102500799Y-50718398D01*
X102311716Y-50887161D01*
X102308979Y-50889604D01*
X102306632Y-50892426D01*
X102306631Y-50892427D01*
X102161380Y-51067073D01*
X102142229Y-51090100D01*
X102006945Y-51313040D01*
X101906100Y-51553528D01*
X101905196Y-51557089D01*
X101905195Y-51557091D01*
X101844209Y-51797229D01*
X101841910Y-51806280D01*
X101815783Y-52065744D01*
X101330597Y-52065744D01*
X101321834Y-51947818D01*
X101314966Y-51855395D01*
X101314965Y-51855389D01*
X101314694Y-51851741D01*
X101257142Y-51597395D01*
X101253567Y-51588200D01*
X101163960Y-51357777D01*
X101163957Y-51357770D01*
X101162627Y-51354350D01*
X101122108Y-51283457D01*
X101109647Y-51223555D01*
X101138055Y-51164328D01*
X102618887Y-49683496D01*
X102673404Y-49655719D01*
X102688891Y-49654500D01*
X102865494Y-49654500D01*
X102939104Y-49643664D01*
X102946008Y-49640274D01*
X102946012Y-49640273D01*
X103029034Y-49599510D01*
X103051019Y-49588716D01*
X103139102Y-49500480D01*
X103193854Y-49388470D01*
X103204500Y-49315494D01*
X103204500Y-48884506D01*
X103193664Y-48810896D01*
X103190274Y-48803992D01*
X103190273Y-48803988D01*
X103142320Y-48706322D01*
X103138716Y-48698981D01*
X103127460Y-48687744D01*
X103066325Y-48626716D01*
X103050480Y-48610898D01*
X102938470Y-48556146D01*
X102885195Y-48548374D01*
X102869039Y-48546017D01*
X102869037Y-48546017D01*
X102865494Y-48545500D01*
X102234506Y-48545500D01*
X102160896Y-48556336D01*
X102153992Y-48559726D01*
X102153988Y-48559727D01*
X102084741Y-48593727D01*
X102048981Y-48611284D01*
X101960898Y-48699520D01*
X101906146Y-48811530D01*
X101895500Y-48884506D01*
X101895500Y-49315494D01*
X101906336Y-49389104D01*
X101907282Y-49391031D01*
X101906527Y-49449441D01*
X101882780Y-49487637D01*
X100707317Y-50663100D01*
X100652800Y-50690877D01*
X100592368Y-50681306D01*
X100580890Y-50674443D01*
X100467573Y-50595832D01*
X100233690Y-50480494D01*
X99985328Y-50400993D01*
X99981713Y-50400404D01*
X99981712Y-50400404D01*
X99731561Y-50359664D01*
X99731560Y-50359664D01*
X99727944Y-50359075D01*
X99724281Y-50359027D01*
X99724280Y-50359027D01*
X99597567Y-50357369D01*
X99467190Y-50355662D01*
X99463562Y-50356156D01*
X99463558Y-50356156D01*
X99364827Y-50369593D01*
X99208796Y-50390828D01*
X98958438Y-50463800D01*
X98931974Y-50476000D01*
X98724951Y-50571439D01*
X98724945Y-50571442D01*
X98721616Y-50572977D01*
X98584155Y-50663100D01*
X98519872Y-50705246D01*
X98503533Y-50715958D01*
X98500800Y-50718397D01*
X98500799Y-50718398D01*
X98311716Y-50887161D01*
X98308979Y-50889604D01*
X98306632Y-50892426D01*
X98306631Y-50892427D01*
X98161380Y-51067073D01*
X98142229Y-51090100D01*
X98006945Y-51313040D01*
X97906100Y-51553528D01*
X97905196Y-51557089D01*
X97905195Y-51557091D01*
X97844209Y-51797229D01*
X97841910Y-51806280D01*
X97815783Y-52065744D01*
X97330597Y-52065744D01*
X97321834Y-51947818D01*
X97314966Y-51855395D01*
X97314965Y-51855389D01*
X97314694Y-51851741D01*
X97257142Y-51597395D01*
X97253567Y-51588200D01*
X97163957Y-51357770D01*
X97162627Y-51354350D01*
X97033225Y-51127945D01*
X96871780Y-50923153D01*
X96869107Y-50920639D01*
X96869102Y-50920633D01*
X96729768Y-50789561D01*
X96681839Y-50744474D01*
X96467573Y-50595832D01*
X96233690Y-50480494D01*
X95985328Y-50400993D01*
X95981713Y-50400404D01*
X95981712Y-50400404D01*
X95731561Y-50359664D01*
X95731560Y-50359664D01*
X95727944Y-50359075D01*
X95724281Y-50359027D01*
X95724280Y-50359027D01*
X95597567Y-50357369D01*
X95467190Y-50355662D01*
X95463562Y-50356156D01*
X95463558Y-50356156D01*
X95364827Y-50369593D01*
X95208796Y-50390828D01*
X94958438Y-50463800D01*
X94931974Y-50476000D01*
X94724951Y-50571439D01*
X94724945Y-50571442D01*
X94721616Y-50572977D01*
X94584155Y-50663100D01*
X94519872Y-50705246D01*
X94503533Y-50715958D01*
X94500800Y-50718397D01*
X94500799Y-50718398D01*
X94311716Y-50887161D01*
X94308979Y-50889604D01*
X94306632Y-50892426D01*
X94306631Y-50892427D01*
X94161380Y-51067073D01*
X94142229Y-51090100D01*
X94006945Y-51313040D01*
X93906100Y-51553528D01*
X93905196Y-51557089D01*
X93905195Y-51557091D01*
X93844209Y-51797229D01*
X93841910Y-51806280D01*
X93815783Y-52065744D01*
X93479500Y-52065744D01*
X93479500Y-48560207D01*
X94326000Y-48560207D01*
X94326609Y-48567946D01*
X94339672Y-48650422D01*
X94344427Y-48665057D01*
X94395095Y-48764499D01*
X94404137Y-48776944D01*
X94483056Y-48855863D01*
X94495501Y-48864905D01*
X94594943Y-48915573D01*
X94609578Y-48920328D01*
X94692054Y-48933391D01*
X94699793Y-48934000D01*
X94757320Y-48934000D01*
X94770005Y-48929878D01*
X94773000Y-48925757D01*
X94773000Y-48918320D01*
X95027000Y-48918320D01*
X95031122Y-48931005D01*
X95035243Y-48934000D01*
X95100207Y-48934000D01*
X95107946Y-48933391D01*
X95190422Y-48920328D01*
X95205057Y-48915573D01*
X95304499Y-48864905D01*
X95316944Y-48855863D01*
X95395863Y-48776944D01*
X95404905Y-48764499D01*
X95455573Y-48665057D01*
X95460328Y-48650422D01*
X95473391Y-48567946D01*
X95474000Y-48560207D01*
X95474000Y-48527680D01*
X95469878Y-48514995D01*
X95465757Y-48512000D01*
X95042680Y-48512000D01*
X95029995Y-48516122D01*
X95027000Y-48520243D01*
X95027000Y-48918320D01*
X94773000Y-48918320D01*
X94773000Y-48527680D01*
X94768878Y-48514995D01*
X94764757Y-48512000D01*
X94341680Y-48512000D01*
X94328995Y-48516122D01*
X94326000Y-48520243D01*
X94326000Y-48560207D01*
X93479500Y-48560207D01*
X93479500Y-46648202D01*
X93498407Y-46590011D01*
X93508496Y-46578198D01*
X94400410Y-45686284D01*
X94454927Y-45658507D01*
X94515359Y-45668078D01*
X94558624Y-45711343D01*
X94569036Y-45747657D01*
X94570125Y-45760096D01*
X94570500Y-45768706D01*
X94570500Y-46835653D01*
X94551593Y-46893844D01*
X94516445Y-46923863D01*
X94488265Y-46938221D01*
X94398221Y-47028265D01*
X94394687Y-47035202D01*
X94394685Y-47035204D01*
X94343946Y-47134786D01*
X94343945Y-47134789D01*
X94340410Y-47141727D01*
X94339191Y-47149421D01*
X94339191Y-47149422D01*
X94328077Y-47219593D01*
X94325500Y-47235863D01*
X94325501Y-47594136D01*
X94326110Y-47597979D01*
X94326110Y-47597984D01*
X94338945Y-47679021D01*
X94340410Y-47688273D01*
X94360499Y-47727700D01*
X94393922Y-47793297D01*
X94398221Y-47801735D01*
X94426836Y-47830350D01*
X94454613Y-47884867D01*
X94445042Y-47945299D01*
X94426834Y-47970359D01*
X94404139Y-47993053D01*
X94395095Y-48005501D01*
X94344427Y-48104943D01*
X94339672Y-48119578D01*
X94326609Y-48202054D01*
X94326000Y-48209793D01*
X94326000Y-48242320D01*
X94330122Y-48255005D01*
X94334243Y-48258000D01*
X95458320Y-48258000D01*
X95471005Y-48253878D01*
X95474000Y-48249757D01*
X95474000Y-48209793D01*
X95473391Y-48202054D01*
X95460328Y-48119578D01*
X95455573Y-48104943D01*
X95404905Y-48005501D01*
X95395863Y-47993056D01*
X95373165Y-47970358D01*
X95345388Y-47915841D01*
X95354959Y-47855409D01*
X95373164Y-47830352D01*
X95396271Y-47807245D01*
X95396276Y-47807238D01*
X95401779Y-47801735D01*
X95405315Y-47794796D01*
X95409895Y-47788491D01*
X95411961Y-47789992D01*
X95446669Y-47755288D01*
X95491609Y-47744500D01*
X96046500Y-47744500D01*
X96104691Y-47763407D01*
X96140655Y-47812907D01*
X96145500Y-47843500D01*
X96145500Y-48013608D01*
X96151818Y-48061596D01*
X96155016Y-48068455D01*
X96155017Y-48068457D01*
X96173065Y-48107161D01*
X96180521Y-48167891D01*
X96173065Y-48190839D01*
X96167836Y-48202054D01*
X96151818Y-48236404D01*
X96145500Y-48284392D01*
X96145500Y-48511608D01*
X96151818Y-48559596D01*
X96155016Y-48566455D01*
X96155017Y-48566457D01*
X96186955Y-48634947D01*
X96200926Y-48664909D01*
X96283091Y-48747074D01*
X96290940Y-48750734D01*
X96381543Y-48792983D01*
X96381545Y-48792984D01*
X96388404Y-48796182D01*
X96436392Y-48802500D01*
X96487500Y-48802500D01*
X96545691Y-48821407D01*
X96581655Y-48870907D01*
X96586500Y-48901500D01*
X96586500Y-48958391D01*
X96567593Y-49016582D01*
X96541568Y-49038810D01*
X96542509Y-49040105D01*
X96536204Y-49044685D01*
X96529265Y-49048221D01*
X96439221Y-49138265D01*
X96435687Y-49145202D01*
X96435685Y-49145204D01*
X96384946Y-49244786D01*
X96384945Y-49244789D01*
X96381410Y-49251727D01*
X96380191Y-49259421D01*
X96380191Y-49259422D01*
X96370741Y-49319086D01*
X96366500Y-49345863D01*
X96366501Y-49754136D01*
X96367110Y-49757979D01*
X96367110Y-49757984D01*
X96379513Y-49836294D01*
X96381410Y-49848273D01*
X96439221Y-49961735D01*
X96529265Y-50051779D01*
X96536202Y-50055313D01*
X96536204Y-50055315D01*
X96635786Y-50106054D01*
X96635789Y-50106055D01*
X96642727Y-50109590D01*
X96650421Y-50110809D01*
X96650422Y-50110809D01*
X96733017Y-50123891D01*
X96733019Y-50123891D01*
X96736863Y-50124500D01*
X96915976Y-50124500D01*
X97095136Y-50124499D01*
X97098979Y-50123890D01*
X97098984Y-50123890D01*
X97181579Y-50110809D01*
X97181582Y-50110808D01*
X97189273Y-50109590D01*
X97246004Y-50080685D01*
X97295796Y-50055315D01*
X97295798Y-50055313D01*
X97302735Y-50051779D01*
X97329996Y-50024518D01*
X97384513Y-49996741D01*
X97444945Y-50006312D01*
X97470004Y-50024518D01*
X97497265Y-50051779D01*
X97504202Y-50055313D01*
X97504204Y-50055315D01*
X97603786Y-50106054D01*
X97603789Y-50106055D01*
X97610727Y-50109590D01*
X97618421Y-50110809D01*
X97618422Y-50110809D01*
X97701017Y-50123891D01*
X97701019Y-50123891D01*
X97704863Y-50124500D01*
X97883976Y-50124500D01*
X98063136Y-50124499D01*
X98066979Y-50123890D01*
X98066984Y-50123890D01*
X98149579Y-50110809D01*
X98149582Y-50110808D01*
X98157273Y-50109590D01*
X98214004Y-50080685D01*
X98263796Y-50055315D01*
X98263798Y-50055313D01*
X98270735Y-50051779D01*
X98360779Y-49961735D01*
X98368000Y-49947563D01*
X98415054Y-49855214D01*
X98415055Y-49855211D01*
X98418590Y-49848273D01*
X98420488Y-49836294D01*
X98432891Y-49757983D01*
X98432891Y-49757981D01*
X98433500Y-49754137D01*
X98433499Y-49345864D01*
X98429251Y-49319039D01*
X98419809Y-49259421D01*
X98419808Y-49259418D01*
X98418590Y-49251727D01*
X98389684Y-49194996D01*
X98364315Y-49145204D01*
X98364313Y-49145202D01*
X98360779Y-49138265D01*
X98270735Y-49048221D01*
X98263798Y-49044687D01*
X98263796Y-49044685D01*
X98164214Y-48993946D01*
X98164211Y-48993945D01*
X98157273Y-48990410D01*
X98149579Y-48989191D01*
X98149578Y-48989191D01*
X98127283Y-48985660D01*
X98106181Y-48982318D01*
X98051665Y-48954541D01*
X98023888Y-48900024D01*
X98033459Y-48839592D01*
X98049128Y-48823923D01*
X98049098Y-48823902D01*
X98071000Y-48793757D01*
X98071000Y-48786320D01*
X98325000Y-48786320D01*
X98329122Y-48799005D01*
X98333243Y-48802000D01*
X98458309Y-48802000D01*
X98464763Y-48801577D01*
X98501952Y-48796681D01*
X98516334Y-48792489D01*
X98606768Y-48750319D01*
X98620741Y-48740535D01*
X98690535Y-48670741D01*
X98700319Y-48656768D01*
X98742489Y-48566334D01*
X98746681Y-48551952D01*
X98748182Y-48540547D01*
X98745751Y-48527431D01*
X98744449Y-48526195D01*
X98739168Y-48525000D01*
X98340680Y-48525000D01*
X98327995Y-48529122D01*
X98325000Y-48533243D01*
X98325000Y-48786320D01*
X98071000Y-48786320D01*
X98071000Y-48403500D01*
X98089907Y-48345309D01*
X98139407Y-48309345D01*
X98170000Y-48304500D01*
X98461608Y-48304500D01*
X98509596Y-48298182D01*
X98548000Y-48280274D01*
X98589835Y-48271000D01*
X98734549Y-48271000D01*
X98765258Y-48261022D01*
X98785594Y-48246247D01*
X98846780Y-48246246D01*
X98896280Y-48282209D01*
X98901038Y-48289721D01*
X98902929Y-48294764D01*
X98989596Y-48410404D01*
X98995244Y-48414637D01*
X99007266Y-48423647D01*
X99105236Y-48497071D01*
X99240552Y-48547798D01*
X99302244Y-48554500D01*
X101097756Y-48554500D01*
X101159448Y-48547798D01*
X101294764Y-48497071D01*
X101392734Y-48423647D01*
X101404756Y-48414637D01*
X101410404Y-48410404D01*
X101497071Y-48294764D01*
X101547798Y-48159448D01*
X101554500Y-48097756D01*
X101554500Y-47731674D01*
X101573407Y-47673483D01*
X101622907Y-47637519D01*
X101684093Y-47637519D01*
X101723504Y-47661670D01*
X101866504Y-47804670D01*
X101894281Y-47859187D01*
X101895500Y-47874674D01*
X101895500Y-47915494D01*
X101906336Y-47989104D01*
X101909726Y-47996008D01*
X101909727Y-47996012D01*
X101937707Y-48052999D01*
X101961284Y-48101019D01*
X102049520Y-48189102D01*
X102161530Y-48243854D01*
X102214805Y-48251626D01*
X102230961Y-48253983D01*
X102230963Y-48253983D01*
X102234506Y-48254500D01*
X102865494Y-48254500D01*
X102939104Y-48243664D01*
X102946008Y-48240274D01*
X102946012Y-48240273D01*
X103032087Y-48198011D01*
X103051019Y-48188716D01*
X103069731Y-48169972D01*
X103131039Y-48108557D01*
X103185531Y-48080732D01*
X103201103Y-48079500D01*
X105150102Y-48079500D01*
X105210369Y-48099958D01*
X105241641Y-48123953D01*
X105315211Y-48180407D01*
X105315215Y-48180409D01*
X105320357Y-48184355D01*
X105455246Y-48240228D01*
X105600000Y-48259285D01*
X105744754Y-48240228D01*
X105879643Y-48184355D01*
X105884785Y-48180409D01*
X105884789Y-48180407D01*
X105990328Y-48099423D01*
X105990329Y-48099422D01*
X105995474Y-48095474D01*
X106084355Y-47979642D01*
X106140228Y-47844754D01*
X106159285Y-47700000D01*
X106158211Y-47691838D01*
X106149804Y-47627987D01*
X106140228Y-47555246D01*
X106131112Y-47533237D01*
X106086838Y-47426353D01*
X106084355Y-47420358D01*
X105995474Y-47304526D01*
X105990328Y-47300577D01*
X105884789Y-47219593D01*
X105884785Y-47219591D01*
X105879643Y-47215645D01*
X105744754Y-47159772D01*
X105600000Y-47140715D01*
X105455246Y-47159772D01*
X105320358Y-47215645D01*
X105211753Y-47298981D01*
X105210370Y-47300042D01*
X105150103Y-47320500D01*
X103201229Y-47320500D01*
X103143038Y-47301593D01*
X103131286Y-47291564D01*
X103122888Y-47283180D01*
X103050480Y-47210898D01*
X102938470Y-47156146D01*
X102885195Y-47148374D01*
X102869039Y-47146017D01*
X102869037Y-47146017D01*
X102865494Y-47145500D01*
X102321730Y-47145500D01*
X102263539Y-47126593D01*
X102251726Y-47116504D01*
X101552968Y-46417746D01*
X101539805Y-46401445D01*
X101533099Y-46391060D01*
X101505481Y-46369288D01*
X101499363Y-46363852D01*
X101497471Y-46362249D01*
X101494584Y-46359362D01*
X101478367Y-46347773D01*
X101474642Y-46344977D01*
X101474328Y-46344729D01*
X101470292Y-46341548D01*
X101436297Y-46290677D01*
X101438695Y-46229539D01*
X101452357Y-46204426D01*
X101468017Y-46183531D01*
X101497071Y-46144764D01*
X101547798Y-46009448D01*
X101554500Y-45947756D01*
X101554500Y-45102244D01*
X101547798Y-45040552D01*
X101497071Y-44905236D01*
X101410404Y-44789596D01*
X101399562Y-44781470D01*
X101349641Y-44744057D01*
X101294764Y-44702929D01*
X101179124Y-44659578D01*
X101165264Y-44654382D01*
X101165262Y-44654381D01*
X101159448Y-44652202D01*
X101158805Y-44652132D01*
X101108486Y-44621447D01*
X101084948Y-44564970D01*
X101099102Y-44505445D01*
X101139993Y-44468122D01*
X101193379Y-44441910D01*
X101206506Y-44432512D01*
X101282908Y-44355977D01*
X101292282Y-44342835D01*
X101339993Y-44245229D01*
X101344478Y-44230720D01*
X101353483Y-44168991D01*
X101354000Y-44161864D01*
X101354000Y-43992680D01*
X101349878Y-43979995D01*
X101345757Y-43977000D01*
X100261680Y-43977000D01*
X100248995Y-43981122D01*
X100246000Y-43985243D01*
X100246000Y-44161829D01*
X100246526Y-44169022D01*
X100255701Y-44231348D01*
X100260213Y-44245867D01*
X100308089Y-44343377D01*
X100317488Y-44356506D01*
X100394023Y-44432908D01*
X100407165Y-44442282D01*
X100438414Y-44457557D01*
X100482390Y-44500098D01*
X100492963Y-44560363D01*
X100466093Y-44615333D01*
X100412044Y-44644011D01*
X100394938Y-44645500D01*
X99806122Y-44645500D01*
X99747931Y-44626593D01*
X99711967Y-44577093D01*
X99711967Y-44515907D01*
X99747931Y-44466407D01*
X99762490Y-44457633D01*
X99773566Y-44452195D01*
X99801019Y-44438716D01*
X99889102Y-44350480D01*
X99943854Y-44238470D01*
X99954500Y-44165494D01*
X99954500Y-43707320D01*
X100246000Y-43707320D01*
X100250122Y-43720005D01*
X100254243Y-43723000D01*
X101338320Y-43723000D01*
X101351005Y-43718878D01*
X101354000Y-43714757D01*
X101354000Y-43538171D01*
X101353474Y-43530978D01*
X101344299Y-43468652D01*
X101339787Y-43454133D01*
X101291911Y-43356623D01*
X101282512Y-43343494D01*
X101205976Y-43267091D01*
X101192835Y-43257718D01*
X101095229Y-43210007D01*
X101080720Y-43205523D01*
X101028842Y-43197954D01*
X100973990Y-43170844D01*
X100945549Y-43116671D01*
X100954382Y-43056126D01*
X100997115Y-43012337D01*
X101028718Y-43002046D01*
X101081347Y-42994300D01*
X101095867Y-42989787D01*
X101193377Y-42941911D01*
X101206506Y-42932512D01*
X101282908Y-42855977D01*
X101292282Y-42842835D01*
X101339993Y-42745229D01*
X101344478Y-42730720D01*
X101353483Y-42668991D01*
X101354000Y-42661864D01*
X101354000Y-42492680D01*
X101349878Y-42479995D01*
X101345757Y-42477000D01*
X100261680Y-42477000D01*
X100248995Y-42481122D01*
X100246000Y-42485243D01*
X100246000Y-42661829D01*
X100246526Y-42669022D01*
X100255701Y-42731348D01*
X100260213Y-42745867D01*
X100308089Y-42843377D01*
X100317488Y-42856506D01*
X100394023Y-42932908D01*
X100407165Y-42942282D01*
X100504771Y-42989993D01*
X100519280Y-42994477D01*
X100571158Y-43002046D01*
X100626010Y-43029156D01*
X100654451Y-43083329D01*
X100645618Y-43143874D01*
X100602885Y-43187663D01*
X100571282Y-43197954D01*
X100518653Y-43205700D01*
X100504133Y-43210213D01*
X100406623Y-43258089D01*
X100393494Y-43267488D01*
X100317092Y-43344023D01*
X100307718Y-43357165D01*
X100260007Y-43454771D01*
X100255522Y-43469280D01*
X100246517Y-43531009D01*
X100246000Y-43538136D01*
X100246000Y-43707320D01*
X99954500Y-43707320D01*
X99954500Y-43534506D01*
X99943664Y-43460896D01*
X99940274Y-43453992D01*
X99940273Y-43453988D01*
X99895207Y-43362202D01*
X99888716Y-43348981D01*
X99834789Y-43295147D01*
X99808557Y-43268961D01*
X99780732Y-43214469D01*
X99779500Y-43198897D01*
X99779500Y-43001229D01*
X99798407Y-42943038D01*
X99808436Y-42931286D01*
X99814539Y-42925173D01*
X99889102Y-42850480D01*
X99943854Y-42738470D01*
X99954500Y-42665494D01*
X99954500Y-42207320D01*
X100246000Y-42207320D01*
X100250122Y-42220005D01*
X100254243Y-42223000D01*
X100657320Y-42223000D01*
X100670005Y-42218878D01*
X100673000Y-42214757D01*
X100673000Y-42207320D01*
X100927000Y-42207320D01*
X100931122Y-42220005D01*
X100935243Y-42223000D01*
X101338320Y-42223000D01*
X101351005Y-42218878D01*
X101354000Y-42214757D01*
X101354000Y-42038171D01*
X101353474Y-42030978D01*
X101344299Y-41968652D01*
X101339787Y-41954133D01*
X101291911Y-41856623D01*
X101282512Y-41843494D01*
X101205977Y-41767092D01*
X101192835Y-41757718D01*
X101095229Y-41710007D01*
X101080720Y-41705522D01*
X101018991Y-41696517D01*
X101011864Y-41696000D01*
X100942680Y-41696000D01*
X100929995Y-41700122D01*
X100927000Y-41704243D01*
X100927000Y-42207320D01*
X100673000Y-42207320D01*
X100673000Y-41711680D01*
X100668878Y-41698995D01*
X100664757Y-41696000D01*
X100588171Y-41696000D01*
X100580978Y-41696526D01*
X100518652Y-41705701D01*
X100504133Y-41710213D01*
X100406623Y-41758089D01*
X100393494Y-41767488D01*
X100317092Y-41844023D01*
X100307718Y-41857165D01*
X100260007Y-41954771D01*
X100255522Y-41969280D01*
X100246517Y-42031009D01*
X100246000Y-42038136D01*
X100246000Y-42207320D01*
X99954500Y-42207320D01*
X99954500Y-42034506D01*
X99943664Y-41960896D01*
X99940274Y-41953992D01*
X99940273Y-41953988D01*
X99892320Y-41856322D01*
X99888716Y-41848981D01*
X99800480Y-41760898D01*
X99688470Y-41706146D01*
X99635195Y-41698374D01*
X99619039Y-41696017D01*
X99619037Y-41696017D01*
X99615494Y-41695500D01*
X99184506Y-41695500D01*
X99110896Y-41706336D01*
X99103992Y-41709726D01*
X99103988Y-41709727D01*
X99034741Y-41743727D01*
X98998981Y-41761284D01*
X98910898Y-41849520D01*
X98856146Y-41961530D01*
X98848374Y-42014805D01*
X98846140Y-42030122D01*
X98845500Y-42034506D01*
X98845500Y-42665494D01*
X98856336Y-42739104D01*
X98859726Y-42746008D01*
X98859727Y-42746012D01*
X98886703Y-42800954D01*
X98911284Y-42851019D01*
X98917073Y-42856798D01*
X98991443Y-42931039D01*
X99019268Y-42985531D01*
X99020500Y-43001103D01*
X99020500Y-43198771D01*
X99001593Y-43256962D01*
X98991565Y-43268713D01*
X98910898Y-43349520D01*
X98894650Y-43382760D01*
X98877101Y-43418661D01*
X98834559Y-43462637D01*
X98804409Y-43472842D01*
X98798789Y-43473777D01*
X98794187Y-43474432D01*
X98781782Y-43475900D01*
X98742659Y-43480531D01*
X98735783Y-43483833D01*
X98732905Y-43484742D01*
X98725374Y-43485996D01*
X98696220Y-43501727D01*
X98679686Y-43510648D01*
X98675536Y-43512763D01*
X98628768Y-43535220D01*
X98624492Y-43538814D01*
X98622980Y-43540326D01*
X98622139Y-43541097D01*
X98620161Y-43542766D01*
X98614186Y-43545990D01*
X98585358Y-43577176D01*
X98577254Y-43585943D01*
X98574560Y-43588746D01*
X98320004Y-43843302D01*
X98265487Y-43871079D01*
X98205055Y-43861508D01*
X98179996Y-43843302D01*
X98054440Y-43717746D01*
X98041277Y-43701445D01*
X98034571Y-43691060D01*
X98010929Y-43672422D01*
X98006953Y-43669288D01*
X98000835Y-43663852D01*
X97998943Y-43662249D01*
X97996056Y-43659362D01*
X97979839Y-43647773D01*
X97976109Y-43644973D01*
X97941777Y-43617908D01*
X97941776Y-43617907D01*
X97935353Y-43612844D01*
X97928156Y-43610317D01*
X97925481Y-43608927D01*
X97919266Y-43604486D01*
X97869537Y-43589614D01*
X97865106Y-43588174D01*
X97822022Y-43573044D01*
X97822019Y-43573043D01*
X97816149Y-43570982D01*
X97810584Y-43570500D01*
X97808441Y-43570500D01*
X97807327Y-43570452D01*
X97804726Y-43570232D01*
X97798222Y-43568287D01*
X97790046Y-43568608D01*
X97790044Y-43568608D01*
X97743830Y-43570424D01*
X97739943Y-43570500D01*
X95651047Y-43570500D01*
X95630209Y-43568282D01*
X95626124Y-43567402D01*
X95626121Y-43567402D01*
X95618124Y-43565680D01*
X95583196Y-43569814D01*
X95575031Y-43570295D01*
X95572554Y-43570500D01*
X95568476Y-43570500D01*
X95556403Y-43572510D01*
X95548818Y-43573772D01*
X95544199Y-43574430D01*
X95520998Y-43577176D01*
X95492659Y-43580530D01*
X95485777Y-43583835D01*
X95482908Y-43584742D01*
X95475374Y-43585996D01*
X95429703Y-43610639D01*
X95425553Y-43612753D01*
X95378768Y-43635219D01*
X95374492Y-43638814D01*
X95372991Y-43640315D01*
X95372146Y-43641090D01*
X95370158Y-43642768D01*
X95364186Y-43645990D01*
X95331878Y-43680941D01*
X95327254Y-43685943D01*
X95324560Y-43688746D01*
X92867746Y-46145560D01*
X92851445Y-46158723D01*
X92841060Y-46165429D01*
X92835996Y-46171853D01*
X92819288Y-46193047D01*
X92813852Y-46199165D01*
X92812249Y-46201057D01*
X92809362Y-46203944D01*
X92799005Y-46218437D01*
X92797773Y-46220161D01*
X92794973Y-46223891D01*
X92772816Y-46251998D01*
X92762844Y-46264647D01*
X92760317Y-46271844D01*
X92758927Y-46274519D01*
X92754486Y-46280734D01*
X92740498Y-46327508D01*
X92739615Y-46330459D01*
X92738174Y-46334894D01*
X92728561Y-46362270D01*
X92720982Y-46383851D01*
X92720500Y-46389416D01*
X92720500Y-46391559D01*
X92720452Y-46392673D01*
X92720232Y-46395274D01*
X92718287Y-46401778D01*
X92718608Y-46409954D01*
X92718608Y-46409956D01*
X92720424Y-46456170D01*
X92720500Y-46460057D01*
X92720500Y-54315263D01*
X92700042Y-54375530D01*
X92669596Y-54415208D01*
X92669594Y-54415212D01*
X92665645Y-54420358D01*
X92663164Y-54426347D01*
X92663162Y-54426351D01*
X92634769Y-54494898D01*
X92609772Y-54555246D01*
X92590715Y-54700000D01*
X85254500Y-54700000D01*
X85254500Y-51667873D01*
X85663431Y-51667873D01*
X85675424Y-51737664D01*
X85678651Y-51748630D01*
X85742987Y-51899829D01*
X85748645Y-51909748D01*
X85846041Y-52042095D01*
X85853834Y-52050452D01*
X85979058Y-52156838D01*
X85988570Y-52163181D01*
X86134908Y-52237906D01*
X86145618Y-52241889D01*
X86306535Y-52281265D01*
X86315214Y-52282585D01*
X86320389Y-52282906D01*
X86323423Y-52283000D01*
X86761965Y-52283000D01*
X86774650Y-52278878D01*
X86777645Y-52274757D01*
X86777645Y-52267320D01*
X87031645Y-52267320D01*
X87035767Y-52280005D01*
X87039888Y-52283000D01*
X87445805Y-52283000D01*
X87451517Y-52282668D01*
X87573566Y-52268439D01*
X87584694Y-52265808D01*
X87739146Y-52209745D01*
X87749367Y-52204627D01*
X87886783Y-52114532D01*
X87895544Y-52107207D01*
X88008551Y-51987915D01*
X88015396Y-51978766D01*
X88097930Y-51836673D01*
X88102482Y-51826203D01*
X88150112Y-51668938D01*
X88150301Y-51667888D01*
X88149904Y-51666348D01*
X89791746Y-51666348D01*
X89794424Y-51691833D01*
X89796788Y-51702579D01*
X89849540Y-51857538D01*
X89854225Y-51867496D01*
X89940004Y-52006926D01*
X89946769Y-52015585D01*
X90061308Y-52132548D01*
X90069831Y-52139499D01*
X90207433Y-52228177D01*
X90217279Y-52233065D01*
X90300947Y-52263518D01*
X90349162Y-52301188D01*
X90366027Y-52360003D01*
X90345100Y-52417499D01*
X90304974Y-52448011D01*
X90299394Y-52450322D01*
X90299387Y-52450326D01*
X90293395Y-52452808D01*
X90172341Y-52545696D01*
X90079453Y-52666750D01*
X90021061Y-52807720D01*
X90001145Y-52959000D01*
X90021061Y-53110280D01*
X90079453Y-53251250D01*
X90172341Y-53372304D01*
X90293395Y-53465192D01*
X90434365Y-53523584D01*
X90547665Y-53538500D01*
X90623625Y-53538500D01*
X90736925Y-53523584D01*
X90877895Y-53465192D01*
X90998949Y-53372304D01*
X91091837Y-53251250D01*
X91150229Y-53110280D01*
X91170145Y-52959000D01*
X91150229Y-52807720D01*
X91091837Y-52666750D01*
X90998949Y-52545696D01*
X90945295Y-52504526D01*
X90913958Y-52480480D01*
X90879302Y-52430055D01*
X90880904Y-52368891D01*
X90918151Y-52320349D01*
X90943633Y-52307783D01*
X90955650Y-52303878D01*
X90958645Y-52299757D01*
X90958645Y-52292320D01*
X91212645Y-52292320D01*
X91216767Y-52305005D01*
X91220888Y-52308000D01*
X91651815Y-52308000D01*
X91657344Y-52307691D01*
X91778818Y-52294065D01*
X91789555Y-52291626D01*
X91944144Y-52237793D01*
X91954062Y-52233041D01*
X92092889Y-52146292D01*
X92101506Y-52139462D01*
X92217664Y-52024113D01*
X92224558Y-52015537D01*
X92312270Y-51877326D01*
X92317092Y-51867440D01*
X92372007Y-51713220D01*
X92374517Y-51702521D01*
X92378208Y-51671568D01*
X92375617Y-51658486D01*
X92374061Y-51657045D01*
X92369307Y-51656000D01*
X91228325Y-51656000D01*
X91215640Y-51660122D01*
X91212645Y-51664243D01*
X91212645Y-52292320D01*
X90958645Y-52292320D01*
X90958645Y-51671680D01*
X90954523Y-51658995D01*
X90950402Y-51656000D01*
X89806338Y-51656000D01*
X89793653Y-51660122D01*
X89792188Y-51662137D01*
X89791746Y-51666348D01*
X88149904Y-51666348D01*
X88147942Y-51658734D01*
X88145148Y-51656427D01*
X88142904Y-51656000D01*
X87047325Y-51656000D01*
X87034640Y-51660122D01*
X87031645Y-51664243D01*
X87031645Y-52267320D01*
X86777645Y-52267320D01*
X86777645Y-51671680D01*
X86773523Y-51658995D01*
X86769402Y-51656000D01*
X85677071Y-51656000D01*
X85664386Y-51660122D01*
X85663947Y-51660726D01*
X85663431Y-51667873D01*
X85254500Y-51667873D01*
X85254500Y-51390112D01*
X85658989Y-51390112D01*
X85661348Y-51399266D01*
X85664142Y-51401573D01*
X85666386Y-51402000D01*
X86761965Y-51402000D01*
X86774650Y-51397878D01*
X86777645Y-51393757D01*
X86777645Y-51386320D01*
X87031645Y-51386320D01*
X87035767Y-51399005D01*
X87039888Y-51402000D01*
X88132219Y-51402000D01*
X88144904Y-51397878D01*
X88145343Y-51397274D01*
X88145859Y-51390127D01*
X88145224Y-51386432D01*
X89793082Y-51386432D01*
X89795673Y-51399514D01*
X89797229Y-51400955D01*
X89801983Y-51402000D01*
X90942965Y-51402000D01*
X90955650Y-51397878D01*
X90958645Y-51393757D01*
X90958645Y-51386320D01*
X91212645Y-51386320D01*
X91216767Y-51399005D01*
X91220888Y-51402000D01*
X92364952Y-51402000D01*
X92377637Y-51397878D01*
X92379102Y-51395863D01*
X92379544Y-51391651D01*
X92376866Y-51366167D01*
X92374502Y-51355421D01*
X92321750Y-51200462D01*
X92317065Y-51190504D01*
X92231286Y-51051074D01*
X92224521Y-51042415D01*
X92109982Y-50925452D01*
X92101459Y-50918501D01*
X91963857Y-50829823D01*
X91954011Y-50824935D01*
X91800180Y-50768945D01*
X91789486Y-50766358D01*
X91663087Y-50750390D01*
X91656899Y-50750000D01*
X91228325Y-50750000D01*
X91215640Y-50754122D01*
X91212645Y-50758243D01*
X91212645Y-51386320D01*
X90958645Y-51386320D01*
X90958645Y-50765680D01*
X90954523Y-50752995D01*
X90950402Y-50750000D01*
X90519475Y-50750000D01*
X90513946Y-50750309D01*
X90392472Y-50763935D01*
X90381735Y-50766374D01*
X90227146Y-50820207D01*
X90217228Y-50824959D01*
X90078401Y-50911708D01*
X90069784Y-50918538D01*
X89953626Y-51033887D01*
X89946732Y-51042463D01*
X89859020Y-51180674D01*
X89854198Y-51190560D01*
X89799283Y-51344780D01*
X89796773Y-51355479D01*
X89793082Y-51386432D01*
X88145224Y-51386432D01*
X88133866Y-51320336D01*
X88130639Y-51309370D01*
X88066303Y-51158171D01*
X88060645Y-51148252D01*
X87963249Y-51015905D01*
X87955456Y-51007548D01*
X87830232Y-50901162D01*
X87820720Y-50894819D01*
X87674382Y-50820094D01*
X87663672Y-50816111D01*
X87502755Y-50776735D01*
X87494076Y-50775415D01*
X87488901Y-50775094D01*
X87485867Y-50775000D01*
X87047325Y-50775000D01*
X87034640Y-50779122D01*
X87031645Y-50783243D01*
X87031645Y-51386320D01*
X86777645Y-51386320D01*
X86777645Y-50790680D01*
X86773523Y-50777995D01*
X86769402Y-50775000D01*
X86363485Y-50775000D01*
X86357773Y-50775332D01*
X86235724Y-50789561D01*
X86224596Y-50792192D01*
X86070144Y-50848255D01*
X86059923Y-50853373D01*
X85922507Y-50943468D01*
X85913746Y-50950793D01*
X85800739Y-51070085D01*
X85793894Y-51079234D01*
X85711360Y-51221327D01*
X85706808Y-51231797D01*
X85659178Y-51389062D01*
X85658989Y-51390112D01*
X85254500Y-51390112D01*
X85254500Y-46003000D01*
X85273407Y-45944809D01*
X85322907Y-45908845D01*
X85353500Y-45904000D01*
X86107320Y-45904000D01*
X86120005Y-45899878D01*
X86123000Y-45895757D01*
X86123000Y-45888319D01*
X86377000Y-45888319D01*
X86381122Y-45901004D01*
X86385243Y-45903999D01*
X87170156Y-45903999D01*
X87179783Y-45903051D01*
X87239541Y-45891165D01*
X87257214Y-45883845D01*
X87325014Y-45838543D01*
X87338543Y-45825014D01*
X87383846Y-45757212D01*
X87391165Y-45739544D01*
X87403052Y-45679781D01*
X87404000Y-45670159D01*
X87404000Y-45192680D01*
X87399878Y-45179995D01*
X87395757Y-45177000D01*
X86392680Y-45177000D01*
X86379995Y-45181122D01*
X86377000Y-45185243D01*
X86377000Y-45888319D01*
X86123000Y-45888319D01*
X86123000Y-44907320D01*
X86377000Y-44907320D01*
X86381122Y-44920005D01*
X86385243Y-44923000D01*
X87388319Y-44923000D01*
X87401004Y-44918878D01*
X87403999Y-44914757D01*
X87403999Y-44429844D01*
X87403051Y-44420217D01*
X87391165Y-44360459D01*
X87383845Y-44342786D01*
X87338543Y-44274986D01*
X87325014Y-44261457D01*
X87257212Y-44216154D01*
X87239544Y-44208835D01*
X87179781Y-44196948D01*
X87170159Y-44196000D01*
X86392680Y-44196000D01*
X86379995Y-44200122D01*
X86377000Y-44204243D01*
X86377000Y-44907320D01*
X86123000Y-44907320D01*
X86123000Y-44211681D01*
X86118878Y-44198996D01*
X86114757Y-44196001D01*
X85353500Y-44196001D01*
X85295309Y-44177094D01*
X85259345Y-44127594D01*
X85254500Y-44097001D01*
X85254500Y-43424933D01*
X89095500Y-43424933D01*
X89095501Y-44075066D01*
X89096449Y-44079832D01*
X89096449Y-44079833D01*
X89097378Y-44084504D01*
X89110266Y-44149301D01*
X89166516Y-44233484D01*
X89250699Y-44289734D01*
X89260262Y-44291636D01*
X89260264Y-44291637D01*
X89291181Y-44297786D01*
X89324933Y-44304500D01*
X90124835Y-44304500D01*
X90925066Y-44304499D01*
X90929832Y-44303551D01*
X90929833Y-44303551D01*
X90989738Y-44291636D01*
X90999301Y-44289734D01*
X91083484Y-44233484D01*
X91098016Y-44211735D01*
X91123566Y-44173498D01*
X91171616Y-44135619D01*
X91205881Y-44129500D01*
X91300102Y-44129500D01*
X91360369Y-44149958D01*
X91380616Y-44165494D01*
X91465211Y-44230407D01*
X91465215Y-44230409D01*
X91470357Y-44234355D01*
X91605246Y-44290228D01*
X91750000Y-44309285D01*
X91894754Y-44290228D01*
X92029643Y-44234355D01*
X92034785Y-44230409D01*
X92034789Y-44230407D01*
X92140328Y-44149423D01*
X92140329Y-44149422D01*
X92145474Y-44145474D01*
X92234355Y-44029642D01*
X92280601Y-43917995D01*
X92287744Y-43900751D01*
X92290228Y-43894754D01*
X92309285Y-43750000D01*
X92290228Y-43605246D01*
X92283157Y-43588174D01*
X92251044Y-43510648D01*
X92234355Y-43470358D01*
X92145474Y-43354526D01*
X92146543Y-43353706D01*
X92121973Y-43305484D01*
X92131544Y-43245052D01*
X92159487Y-43211455D01*
X92240325Y-43149426D01*
X92240329Y-43149422D01*
X92245474Y-43145474D01*
X92334355Y-43029642D01*
X92380819Y-42917468D01*
X92387744Y-42900751D01*
X92390228Y-42894754D01*
X92409285Y-42750000D01*
X92390228Y-42605246D01*
X92334355Y-42470358D01*
X92245474Y-42354526D01*
X92240328Y-42350577D01*
X92134789Y-42269593D01*
X92134785Y-42269591D01*
X92129643Y-42265645D01*
X91994754Y-42209772D01*
X91850000Y-42190715D01*
X91705246Y-42209772D01*
X91570358Y-42265645D01*
X91460584Y-42349878D01*
X91460370Y-42350042D01*
X91400103Y-42370500D01*
X91205881Y-42370500D01*
X91147690Y-42351593D01*
X91123566Y-42326502D01*
X91088903Y-42274626D01*
X91083484Y-42266516D01*
X90999301Y-42210266D01*
X90989738Y-42208364D01*
X90989736Y-42208363D01*
X90958819Y-42202214D01*
X90925067Y-42195500D01*
X90125165Y-42195500D01*
X89324934Y-42195501D01*
X89320168Y-42196449D01*
X89320167Y-42196449D01*
X89273116Y-42205807D01*
X89250699Y-42210266D01*
X89166516Y-42266516D01*
X89110266Y-42350699D01*
X89095500Y-42424933D01*
X89095501Y-43075066D01*
X89096449Y-43079832D01*
X89096449Y-43079833D01*
X89104814Y-43121889D01*
X89110266Y-43149301D01*
X89115683Y-43157408D01*
X89140800Y-43194998D01*
X89157409Y-43253886D01*
X89140800Y-43305002D01*
X89110266Y-43350699D01*
X89108364Y-43360262D01*
X89108363Y-43360264D01*
X89104720Y-43378582D01*
X89095500Y-43424933D01*
X85254500Y-43424933D01*
X85254500Y-42403000D01*
X85273407Y-42344809D01*
X85322907Y-42308845D01*
X85353500Y-42304000D01*
X86107320Y-42304000D01*
X86120005Y-42299878D01*
X86123000Y-42295757D01*
X86123000Y-42288319D01*
X86377000Y-42288319D01*
X86381122Y-42301004D01*
X86385243Y-42303999D01*
X87170156Y-42303999D01*
X87179783Y-42303051D01*
X87239541Y-42291165D01*
X87257214Y-42283845D01*
X87325014Y-42238543D01*
X87338543Y-42225014D01*
X87383846Y-42157212D01*
X87391165Y-42139544D01*
X87403052Y-42079781D01*
X87404000Y-42070159D01*
X87404000Y-41592680D01*
X87399878Y-41579995D01*
X87395757Y-41577000D01*
X86392680Y-41577000D01*
X86379995Y-41581122D01*
X86377000Y-41585243D01*
X86377000Y-42288319D01*
X86123000Y-42288319D01*
X86123000Y-41422000D01*
X86141907Y-41363809D01*
X86191407Y-41327845D01*
X86222000Y-41323000D01*
X87388319Y-41323000D01*
X87401004Y-41318878D01*
X87403999Y-41314757D01*
X87403999Y-40853500D01*
X87422906Y-40795309D01*
X87472406Y-40759345D01*
X87502999Y-40754500D01*
X94070379Y-40754500D01*
X94128570Y-40773407D01*
G37*
%TD.AperFunction*%
%TA.AperFunction,Conductor*%
G36*
X97794945Y-45055312D02*
G01*
X97820004Y-45073518D01*
X97848265Y-45101779D01*
X97874753Y-45115275D01*
X97918018Y-45158538D01*
X97927591Y-45218970D01*
X97899814Y-45273487D01*
X97844228Y-45301429D01*
X97827563Y-45303882D01*
X97810896Y-45306336D01*
X97803992Y-45309726D01*
X97803988Y-45309727D01*
X97761087Y-45330791D01*
X97698981Y-45361284D01*
X97693202Y-45367073D01*
X97685084Y-45375205D01*
X97610898Y-45449520D01*
X97556146Y-45561530D01*
X97549279Y-45608599D01*
X97546265Y-45629265D01*
X97545500Y-45634506D01*
X97545500Y-46265494D01*
X97556336Y-46339104D01*
X97559726Y-46346008D01*
X97559727Y-46346012D01*
X97587803Y-46403195D01*
X97611284Y-46451019D01*
X97699520Y-46539102D01*
X97764978Y-46571099D01*
X97808952Y-46613640D01*
X97820500Y-46660041D01*
X97820500Y-46973631D01*
X97801593Y-47031822D01*
X97783110Y-47049984D01*
X97781091Y-47050926D01*
X97698926Y-47133091D01*
X97695266Y-47140940D01*
X97653214Y-47231122D01*
X97649818Y-47238404D01*
X97643500Y-47286392D01*
X97643500Y-47513608D01*
X97649818Y-47561596D01*
X97653017Y-47568457D01*
X97653019Y-47568463D01*
X97659837Y-47583085D01*
X97667293Y-47643814D01*
X97640116Y-47694925D01*
X97530372Y-47804670D01*
X97423504Y-47911538D01*
X97368987Y-47939316D01*
X97308555Y-47929745D01*
X97265290Y-47886480D01*
X97254500Y-47841535D01*
X97254500Y-47786392D01*
X97248182Y-47738404D01*
X97244983Y-47731544D01*
X97244982Y-47731540D01*
X97226469Y-47691838D01*
X97219013Y-47631109D01*
X97226469Y-47608162D01*
X97244982Y-47568460D01*
X97244983Y-47568456D01*
X97248182Y-47561596D01*
X97254500Y-47513608D01*
X97254500Y-47286392D01*
X97248182Y-47238404D01*
X97244787Y-47231122D01*
X97202734Y-47140940D01*
X97199074Y-47133091D01*
X97116909Y-47050926D01*
X97075940Y-47031822D01*
X97018457Y-47005017D01*
X97018455Y-47005016D01*
X97011596Y-47001818D01*
X96963608Y-46995500D01*
X96436392Y-46995500D01*
X96388404Y-47001818D01*
X96381545Y-47005016D01*
X96381543Y-47005017D01*
X96324060Y-47031822D01*
X96283091Y-47050926D01*
X96276968Y-47057049D01*
X96269870Y-47062019D01*
X96269034Y-47060824D01*
X96222996Y-47084281D01*
X96207509Y-47085500D01*
X95491609Y-47085500D01*
X95433418Y-47066593D01*
X95411190Y-47040568D01*
X95409895Y-47041509D01*
X95405315Y-47035204D01*
X95401779Y-47028265D01*
X95311735Y-46938221D01*
X95283555Y-46923863D01*
X95240290Y-46880598D01*
X95229500Y-46835653D01*
X95229500Y-46261829D01*
X96146000Y-46261829D01*
X96146526Y-46269022D01*
X96155701Y-46331348D01*
X96160213Y-46345867D01*
X96208089Y-46443377D01*
X96217488Y-46456506D01*
X96294023Y-46532908D01*
X96307165Y-46542282D01*
X96404771Y-46589993D01*
X96419280Y-46594478D01*
X96481009Y-46603483D01*
X96488136Y-46604000D01*
X96557320Y-46604000D01*
X96570005Y-46599878D01*
X96573000Y-46595757D01*
X96573000Y-46588320D01*
X96827000Y-46588320D01*
X96831122Y-46601005D01*
X96835243Y-46604000D01*
X96911829Y-46604000D01*
X96919022Y-46603474D01*
X96981348Y-46594299D01*
X96995867Y-46589787D01*
X97093377Y-46541911D01*
X97106506Y-46532512D01*
X97182908Y-46455977D01*
X97192282Y-46442835D01*
X97239993Y-46345229D01*
X97244478Y-46330720D01*
X97253483Y-46268991D01*
X97254000Y-46261864D01*
X97254000Y-46092680D01*
X97249878Y-46079995D01*
X97245757Y-46077000D01*
X96842680Y-46077000D01*
X96829995Y-46081122D01*
X96827000Y-46085243D01*
X96827000Y-46588320D01*
X96573000Y-46588320D01*
X96573000Y-46092680D01*
X96568878Y-46079995D01*
X96564757Y-46077000D01*
X96161680Y-46077000D01*
X96148995Y-46081122D01*
X96146000Y-46085243D01*
X96146000Y-46261829D01*
X95229500Y-46261829D01*
X95229500Y-45927491D01*
X95248407Y-45869300D01*
X95258496Y-45857487D01*
X95907487Y-45208496D01*
X95962004Y-45180719D01*
X95977491Y-45179500D01*
X96247724Y-45179500D01*
X96305915Y-45198407D01*
X96341879Y-45247907D01*
X96341879Y-45309093D01*
X96305353Y-45358998D01*
X96293494Y-45367488D01*
X96217092Y-45444023D01*
X96207718Y-45457165D01*
X96160007Y-45554771D01*
X96155522Y-45569280D01*
X96146517Y-45631009D01*
X96146000Y-45638136D01*
X96146000Y-45807320D01*
X96150122Y-45820005D01*
X96154243Y-45823000D01*
X97238320Y-45823000D01*
X97251005Y-45818878D01*
X97254000Y-45814757D01*
X97254000Y-45638171D01*
X97253474Y-45630978D01*
X97244299Y-45568652D01*
X97239787Y-45554133D01*
X97191911Y-45456623D01*
X97182512Y-45443494D01*
X97105976Y-45367091D01*
X97094768Y-45359096D01*
X97058374Y-45309912D01*
X97057842Y-45248729D01*
X97093373Y-45198917D01*
X97152259Y-45179500D01*
X97293827Y-45179500D01*
X97313658Y-45176003D01*
X97330850Y-45174499D01*
X97444136Y-45174499D01*
X97447979Y-45173890D01*
X97447984Y-45173890D01*
X97530579Y-45160809D01*
X97530582Y-45160808D01*
X97538273Y-45159590D01*
X97595004Y-45130685D01*
X97644796Y-45105315D01*
X97644798Y-45105313D01*
X97651735Y-45101779D01*
X97679996Y-45073518D01*
X97734513Y-45045741D01*
X97794945Y-45055312D01*
G37*
%TD.AperFunction*%
%TD*%
%TA.AperFunction,Conductor*%
%TO.N,C_out*%
G36*
X161518228Y-40773407D02*
G01*
X161554192Y-40822907D01*
X161559023Y-40851816D01*
X161618380Y-44341165D01*
X161647987Y-46081628D01*
X161648273Y-46098466D01*
X161630358Y-46156970D01*
X161581477Y-46193771D01*
X161548457Y-46199147D01*
X155798168Y-46150825D01*
X155740138Y-46131429D01*
X155704592Y-46081628D01*
X155700000Y-46051828D01*
X155700000Y-44120156D01*
X158746001Y-44120156D01*
X158746949Y-44129783D01*
X158758835Y-44189541D01*
X158766155Y-44207214D01*
X158811457Y-44275014D01*
X158824986Y-44288543D01*
X158892788Y-44333846D01*
X158910456Y-44341165D01*
X158970219Y-44353052D01*
X158979841Y-44354000D01*
X159632320Y-44354000D01*
X159645005Y-44349878D01*
X159648000Y-44345757D01*
X159648000Y-44338319D01*
X159902000Y-44338319D01*
X159906122Y-44351004D01*
X159910243Y-44353999D01*
X160570156Y-44353999D01*
X160579783Y-44353051D01*
X160639541Y-44341165D01*
X160657214Y-44333845D01*
X160725014Y-44288543D01*
X160738543Y-44275014D01*
X160783846Y-44207212D01*
X160791165Y-44189544D01*
X160803052Y-44129781D01*
X160804000Y-44120159D01*
X160804000Y-43942680D01*
X160799878Y-43929995D01*
X160795757Y-43927000D01*
X159917680Y-43927000D01*
X159904995Y-43931122D01*
X159902000Y-43935243D01*
X159902000Y-44338319D01*
X159648000Y-44338319D01*
X159648000Y-43942680D01*
X159643878Y-43929995D01*
X159639757Y-43927000D01*
X158761681Y-43927000D01*
X158748996Y-43931122D01*
X158746001Y-43935243D01*
X158746001Y-44120156D01*
X155700000Y-44120156D01*
X155700000Y-43657320D01*
X158746000Y-43657320D01*
X158750122Y-43670005D01*
X158754243Y-43673000D01*
X159632320Y-43673000D01*
X159645005Y-43668878D01*
X159648000Y-43664757D01*
X159648000Y-43657320D01*
X159902000Y-43657320D01*
X159906122Y-43670005D01*
X159910243Y-43673000D01*
X160788319Y-43673000D01*
X160801004Y-43668878D01*
X160803999Y-43664757D01*
X160803999Y-43479844D01*
X160803051Y-43470217D01*
X160791165Y-43410459D01*
X160783845Y-43392785D01*
X160758599Y-43355002D01*
X160741990Y-43296114D01*
X160758599Y-43244998D01*
X160783846Y-43207214D01*
X160791165Y-43189544D01*
X160803052Y-43129781D01*
X160804000Y-43120159D01*
X160804000Y-42942680D01*
X160799878Y-42929995D01*
X160795757Y-42927000D01*
X159917680Y-42927000D01*
X159904995Y-42931122D01*
X159902000Y-42935243D01*
X159902000Y-43657320D01*
X159648000Y-43657320D01*
X159648000Y-42942680D01*
X159643878Y-42929995D01*
X159639757Y-42927000D01*
X158761681Y-42927000D01*
X158748996Y-42931122D01*
X158746001Y-42935243D01*
X158746001Y-43120156D01*
X158746949Y-43129783D01*
X158758835Y-43189541D01*
X158766155Y-43207215D01*
X158791401Y-43244998D01*
X158808010Y-43303886D01*
X158791401Y-43355002D01*
X158766154Y-43392786D01*
X158758835Y-43410456D01*
X158746948Y-43470219D01*
X158746000Y-43479841D01*
X158746000Y-43657320D01*
X155700000Y-43657320D01*
X155700000Y-42657320D01*
X158746000Y-42657320D01*
X158750122Y-42670005D01*
X158754243Y-42673000D01*
X159632320Y-42673000D01*
X159645005Y-42668878D01*
X159648000Y-42664757D01*
X159648000Y-42657320D01*
X159902000Y-42657320D01*
X159906122Y-42670005D01*
X159910243Y-42673000D01*
X160788319Y-42673000D01*
X160801004Y-42668878D01*
X160803999Y-42664757D01*
X160803999Y-42479844D01*
X160803051Y-42470217D01*
X160791165Y-42410459D01*
X160783845Y-42392786D01*
X160738543Y-42324986D01*
X160725014Y-42311457D01*
X160657212Y-42266154D01*
X160639544Y-42258835D01*
X160579781Y-42246948D01*
X160570159Y-42246000D01*
X159917680Y-42246000D01*
X159904995Y-42250122D01*
X159902000Y-42254243D01*
X159902000Y-42657320D01*
X159648000Y-42657320D01*
X159648000Y-42261681D01*
X159643878Y-42248996D01*
X159639757Y-42246001D01*
X158979844Y-42246001D01*
X158970217Y-42246949D01*
X158910459Y-42258835D01*
X158892786Y-42266155D01*
X158824986Y-42311457D01*
X158811457Y-42324986D01*
X158766154Y-42392788D01*
X158758835Y-42410456D01*
X158746948Y-42470219D01*
X158746000Y-42479841D01*
X158746000Y-42657320D01*
X155700000Y-42657320D01*
X155700000Y-41104913D01*
X155700487Y-41095107D01*
X155725512Y-40843694D01*
X155750090Y-40787662D01*
X155802909Y-40756778D01*
X155824025Y-40754500D01*
X161460037Y-40754500D01*
X161518228Y-40773407D01*
G37*
%TD.AperFunction*%
%TD*%
%TA.AperFunction,Conductor*%
%TO.N,FB*%
G36*
X150551498Y-41607417D02*
G01*
X150609593Y-41626617D01*
X150645307Y-41676297D01*
X150650000Y-41706416D01*
X150650000Y-42550983D01*
X150631093Y-42609174D01*
X150581593Y-42645138D01*
X150550983Y-42649983D01*
X149997760Y-42649889D01*
X149952832Y-42639099D01*
X149864214Y-42593946D01*
X149864211Y-42593945D01*
X149857273Y-42590410D01*
X149849579Y-42589191D01*
X149849578Y-42589191D01*
X149766983Y-42576109D01*
X149766981Y-42576109D01*
X149763137Y-42575500D01*
X149584024Y-42575500D01*
X149404864Y-42575501D01*
X149401021Y-42576110D01*
X149401016Y-42576110D01*
X149318421Y-42589191D01*
X149318418Y-42589192D01*
X149310727Y-42590410D01*
X149215442Y-42638959D01*
X149170484Y-42649748D01*
X149085611Y-42649734D01*
X149029436Y-42649724D01*
X148984510Y-42638934D01*
X148896217Y-42593947D01*
X148896211Y-42593945D01*
X148889273Y-42590410D01*
X148881579Y-42589191D01*
X148881578Y-42589191D01*
X148798983Y-42576109D01*
X148798981Y-42576109D01*
X148795137Y-42575500D01*
X148616024Y-42575500D01*
X148436864Y-42575501D01*
X148433021Y-42576110D01*
X148433016Y-42576110D01*
X148350421Y-42589191D01*
X148350418Y-42589192D01*
X148342727Y-42590410D01*
X148247767Y-42638794D01*
X148202806Y-42649584D01*
X143352660Y-42648759D01*
X143391508Y-52127644D01*
X143393635Y-52646594D01*
X143374966Y-52704862D01*
X143325614Y-52741028D01*
X143294636Y-52746000D01*
X143193680Y-52746000D01*
X143180995Y-52750122D01*
X143178000Y-52754243D01*
X143178000Y-53928000D01*
X143159093Y-53986191D01*
X143109593Y-54022155D01*
X143079000Y-54027000D01*
X142212681Y-54027000D01*
X142199996Y-54031122D01*
X142197001Y-54035243D01*
X142197001Y-54669530D01*
X142197220Y-54674176D01*
X142199305Y-54696238D01*
X142201870Y-54707932D01*
X142216033Y-54748263D01*
X142217474Y-54809432D01*
X142182686Y-54859765D01*
X142125049Y-54880035D01*
X141299877Y-54900235D01*
X141241242Y-54882758D01*
X141204077Y-54834153D01*
X141198456Y-54800931D01*
X141198810Y-54696238D01*
X141201258Y-53970464D01*
X141220361Y-53912338D01*
X141269982Y-53876542D01*
X141300257Y-53871799D01*
X141531656Y-53871799D01*
X141541283Y-53870851D01*
X141601041Y-53858965D01*
X141618714Y-53851645D01*
X141686514Y-53806343D01*
X141700043Y-53792814D01*
X141723759Y-53757320D01*
X142197000Y-53757320D01*
X142201122Y-53770005D01*
X142205243Y-53773000D01*
X142908320Y-53773000D01*
X142921005Y-53768878D01*
X142924000Y-53764757D01*
X142924000Y-52761681D01*
X142919878Y-52748996D01*
X142915757Y-52746001D01*
X142581470Y-52746001D01*
X142576824Y-52746220D01*
X142554762Y-52748305D01*
X142543069Y-52750870D01*
X142432606Y-52789662D01*
X142419673Y-52796509D01*
X142326606Y-52865249D01*
X142316249Y-52875606D01*
X142247509Y-52968673D01*
X142240662Y-52981606D01*
X142201872Y-53092064D01*
X142199304Y-53103766D01*
X142197218Y-53125830D01*
X142197000Y-53130466D01*
X142197000Y-53757320D01*
X141723759Y-53757320D01*
X141745346Y-53725012D01*
X141752665Y-53707344D01*
X141764552Y-53647581D01*
X141765500Y-53637959D01*
X141765500Y-53025480D01*
X141761378Y-53012795D01*
X141757257Y-53009800D01*
X141204500Y-53009800D01*
X141205357Y-52755800D01*
X141749819Y-52755800D01*
X141762504Y-52751678D01*
X141765499Y-52747557D01*
X141765499Y-52127644D01*
X141764551Y-52118017D01*
X141752665Y-52058259D01*
X141745345Y-52040586D01*
X141700043Y-51972786D01*
X141686514Y-51959257D01*
X141618712Y-51913954D01*
X141601044Y-51906635D01*
X141541281Y-51894748D01*
X141531659Y-51893800D01*
X141307599Y-51893800D01*
X141249408Y-51874893D01*
X141213444Y-51825393D01*
X141208600Y-51794466D01*
X141215313Y-49804865D01*
X141234416Y-49746738D01*
X141284037Y-49710942D01*
X141314312Y-49706199D01*
X141531656Y-49706199D01*
X141541283Y-49705251D01*
X141601041Y-49693365D01*
X141618714Y-49686045D01*
X141686514Y-49640743D01*
X141700043Y-49627214D01*
X141745346Y-49559412D01*
X141752665Y-49541744D01*
X141764552Y-49481981D01*
X141765500Y-49472359D01*
X141765500Y-48859880D01*
X141761378Y-48847195D01*
X141757257Y-48844200D01*
X141218554Y-48844200D01*
X141219411Y-48590200D01*
X141749819Y-48590200D01*
X141762504Y-48586078D01*
X141765499Y-48581957D01*
X141765499Y-47962044D01*
X141764551Y-47952417D01*
X141752665Y-47892659D01*
X141745345Y-47874986D01*
X141700043Y-47807186D01*
X141686514Y-47793657D01*
X141618712Y-47748354D01*
X141601044Y-47741035D01*
X141541281Y-47729148D01*
X141531659Y-47728200D01*
X141321654Y-47728200D01*
X141263463Y-47709293D01*
X141227499Y-47659793D01*
X141222655Y-47628866D01*
X141239430Y-42656954D01*
X141242794Y-41659776D01*
X141261897Y-41601650D01*
X141311518Y-41565854D01*
X141342291Y-41561112D01*
X150551498Y-41607417D01*
G37*
%TD.AperFunction*%
%TD*%
M02*
